G04 #@! TF.GenerationSoftware,KiCad,Pcbnew,5.1.5+dfsg1-2build2*
G04 #@! TF.CreationDate,2021-01-10T12:40:40-08:00*
G04 #@! TF.ProjectId,board,626f6172-642e-46b6-9963-61645f706362,rev?*
G04 #@! TF.SameCoordinates,Original*
G04 #@! TF.FileFunction,Soldermask,Top*
G04 #@! TF.FilePolarity,Negative*
%FSLAX46Y46*%
G04 Gerber Fmt 4.6, Leading zero omitted, Abs format (unit mm)*
G04 Created by KiCad (PCBNEW 5.1.5+dfsg1-2build2) date 2021-01-10 12:40:40*
%MOMM*%
%LPD*%
G04 APERTURE LIST*
%ADD10C,0.100000*%
G04 APERTURE END LIST*
D10*
G36*
X111563500Y-80724200D02*
G01*
X109761500Y-80724200D01*
X109761500Y-78922200D01*
X111563500Y-78922200D01*
X111563500Y-80724200D01*
G37*
G36*
X169671212Y-78517027D02*
G01*
X169820512Y-78546724D01*
X169984484Y-78614644D01*
X170132054Y-78713247D01*
X170257553Y-78838746D01*
X170356156Y-78986316D01*
X170424076Y-79150288D01*
X170442794Y-79244393D01*
X170458700Y-79324358D01*
X170458700Y-79501842D01*
X170456022Y-79515307D01*
X170424076Y-79675912D01*
X170356156Y-79839884D01*
X170257553Y-79987454D01*
X170132054Y-80112953D01*
X169984484Y-80211556D01*
X169820512Y-80279476D01*
X169671212Y-80309173D01*
X169646442Y-80314100D01*
X169468958Y-80314100D01*
X169444188Y-80309173D01*
X169294888Y-80279476D01*
X169130916Y-80211556D01*
X168983346Y-80112953D01*
X168857847Y-79987454D01*
X168759244Y-79839884D01*
X168691324Y-79675912D01*
X168659378Y-79515307D01*
X168656700Y-79501842D01*
X168656700Y-79324358D01*
X168672606Y-79244393D01*
X168691324Y-79150288D01*
X168759244Y-78986316D01*
X168857847Y-78838746D01*
X168983346Y-78713247D01*
X169130916Y-78614644D01*
X169294888Y-78546724D01*
X169444188Y-78517027D01*
X169468958Y-78512100D01*
X169646442Y-78512100D01*
X169671212Y-78517027D01*
G37*
G36*
X114616591Y-79234085D02*
G01*
X114650569Y-79244393D01*
X114681890Y-79261134D01*
X114709339Y-79283661D01*
X114731866Y-79311110D01*
X114748607Y-79342431D01*
X114758915Y-79376409D01*
X114763000Y-79417890D01*
X114763000Y-80094110D01*
X114758915Y-80135591D01*
X114748607Y-80169569D01*
X114731866Y-80200890D01*
X114709339Y-80228339D01*
X114681890Y-80250866D01*
X114650569Y-80267607D01*
X114616591Y-80277915D01*
X114575110Y-80282000D01*
X113973890Y-80282000D01*
X113932409Y-80277915D01*
X113898431Y-80267607D01*
X113867110Y-80250866D01*
X113839661Y-80228339D01*
X113817134Y-80200890D01*
X113800393Y-80169569D01*
X113790085Y-80135591D01*
X113786000Y-80094110D01*
X113786000Y-79417890D01*
X113790085Y-79376409D01*
X113800393Y-79342431D01*
X113817134Y-79311110D01*
X113839661Y-79283661D01*
X113867110Y-79261134D01*
X113898431Y-79244393D01*
X113932409Y-79234085D01*
X113973890Y-79230000D01*
X114575110Y-79230000D01*
X114616591Y-79234085D01*
G37*
G36*
X116191591Y-79234085D02*
G01*
X116225569Y-79244393D01*
X116256890Y-79261134D01*
X116284339Y-79283661D01*
X116306866Y-79311110D01*
X116323607Y-79342431D01*
X116333915Y-79376409D01*
X116338000Y-79417890D01*
X116338000Y-80094110D01*
X116333915Y-80135591D01*
X116323607Y-80169569D01*
X116306866Y-80200890D01*
X116284339Y-80228339D01*
X116256890Y-80250866D01*
X116225569Y-80267607D01*
X116191591Y-80277915D01*
X116150110Y-80282000D01*
X115548890Y-80282000D01*
X115507409Y-80277915D01*
X115473431Y-80267607D01*
X115442110Y-80250866D01*
X115414661Y-80228339D01*
X115392134Y-80200890D01*
X115375393Y-80169569D01*
X115365085Y-80135591D01*
X115361000Y-80094110D01*
X115361000Y-79417890D01*
X115365085Y-79376409D01*
X115375393Y-79342431D01*
X115392134Y-79311110D01*
X115414661Y-79283661D01*
X115442110Y-79261134D01*
X115473431Y-79244393D01*
X115507409Y-79234085D01*
X115548890Y-79230000D01*
X116150110Y-79230000D01*
X116191591Y-79234085D01*
G37*
G36*
X154129591Y-78478085D02*
G01*
X154163569Y-78488393D01*
X154194890Y-78505134D01*
X154222339Y-78527661D01*
X154244866Y-78555110D01*
X154261607Y-78586431D01*
X154271915Y-78620409D01*
X154276000Y-78661890D01*
X154276000Y-79338110D01*
X154271915Y-79379591D01*
X154261607Y-79413569D01*
X154244866Y-79444890D01*
X154222339Y-79472339D01*
X154194890Y-79494866D01*
X154163569Y-79511607D01*
X154129591Y-79521915D01*
X154088110Y-79526000D01*
X153486890Y-79526000D01*
X153445409Y-79521915D01*
X153411431Y-79511607D01*
X153380110Y-79494866D01*
X153352661Y-79472339D01*
X153330134Y-79444890D01*
X153313393Y-79413569D01*
X153303085Y-79379591D01*
X153299000Y-79338110D01*
X153299000Y-78661890D01*
X153303085Y-78620409D01*
X153313393Y-78586431D01*
X153330134Y-78555110D01*
X153352661Y-78527661D01*
X153380110Y-78505134D01*
X153411431Y-78488393D01*
X153445409Y-78478085D01*
X153486890Y-78474000D01*
X154088110Y-78474000D01*
X154129591Y-78478085D01*
G37*
G36*
X152554591Y-78478085D02*
G01*
X152588569Y-78488393D01*
X152619890Y-78505134D01*
X152647339Y-78527661D01*
X152669866Y-78555110D01*
X152686607Y-78586431D01*
X152696915Y-78620409D01*
X152701000Y-78661890D01*
X152701000Y-79338110D01*
X152696915Y-79379591D01*
X152686607Y-79413569D01*
X152669866Y-79444890D01*
X152647339Y-79472339D01*
X152619890Y-79494866D01*
X152588569Y-79511607D01*
X152554591Y-79521915D01*
X152513110Y-79526000D01*
X151911890Y-79526000D01*
X151870409Y-79521915D01*
X151836431Y-79511607D01*
X151805110Y-79494866D01*
X151777661Y-79472339D01*
X151755134Y-79444890D01*
X151738393Y-79413569D01*
X151728085Y-79379591D01*
X151724000Y-79338110D01*
X151724000Y-78661890D01*
X151728085Y-78620409D01*
X151738393Y-78586431D01*
X151755134Y-78555110D01*
X151777661Y-78527661D01*
X151805110Y-78505134D01*
X151836431Y-78488393D01*
X151870409Y-78478085D01*
X151911890Y-78474000D01*
X152513110Y-78474000D01*
X152554591Y-78478085D01*
G37*
G36*
X155866191Y-78472085D02*
G01*
X155900169Y-78482393D01*
X155931490Y-78499134D01*
X155958939Y-78521661D01*
X155981466Y-78549110D01*
X155998207Y-78580431D01*
X156008515Y-78614409D01*
X156012600Y-78655890D01*
X156012600Y-79332110D01*
X156008515Y-79373591D01*
X155998207Y-79407569D01*
X155981466Y-79438890D01*
X155958939Y-79466339D01*
X155931490Y-79488866D01*
X155900169Y-79505607D01*
X155866191Y-79515915D01*
X155824710Y-79520000D01*
X155223490Y-79520000D01*
X155182009Y-79515915D01*
X155148031Y-79505607D01*
X155116710Y-79488866D01*
X155089261Y-79466339D01*
X155066734Y-79438890D01*
X155049993Y-79407569D01*
X155039685Y-79373591D01*
X155035600Y-79332110D01*
X155035600Y-78655890D01*
X155039685Y-78614409D01*
X155049993Y-78580431D01*
X155066734Y-78549110D01*
X155089261Y-78521661D01*
X155116710Y-78499134D01*
X155148031Y-78482393D01*
X155182009Y-78472085D01*
X155223490Y-78468000D01*
X155824710Y-78468000D01*
X155866191Y-78472085D01*
G37*
G36*
X157441191Y-78472085D02*
G01*
X157475169Y-78482393D01*
X157506490Y-78499134D01*
X157533939Y-78521661D01*
X157556466Y-78549110D01*
X157573207Y-78580431D01*
X157583515Y-78614409D01*
X157587600Y-78655890D01*
X157587600Y-79332110D01*
X157583515Y-79373591D01*
X157573207Y-79407569D01*
X157556466Y-79438890D01*
X157533939Y-79466339D01*
X157506490Y-79488866D01*
X157475169Y-79505607D01*
X157441191Y-79515915D01*
X157399710Y-79520000D01*
X156798490Y-79520000D01*
X156757009Y-79515915D01*
X156723031Y-79505607D01*
X156691710Y-79488866D01*
X156664261Y-79466339D01*
X156641734Y-79438890D01*
X156624993Y-79407569D01*
X156614685Y-79373591D01*
X156610600Y-79332110D01*
X156610600Y-78655890D01*
X156614685Y-78614409D01*
X156624993Y-78580431D01*
X156641734Y-78549110D01*
X156664261Y-78521661D01*
X156691710Y-78499134D01*
X156723031Y-78482393D01*
X156757009Y-78472085D01*
X156798490Y-78468000D01*
X157399710Y-78468000D01*
X157441191Y-78472085D01*
G37*
G36*
X110776012Y-76387127D02*
G01*
X110925312Y-76416824D01*
X111089284Y-76484744D01*
X111236854Y-76583347D01*
X111362353Y-76708846D01*
X111460956Y-76856416D01*
X111528876Y-77020388D01*
X111563500Y-77194459D01*
X111563500Y-77371941D01*
X111528876Y-77546012D01*
X111460956Y-77709984D01*
X111362353Y-77857554D01*
X111236854Y-77983053D01*
X111089284Y-78081656D01*
X110925312Y-78149576D01*
X110776012Y-78179273D01*
X110751242Y-78184200D01*
X110573758Y-78184200D01*
X110548988Y-78179273D01*
X110399688Y-78149576D01*
X110235716Y-78081656D01*
X110088146Y-77983053D01*
X109962647Y-77857554D01*
X109864044Y-77709984D01*
X109796124Y-77546012D01*
X109761500Y-77371941D01*
X109761500Y-77194459D01*
X109796124Y-77020388D01*
X109864044Y-76856416D01*
X109962647Y-76708846D01*
X110088146Y-76583347D01*
X110235716Y-76484744D01*
X110399688Y-76416824D01*
X110548988Y-76387127D01*
X110573758Y-76382200D01*
X110751242Y-76382200D01*
X110776012Y-76387127D01*
G37*
G36*
X169671212Y-75977027D02*
G01*
X169820512Y-76006724D01*
X169984484Y-76074644D01*
X170132054Y-76173247D01*
X170257553Y-76298746D01*
X170356156Y-76446316D01*
X170424076Y-76610288D01*
X170458700Y-76784359D01*
X170458700Y-76961841D01*
X170424076Y-77135912D01*
X170356156Y-77299884D01*
X170257553Y-77447454D01*
X170132054Y-77572953D01*
X169984484Y-77671556D01*
X169820512Y-77739476D01*
X169671212Y-77769173D01*
X169646442Y-77774100D01*
X169468958Y-77774100D01*
X169444188Y-77769173D01*
X169294888Y-77739476D01*
X169130916Y-77671556D01*
X168983346Y-77572953D01*
X168857847Y-77447454D01*
X168759244Y-77299884D01*
X168691324Y-77135912D01*
X168656700Y-76961841D01*
X168656700Y-76784359D01*
X168691324Y-76610288D01*
X168759244Y-76446316D01*
X168857847Y-76298746D01*
X168983346Y-76173247D01*
X169130916Y-76074644D01*
X169294888Y-76006724D01*
X169444188Y-75977027D01*
X169468958Y-75972100D01*
X169646442Y-75972100D01*
X169671212Y-75977027D01*
G37*
G36*
X114433491Y-76694085D02*
G01*
X114467469Y-76704393D01*
X114498790Y-76721134D01*
X114526239Y-76743661D01*
X114548766Y-76771110D01*
X114565507Y-76802431D01*
X114575815Y-76836409D01*
X114579900Y-76877890D01*
X114579900Y-77554110D01*
X114575815Y-77595591D01*
X114565507Y-77629569D01*
X114548766Y-77660890D01*
X114526239Y-77688339D01*
X114498790Y-77710866D01*
X114467469Y-77727607D01*
X114433491Y-77737915D01*
X114392010Y-77742000D01*
X113790790Y-77742000D01*
X113749309Y-77737915D01*
X113715331Y-77727607D01*
X113684010Y-77710866D01*
X113656561Y-77688339D01*
X113634034Y-77660890D01*
X113617293Y-77629569D01*
X113606985Y-77595591D01*
X113602900Y-77554110D01*
X113602900Y-76877890D01*
X113606985Y-76836409D01*
X113617293Y-76802431D01*
X113634034Y-76771110D01*
X113656561Y-76743661D01*
X113684010Y-76721134D01*
X113715331Y-76704393D01*
X113749309Y-76694085D01*
X113790790Y-76690000D01*
X114392010Y-76690000D01*
X114433491Y-76694085D01*
G37*
G36*
X116008491Y-76694085D02*
G01*
X116042469Y-76704393D01*
X116073790Y-76721134D01*
X116101239Y-76743661D01*
X116123766Y-76771110D01*
X116140507Y-76802431D01*
X116150815Y-76836409D01*
X116154900Y-76877890D01*
X116154900Y-77554110D01*
X116150815Y-77595591D01*
X116140507Y-77629569D01*
X116123766Y-77660890D01*
X116101239Y-77688339D01*
X116073790Y-77710866D01*
X116042469Y-77727607D01*
X116008491Y-77737915D01*
X115967010Y-77742000D01*
X115365790Y-77742000D01*
X115324309Y-77737915D01*
X115290331Y-77727607D01*
X115259010Y-77710866D01*
X115231561Y-77688339D01*
X115209034Y-77660890D01*
X115192293Y-77629569D01*
X115181985Y-77595591D01*
X115177900Y-77554110D01*
X115177900Y-76877890D01*
X115181985Y-76836409D01*
X115192293Y-76802431D01*
X115209034Y-76771110D01*
X115231561Y-76743661D01*
X115259010Y-76721134D01*
X115290331Y-76704393D01*
X115324309Y-76694085D01*
X115365790Y-76690000D01*
X115967010Y-76690000D01*
X116008491Y-76694085D01*
G37*
G36*
X165035591Y-76389285D02*
G01*
X165069569Y-76399593D01*
X165100890Y-76416334D01*
X165128339Y-76438861D01*
X165150866Y-76466310D01*
X165167607Y-76497631D01*
X165177915Y-76531609D01*
X165182000Y-76573090D01*
X165182000Y-77249310D01*
X165177915Y-77290791D01*
X165167607Y-77324769D01*
X165150866Y-77356090D01*
X165128339Y-77383539D01*
X165100890Y-77406066D01*
X165069569Y-77422807D01*
X165035591Y-77433115D01*
X164994110Y-77437200D01*
X164392890Y-77437200D01*
X164351409Y-77433115D01*
X164317431Y-77422807D01*
X164286110Y-77406066D01*
X164258661Y-77383539D01*
X164236134Y-77356090D01*
X164219393Y-77324769D01*
X164209085Y-77290791D01*
X164205000Y-77249310D01*
X164205000Y-76573090D01*
X164209085Y-76531609D01*
X164219393Y-76497631D01*
X164236134Y-76466310D01*
X164258661Y-76438861D01*
X164286110Y-76416334D01*
X164317431Y-76399593D01*
X164351409Y-76389285D01*
X164392890Y-76385200D01*
X164994110Y-76385200D01*
X165035591Y-76389285D01*
G37*
G36*
X166610591Y-76389285D02*
G01*
X166644569Y-76399593D01*
X166675890Y-76416334D01*
X166703339Y-76438861D01*
X166725866Y-76466310D01*
X166742607Y-76497631D01*
X166752915Y-76531609D01*
X166757000Y-76573090D01*
X166757000Y-77249310D01*
X166752915Y-77290791D01*
X166742607Y-77324769D01*
X166725866Y-77356090D01*
X166703339Y-77383539D01*
X166675890Y-77406066D01*
X166644569Y-77422807D01*
X166610591Y-77433115D01*
X166569110Y-77437200D01*
X165967890Y-77437200D01*
X165926409Y-77433115D01*
X165892431Y-77422807D01*
X165861110Y-77406066D01*
X165833661Y-77383539D01*
X165811134Y-77356090D01*
X165794393Y-77324769D01*
X165784085Y-77290791D01*
X165780000Y-77249310D01*
X165780000Y-76573090D01*
X165784085Y-76531609D01*
X165794393Y-76497631D01*
X165811134Y-76466310D01*
X165833661Y-76438861D01*
X165861110Y-76416334D01*
X165892431Y-76399593D01*
X165926409Y-76389285D01*
X165967890Y-76385200D01*
X166569110Y-76385200D01*
X166610591Y-76389285D01*
G37*
G36*
X137639005Y-74798055D02*
G01*
X137672983Y-74808363D01*
X137704304Y-74825104D01*
X137736518Y-74851542D01*
X137776369Y-74891393D01*
X137776375Y-74891398D01*
X138121796Y-75236819D01*
X138121801Y-75236825D01*
X138161652Y-75276676D01*
X138188090Y-75308890D01*
X138204831Y-75340211D01*
X138215139Y-75374189D01*
X138218619Y-75409530D01*
X138215139Y-75444871D01*
X138204831Y-75478849D01*
X138188090Y-75510170D01*
X138161652Y-75542384D01*
X138121801Y-75582235D01*
X138121796Y-75582241D01*
X137723341Y-75980696D01*
X137723335Y-75980701D01*
X137683484Y-76020552D01*
X137651270Y-76046990D01*
X137619949Y-76063731D01*
X137585971Y-76074039D01*
X137550630Y-76077519D01*
X137515289Y-76074039D01*
X137481311Y-76063731D01*
X137449990Y-76046990D01*
X137417776Y-76020552D01*
X137377925Y-75980701D01*
X137377919Y-75980696D01*
X137032498Y-75635275D01*
X137032493Y-75635269D01*
X136992642Y-75595418D01*
X136966204Y-75563204D01*
X136949463Y-75531883D01*
X136939155Y-75497905D01*
X136935675Y-75462564D01*
X136939155Y-75427223D01*
X136949463Y-75393245D01*
X136966204Y-75361924D01*
X136992642Y-75329710D01*
X137032493Y-75289859D01*
X137032498Y-75289853D01*
X137430953Y-74891398D01*
X137430959Y-74891393D01*
X137470810Y-74851542D01*
X137503024Y-74825104D01*
X137534345Y-74808363D01*
X137568323Y-74798055D01*
X137603664Y-74794575D01*
X137639005Y-74798055D01*
G37*
G36*
X169671212Y-73437027D02*
G01*
X169820512Y-73466724D01*
X169984484Y-73534644D01*
X170132054Y-73633247D01*
X170257553Y-73758746D01*
X170356156Y-73906316D01*
X170424076Y-74070288D01*
X170458700Y-74244359D01*
X170458700Y-74421841D01*
X170424076Y-74595912D01*
X170356156Y-74759884D01*
X170257553Y-74907454D01*
X170132054Y-75032953D01*
X169984484Y-75131556D01*
X169820512Y-75199476D01*
X169671212Y-75229173D01*
X169646442Y-75234100D01*
X169468958Y-75234100D01*
X169444188Y-75229173D01*
X169294888Y-75199476D01*
X169130916Y-75131556D01*
X168983346Y-75032953D01*
X168857847Y-74907454D01*
X168759244Y-74759884D01*
X168691324Y-74595912D01*
X168656700Y-74421841D01*
X168656700Y-74244359D01*
X168691324Y-74070288D01*
X168759244Y-73906316D01*
X168857847Y-73758746D01*
X168983346Y-73633247D01*
X169130916Y-73534644D01*
X169294888Y-73466724D01*
X169444188Y-73437027D01*
X169468958Y-73432100D01*
X169646442Y-73432100D01*
X169671212Y-73437027D01*
G37*
G36*
X136525311Y-73684361D02*
G01*
X136559289Y-73694669D01*
X136590610Y-73711410D01*
X136622824Y-73737848D01*
X136662675Y-73777699D01*
X136662681Y-73777704D01*
X137008102Y-74123125D01*
X137008107Y-74123131D01*
X137047958Y-74162982D01*
X137074396Y-74195196D01*
X137091137Y-74226517D01*
X137101445Y-74260495D01*
X137104925Y-74295836D01*
X137101445Y-74331177D01*
X137091137Y-74365155D01*
X137074396Y-74396476D01*
X137047958Y-74428690D01*
X137008107Y-74468541D01*
X137008102Y-74468547D01*
X136609647Y-74867002D01*
X136609641Y-74867007D01*
X136569790Y-74906858D01*
X136537576Y-74933296D01*
X136506255Y-74950037D01*
X136472277Y-74960345D01*
X136436936Y-74963825D01*
X136401595Y-74960345D01*
X136367617Y-74950037D01*
X136336296Y-74933296D01*
X136304082Y-74906858D01*
X136264231Y-74867007D01*
X136264225Y-74867002D01*
X135918804Y-74521581D01*
X135918799Y-74521575D01*
X135878948Y-74481724D01*
X135852510Y-74449510D01*
X135835769Y-74418189D01*
X135825461Y-74384211D01*
X135821981Y-74348870D01*
X135825461Y-74313529D01*
X135835769Y-74279551D01*
X135852510Y-74248230D01*
X135878948Y-74216016D01*
X135918799Y-74176165D01*
X135918804Y-74176159D01*
X136317259Y-73777704D01*
X136317265Y-73777699D01*
X136357116Y-73737848D01*
X136389330Y-73711410D01*
X136420651Y-73694669D01*
X136454629Y-73684361D01*
X136489970Y-73680881D01*
X136525311Y-73684361D01*
G37*
G36*
X166648691Y-73861985D02*
G01*
X166682669Y-73872293D01*
X166713990Y-73889034D01*
X166741439Y-73911561D01*
X166763966Y-73939010D01*
X166780707Y-73970331D01*
X166791015Y-74004309D01*
X166795100Y-74045790D01*
X166795100Y-74722010D01*
X166791015Y-74763491D01*
X166780707Y-74797469D01*
X166763966Y-74828790D01*
X166741439Y-74856239D01*
X166713990Y-74878766D01*
X166682669Y-74895507D01*
X166648691Y-74905815D01*
X166607210Y-74909900D01*
X166005990Y-74909900D01*
X165964509Y-74905815D01*
X165930531Y-74895507D01*
X165899210Y-74878766D01*
X165871761Y-74856239D01*
X165849234Y-74828790D01*
X165832493Y-74797469D01*
X165822185Y-74763491D01*
X165818100Y-74722010D01*
X165818100Y-74045790D01*
X165822185Y-74004309D01*
X165832493Y-73970331D01*
X165849234Y-73939010D01*
X165871761Y-73911561D01*
X165899210Y-73889034D01*
X165930531Y-73872293D01*
X165964509Y-73861985D01*
X166005990Y-73857900D01*
X166607210Y-73857900D01*
X166648691Y-73861985D01*
G37*
G36*
X165073691Y-73861985D02*
G01*
X165107669Y-73872293D01*
X165138990Y-73889034D01*
X165166439Y-73911561D01*
X165188966Y-73939010D01*
X165205707Y-73970331D01*
X165216015Y-74004309D01*
X165220100Y-74045790D01*
X165220100Y-74722010D01*
X165216015Y-74763491D01*
X165205707Y-74797469D01*
X165188966Y-74828790D01*
X165166439Y-74856239D01*
X165138990Y-74878766D01*
X165107669Y-74895507D01*
X165073691Y-74905815D01*
X165032210Y-74909900D01*
X164430990Y-74909900D01*
X164389509Y-74905815D01*
X164355531Y-74895507D01*
X164324210Y-74878766D01*
X164296761Y-74856239D01*
X164274234Y-74828790D01*
X164257493Y-74797469D01*
X164247185Y-74763491D01*
X164243100Y-74722010D01*
X164243100Y-74045790D01*
X164247185Y-74004309D01*
X164257493Y-73970331D01*
X164274234Y-73939010D01*
X164296761Y-73911561D01*
X164324210Y-73889034D01*
X164355531Y-73872293D01*
X164389509Y-73861985D01*
X164430990Y-73857900D01*
X165032210Y-73857900D01*
X165073691Y-73861985D01*
G37*
G36*
X144231977Y-72816855D02*
G01*
X144265955Y-72827163D01*
X144297276Y-72843904D01*
X144329490Y-72870342D01*
X144369341Y-72910193D01*
X144369347Y-72910198D01*
X144767802Y-73308653D01*
X144767807Y-73308659D01*
X144807658Y-73348510D01*
X144834096Y-73380724D01*
X144850837Y-73412045D01*
X144861145Y-73446023D01*
X144864625Y-73481364D01*
X144861145Y-73516705D01*
X144850837Y-73550683D01*
X144834096Y-73582004D01*
X144807658Y-73614218D01*
X144767807Y-73654069D01*
X144767802Y-73654075D01*
X144422381Y-73999496D01*
X144422375Y-73999501D01*
X144382524Y-74039352D01*
X144350310Y-74065790D01*
X144318989Y-74082531D01*
X144285011Y-74092839D01*
X144249670Y-74096319D01*
X144214329Y-74092839D01*
X144180351Y-74082531D01*
X144149030Y-74065790D01*
X144116816Y-74039352D01*
X144076965Y-73999501D01*
X144076959Y-73999496D01*
X143678504Y-73601041D01*
X143678499Y-73601035D01*
X143638648Y-73561184D01*
X143612210Y-73528970D01*
X143595469Y-73497649D01*
X143585161Y-73463671D01*
X143581681Y-73428330D01*
X143585161Y-73392989D01*
X143595469Y-73359011D01*
X143612210Y-73327690D01*
X143638648Y-73295476D01*
X143678499Y-73255625D01*
X143678504Y-73255619D01*
X144023925Y-72910198D01*
X144023931Y-72910193D01*
X144063782Y-72870342D01*
X144095996Y-72843904D01*
X144127317Y-72827163D01*
X144161295Y-72816855D01*
X144196636Y-72813375D01*
X144231977Y-72816855D01*
G37*
G36*
X149731591Y-72439085D02*
G01*
X149765569Y-72449393D01*
X149796890Y-72466134D01*
X149824339Y-72488661D01*
X149846866Y-72516110D01*
X149863607Y-72547431D01*
X149873915Y-72581409D01*
X149878000Y-72622890D01*
X149878000Y-73224110D01*
X149873915Y-73265591D01*
X149863607Y-73299569D01*
X149846866Y-73330890D01*
X149824339Y-73358339D01*
X149796890Y-73380866D01*
X149765569Y-73397607D01*
X149731591Y-73407915D01*
X149690110Y-73412000D01*
X149013890Y-73412000D01*
X148972409Y-73407915D01*
X148938431Y-73397607D01*
X148907110Y-73380866D01*
X148879661Y-73358339D01*
X148857134Y-73330890D01*
X148840393Y-73299569D01*
X148830085Y-73265591D01*
X148826000Y-73224110D01*
X148826000Y-72622890D01*
X148830085Y-72581409D01*
X148840393Y-72547431D01*
X148857134Y-72516110D01*
X148879661Y-72488661D01*
X148907110Y-72466134D01*
X148938431Y-72449393D01*
X148972409Y-72439085D01*
X149013890Y-72435000D01*
X149690110Y-72435000D01*
X149731591Y-72439085D01*
G37*
G36*
X140868139Y-63936026D02*
G01*
X140872813Y-63937444D01*
X140877115Y-63939743D01*
X140885654Y-63946751D01*
X141089815Y-64150912D01*
X141096823Y-64159451D01*
X141099122Y-64163753D01*
X141100540Y-64168427D01*
X141101348Y-64176630D01*
X141106129Y-64200663D01*
X141115507Y-64223302D01*
X141129121Y-64243676D01*
X141146449Y-64261002D01*
X141166823Y-64274616D01*
X141189462Y-64283992D01*
X141213490Y-64288772D01*
X141221692Y-64289580D01*
X141226366Y-64290998D01*
X141230668Y-64293297D01*
X141239207Y-64300305D01*
X141443368Y-64504466D01*
X141450376Y-64513005D01*
X141452675Y-64517307D01*
X141454093Y-64521981D01*
X141454901Y-64530183D01*
X141459682Y-64554217D01*
X141469060Y-64576855D01*
X141482675Y-64597229D01*
X141500002Y-64614556D01*
X141520377Y-64628169D01*
X141543016Y-64637546D01*
X141567043Y-64642325D01*
X141575246Y-64643133D01*
X141579920Y-64644551D01*
X141584222Y-64646850D01*
X141592761Y-64653858D01*
X141796922Y-64858019D01*
X141803930Y-64866558D01*
X141806229Y-64870860D01*
X141807647Y-64875534D01*
X141808455Y-64883736D01*
X141813236Y-64907770D01*
X141822614Y-64930408D01*
X141836229Y-64950782D01*
X141853556Y-64968109D01*
X141873931Y-64981722D01*
X141896570Y-64991099D01*
X141920597Y-64995878D01*
X141928799Y-64996686D01*
X141933473Y-64998104D01*
X141937775Y-65000403D01*
X141946314Y-65007411D01*
X142150475Y-65211572D01*
X142157483Y-65220111D01*
X142159782Y-65224413D01*
X142161200Y-65229087D01*
X142162008Y-65237290D01*
X142166789Y-65261323D01*
X142176167Y-65283962D01*
X142189781Y-65304336D01*
X142207109Y-65321662D01*
X142227483Y-65335276D01*
X142250122Y-65344652D01*
X142274150Y-65349432D01*
X142282352Y-65350240D01*
X142287026Y-65351658D01*
X142291328Y-65353957D01*
X142299867Y-65360965D01*
X142504028Y-65565126D01*
X142511036Y-65573665D01*
X142513335Y-65577967D01*
X142514753Y-65582641D01*
X142515561Y-65590843D01*
X142520342Y-65614877D01*
X142529720Y-65637515D01*
X142543335Y-65657889D01*
X142560662Y-65675216D01*
X142581037Y-65688829D01*
X142603676Y-65698206D01*
X142627703Y-65702985D01*
X142635906Y-65703793D01*
X142640580Y-65705211D01*
X142644882Y-65707510D01*
X142653421Y-65714518D01*
X142857582Y-65918679D01*
X142864590Y-65927218D01*
X142866889Y-65931520D01*
X142868307Y-65936194D01*
X142869115Y-65944397D01*
X142873896Y-65968430D01*
X142883274Y-65991069D01*
X142896888Y-66011443D01*
X142914216Y-66028769D01*
X142934590Y-66042383D01*
X142957229Y-66051759D01*
X142981257Y-66056539D01*
X142989459Y-66057347D01*
X142994133Y-66058765D01*
X142998435Y-66061064D01*
X143006974Y-66068072D01*
X143211135Y-66272233D01*
X143218143Y-66280772D01*
X143220442Y-66285074D01*
X143221860Y-66289748D01*
X143222668Y-66297950D01*
X143227449Y-66321984D01*
X143236827Y-66344622D01*
X143250442Y-66364996D01*
X143267769Y-66382323D01*
X143288144Y-66395936D01*
X143310783Y-66405313D01*
X143334810Y-66410092D01*
X143343013Y-66410900D01*
X143347687Y-66412318D01*
X143351989Y-66414617D01*
X143360528Y-66421625D01*
X143564689Y-66625786D01*
X143571697Y-66634325D01*
X143573996Y-66638627D01*
X143575414Y-66643301D01*
X143576222Y-66651503D01*
X143581003Y-66675537D01*
X143590381Y-66698175D01*
X143603996Y-66718549D01*
X143621323Y-66735876D01*
X143641698Y-66749489D01*
X143664337Y-66758866D01*
X143688364Y-66763645D01*
X143696566Y-66764453D01*
X143701240Y-66765871D01*
X143705542Y-66768170D01*
X143714081Y-66775178D01*
X143918242Y-66979339D01*
X143925250Y-66987878D01*
X143927549Y-66992180D01*
X143928967Y-66996854D01*
X143929775Y-67005057D01*
X143934556Y-67029090D01*
X143943934Y-67051729D01*
X143957548Y-67072103D01*
X143974876Y-67089429D01*
X143995250Y-67103043D01*
X144017889Y-67112419D01*
X144041917Y-67117199D01*
X144050119Y-67118007D01*
X144054793Y-67119425D01*
X144059095Y-67121724D01*
X144067634Y-67128732D01*
X144271795Y-67332893D01*
X144278803Y-67341432D01*
X144281102Y-67345734D01*
X144282520Y-67350408D01*
X144283328Y-67358610D01*
X144288109Y-67382644D01*
X144297487Y-67405282D01*
X144311102Y-67425656D01*
X144328429Y-67442983D01*
X144348804Y-67456596D01*
X144371443Y-67465973D01*
X144395470Y-67470752D01*
X144403673Y-67471560D01*
X144408347Y-67472978D01*
X144412649Y-67475277D01*
X144421188Y-67482285D01*
X144625349Y-67686446D01*
X144632357Y-67694985D01*
X144634656Y-67699287D01*
X144636074Y-67703961D01*
X144636552Y-67708816D01*
X144636074Y-67713671D01*
X144634656Y-67718345D01*
X144632357Y-67722647D01*
X144625349Y-67731186D01*
X143852223Y-68504312D01*
X143836678Y-68523254D01*
X143825127Y-68544865D01*
X143818014Y-68568314D01*
X143815612Y-68592700D01*
X143818014Y-68617086D01*
X143825127Y-68640535D01*
X143836678Y-68662146D01*
X143852223Y-68681088D01*
X144625349Y-69454214D01*
X144632357Y-69462753D01*
X144634656Y-69467055D01*
X144636074Y-69471729D01*
X144636552Y-69476584D01*
X144636074Y-69481439D01*
X144634656Y-69486113D01*
X144632357Y-69490415D01*
X144625349Y-69498954D01*
X144421188Y-69703115D01*
X144412649Y-69710123D01*
X144408347Y-69712422D01*
X144403673Y-69713840D01*
X144395470Y-69714648D01*
X144371437Y-69719429D01*
X144348798Y-69728807D01*
X144328424Y-69742421D01*
X144311098Y-69759749D01*
X144297484Y-69780123D01*
X144288108Y-69802762D01*
X144283328Y-69826790D01*
X144282520Y-69834992D01*
X144281102Y-69839666D01*
X144278803Y-69843968D01*
X144271795Y-69852507D01*
X144067634Y-70056668D01*
X144059095Y-70063676D01*
X144054793Y-70065975D01*
X144050119Y-70067393D01*
X144041917Y-70068201D01*
X144017883Y-70072982D01*
X143995245Y-70082360D01*
X143974871Y-70095975D01*
X143957544Y-70113302D01*
X143943931Y-70133677D01*
X143934554Y-70156316D01*
X143929775Y-70180343D01*
X143928967Y-70188546D01*
X143927549Y-70193220D01*
X143925250Y-70197522D01*
X143918242Y-70206061D01*
X143714081Y-70410222D01*
X143705542Y-70417230D01*
X143701240Y-70419529D01*
X143696566Y-70420947D01*
X143688364Y-70421755D01*
X143664330Y-70426536D01*
X143641692Y-70435914D01*
X143621318Y-70449529D01*
X143603991Y-70466856D01*
X143590378Y-70487231D01*
X143581001Y-70509870D01*
X143576222Y-70533897D01*
X143575414Y-70542099D01*
X143573996Y-70546773D01*
X143571697Y-70551075D01*
X143564689Y-70559614D01*
X143360528Y-70763775D01*
X143351989Y-70770783D01*
X143347687Y-70773082D01*
X143343013Y-70774500D01*
X143334810Y-70775308D01*
X143310777Y-70780089D01*
X143288138Y-70789467D01*
X143267764Y-70803081D01*
X143250438Y-70820409D01*
X143236824Y-70840783D01*
X143227448Y-70863422D01*
X143222668Y-70887450D01*
X143221860Y-70895652D01*
X143220442Y-70900326D01*
X143218143Y-70904628D01*
X143211135Y-70913167D01*
X143006974Y-71117328D01*
X142998435Y-71124336D01*
X142994133Y-71126635D01*
X142989459Y-71128053D01*
X142981257Y-71128861D01*
X142957223Y-71133642D01*
X142934585Y-71143020D01*
X142914211Y-71156635D01*
X142896884Y-71173962D01*
X142883271Y-71194337D01*
X142873894Y-71216976D01*
X142869115Y-71241003D01*
X142868307Y-71249206D01*
X142866889Y-71253880D01*
X142864590Y-71258182D01*
X142857582Y-71266721D01*
X142653421Y-71470882D01*
X142644882Y-71477890D01*
X142640580Y-71480189D01*
X142635906Y-71481607D01*
X142627703Y-71482415D01*
X142603670Y-71487196D01*
X142581031Y-71496574D01*
X142560657Y-71510188D01*
X142543331Y-71527516D01*
X142529717Y-71547890D01*
X142520341Y-71570529D01*
X142515561Y-71594557D01*
X142514753Y-71602759D01*
X142513335Y-71607433D01*
X142511036Y-71611735D01*
X142504028Y-71620274D01*
X142299867Y-71824435D01*
X142291328Y-71831443D01*
X142287026Y-71833742D01*
X142282352Y-71835160D01*
X142274150Y-71835968D01*
X142250116Y-71840749D01*
X142227478Y-71850127D01*
X142207104Y-71863742D01*
X142189777Y-71881069D01*
X142176164Y-71901444D01*
X142166787Y-71924083D01*
X142162008Y-71948110D01*
X142161200Y-71956313D01*
X142159782Y-71960987D01*
X142157483Y-71965289D01*
X142150475Y-71973828D01*
X141946314Y-72177989D01*
X141937775Y-72184997D01*
X141933473Y-72187296D01*
X141928799Y-72188714D01*
X141920597Y-72189522D01*
X141896563Y-72194303D01*
X141873925Y-72203681D01*
X141853551Y-72217296D01*
X141836224Y-72234623D01*
X141822611Y-72254998D01*
X141813234Y-72277637D01*
X141808455Y-72301664D01*
X141807647Y-72309866D01*
X141806229Y-72314540D01*
X141803930Y-72318842D01*
X141796922Y-72327381D01*
X141592763Y-72531540D01*
X141584222Y-72538550D01*
X141579920Y-72540849D01*
X141575246Y-72542267D01*
X141567043Y-72543075D01*
X141543010Y-72547856D01*
X141520371Y-72557234D01*
X141499997Y-72570848D01*
X141482671Y-72588176D01*
X141469057Y-72608550D01*
X141459681Y-72631189D01*
X141454901Y-72655217D01*
X141454093Y-72663419D01*
X141452675Y-72668093D01*
X141450376Y-72672395D01*
X141443368Y-72680934D01*
X141239207Y-72885095D01*
X141230668Y-72892103D01*
X141226366Y-72894402D01*
X141221692Y-72895820D01*
X141213490Y-72896628D01*
X141189456Y-72901409D01*
X141166818Y-72910787D01*
X141146444Y-72924402D01*
X141129117Y-72941729D01*
X141115504Y-72962104D01*
X141106127Y-72984743D01*
X141101348Y-73008770D01*
X141100540Y-73016973D01*
X141099122Y-73021647D01*
X141096823Y-73025949D01*
X141089815Y-73034488D01*
X140885654Y-73238649D01*
X140877115Y-73245657D01*
X140872813Y-73247956D01*
X140868139Y-73249374D01*
X140863284Y-73249852D01*
X140858429Y-73249374D01*
X140853755Y-73247956D01*
X140849453Y-73245657D01*
X140840914Y-73238649D01*
X140067788Y-72465523D01*
X140048846Y-72449978D01*
X140027235Y-72438427D01*
X140003786Y-72431314D01*
X139979400Y-72428912D01*
X139955014Y-72431314D01*
X139931565Y-72438427D01*
X139909954Y-72449978D01*
X139891012Y-72465523D01*
X139117886Y-73238649D01*
X139109347Y-73245657D01*
X139105045Y-73247956D01*
X139100371Y-73249374D01*
X139095516Y-73249852D01*
X139090661Y-73249374D01*
X139085987Y-73247956D01*
X139081685Y-73245657D01*
X139073146Y-73238649D01*
X138868985Y-73034488D01*
X138861977Y-73025949D01*
X138859678Y-73021647D01*
X138858260Y-73016973D01*
X138857452Y-73008770D01*
X138852671Y-72984737D01*
X138843293Y-72962098D01*
X138829679Y-72941724D01*
X138812351Y-72924398D01*
X138791977Y-72910784D01*
X138769338Y-72901408D01*
X138745310Y-72896628D01*
X138737108Y-72895820D01*
X138732434Y-72894402D01*
X138728132Y-72892103D01*
X138719593Y-72885095D01*
X138515432Y-72680934D01*
X138508424Y-72672395D01*
X138506125Y-72668093D01*
X138504707Y-72663419D01*
X138503899Y-72655217D01*
X138499118Y-72631183D01*
X138489740Y-72608545D01*
X138476125Y-72588171D01*
X138458798Y-72570844D01*
X138438423Y-72557231D01*
X138415784Y-72547854D01*
X138391757Y-72543075D01*
X138383554Y-72542267D01*
X138378880Y-72540849D01*
X138374578Y-72538550D01*
X138366037Y-72531540D01*
X138161878Y-72327381D01*
X138154870Y-72318842D01*
X138152571Y-72314540D01*
X138151153Y-72309866D01*
X138150345Y-72301664D01*
X138145564Y-72277630D01*
X138136186Y-72254992D01*
X138122571Y-72234618D01*
X138105244Y-72217291D01*
X138084869Y-72203678D01*
X138062230Y-72194301D01*
X138038203Y-72189522D01*
X138030001Y-72188714D01*
X138025327Y-72187296D01*
X138021025Y-72184997D01*
X138012486Y-72177989D01*
X137808325Y-71973828D01*
X137801317Y-71965289D01*
X137799018Y-71960987D01*
X137797600Y-71956313D01*
X137796792Y-71948110D01*
X137792011Y-71924077D01*
X137782633Y-71901438D01*
X137769019Y-71881064D01*
X137751691Y-71863738D01*
X137731317Y-71850124D01*
X137708678Y-71840748D01*
X137684650Y-71835968D01*
X137676448Y-71835160D01*
X137671774Y-71833742D01*
X137667472Y-71831443D01*
X137658933Y-71824435D01*
X137454772Y-71620274D01*
X137447764Y-71611735D01*
X137445465Y-71607433D01*
X137444047Y-71602759D01*
X137443239Y-71594557D01*
X137438458Y-71570523D01*
X137429080Y-71547885D01*
X137415465Y-71527511D01*
X137398138Y-71510184D01*
X137377763Y-71496571D01*
X137355124Y-71487194D01*
X137331097Y-71482415D01*
X137322894Y-71481607D01*
X137318220Y-71480189D01*
X137313918Y-71477890D01*
X137305379Y-71470882D01*
X137101218Y-71266721D01*
X137094210Y-71258182D01*
X137091911Y-71253880D01*
X137090493Y-71249206D01*
X137089685Y-71241003D01*
X137084904Y-71216970D01*
X137075526Y-71194331D01*
X137061912Y-71173957D01*
X137044584Y-71156631D01*
X137024210Y-71143017D01*
X137001571Y-71133641D01*
X136977543Y-71128861D01*
X136969341Y-71128053D01*
X136964667Y-71126635D01*
X136960365Y-71124336D01*
X136951826Y-71117328D01*
X136747665Y-70913167D01*
X136740657Y-70904628D01*
X136738358Y-70900326D01*
X136736940Y-70895652D01*
X136736132Y-70887450D01*
X136731351Y-70863416D01*
X136721973Y-70840778D01*
X136708358Y-70820404D01*
X136691031Y-70803077D01*
X136670656Y-70789464D01*
X136648017Y-70780087D01*
X136623990Y-70775308D01*
X136615787Y-70774500D01*
X136611113Y-70773082D01*
X136606811Y-70770783D01*
X136598272Y-70763775D01*
X136394111Y-70559614D01*
X136387103Y-70551075D01*
X136384804Y-70546773D01*
X136383386Y-70542099D01*
X136382578Y-70533897D01*
X136377797Y-70509863D01*
X136368419Y-70487225D01*
X136354804Y-70466851D01*
X136337477Y-70449524D01*
X136317102Y-70435911D01*
X136294463Y-70426534D01*
X136270436Y-70421755D01*
X136262234Y-70420947D01*
X136257560Y-70419529D01*
X136253258Y-70417230D01*
X136244719Y-70410222D01*
X136040558Y-70206061D01*
X136033550Y-70197522D01*
X136031251Y-70193220D01*
X136029833Y-70188546D01*
X136029025Y-70180343D01*
X136024244Y-70156310D01*
X136014866Y-70133671D01*
X136001252Y-70113297D01*
X135983924Y-70095971D01*
X135963550Y-70082357D01*
X135940911Y-70072981D01*
X135916883Y-70068201D01*
X135908681Y-70067393D01*
X135904007Y-70065975D01*
X135899705Y-70063676D01*
X135891166Y-70056668D01*
X135687005Y-69852507D01*
X135679997Y-69843968D01*
X135677698Y-69839666D01*
X135676280Y-69834992D01*
X135675472Y-69826790D01*
X135670691Y-69802756D01*
X135661313Y-69780118D01*
X135647698Y-69759744D01*
X135630371Y-69742417D01*
X135609996Y-69728804D01*
X135587357Y-69719427D01*
X135563330Y-69714648D01*
X135555127Y-69713840D01*
X135550453Y-69712422D01*
X135546151Y-69710123D01*
X135537612Y-69703115D01*
X135333451Y-69498954D01*
X135326443Y-69490415D01*
X135324144Y-69486113D01*
X135322726Y-69481439D01*
X135322248Y-69476584D01*
X135322726Y-69471729D01*
X135324144Y-69467055D01*
X135326443Y-69462753D01*
X135333451Y-69454214D01*
X136106577Y-68681088D01*
X136122122Y-68662146D01*
X136133673Y-68640535D01*
X136140786Y-68617086D01*
X136143188Y-68592700D01*
X136140786Y-68568314D01*
X136133673Y-68544865D01*
X136122122Y-68523254D01*
X136106577Y-68504312D01*
X135333451Y-67731186D01*
X135326443Y-67722647D01*
X135324144Y-67718345D01*
X135322726Y-67713671D01*
X135322248Y-67708816D01*
X135322726Y-67703961D01*
X135324144Y-67699287D01*
X135326443Y-67694985D01*
X135333451Y-67686446D01*
X135537612Y-67482285D01*
X135546151Y-67475277D01*
X135550453Y-67472978D01*
X135555127Y-67471560D01*
X135563330Y-67470752D01*
X135587363Y-67465971D01*
X135610002Y-67456593D01*
X135630376Y-67442979D01*
X135647702Y-67425651D01*
X135661316Y-67405277D01*
X135670692Y-67382638D01*
X135675472Y-67358610D01*
X135676280Y-67350408D01*
X135677698Y-67345734D01*
X135679997Y-67341432D01*
X135687005Y-67332893D01*
X135891166Y-67128732D01*
X135899705Y-67121724D01*
X135904007Y-67119425D01*
X135908681Y-67118007D01*
X135916883Y-67117199D01*
X135940917Y-67112418D01*
X135963555Y-67103040D01*
X135983929Y-67089425D01*
X136001256Y-67072098D01*
X136014869Y-67051723D01*
X136024246Y-67029084D01*
X136029025Y-67005057D01*
X136029833Y-66996854D01*
X136031251Y-66992180D01*
X136033550Y-66987878D01*
X136040558Y-66979339D01*
X136244719Y-66775178D01*
X136253258Y-66768170D01*
X136257560Y-66765871D01*
X136262234Y-66764453D01*
X136270436Y-66763645D01*
X136294470Y-66758864D01*
X136317108Y-66749486D01*
X136337482Y-66735871D01*
X136354809Y-66718544D01*
X136368422Y-66698169D01*
X136377799Y-66675530D01*
X136382578Y-66651503D01*
X136383386Y-66643301D01*
X136384804Y-66638627D01*
X136387103Y-66634325D01*
X136394111Y-66625786D01*
X136598272Y-66421625D01*
X136606811Y-66414617D01*
X136611113Y-66412318D01*
X136615787Y-66410900D01*
X136623990Y-66410092D01*
X136648023Y-66405311D01*
X136670662Y-66395933D01*
X136691036Y-66382319D01*
X136708362Y-66364991D01*
X136721976Y-66344617D01*
X136731352Y-66321978D01*
X136736132Y-66297950D01*
X136736940Y-66289748D01*
X136738358Y-66285074D01*
X136740657Y-66280772D01*
X136747665Y-66272233D01*
X136951826Y-66068072D01*
X136960365Y-66061064D01*
X136964667Y-66058765D01*
X136969341Y-66057347D01*
X136977543Y-66056539D01*
X137001577Y-66051758D01*
X137024215Y-66042380D01*
X137044589Y-66028765D01*
X137061916Y-66011438D01*
X137075529Y-65991063D01*
X137084906Y-65968424D01*
X137089685Y-65944397D01*
X137090493Y-65936194D01*
X137091911Y-65931520D01*
X137094210Y-65927218D01*
X137101218Y-65918679D01*
X137305379Y-65714518D01*
X137313918Y-65707510D01*
X137318220Y-65705211D01*
X137322894Y-65703793D01*
X137331097Y-65702985D01*
X137355130Y-65698204D01*
X137377769Y-65688826D01*
X137398143Y-65675212D01*
X137415469Y-65657884D01*
X137429083Y-65637510D01*
X137438459Y-65614871D01*
X137443239Y-65590843D01*
X137444047Y-65582641D01*
X137445465Y-65577967D01*
X137447764Y-65573665D01*
X137454772Y-65565126D01*
X137658933Y-65360965D01*
X137667472Y-65353957D01*
X137671774Y-65351658D01*
X137676448Y-65350240D01*
X137684650Y-65349432D01*
X137708684Y-65344651D01*
X137731322Y-65335273D01*
X137751696Y-65321658D01*
X137769023Y-65304331D01*
X137782636Y-65283956D01*
X137792013Y-65261317D01*
X137796792Y-65237290D01*
X137797600Y-65229087D01*
X137799018Y-65224413D01*
X137801317Y-65220111D01*
X137808325Y-65211572D01*
X138012486Y-65007411D01*
X138021025Y-65000403D01*
X138025327Y-64998104D01*
X138030001Y-64996686D01*
X138038203Y-64995878D01*
X138062237Y-64991097D01*
X138084875Y-64981719D01*
X138105249Y-64968104D01*
X138122576Y-64950777D01*
X138136189Y-64930402D01*
X138145566Y-64907763D01*
X138150345Y-64883736D01*
X138151153Y-64875534D01*
X138152571Y-64870860D01*
X138154870Y-64866558D01*
X138161878Y-64858019D01*
X138366039Y-64653858D01*
X138374578Y-64646850D01*
X138378880Y-64644551D01*
X138383554Y-64643133D01*
X138391757Y-64642325D01*
X138415790Y-64637544D01*
X138438429Y-64628166D01*
X138458803Y-64614552D01*
X138476129Y-64597224D01*
X138489743Y-64576850D01*
X138499119Y-64554211D01*
X138503899Y-64530183D01*
X138504707Y-64521981D01*
X138506125Y-64517307D01*
X138508424Y-64513005D01*
X138515432Y-64504466D01*
X138719593Y-64300305D01*
X138728132Y-64293297D01*
X138732434Y-64290998D01*
X138737108Y-64289580D01*
X138745310Y-64288772D01*
X138769344Y-64283991D01*
X138791982Y-64274613D01*
X138812356Y-64260998D01*
X138829683Y-64243671D01*
X138843296Y-64223296D01*
X138852673Y-64200657D01*
X138857452Y-64176630D01*
X138858260Y-64168427D01*
X138859678Y-64163753D01*
X138861977Y-64159451D01*
X138868985Y-64150912D01*
X139073146Y-63946751D01*
X139081685Y-63939743D01*
X139085987Y-63937444D01*
X139090661Y-63936026D01*
X139095516Y-63935548D01*
X139100371Y-63936026D01*
X139105045Y-63937444D01*
X139109347Y-63939743D01*
X139117886Y-63946751D01*
X139891012Y-64719877D01*
X139909954Y-64735422D01*
X139931565Y-64746973D01*
X139955014Y-64754086D01*
X139979400Y-64756488D01*
X140003786Y-64754086D01*
X140027235Y-64746973D01*
X140048846Y-64735422D01*
X140067788Y-64719877D01*
X140840914Y-63946751D01*
X140849453Y-63939743D01*
X140853755Y-63937444D01*
X140858429Y-63936026D01*
X140863284Y-63935548D01*
X140868139Y-63936026D01*
G37*
G36*
X155019512Y-71437927D02*
G01*
X155168812Y-71467624D01*
X155332784Y-71535544D01*
X155480354Y-71634147D01*
X155605853Y-71759646D01*
X155704456Y-71907216D01*
X155772376Y-72071188D01*
X155796864Y-72194301D01*
X155806368Y-72242079D01*
X155807000Y-72245259D01*
X155807000Y-72422741D01*
X155772376Y-72596812D01*
X155704456Y-72760784D01*
X155605853Y-72908354D01*
X155480354Y-73033853D01*
X155332784Y-73132456D01*
X155168812Y-73200376D01*
X155019512Y-73230073D01*
X154994742Y-73235000D01*
X154817258Y-73235000D01*
X154792488Y-73230073D01*
X154643188Y-73200376D01*
X154479216Y-73132456D01*
X154331646Y-73033853D01*
X154206147Y-72908354D01*
X154107544Y-72760784D01*
X154039624Y-72596812D01*
X154005000Y-72422741D01*
X154005000Y-72245259D01*
X154005633Y-72242079D01*
X154015136Y-72194301D01*
X154039624Y-72071188D01*
X154107544Y-71907216D01*
X154206147Y-71759646D01*
X154331646Y-71634147D01*
X154479216Y-71535544D01*
X154643188Y-71467624D01*
X154792488Y-71437927D01*
X154817258Y-71433000D01*
X154994742Y-71433000D01*
X155019512Y-71437927D01*
G37*
G36*
X152479512Y-71437927D02*
G01*
X152628812Y-71467624D01*
X152792784Y-71535544D01*
X152940354Y-71634147D01*
X153065853Y-71759646D01*
X153164456Y-71907216D01*
X153232376Y-72071188D01*
X153256864Y-72194301D01*
X153266368Y-72242079D01*
X153267000Y-72245259D01*
X153267000Y-72422741D01*
X153232376Y-72596812D01*
X153164456Y-72760784D01*
X153065853Y-72908354D01*
X152940354Y-73033853D01*
X152792784Y-73132456D01*
X152628812Y-73200376D01*
X152479512Y-73230073D01*
X152454742Y-73235000D01*
X152277258Y-73235000D01*
X152252488Y-73230073D01*
X152103188Y-73200376D01*
X151939216Y-73132456D01*
X151791646Y-73033853D01*
X151666147Y-72908354D01*
X151567544Y-72760784D01*
X151499624Y-72596812D01*
X151465000Y-72422741D01*
X151465000Y-72245259D01*
X151465633Y-72242079D01*
X151475136Y-72194301D01*
X151499624Y-72071188D01*
X151567544Y-71907216D01*
X151666147Y-71759646D01*
X151791646Y-71634147D01*
X151939216Y-71535544D01*
X152103188Y-71467624D01*
X152252488Y-71437927D01*
X152277258Y-71433000D01*
X152454742Y-71433000D01*
X152479512Y-71437927D01*
G37*
G36*
X111563500Y-73104200D02*
G01*
X109761500Y-73104200D01*
X109761500Y-71302200D01*
X111563500Y-71302200D01*
X111563500Y-73104200D01*
G37*
G36*
X145345671Y-71703161D02*
G01*
X145379649Y-71713469D01*
X145410970Y-71730210D01*
X145443184Y-71756648D01*
X145483035Y-71796499D01*
X145483041Y-71796504D01*
X145881496Y-72194959D01*
X145881501Y-72194965D01*
X145921352Y-72234816D01*
X145947790Y-72267030D01*
X145964531Y-72298351D01*
X145974839Y-72332329D01*
X145978319Y-72367670D01*
X145974839Y-72403011D01*
X145964531Y-72436989D01*
X145947790Y-72468310D01*
X145921352Y-72500524D01*
X145881501Y-72540375D01*
X145881496Y-72540381D01*
X145536075Y-72885802D01*
X145536069Y-72885807D01*
X145496218Y-72925658D01*
X145464004Y-72952096D01*
X145432683Y-72968837D01*
X145398705Y-72979145D01*
X145363364Y-72982625D01*
X145328023Y-72979145D01*
X145294045Y-72968837D01*
X145262724Y-72952096D01*
X145230510Y-72925658D01*
X145190659Y-72885807D01*
X145190653Y-72885802D01*
X144792198Y-72487347D01*
X144792193Y-72487341D01*
X144752342Y-72447490D01*
X144725904Y-72415276D01*
X144709163Y-72383955D01*
X144698855Y-72349977D01*
X144695375Y-72314636D01*
X144698855Y-72279295D01*
X144709163Y-72245317D01*
X144725904Y-72213996D01*
X144752342Y-72181782D01*
X144792193Y-72141931D01*
X144792198Y-72141925D01*
X145137619Y-71796504D01*
X145137625Y-71796499D01*
X145177476Y-71756648D01*
X145209690Y-71730210D01*
X145241011Y-71713469D01*
X145274989Y-71703161D01*
X145310330Y-71699681D01*
X145345671Y-71703161D01*
G37*
G36*
X116191591Y-71868085D02*
G01*
X116225569Y-71878393D01*
X116256890Y-71895134D01*
X116284339Y-71917661D01*
X116306866Y-71945110D01*
X116323607Y-71976431D01*
X116333915Y-72010409D01*
X116338000Y-72051890D01*
X116338000Y-72728110D01*
X116333915Y-72769591D01*
X116323607Y-72803569D01*
X116306866Y-72834890D01*
X116284339Y-72862339D01*
X116256890Y-72884866D01*
X116225569Y-72901607D01*
X116191591Y-72911915D01*
X116150110Y-72916000D01*
X115548890Y-72916000D01*
X115507409Y-72911915D01*
X115473431Y-72901607D01*
X115442110Y-72884866D01*
X115414661Y-72862339D01*
X115392134Y-72834890D01*
X115375393Y-72803569D01*
X115365085Y-72769591D01*
X115361000Y-72728110D01*
X115361000Y-72051890D01*
X115365085Y-72010409D01*
X115375393Y-71976431D01*
X115392134Y-71945110D01*
X115414661Y-71917661D01*
X115442110Y-71895134D01*
X115473431Y-71878393D01*
X115507409Y-71868085D01*
X115548890Y-71864000D01*
X116150110Y-71864000D01*
X116191591Y-71868085D01*
G37*
G36*
X114616591Y-71868085D02*
G01*
X114650569Y-71878393D01*
X114681890Y-71895134D01*
X114709339Y-71917661D01*
X114731866Y-71945110D01*
X114748607Y-71976431D01*
X114758915Y-72010409D01*
X114763000Y-72051890D01*
X114763000Y-72728110D01*
X114758915Y-72769591D01*
X114748607Y-72803569D01*
X114731866Y-72834890D01*
X114709339Y-72862339D01*
X114681890Y-72884866D01*
X114650569Y-72901607D01*
X114616591Y-72911915D01*
X114575110Y-72916000D01*
X113973890Y-72916000D01*
X113932409Y-72911915D01*
X113898431Y-72901607D01*
X113867110Y-72884866D01*
X113839661Y-72862339D01*
X113817134Y-72834890D01*
X113800393Y-72803569D01*
X113790085Y-72769591D01*
X113786000Y-72728110D01*
X113786000Y-72051890D01*
X113790085Y-72010409D01*
X113800393Y-71976431D01*
X113817134Y-71945110D01*
X113839661Y-71917661D01*
X113867110Y-71895134D01*
X113898431Y-71878393D01*
X113932409Y-71868085D01*
X113973890Y-71864000D01*
X114575110Y-71864000D01*
X114616591Y-71868085D01*
G37*
G36*
X170458700Y-72694100D02*
G01*
X168656700Y-72694100D01*
X168656700Y-70892100D01*
X170458700Y-70892100D01*
X170458700Y-72694100D01*
G37*
G36*
X166610591Y-71296585D02*
G01*
X166644569Y-71306893D01*
X166675890Y-71323634D01*
X166703339Y-71346161D01*
X166725866Y-71373610D01*
X166742607Y-71404931D01*
X166752915Y-71438909D01*
X166757000Y-71480390D01*
X166757000Y-72156610D01*
X166752915Y-72198091D01*
X166742607Y-72232069D01*
X166725866Y-72263390D01*
X166703339Y-72290839D01*
X166675890Y-72313366D01*
X166644569Y-72330107D01*
X166610591Y-72340415D01*
X166569110Y-72344500D01*
X165967890Y-72344500D01*
X165926409Y-72340415D01*
X165892431Y-72330107D01*
X165861110Y-72313366D01*
X165833661Y-72290839D01*
X165811134Y-72263390D01*
X165794393Y-72232069D01*
X165784085Y-72198091D01*
X165780000Y-72156610D01*
X165780000Y-71480390D01*
X165784085Y-71438909D01*
X165794393Y-71404931D01*
X165811134Y-71373610D01*
X165833661Y-71346161D01*
X165861110Y-71323634D01*
X165892431Y-71306893D01*
X165926409Y-71296585D01*
X165967890Y-71292500D01*
X166569110Y-71292500D01*
X166610591Y-71296585D01*
G37*
G36*
X165035591Y-71296585D02*
G01*
X165069569Y-71306893D01*
X165100890Y-71323634D01*
X165128339Y-71346161D01*
X165150866Y-71373610D01*
X165167607Y-71404931D01*
X165177915Y-71438909D01*
X165182000Y-71480390D01*
X165182000Y-72156610D01*
X165177915Y-72198091D01*
X165167607Y-72232069D01*
X165150866Y-72263390D01*
X165128339Y-72290839D01*
X165100890Y-72313366D01*
X165069569Y-72330107D01*
X165035591Y-72340415D01*
X164994110Y-72344500D01*
X164392890Y-72344500D01*
X164351409Y-72340415D01*
X164317431Y-72330107D01*
X164286110Y-72313366D01*
X164258661Y-72290839D01*
X164236134Y-72263390D01*
X164219393Y-72232069D01*
X164209085Y-72198091D01*
X164205000Y-72156610D01*
X164205000Y-71480390D01*
X164209085Y-71438909D01*
X164219393Y-71404931D01*
X164236134Y-71373610D01*
X164258661Y-71346161D01*
X164286110Y-71323634D01*
X164317431Y-71306893D01*
X164351409Y-71296585D01*
X164392890Y-71292500D01*
X164994110Y-71292500D01*
X165035591Y-71296585D01*
G37*
G36*
X149731591Y-70864085D02*
G01*
X149765569Y-70874393D01*
X149796890Y-70891134D01*
X149824339Y-70913661D01*
X149846866Y-70941110D01*
X149863607Y-70972431D01*
X149873915Y-71006409D01*
X149878000Y-71047890D01*
X149878000Y-71649110D01*
X149873915Y-71690591D01*
X149863607Y-71724569D01*
X149846866Y-71755890D01*
X149824339Y-71783339D01*
X149796890Y-71805866D01*
X149765569Y-71822607D01*
X149731591Y-71832915D01*
X149690110Y-71837000D01*
X149013890Y-71837000D01*
X148972409Y-71832915D01*
X148938431Y-71822607D01*
X148907110Y-71805866D01*
X148879661Y-71783339D01*
X148857134Y-71755890D01*
X148840393Y-71724569D01*
X148830085Y-71690591D01*
X148826000Y-71649110D01*
X148826000Y-71047890D01*
X148830085Y-71006409D01*
X148840393Y-70972431D01*
X148857134Y-70941110D01*
X148879661Y-70913661D01*
X148907110Y-70891134D01*
X148938431Y-70874393D01*
X148972409Y-70864085D01*
X149013890Y-70860000D01*
X149690110Y-70860000D01*
X149731591Y-70864085D01*
G37*
G36*
X155019512Y-68897927D02*
G01*
X155168812Y-68927624D01*
X155332784Y-68995544D01*
X155480354Y-69094147D01*
X155605853Y-69219646D01*
X155704456Y-69367216D01*
X155772376Y-69531188D01*
X155807000Y-69705259D01*
X155807000Y-69882741D01*
X155772376Y-70056812D01*
X155704456Y-70220784D01*
X155605853Y-70368354D01*
X155480354Y-70493853D01*
X155332784Y-70592456D01*
X155168812Y-70660376D01*
X155019512Y-70690073D01*
X154994742Y-70695000D01*
X154817258Y-70695000D01*
X154792488Y-70690073D01*
X154643188Y-70660376D01*
X154479216Y-70592456D01*
X154331646Y-70493853D01*
X154206147Y-70368354D01*
X154107544Y-70220784D01*
X154039624Y-70056812D01*
X154005000Y-69882741D01*
X154005000Y-69705259D01*
X154039624Y-69531188D01*
X154107544Y-69367216D01*
X154206147Y-69219646D01*
X154331646Y-69094147D01*
X154479216Y-68995544D01*
X154643188Y-68927624D01*
X154792488Y-68897927D01*
X154817258Y-68893000D01*
X154994742Y-68893000D01*
X155019512Y-68897927D01*
G37*
G36*
X152479512Y-68897927D02*
G01*
X152628812Y-68927624D01*
X152792784Y-68995544D01*
X152940354Y-69094147D01*
X153065853Y-69219646D01*
X153164456Y-69367216D01*
X153232376Y-69531188D01*
X153267000Y-69705259D01*
X153267000Y-69882741D01*
X153232376Y-70056812D01*
X153164456Y-70220784D01*
X153065853Y-70368354D01*
X152940354Y-70493853D01*
X152792784Y-70592456D01*
X152628812Y-70660376D01*
X152479512Y-70690073D01*
X152454742Y-70695000D01*
X152277258Y-70695000D01*
X152252488Y-70690073D01*
X152103188Y-70660376D01*
X151939216Y-70592456D01*
X151791646Y-70493853D01*
X151666147Y-70368354D01*
X151567544Y-70220784D01*
X151499624Y-70056812D01*
X151465000Y-69882741D01*
X151465000Y-69705259D01*
X151499624Y-69531188D01*
X151567544Y-69367216D01*
X151666147Y-69219646D01*
X151791646Y-69094147D01*
X151939216Y-68995544D01*
X152103188Y-68927624D01*
X152252488Y-68897927D01*
X152277258Y-68893000D01*
X152454742Y-68893000D01*
X152479512Y-68897927D01*
G37*
G36*
X110776012Y-68767127D02*
G01*
X110925312Y-68796824D01*
X111089284Y-68864744D01*
X111236854Y-68963347D01*
X111362353Y-69088846D01*
X111460956Y-69236416D01*
X111528876Y-69400388D01*
X111563500Y-69574459D01*
X111563500Y-69751941D01*
X111528876Y-69926012D01*
X111460956Y-70089984D01*
X111362353Y-70237554D01*
X111236854Y-70363053D01*
X111089284Y-70461656D01*
X110925312Y-70529576D01*
X110776012Y-70559273D01*
X110751242Y-70564200D01*
X110573758Y-70564200D01*
X110548988Y-70559273D01*
X110399688Y-70529576D01*
X110235716Y-70461656D01*
X110088146Y-70363053D01*
X109962647Y-70237554D01*
X109864044Y-70089984D01*
X109796124Y-69926012D01*
X109761500Y-69751941D01*
X109761500Y-69574459D01*
X109796124Y-69400388D01*
X109864044Y-69236416D01*
X109962647Y-69088846D01*
X110088146Y-68963347D01*
X110235716Y-68864744D01*
X110399688Y-68796824D01*
X110548988Y-68767127D01*
X110573758Y-68762200D01*
X110751242Y-68762200D01*
X110776012Y-68767127D01*
G37*
G36*
X116262491Y-69074085D02*
G01*
X116296469Y-69084393D01*
X116327790Y-69101134D01*
X116355239Y-69123661D01*
X116377766Y-69151110D01*
X116394507Y-69182431D01*
X116404815Y-69216409D01*
X116408900Y-69257890D01*
X116408900Y-69934110D01*
X116404815Y-69975591D01*
X116394507Y-70009569D01*
X116377766Y-70040890D01*
X116355239Y-70068339D01*
X116327790Y-70090866D01*
X116296469Y-70107607D01*
X116262491Y-70117915D01*
X116221010Y-70122000D01*
X115619790Y-70122000D01*
X115578309Y-70117915D01*
X115544331Y-70107607D01*
X115513010Y-70090866D01*
X115485561Y-70068339D01*
X115463034Y-70040890D01*
X115446293Y-70009569D01*
X115435985Y-69975591D01*
X115431900Y-69934110D01*
X115431900Y-69257890D01*
X115435985Y-69216409D01*
X115446293Y-69182431D01*
X115463034Y-69151110D01*
X115485561Y-69123661D01*
X115513010Y-69101134D01*
X115544331Y-69084393D01*
X115578309Y-69074085D01*
X115619790Y-69070000D01*
X116221010Y-69070000D01*
X116262491Y-69074085D01*
G37*
G36*
X114687491Y-69074085D02*
G01*
X114721469Y-69084393D01*
X114752790Y-69101134D01*
X114780239Y-69123661D01*
X114802766Y-69151110D01*
X114819507Y-69182431D01*
X114829815Y-69216409D01*
X114833900Y-69257890D01*
X114833900Y-69934110D01*
X114829815Y-69975591D01*
X114819507Y-70009569D01*
X114802766Y-70040890D01*
X114780239Y-70068339D01*
X114752790Y-70090866D01*
X114721469Y-70107607D01*
X114687491Y-70117915D01*
X114646010Y-70122000D01*
X114044790Y-70122000D01*
X114003309Y-70117915D01*
X113969331Y-70107607D01*
X113938010Y-70090866D01*
X113910561Y-70068339D01*
X113888034Y-70040890D01*
X113871293Y-70009569D01*
X113860985Y-69975591D01*
X113856900Y-69934110D01*
X113856900Y-69257890D01*
X113860985Y-69216409D01*
X113871293Y-69182431D01*
X113888034Y-69151110D01*
X113910561Y-69123661D01*
X113938010Y-69101134D01*
X113969331Y-69084393D01*
X114003309Y-69074085D01*
X114044790Y-69070000D01*
X114646010Y-69070000D01*
X114687491Y-69074085D01*
G37*
G36*
X162823000Y-69727000D02*
G01*
X161821000Y-69727000D01*
X161821000Y-68825000D01*
X162823000Y-68825000D01*
X162823000Y-69727000D01*
G37*
G36*
X132370177Y-68371855D02*
G01*
X132404155Y-68382163D01*
X132435476Y-68398904D01*
X132467690Y-68425342D01*
X132507541Y-68465193D01*
X132507547Y-68465198D01*
X132906002Y-68863653D01*
X132906007Y-68863659D01*
X132945858Y-68903510D01*
X132972296Y-68935724D01*
X132989037Y-68967045D01*
X132999345Y-69001023D01*
X133002825Y-69036364D01*
X132999345Y-69071705D01*
X132989037Y-69105683D01*
X132972296Y-69137004D01*
X132945858Y-69169218D01*
X132906007Y-69209069D01*
X132906002Y-69209075D01*
X132560581Y-69554496D01*
X132560575Y-69554501D01*
X132520724Y-69594352D01*
X132488510Y-69620790D01*
X132457189Y-69637531D01*
X132423211Y-69647839D01*
X132387870Y-69651319D01*
X132352529Y-69647839D01*
X132318551Y-69637531D01*
X132287230Y-69620790D01*
X132255016Y-69594352D01*
X132215165Y-69554501D01*
X132215159Y-69554496D01*
X131816704Y-69156041D01*
X131816699Y-69156035D01*
X131776848Y-69116184D01*
X131750410Y-69083970D01*
X131733669Y-69052649D01*
X131723361Y-69018671D01*
X131719881Y-68983330D01*
X131723361Y-68947989D01*
X131733669Y-68914011D01*
X131750410Y-68882690D01*
X131776848Y-68850476D01*
X131816699Y-68810625D01*
X131816704Y-68810619D01*
X132162125Y-68465198D01*
X132162131Y-68465193D01*
X132201982Y-68425342D01*
X132234196Y-68398904D01*
X132265517Y-68382163D01*
X132299495Y-68371855D01*
X132334836Y-68368375D01*
X132370177Y-68371855D01*
G37*
G36*
X158621591Y-68629085D02*
G01*
X158655569Y-68639393D01*
X158686890Y-68656134D01*
X158714339Y-68678661D01*
X158736866Y-68706110D01*
X158753607Y-68737431D01*
X158763915Y-68771409D01*
X158768000Y-68812890D01*
X158768000Y-69414110D01*
X158763915Y-69455591D01*
X158753607Y-69489569D01*
X158736866Y-69520890D01*
X158714339Y-69548339D01*
X158686890Y-69570866D01*
X158655569Y-69587607D01*
X158621591Y-69597915D01*
X158580110Y-69602000D01*
X157903890Y-69602000D01*
X157862409Y-69597915D01*
X157828431Y-69587607D01*
X157797110Y-69570866D01*
X157769661Y-69548339D01*
X157747134Y-69520890D01*
X157730393Y-69489569D01*
X157720085Y-69455591D01*
X157716000Y-69414110D01*
X157716000Y-68812890D01*
X157720085Y-68771409D01*
X157730393Y-68737431D01*
X157747134Y-68706110D01*
X157769661Y-68678661D01*
X157797110Y-68656134D01*
X157828431Y-68639393D01*
X157862409Y-68629085D01*
X157903890Y-68625000D01*
X158580110Y-68625000D01*
X158621591Y-68629085D01*
G37*
G36*
X160653591Y-68629085D02*
G01*
X160687569Y-68639393D01*
X160718890Y-68656134D01*
X160746339Y-68678661D01*
X160768866Y-68706110D01*
X160785607Y-68737431D01*
X160795915Y-68771409D01*
X160800000Y-68812890D01*
X160800000Y-69414110D01*
X160795915Y-69455591D01*
X160785607Y-69489569D01*
X160768866Y-69520890D01*
X160746339Y-69548339D01*
X160718890Y-69570866D01*
X160687569Y-69587607D01*
X160653591Y-69597915D01*
X160612110Y-69602000D01*
X159935890Y-69602000D01*
X159894409Y-69597915D01*
X159860431Y-69587607D01*
X159829110Y-69570866D01*
X159801661Y-69548339D01*
X159779134Y-69520890D01*
X159762393Y-69489569D01*
X159752085Y-69455591D01*
X159748000Y-69414110D01*
X159748000Y-68812890D01*
X159752085Y-68771409D01*
X159762393Y-68737431D01*
X159779134Y-68706110D01*
X159801661Y-68678661D01*
X159829110Y-68656134D01*
X159860431Y-68639393D01*
X159894409Y-68629085D01*
X159935890Y-68625000D01*
X160612110Y-68625000D01*
X160653591Y-68629085D01*
G37*
G36*
X166495591Y-67867085D02*
G01*
X166529569Y-67877393D01*
X166560890Y-67894134D01*
X166588339Y-67916661D01*
X166610866Y-67944110D01*
X166627607Y-67975431D01*
X166637915Y-68009409D01*
X166642000Y-68050890D01*
X166642000Y-68652110D01*
X166637915Y-68693591D01*
X166627607Y-68727569D01*
X166610866Y-68758890D01*
X166588339Y-68786339D01*
X166560890Y-68808866D01*
X166529569Y-68825607D01*
X166495591Y-68835915D01*
X166454110Y-68840000D01*
X165777890Y-68840000D01*
X165736409Y-68835915D01*
X165702431Y-68825607D01*
X165671110Y-68808866D01*
X165643661Y-68786339D01*
X165621134Y-68758890D01*
X165604393Y-68727569D01*
X165594085Y-68693591D01*
X165590000Y-68652110D01*
X165590000Y-68050890D01*
X165594085Y-68009409D01*
X165604393Y-67975431D01*
X165621134Y-67944110D01*
X165643661Y-67916661D01*
X165671110Y-67894134D01*
X165702431Y-67877393D01*
X165736409Y-67867085D01*
X165777890Y-67863000D01*
X166454110Y-67863000D01*
X166495591Y-67867085D01*
G37*
G36*
X164823000Y-68777000D02*
G01*
X163821000Y-68777000D01*
X163821000Y-67875000D01*
X164823000Y-67875000D01*
X164823000Y-68777000D01*
G37*
G36*
X133483871Y-67258161D02*
G01*
X133517849Y-67268469D01*
X133549170Y-67285210D01*
X133581384Y-67311648D01*
X133621235Y-67351499D01*
X133621241Y-67351504D01*
X134019696Y-67749959D01*
X134019701Y-67749965D01*
X134059552Y-67789816D01*
X134085990Y-67822030D01*
X134102731Y-67853351D01*
X134113039Y-67887329D01*
X134116519Y-67922670D01*
X134113039Y-67958011D01*
X134102731Y-67991989D01*
X134085990Y-68023310D01*
X134059552Y-68055524D01*
X134019701Y-68095375D01*
X134019696Y-68095381D01*
X133674275Y-68440802D01*
X133674269Y-68440807D01*
X133634418Y-68480658D01*
X133602204Y-68507096D01*
X133570883Y-68523837D01*
X133536905Y-68534145D01*
X133501564Y-68537625D01*
X133466223Y-68534145D01*
X133432245Y-68523837D01*
X133400924Y-68507096D01*
X133368710Y-68480658D01*
X133328859Y-68440807D01*
X133328853Y-68440802D01*
X132930398Y-68042347D01*
X132930393Y-68042341D01*
X132890542Y-68002490D01*
X132864104Y-67970276D01*
X132847363Y-67938955D01*
X132837055Y-67904977D01*
X132833575Y-67869636D01*
X132837055Y-67834295D01*
X132847363Y-67800317D01*
X132864104Y-67768996D01*
X132890542Y-67736782D01*
X132930393Y-67696931D01*
X132930398Y-67696925D01*
X133275819Y-67351504D01*
X133275825Y-67351499D01*
X133315676Y-67311648D01*
X133347890Y-67285210D01*
X133379211Y-67268469D01*
X133413189Y-67258161D01*
X133448530Y-67254681D01*
X133483871Y-67258161D01*
G37*
G36*
X155013986Y-66356828D02*
G01*
X155168812Y-66387624D01*
X155332784Y-66455544D01*
X155480354Y-66554147D01*
X155605853Y-66679646D01*
X155704456Y-66827216D01*
X155772376Y-66991188D01*
X155800949Y-67134836D01*
X155806438Y-67162431D01*
X155807000Y-67165259D01*
X155807000Y-67342741D01*
X155772376Y-67516812D01*
X155704456Y-67680784D01*
X155605853Y-67828354D01*
X155480354Y-67953853D01*
X155332784Y-68052456D01*
X155168812Y-68120376D01*
X155022965Y-68149386D01*
X154994742Y-68155000D01*
X154817258Y-68155000D01*
X154789035Y-68149386D01*
X154643188Y-68120376D01*
X154479216Y-68052456D01*
X154331646Y-67953853D01*
X154206147Y-67828354D01*
X154107544Y-67680784D01*
X154039624Y-67516812D01*
X154005000Y-67342741D01*
X154005000Y-67165259D01*
X154005563Y-67162431D01*
X154011051Y-67134836D01*
X154039624Y-66991188D01*
X154107544Y-66827216D01*
X154206147Y-66679646D01*
X154331646Y-66554147D01*
X154479216Y-66455544D01*
X154643188Y-66387624D01*
X154798014Y-66356828D01*
X154817258Y-66353000D01*
X154994742Y-66353000D01*
X155013986Y-66356828D01*
G37*
G36*
X153267000Y-68155000D02*
G01*
X151465000Y-68155000D01*
X151465000Y-66353000D01*
X153267000Y-66353000D01*
X153267000Y-68155000D01*
G37*
G36*
X158621591Y-67054085D02*
G01*
X158655569Y-67064393D01*
X158686890Y-67081134D01*
X158714339Y-67103661D01*
X158736866Y-67131110D01*
X158753607Y-67162431D01*
X158763915Y-67196409D01*
X158768000Y-67237890D01*
X158768000Y-67839110D01*
X158763915Y-67880591D01*
X158753607Y-67914569D01*
X158736866Y-67945890D01*
X158714339Y-67973339D01*
X158686890Y-67995866D01*
X158655569Y-68012607D01*
X158621591Y-68022915D01*
X158580110Y-68027000D01*
X157903890Y-68027000D01*
X157862409Y-68022915D01*
X157828431Y-68012607D01*
X157797110Y-67995866D01*
X157769661Y-67973339D01*
X157747134Y-67945890D01*
X157730393Y-67914569D01*
X157720085Y-67880591D01*
X157716000Y-67839110D01*
X157716000Y-67237890D01*
X157720085Y-67196409D01*
X157730393Y-67162431D01*
X157747134Y-67131110D01*
X157769661Y-67103661D01*
X157797110Y-67081134D01*
X157828431Y-67064393D01*
X157862409Y-67054085D01*
X157903890Y-67050000D01*
X158580110Y-67050000D01*
X158621591Y-67054085D01*
G37*
G36*
X160653591Y-67054085D02*
G01*
X160687569Y-67064393D01*
X160718890Y-67081134D01*
X160746339Y-67103661D01*
X160768866Y-67131110D01*
X160785607Y-67162431D01*
X160795915Y-67196409D01*
X160800000Y-67237890D01*
X160800000Y-67839110D01*
X160795915Y-67880591D01*
X160785607Y-67914569D01*
X160768866Y-67945890D01*
X160746339Y-67973339D01*
X160718890Y-67995866D01*
X160687569Y-68012607D01*
X160653591Y-68022915D01*
X160612110Y-68027000D01*
X159935890Y-68027000D01*
X159894409Y-68022915D01*
X159860431Y-68012607D01*
X159829110Y-67995866D01*
X159801661Y-67973339D01*
X159779134Y-67945890D01*
X159762393Y-67914569D01*
X159752085Y-67880591D01*
X159748000Y-67839110D01*
X159748000Y-67237890D01*
X159752085Y-67196409D01*
X159762393Y-67162431D01*
X159779134Y-67131110D01*
X159801661Y-67103661D01*
X159829110Y-67081134D01*
X159860431Y-67064393D01*
X159894409Y-67054085D01*
X159935890Y-67050000D01*
X160612110Y-67050000D01*
X160653591Y-67054085D01*
G37*
G36*
X162823000Y-67827000D02*
G01*
X161821000Y-67827000D01*
X161821000Y-66925000D01*
X162823000Y-66925000D01*
X162823000Y-67827000D01*
G37*
G36*
X169654274Y-65813658D02*
G01*
X169820512Y-65846724D01*
X169984484Y-65914644D01*
X170132054Y-66013247D01*
X170257553Y-66138746D01*
X170356156Y-66286316D01*
X170424076Y-66450288D01*
X170458700Y-66624359D01*
X170458700Y-66801841D01*
X170424076Y-66975912D01*
X170356156Y-67139884D01*
X170257553Y-67287454D01*
X170132054Y-67412953D01*
X169984484Y-67511556D01*
X169820512Y-67579476D01*
X169671212Y-67609173D01*
X169646442Y-67614100D01*
X169468958Y-67614100D01*
X169444188Y-67609173D01*
X169294888Y-67579476D01*
X169130916Y-67511556D01*
X168983346Y-67412953D01*
X168857847Y-67287454D01*
X168759244Y-67139884D01*
X168691324Y-66975912D01*
X168656700Y-66801841D01*
X168656700Y-66624359D01*
X168691324Y-66450288D01*
X168759244Y-66286316D01*
X168857847Y-66138746D01*
X168983346Y-66013247D01*
X169130916Y-65914644D01*
X169294888Y-65846724D01*
X169461126Y-65813658D01*
X169468958Y-65812100D01*
X169646442Y-65812100D01*
X169654274Y-65813658D01*
G37*
G36*
X166495591Y-66292085D02*
G01*
X166529569Y-66302393D01*
X166560890Y-66319134D01*
X166588339Y-66341661D01*
X166610866Y-66369110D01*
X166627607Y-66400431D01*
X166637915Y-66434409D01*
X166642000Y-66475890D01*
X166642000Y-67077110D01*
X166637915Y-67118591D01*
X166627607Y-67152569D01*
X166610866Y-67183890D01*
X166588339Y-67211339D01*
X166560890Y-67233866D01*
X166529569Y-67250607D01*
X166495591Y-67260915D01*
X166454110Y-67265000D01*
X165777890Y-67265000D01*
X165736409Y-67260915D01*
X165702431Y-67250607D01*
X165671110Y-67233866D01*
X165643661Y-67211339D01*
X165621134Y-67183890D01*
X165604393Y-67152569D01*
X165594085Y-67118591D01*
X165590000Y-67077110D01*
X165590000Y-66475890D01*
X165594085Y-66434409D01*
X165604393Y-66400431D01*
X165621134Y-66369110D01*
X165643661Y-66341661D01*
X165671110Y-66319134D01*
X165702431Y-66302393D01*
X165736409Y-66292085D01*
X165777890Y-66288000D01*
X166454110Y-66288000D01*
X166495591Y-66292085D01*
G37*
G36*
X123379591Y-66203085D02*
G01*
X123413569Y-66213393D01*
X123444890Y-66230134D01*
X123472339Y-66252661D01*
X123494866Y-66280110D01*
X123511607Y-66311431D01*
X123521915Y-66345409D01*
X123526000Y-66386890D01*
X123526000Y-66988110D01*
X123521915Y-67029591D01*
X123511607Y-67063569D01*
X123494866Y-67094890D01*
X123472339Y-67122339D01*
X123444890Y-67144866D01*
X123413569Y-67161607D01*
X123379591Y-67171915D01*
X123338110Y-67176000D01*
X122661890Y-67176000D01*
X122620409Y-67171915D01*
X122586431Y-67161607D01*
X122555110Y-67144866D01*
X122527661Y-67122339D01*
X122505134Y-67094890D01*
X122488393Y-67063569D01*
X122478085Y-67029591D01*
X122474000Y-66988110D01*
X122474000Y-66386890D01*
X122478085Y-66345409D01*
X122488393Y-66311431D01*
X122505134Y-66280110D01*
X122527661Y-66252661D01*
X122555110Y-66230134D01*
X122586431Y-66213393D01*
X122620409Y-66203085D01*
X122661890Y-66199000D01*
X123338110Y-66199000D01*
X123379591Y-66203085D01*
G37*
G36*
X125879591Y-66203085D02*
G01*
X125913569Y-66213393D01*
X125944890Y-66230134D01*
X125972339Y-66252661D01*
X125994866Y-66280110D01*
X126011607Y-66311431D01*
X126021915Y-66345409D01*
X126026000Y-66386890D01*
X126026000Y-66988110D01*
X126021915Y-67029591D01*
X126011607Y-67063569D01*
X125994866Y-67094890D01*
X125972339Y-67122339D01*
X125944890Y-67144866D01*
X125913569Y-67161607D01*
X125879591Y-67171915D01*
X125838110Y-67176000D01*
X125161890Y-67176000D01*
X125120409Y-67171915D01*
X125086431Y-67161607D01*
X125055110Y-67144866D01*
X125027661Y-67122339D01*
X125005134Y-67094890D01*
X124988393Y-67063569D01*
X124978085Y-67029591D01*
X124974000Y-66988110D01*
X124974000Y-66386890D01*
X124978085Y-66345409D01*
X124988393Y-66311431D01*
X125005134Y-66280110D01*
X125027661Y-66252661D01*
X125055110Y-66230134D01*
X125086431Y-66213393D01*
X125120409Y-66203085D01*
X125161890Y-66199000D01*
X125838110Y-66199000D01*
X125879591Y-66203085D01*
G37*
G36*
X120879591Y-66203085D02*
G01*
X120913569Y-66213393D01*
X120944890Y-66230134D01*
X120972339Y-66252661D01*
X120994866Y-66280110D01*
X121011607Y-66311431D01*
X121021915Y-66345409D01*
X121026000Y-66386890D01*
X121026000Y-66988110D01*
X121021915Y-67029591D01*
X121011607Y-67063569D01*
X120994866Y-67094890D01*
X120972339Y-67122339D01*
X120944890Y-67144866D01*
X120913569Y-67161607D01*
X120879591Y-67171915D01*
X120838110Y-67176000D01*
X120161890Y-67176000D01*
X120120409Y-67171915D01*
X120086431Y-67161607D01*
X120055110Y-67144866D01*
X120027661Y-67122339D01*
X120005134Y-67094890D01*
X119988393Y-67063569D01*
X119978085Y-67029591D01*
X119974000Y-66988110D01*
X119974000Y-66386890D01*
X119978085Y-66345409D01*
X119988393Y-66311431D01*
X120005134Y-66280110D01*
X120027661Y-66252661D01*
X120055110Y-66230134D01*
X120086431Y-66213393D01*
X120120409Y-66203085D01*
X120161890Y-66199000D01*
X120838110Y-66199000D01*
X120879591Y-66203085D01*
G37*
G36*
X118379591Y-66203085D02*
G01*
X118413569Y-66213393D01*
X118444890Y-66230134D01*
X118472339Y-66252661D01*
X118494866Y-66280110D01*
X118511607Y-66311431D01*
X118521915Y-66345409D01*
X118526000Y-66386890D01*
X118526000Y-66988110D01*
X118521915Y-67029591D01*
X118511607Y-67063569D01*
X118494866Y-67094890D01*
X118472339Y-67122339D01*
X118444890Y-67144866D01*
X118413569Y-67161607D01*
X118379591Y-67171915D01*
X118338110Y-67176000D01*
X117661890Y-67176000D01*
X117620409Y-67171915D01*
X117586431Y-67161607D01*
X117555110Y-67144866D01*
X117527661Y-67122339D01*
X117505134Y-67094890D01*
X117488393Y-67063569D01*
X117478085Y-67029591D01*
X117474000Y-66988110D01*
X117474000Y-66386890D01*
X117478085Y-66345409D01*
X117488393Y-66311431D01*
X117505134Y-66280110D01*
X117527661Y-66252661D01*
X117555110Y-66230134D01*
X117586431Y-66213393D01*
X117620409Y-66203085D01*
X117661890Y-66199000D01*
X118338110Y-66199000D01*
X118379591Y-66203085D01*
G37*
G36*
X128379591Y-66203085D02*
G01*
X128413569Y-66213393D01*
X128444890Y-66230134D01*
X128472339Y-66252661D01*
X128494866Y-66280110D01*
X128511607Y-66311431D01*
X128521915Y-66345409D01*
X128526000Y-66386890D01*
X128526000Y-66988110D01*
X128521915Y-67029591D01*
X128511607Y-67063569D01*
X128494866Y-67094890D01*
X128472339Y-67122339D01*
X128444890Y-67144866D01*
X128413569Y-67161607D01*
X128379591Y-67171915D01*
X128338110Y-67176000D01*
X127661890Y-67176000D01*
X127620409Y-67171915D01*
X127586431Y-67161607D01*
X127555110Y-67144866D01*
X127527661Y-67122339D01*
X127505134Y-67094890D01*
X127488393Y-67063569D01*
X127478085Y-67029591D01*
X127474000Y-66988110D01*
X127474000Y-66386890D01*
X127478085Y-66345409D01*
X127488393Y-66311431D01*
X127505134Y-66280110D01*
X127527661Y-66252661D01*
X127555110Y-66230134D01*
X127586431Y-66213393D01*
X127620409Y-66203085D01*
X127661890Y-66199000D01*
X128338110Y-66199000D01*
X128379591Y-66203085D01*
G37*
G36*
X147430705Y-65704855D02*
G01*
X147464683Y-65715163D01*
X147496004Y-65731904D01*
X147528218Y-65758342D01*
X147568069Y-65798193D01*
X147568075Y-65798198D01*
X147913496Y-66143619D01*
X147913501Y-66143625D01*
X147953352Y-66183476D01*
X147979790Y-66215690D01*
X147996531Y-66247011D01*
X148006839Y-66280989D01*
X148010319Y-66316330D01*
X148006839Y-66351671D01*
X147996531Y-66385649D01*
X147979790Y-66416970D01*
X147953352Y-66449184D01*
X147913501Y-66489035D01*
X147913496Y-66489041D01*
X147515041Y-66887496D01*
X147515035Y-66887501D01*
X147475184Y-66927352D01*
X147442970Y-66953790D01*
X147411649Y-66970531D01*
X147377671Y-66980839D01*
X147342330Y-66984319D01*
X147306989Y-66980839D01*
X147273011Y-66970531D01*
X147241690Y-66953790D01*
X147209476Y-66927352D01*
X147169625Y-66887501D01*
X147169619Y-66887496D01*
X146824198Y-66542075D01*
X146824193Y-66542069D01*
X146784342Y-66502218D01*
X146757904Y-66470004D01*
X146741163Y-66438683D01*
X146730855Y-66404705D01*
X146727375Y-66369364D01*
X146730855Y-66334023D01*
X146741163Y-66300045D01*
X146757904Y-66268724D01*
X146784342Y-66236510D01*
X146824193Y-66196659D01*
X146824198Y-66196653D01*
X147222653Y-65798198D01*
X147222659Y-65798193D01*
X147262510Y-65758342D01*
X147294724Y-65731904D01*
X147326045Y-65715163D01*
X147360023Y-65704855D01*
X147395364Y-65701375D01*
X147430705Y-65704855D01*
G37*
G36*
X162823000Y-66054200D02*
G01*
X161821000Y-66054200D01*
X161821000Y-65152200D01*
X162823000Y-65152200D01*
X162823000Y-66054200D01*
G37*
G36*
X146317011Y-64591161D02*
G01*
X146350989Y-64601469D01*
X146382310Y-64618210D01*
X146414524Y-64644648D01*
X146454375Y-64684499D01*
X146454381Y-64684504D01*
X146799802Y-65029925D01*
X146799807Y-65029931D01*
X146839658Y-65069782D01*
X146866096Y-65101996D01*
X146882837Y-65133317D01*
X146893145Y-65167295D01*
X146896625Y-65202636D01*
X146893145Y-65237977D01*
X146882837Y-65271955D01*
X146866096Y-65303276D01*
X146839658Y-65335490D01*
X146799807Y-65375341D01*
X146799802Y-65375347D01*
X146401347Y-65773802D01*
X146401341Y-65773807D01*
X146361490Y-65813658D01*
X146329276Y-65840096D01*
X146297955Y-65856837D01*
X146263977Y-65867145D01*
X146228636Y-65870625D01*
X146193295Y-65867145D01*
X146159317Y-65856837D01*
X146127996Y-65840096D01*
X146095782Y-65813658D01*
X146055931Y-65773807D01*
X146055925Y-65773802D01*
X145710504Y-65428381D01*
X145710499Y-65428375D01*
X145670648Y-65388524D01*
X145644210Y-65356310D01*
X145627469Y-65324989D01*
X145617161Y-65291011D01*
X145613681Y-65255670D01*
X145617161Y-65220329D01*
X145627469Y-65186351D01*
X145644210Y-65155030D01*
X145670648Y-65122816D01*
X145710499Y-65082965D01*
X145710504Y-65082959D01*
X146108959Y-64684504D01*
X146108965Y-64684499D01*
X146148816Y-64644648D01*
X146181030Y-64618210D01*
X146212351Y-64601469D01*
X146246329Y-64591161D01*
X146281670Y-64587681D01*
X146317011Y-64591161D01*
G37*
G36*
X160653591Y-64819085D02*
G01*
X160687569Y-64829393D01*
X160718890Y-64846134D01*
X160746339Y-64868661D01*
X160768866Y-64896110D01*
X160785607Y-64927431D01*
X160795915Y-64961409D01*
X160800000Y-65002890D01*
X160800000Y-65604110D01*
X160795915Y-65645591D01*
X160785607Y-65679569D01*
X160768866Y-65710890D01*
X160746339Y-65738339D01*
X160718890Y-65760866D01*
X160687569Y-65777607D01*
X160653591Y-65787915D01*
X160612110Y-65792000D01*
X159935890Y-65792000D01*
X159894409Y-65787915D01*
X159860431Y-65777607D01*
X159829110Y-65760866D01*
X159801661Y-65738339D01*
X159779134Y-65710890D01*
X159762393Y-65679569D01*
X159752085Y-65645591D01*
X159748000Y-65604110D01*
X159748000Y-65002890D01*
X159752085Y-64961409D01*
X159762393Y-64927431D01*
X159779134Y-64896110D01*
X159801661Y-64868661D01*
X159829110Y-64846134D01*
X159860431Y-64829393D01*
X159894409Y-64819085D01*
X159935890Y-64815000D01*
X160612110Y-64815000D01*
X160653591Y-64819085D01*
G37*
G36*
X166495591Y-64819085D02*
G01*
X166529569Y-64829393D01*
X166560890Y-64846134D01*
X166588339Y-64868661D01*
X166610866Y-64896110D01*
X166627607Y-64927431D01*
X166637915Y-64961409D01*
X166642000Y-65002890D01*
X166642000Y-65604110D01*
X166637915Y-65645591D01*
X166627607Y-65679569D01*
X166610866Y-65710890D01*
X166588339Y-65738339D01*
X166560890Y-65760866D01*
X166529569Y-65777607D01*
X166495591Y-65787915D01*
X166454110Y-65792000D01*
X165777890Y-65792000D01*
X165736409Y-65787915D01*
X165702431Y-65777607D01*
X165671110Y-65760866D01*
X165643661Y-65738339D01*
X165621134Y-65710890D01*
X165604393Y-65679569D01*
X165594085Y-65645591D01*
X165590000Y-65604110D01*
X165590000Y-65002890D01*
X165594085Y-64961409D01*
X165604393Y-64927431D01*
X165621134Y-64896110D01*
X165643661Y-64868661D01*
X165671110Y-64846134D01*
X165702431Y-64829393D01*
X165736409Y-64819085D01*
X165777890Y-64815000D01*
X166454110Y-64815000D01*
X166495591Y-64819085D01*
G37*
G36*
X158621591Y-64819085D02*
G01*
X158655569Y-64829393D01*
X158686890Y-64846134D01*
X158714339Y-64868661D01*
X158736866Y-64896110D01*
X158753607Y-64927431D01*
X158763915Y-64961409D01*
X158768000Y-65002890D01*
X158768000Y-65604110D01*
X158763915Y-65645591D01*
X158753607Y-65679569D01*
X158736866Y-65710890D01*
X158714339Y-65738339D01*
X158686890Y-65760866D01*
X158655569Y-65777607D01*
X158621591Y-65787915D01*
X158580110Y-65792000D01*
X157903890Y-65792000D01*
X157862409Y-65787915D01*
X157828431Y-65777607D01*
X157797110Y-65760866D01*
X157769661Y-65738339D01*
X157747134Y-65710890D01*
X157730393Y-65679569D01*
X157720085Y-65645591D01*
X157716000Y-65604110D01*
X157716000Y-65002890D01*
X157720085Y-64961409D01*
X157730393Y-64927431D01*
X157747134Y-64896110D01*
X157769661Y-64868661D01*
X157797110Y-64846134D01*
X157828431Y-64829393D01*
X157862409Y-64819085D01*
X157903890Y-64815000D01*
X158580110Y-64815000D01*
X158621591Y-64819085D01*
G37*
G36*
X123379591Y-64628085D02*
G01*
X123413569Y-64638393D01*
X123444890Y-64655134D01*
X123472339Y-64677661D01*
X123494866Y-64705110D01*
X123511607Y-64736431D01*
X123521915Y-64770409D01*
X123526000Y-64811890D01*
X123526000Y-65413110D01*
X123521915Y-65454591D01*
X123511607Y-65488569D01*
X123494866Y-65519890D01*
X123472339Y-65547339D01*
X123444890Y-65569866D01*
X123413569Y-65586607D01*
X123379591Y-65596915D01*
X123338110Y-65601000D01*
X122661890Y-65601000D01*
X122620409Y-65596915D01*
X122586431Y-65586607D01*
X122555110Y-65569866D01*
X122527661Y-65547339D01*
X122505134Y-65519890D01*
X122488393Y-65488569D01*
X122478085Y-65454591D01*
X122474000Y-65413110D01*
X122474000Y-64811890D01*
X122478085Y-64770409D01*
X122488393Y-64736431D01*
X122505134Y-64705110D01*
X122527661Y-64677661D01*
X122555110Y-64655134D01*
X122586431Y-64638393D01*
X122620409Y-64628085D01*
X122661890Y-64624000D01*
X123338110Y-64624000D01*
X123379591Y-64628085D01*
G37*
G36*
X120879591Y-64628085D02*
G01*
X120913569Y-64638393D01*
X120944890Y-64655134D01*
X120972339Y-64677661D01*
X120994866Y-64705110D01*
X121011607Y-64736431D01*
X121021915Y-64770409D01*
X121026000Y-64811890D01*
X121026000Y-65413110D01*
X121021915Y-65454591D01*
X121011607Y-65488569D01*
X120994866Y-65519890D01*
X120972339Y-65547339D01*
X120944890Y-65569866D01*
X120913569Y-65586607D01*
X120879591Y-65596915D01*
X120838110Y-65601000D01*
X120161890Y-65601000D01*
X120120409Y-65596915D01*
X120086431Y-65586607D01*
X120055110Y-65569866D01*
X120027661Y-65547339D01*
X120005134Y-65519890D01*
X119988393Y-65488569D01*
X119978085Y-65454591D01*
X119974000Y-65413110D01*
X119974000Y-64811890D01*
X119978085Y-64770409D01*
X119988393Y-64736431D01*
X120005134Y-64705110D01*
X120027661Y-64677661D01*
X120055110Y-64655134D01*
X120086431Y-64638393D01*
X120120409Y-64628085D01*
X120161890Y-64624000D01*
X120838110Y-64624000D01*
X120879591Y-64628085D01*
G37*
G36*
X118379591Y-64628085D02*
G01*
X118413569Y-64638393D01*
X118444890Y-64655134D01*
X118472339Y-64677661D01*
X118494866Y-64705110D01*
X118511607Y-64736431D01*
X118521915Y-64770409D01*
X118526000Y-64811890D01*
X118526000Y-65413110D01*
X118521915Y-65454591D01*
X118511607Y-65488569D01*
X118494866Y-65519890D01*
X118472339Y-65547339D01*
X118444890Y-65569866D01*
X118413569Y-65586607D01*
X118379591Y-65596915D01*
X118338110Y-65601000D01*
X117661890Y-65601000D01*
X117620409Y-65596915D01*
X117586431Y-65586607D01*
X117555110Y-65569866D01*
X117527661Y-65547339D01*
X117505134Y-65519890D01*
X117488393Y-65488569D01*
X117478085Y-65454591D01*
X117474000Y-65413110D01*
X117474000Y-64811890D01*
X117478085Y-64770409D01*
X117488393Y-64736431D01*
X117505134Y-64705110D01*
X117527661Y-64677661D01*
X117555110Y-64655134D01*
X117586431Y-64638393D01*
X117620409Y-64628085D01*
X117661890Y-64624000D01*
X118338110Y-64624000D01*
X118379591Y-64628085D01*
G37*
G36*
X125879591Y-64628085D02*
G01*
X125913569Y-64638393D01*
X125944890Y-64655134D01*
X125972339Y-64677661D01*
X125994866Y-64705110D01*
X126011607Y-64736431D01*
X126021915Y-64770409D01*
X126026000Y-64811890D01*
X126026000Y-65413110D01*
X126021915Y-65454591D01*
X126011607Y-65488569D01*
X125994866Y-65519890D01*
X125972339Y-65547339D01*
X125944890Y-65569866D01*
X125913569Y-65586607D01*
X125879591Y-65596915D01*
X125838110Y-65601000D01*
X125161890Y-65601000D01*
X125120409Y-65596915D01*
X125086431Y-65586607D01*
X125055110Y-65569866D01*
X125027661Y-65547339D01*
X125005134Y-65519890D01*
X124988393Y-65488569D01*
X124978085Y-65454591D01*
X124974000Y-65413110D01*
X124974000Y-64811890D01*
X124978085Y-64770409D01*
X124988393Y-64736431D01*
X125005134Y-64705110D01*
X125027661Y-64677661D01*
X125055110Y-64655134D01*
X125086431Y-64638393D01*
X125120409Y-64628085D01*
X125161890Y-64624000D01*
X125838110Y-64624000D01*
X125879591Y-64628085D01*
G37*
G36*
X128379591Y-64628085D02*
G01*
X128413569Y-64638393D01*
X128444890Y-64655134D01*
X128472339Y-64677661D01*
X128494866Y-64705110D01*
X128511607Y-64736431D01*
X128521915Y-64770409D01*
X128526000Y-64811890D01*
X128526000Y-65413110D01*
X128521915Y-65454591D01*
X128511607Y-65488569D01*
X128494866Y-65519890D01*
X128472339Y-65547339D01*
X128444890Y-65569866D01*
X128413569Y-65586607D01*
X128379591Y-65596915D01*
X128338110Y-65601000D01*
X127661890Y-65601000D01*
X127620409Y-65596915D01*
X127586431Y-65586607D01*
X127555110Y-65569866D01*
X127527661Y-65547339D01*
X127505134Y-65519890D01*
X127488393Y-65488569D01*
X127478085Y-65454591D01*
X127474000Y-65413110D01*
X127474000Y-64811890D01*
X127478085Y-64770409D01*
X127488393Y-64736431D01*
X127505134Y-64705110D01*
X127527661Y-64677661D01*
X127555110Y-64655134D01*
X127586431Y-64638393D01*
X127620409Y-64628085D01*
X127661890Y-64624000D01*
X128338110Y-64624000D01*
X128379591Y-64628085D01*
G37*
G36*
X111563500Y-65484200D02*
G01*
X109761500Y-65484200D01*
X109761500Y-63682200D01*
X111563500Y-63682200D01*
X111563500Y-65484200D01*
G37*
G36*
X148918141Y-64249569D02*
G01*
X147997488Y-65170222D01*
X146935413Y-64108147D01*
X147856066Y-63187494D01*
X148918141Y-64249569D01*
G37*
G36*
X164823000Y-65104200D02*
G01*
X163821000Y-65104200D01*
X163821000Y-64202200D01*
X164823000Y-64202200D01*
X164823000Y-65104200D01*
G37*
G36*
X169671212Y-63277027D02*
G01*
X169820512Y-63306724D01*
X169984484Y-63374644D01*
X170132054Y-63473247D01*
X170257553Y-63598746D01*
X170356156Y-63746316D01*
X170424076Y-63910288D01*
X170453773Y-64059588D01*
X170457432Y-64077981D01*
X170458700Y-64084359D01*
X170458700Y-64261841D01*
X170424076Y-64435912D01*
X170356156Y-64599884D01*
X170257553Y-64747454D01*
X170132054Y-64872953D01*
X169984484Y-64971556D01*
X169820512Y-65039476D01*
X169671212Y-65069173D01*
X169646442Y-65074100D01*
X169468958Y-65074100D01*
X169444188Y-65069173D01*
X169294888Y-65039476D01*
X169130916Y-64971556D01*
X168983346Y-64872953D01*
X168857847Y-64747454D01*
X168759244Y-64599884D01*
X168691324Y-64435912D01*
X168656700Y-64261841D01*
X168656700Y-64084359D01*
X168657969Y-64077981D01*
X168661627Y-64059588D01*
X168691324Y-63910288D01*
X168759244Y-63746316D01*
X168857847Y-63598746D01*
X168983346Y-63473247D01*
X169130916Y-63374644D01*
X169294888Y-63306724D01*
X169444188Y-63277027D01*
X169468958Y-63272100D01*
X169646442Y-63272100D01*
X169671212Y-63277027D01*
G37*
G36*
X145144705Y-63418855D02*
G01*
X145178683Y-63429163D01*
X145210004Y-63445904D01*
X145242218Y-63472342D01*
X145282069Y-63512193D01*
X145282075Y-63512198D01*
X145627496Y-63857619D01*
X145627501Y-63857625D01*
X145667352Y-63897476D01*
X145693790Y-63929690D01*
X145710531Y-63961011D01*
X145720839Y-63994989D01*
X145724319Y-64030330D01*
X145720839Y-64065671D01*
X145710531Y-64099649D01*
X145693790Y-64130970D01*
X145667352Y-64163184D01*
X145627501Y-64203035D01*
X145627496Y-64203041D01*
X145229041Y-64601496D01*
X145229035Y-64601501D01*
X145189184Y-64641352D01*
X145156970Y-64667790D01*
X145125649Y-64684531D01*
X145091671Y-64694839D01*
X145056330Y-64698319D01*
X145020989Y-64694839D01*
X144987011Y-64684531D01*
X144955690Y-64667790D01*
X144923476Y-64641352D01*
X144883625Y-64601501D01*
X144883619Y-64601496D01*
X144538198Y-64256075D01*
X144538193Y-64256069D01*
X144498342Y-64216218D01*
X144471904Y-64184004D01*
X144455163Y-64152683D01*
X144444855Y-64118705D01*
X144441375Y-64083364D01*
X144444855Y-64048023D01*
X144455163Y-64014045D01*
X144471904Y-63982724D01*
X144498342Y-63950510D01*
X144538193Y-63910659D01*
X144538198Y-63910653D01*
X144936653Y-63512198D01*
X144936659Y-63512193D01*
X144976510Y-63472342D01*
X145008724Y-63445904D01*
X145040045Y-63429163D01*
X145074023Y-63418855D01*
X145109364Y-63415375D01*
X145144705Y-63418855D01*
G37*
G36*
X160653591Y-63244085D02*
G01*
X160687569Y-63254393D01*
X160718890Y-63271134D01*
X160746339Y-63293661D01*
X160768866Y-63321110D01*
X160785607Y-63352431D01*
X160795915Y-63386409D01*
X160800000Y-63427890D01*
X160800000Y-64029110D01*
X160795915Y-64070591D01*
X160785607Y-64104569D01*
X160768866Y-64135890D01*
X160746339Y-64163339D01*
X160718890Y-64185866D01*
X160687569Y-64202607D01*
X160653591Y-64212915D01*
X160612110Y-64217000D01*
X159935890Y-64217000D01*
X159894409Y-64212915D01*
X159860431Y-64202607D01*
X159829110Y-64185866D01*
X159801661Y-64163339D01*
X159779134Y-64135890D01*
X159762393Y-64104569D01*
X159752085Y-64070591D01*
X159748000Y-64029110D01*
X159748000Y-63427890D01*
X159752085Y-63386409D01*
X159762393Y-63352431D01*
X159779134Y-63321110D01*
X159801661Y-63293661D01*
X159829110Y-63271134D01*
X159860431Y-63254393D01*
X159894409Y-63244085D01*
X159935890Y-63240000D01*
X160612110Y-63240000D01*
X160653591Y-63244085D01*
G37*
G36*
X166495591Y-63244085D02*
G01*
X166529569Y-63254393D01*
X166560890Y-63271134D01*
X166588339Y-63293661D01*
X166610866Y-63321110D01*
X166627607Y-63352431D01*
X166637915Y-63386409D01*
X166642000Y-63427890D01*
X166642000Y-64029110D01*
X166637915Y-64070591D01*
X166627607Y-64104569D01*
X166610866Y-64135890D01*
X166588339Y-64163339D01*
X166560890Y-64185866D01*
X166529569Y-64202607D01*
X166495591Y-64212915D01*
X166454110Y-64217000D01*
X165777890Y-64217000D01*
X165736409Y-64212915D01*
X165702431Y-64202607D01*
X165671110Y-64185866D01*
X165643661Y-64163339D01*
X165621134Y-64135890D01*
X165604393Y-64104569D01*
X165594085Y-64070591D01*
X165590000Y-64029110D01*
X165590000Y-63427890D01*
X165594085Y-63386409D01*
X165604393Y-63352431D01*
X165621134Y-63321110D01*
X165643661Y-63293661D01*
X165671110Y-63271134D01*
X165702431Y-63254393D01*
X165736409Y-63244085D01*
X165777890Y-63240000D01*
X166454110Y-63240000D01*
X166495591Y-63244085D01*
G37*
G36*
X158621591Y-63244085D02*
G01*
X158655569Y-63254393D01*
X158686890Y-63271134D01*
X158714339Y-63293661D01*
X158736866Y-63321110D01*
X158753607Y-63352431D01*
X158763915Y-63386409D01*
X158768000Y-63427890D01*
X158768000Y-64029110D01*
X158763915Y-64070591D01*
X158753607Y-64104569D01*
X158736866Y-64135890D01*
X158714339Y-64163339D01*
X158686890Y-64185866D01*
X158655569Y-64202607D01*
X158621591Y-64212915D01*
X158580110Y-64217000D01*
X157903890Y-64217000D01*
X157862409Y-64212915D01*
X157828431Y-64202607D01*
X157797110Y-64185866D01*
X157769661Y-64163339D01*
X157747134Y-64135890D01*
X157730393Y-64104569D01*
X157720085Y-64070591D01*
X157716000Y-64029110D01*
X157716000Y-63427890D01*
X157720085Y-63386409D01*
X157730393Y-63352431D01*
X157747134Y-63321110D01*
X157769661Y-63293661D01*
X157797110Y-63271134D01*
X157828431Y-63254393D01*
X157862409Y-63244085D01*
X157903890Y-63240000D01*
X158580110Y-63240000D01*
X158621591Y-63244085D01*
G37*
G36*
X162823000Y-64154200D02*
G01*
X161821000Y-64154200D01*
X161821000Y-63252200D01*
X162823000Y-63252200D01*
X162823000Y-64154200D01*
G37*
G36*
X150120222Y-63047488D02*
G01*
X149199569Y-63968141D01*
X148137494Y-62906066D01*
X149058147Y-61985413D01*
X150120222Y-63047488D01*
G37*
G36*
X118379591Y-62803085D02*
G01*
X118413569Y-62813393D01*
X118444890Y-62830134D01*
X118472339Y-62852661D01*
X118494866Y-62880110D01*
X118511607Y-62911431D01*
X118521915Y-62945409D01*
X118526000Y-62986890D01*
X118526000Y-63588110D01*
X118521915Y-63629591D01*
X118511607Y-63663569D01*
X118494866Y-63694890D01*
X118472339Y-63722339D01*
X118444890Y-63744866D01*
X118413569Y-63761607D01*
X118379591Y-63771915D01*
X118338110Y-63776000D01*
X117661890Y-63776000D01*
X117620409Y-63771915D01*
X117586431Y-63761607D01*
X117555110Y-63744866D01*
X117527661Y-63722339D01*
X117505134Y-63694890D01*
X117488393Y-63663569D01*
X117478085Y-63629591D01*
X117474000Y-63588110D01*
X117474000Y-62986890D01*
X117478085Y-62945409D01*
X117488393Y-62911431D01*
X117505134Y-62880110D01*
X117527661Y-62852661D01*
X117555110Y-62830134D01*
X117586431Y-62813393D01*
X117620409Y-62803085D01*
X117661890Y-62799000D01*
X118338110Y-62799000D01*
X118379591Y-62803085D01*
G37*
G36*
X123379591Y-62803085D02*
G01*
X123413569Y-62813393D01*
X123444890Y-62830134D01*
X123472339Y-62852661D01*
X123494866Y-62880110D01*
X123511607Y-62911431D01*
X123521915Y-62945409D01*
X123526000Y-62986890D01*
X123526000Y-63588110D01*
X123521915Y-63629591D01*
X123511607Y-63663569D01*
X123494866Y-63694890D01*
X123472339Y-63722339D01*
X123444890Y-63744866D01*
X123413569Y-63761607D01*
X123379591Y-63771915D01*
X123338110Y-63776000D01*
X122661890Y-63776000D01*
X122620409Y-63771915D01*
X122586431Y-63761607D01*
X122555110Y-63744866D01*
X122527661Y-63722339D01*
X122505134Y-63694890D01*
X122488393Y-63663569D01*
X122478085Y-63629591D01*
X122474000Y-63588110D01*
X122474000Y-62986890D01*
X122478085Y-62945409D01*
X122488393Y-62911431D01*
X122505134Y-62880110D01*
X122527661Y-62852661D01*
X122555110Y-62830134D01*
X122586431Y-62813393D01*
X122620409Y-62803085D01*
X122661890Y-62799000D01*
X123338110Y-62799000D01*
X123379591Y-62803085D01*
G37*
G36*
X125879591Y-62803085D02*
G01*
X125913569Y-62813393D01*
X125944890Y-62830134D01*
X125972339Y-62852661D01*
X125994866Y-62880110D01*
X126011607Y-62911431D01*
X126021915Y-62945409D01*
X126026000Y-62986890D01*
X126026000Y-63588110D01*
X126021915Y-63629591D01*
X126011607Y-63663569D01*
X125994866Y-63694890D01*
X125972339Y-63722339D01*
X125944890Y-63744866D01*
X125913569Y-63761607D01*
X125879591Y-63771915D01*
X125838110Y-63776000D01*
X125161890Y-63776000D01*
X125120409Y-63771915D01*
X125086431Y-63761607D01*
X125055110Y-63744866D01*
X125027661Y-63722339D01*
X125005134Y-63694890D01*
X124988393Y-63663569D01*
X124978085Y-63629591D01*
X124974000Y-63588110D01*
X124974000Y-62986890D01*
X124978085Y-62945409D01*
X124988393Y-62911431D01*
X125005134Y-62880110D01*
X125027661Y-62852661D01*
X125055110Y-62830134D01*
X125086431Y-62813393D01*
X125120409Y-62803085D01*
X125161890Y-62799000D01*
X125838110Y-62799000D01*
X125879591Y-62803085D01*
G37*
G36*
X120879591Y-62803085D02*
G01*
X120913569Y-62813393D01*
X120944890Y-62830134D01*
X120972339Y-62852661D01*
X120994866Y-62880110D01*
X121011607Y-62911431D01*
X121021915Y-62945409D01*
X121026000Y-62986890D01*
X121026000Y-63588110D01*
X121021915Y-63629591D01*
X121011607Y-63663569D01*
X120994866Y-63694890D01*
X120972339Y-63722339D01*
X120944890Y-63744866D01*
X120913569Y-63761607D01*
X120879591Y-63771915D01*
X120838110Y-63776000D01*
X120161890Y-63776000D01*
X120120409Y-63771915D01*
X120086431Y-63761607D01*
X120055110Y-63744866D01*
X120027661Y-63722339D01*
X120005134Y-63694890D01*
X119988393Y-63663569D01*
X119978085Y-63629591D01*
X119974000Y-63588110D01*
X119974000Y-62986890D01*
X119978085Y-62945409D01*
X119988393Y-62911431D01*
X120005134Y-62880110D01*
X120027661Y-62852661D01*
X120055110Y-62830134D01*
X120086431Y-62813393D01*
X120120409Y-62803085D01*
X120161890Y-62799000D01*
X120838110Y-62799000D01*
X120879591Y-62803085D01*
G37*
G36*
X128379591Y-62803085D02*
G01*
X128413569Y-62813393D01*
X128444890Y-62830134D01*
X128472339Y-62852661D01*
X128494866Y-62880110D01*
X128511607Y-62911431D01*
X128521915Y-62945409D01*
X128526000Y-62986890D01*
X128526000Y-63588110D01*
X128521915Y-63629591D01*
X128511607Y-63663569D01*
X128494866Y-63694890D01*
X128472339Y-63722339D01*
X128444890Y-63744866D01*
X128413569Y-63761607D01*
X128379591Y-63771915D01*
X128338110Y-63776000D01*
X127661890Y-63776000D01*
X127620409Y-63771915D01*
X127586431Y-63761607D01*
X127555110Y-63744866D01*
X127527661Y-63722339D01*
X127505134Y-63694890D01*
X127488393Y-63663569D01*
X127478085Y-63629591D01*
X127474000Y-63588110D01*
X127474000Y-62986890D01*
X127478085Y-62945409D01*
X127488393Y-62911431D01*
X127505134Y-62880110D01*
X127527661Y-62852661D01*
X127555110Y-62830134D01*
X127586431Y-62813393D01*
X127620409Y-62803085D01*
X127661890Y-62799000D01*
X128338110Y-62799000D01*
X128379591Y-62803085D01*
G37*
G36*
X147362506Y-62693934D02*
G01*
X146441853Y-63614587D01*
X145379778Y-62552512D01*
X146300431Y-61631859D01*
X147362506Y-62693934D01*
G37*
G36*
X144031011Y-62305161D02*
G01*
X144064989Y-62315469D01*
X144096310Y-62332210D01*
X144128524Y-62358648D01*
X144168375Y-62398499D01*
X144168381Y-62398504D01*
X144513802Y-62743925D01*
X144513807Y-62743931D01*
X144553658Y-62783782D01*
X144580096Y-62815996D01*
X144596837Y-62847317D01*
X144607145Y-62881295D01*
X144610625Y-62916636D01*
X144607145Y-62951977D01*
X144596837Y-62985955D01*
X144580096Y-63017276D01*
X144553658Y-63049490D01*
X144513807Y-63089341D01*
X144513802Y-63089347D01*
X144115347Y-63487802D01*
X144115341Y-63487807D01*
X144075490Y-63527658D01*
X144043276Y-63554096D01*
X144011955Y-63570837D01*
X143977977Y-63581145D01*
X143942636Y-63584625D01*
X143907295Y-63581145D01*
X143873317Y-63570837D01*
X143841996Y-63554096D01*
X143809782Y-63527658D01*
X143769931Y-63487807D01*
X143769925Y-63487802D01*
X143424504Y-63142381D01*
X143424499Y-63142375D01*
X143384648Y-63102524D01*
X143358210Y-63070310D01*
X143341469Y-63038989D01*
X143331161Y-63005011D01*
X143327681Y-62969670D01*
X143331161Y-62934329D01*
X143341469Y-62900351D01*
X143358210Y-62869030D01*
X143384648Y-62836816D01*
X143424499Y-62796965D01*
X143424504Y-62796959D01*
X143822959Y-62398504D01*
X143822965Y-62398499D01*
X143862816Y-62358648D01*
X143895030Y-62332210D01*
X143926351Y-62315469D01*
X143960329Y-62305161D01*
X143995670Y-62301681D01*
X144031011Y-62305161D01*
G37*
G36*
X110776012Y-61147127D02*
G01*
X110925312Y-61176824D01*
X111089284Y-61244744D01*
X111236854Y-61343347D01*
X111362353Y-61468846D01*
X111460956Y-61616416D01*
X111528876Y-61780388D01*
X111563500Y-61954459D01*
X111563500Y-62131941D01*
X111528876Y-62306012D01*
X111460956Y-62469984D01*
X111362353Y-62617554D01*
X111236854Y-62743053D01*
X111089284Y-62841656D01*
X110925312Y-62909576D01*
X110776012Y-62939273D01*
X110751242Y-62944200D01*
X110573758Y-62944200D01*
X110548988Y-62939273D01*
X110399688Y-62909576D01*
X110235716Y-62841656D01*
X110088146Y-62743053D01*
X109962647Y-62617554D01*
X109864044Y-62469984D01*
X109796124Y-62306012D01*
X109761500Y-62131941D01*
X109761500Y-61954459D01*
X109796124Y-61780388D01*
X109864044Y-61616416D01*
X109962647Y-61468846D01*
X110088146Y-61343347D01*
X110235716Y-61244744D01*
X110399688Y-61176824D01*
X110548988Y-61147127D01*
X110573758Y-61142200D01*
X110751242Y-61142200D01*
X110776012Y-61147127D01*
G37*
G36*
X114281091Y-61521285D02*
G01*
X114315069Y-61531593D01*
X114346390Y-61548334D01*
X114373839Y-61570861D01*
X114396366Y-61598310D01*
X114413107Y-61629631D01*
X114423415Y-61663609D01*
X114427500Y-61705090D01*
X114427500Y-62381310D01*
X114423415Y-62422791D01*
X114413107Y-62456769D01*
X114396366Y-62488090D01*
X114373839Y-62515539D01*
X114346390Y-62538066D01*
X114315069Y-62554807D01*
X114281091Y-62565115D01*
X114239610Y-62569200D01*
X113638390Y-62569200D01*
X113596909Y-62565115D01*
X113562931Y-62554807D01*
X113531610Y-62538066D01*
X113504161Y-62515539D01*
X113481634Y-62488090D01*
X113464893Y-62456769D01*
X113454585Y-62422791D01*
X113450500Y-62381310D01*
X113450500Y-61705090D01*
X113454585Y-61663609D01*
X113464893Y-61629631D01*
X113481634Y-61598310D01*
X113504161Y-61570861D01*
X113531610Y-61548334D01*
X113562931Y-61531593D01*
X113596909Y-61521285D01*
X113638390Y-61517200D01*
X114239610Y-61517200D01*
X114281091Y-61521285D01*
G37*
G36*
X115856091Y-61521285D02*
G01*
X115890069Y-61531593D01*
X115921390Y-61548334D01*
X115948839Y-61570861D01*
X115971366Y-61598310D01*
X115988107Y-61629631D01*
X115998415Y-61663609D01*
X116002500Y-61705090D01*
X116002500Y-62381310D01*
X115998415Y-62422791D01*
X115988107Y-62456769D01*
X115971366Y-62488090D01*
X115948839Y-62515539D01*
X115921390Y-62538066D01*
X115890069Y-62554807D01*
X115856091Y-62565115D01*
X115814610Y-62569200D01*
X115213390Y-62569200D01*
X115171909Y-62565115D01*
X115137931Y-62554807D01*
X115106610Y-62538066D01*
X115079161Y-62515539D01*
X115056634Y-62488090D01*
X115039893Y-62456769D01*
X115029585Y-62422791D01*
X115025500Y-62381310D01*
X115025500Y-61705090D01*
X115029585Y-61663609D01*
X115039893Y-61629631D01*
X115056634Y-61598310D01*
X115079161Y-61570861D01*
X115106610Y-61548334D01*
X115137931Y-61531593D01*
X115171909Y-61521285D01*
X115213390Y-61517200D01*
X115814610Y-61517200D01*
X115856091Y-61521285D01*
G37*
G36*
X170458700Y-62534100D02*
G01*
X168656700Y-62534100D01*
X168656700Y-60732100D01*
X170458700Y-60732100D01*
X170458700Y-62534100D01*
G37*
G36*
X148564587Y-61491853D02*
G01*
X147643934Y-62412506D01*
X146581859Y-61350431D01*
X147502512Y-60429778D01*
X148564587Y-61491853D01*
G37*
G36*
X125879591Y-61228085D02*
G01*
X125913569Y-61238393D01*
X125944890Y-61255134D01*
X125972339Y-61277661D01*
X125994866Y-61305110D01*
X126011607Y-61336431D01*
X126021915Y-61370409D01*
X126026000Y-61411890D01*
X126026000Y-62013110D01*
X126021915Y-62054591D01*
X126011607Y-62088569D01*
X125994866Y-62119890D01*
X125972339Y-62147339D01*
X125944890Y-62169866D01*
X125913569Y-62186607D01*
X125879591Y-62196915D01*
X125838110Y-62201000D01*
X125161890Y-62201000D01*
X125120409Y-62196915D01*
X125086431Y-62186607D01*
X125055110Y-62169866D01*
X125027661Y-62147339D01*
X125005134Y-62119890D01*
X124988393Y-62088569D01*
X124978085Y-62054591D01*
X124974000Y-62013110D01*
X124974000Y-61411890D01*
X124978085Y-61370409D01*
X124988393Y-61336431D01*
X125005134Y-61305110D01*
X125027661Y-61277661D01*
X125055110Y-61255134D01*
X125086431Y-61238393D01*
X125120409Y-61228085D01*
X125161890Y-61224000D01*
X125838110Y-61224000D01*
X125879591Y-61228085D01*
G37*
G36*
X128379591Y-61228085D02*
G01*
X128413569Y-61238393D01*
X128444890Y-61255134D01*
X128472339Y-61277661D01*
X128494866Y-61305110D01*
X128511607Y-61336431D01*
X128521915Y-61370409D01*
X128526000Y-61411890D01*
X128526000Y-62013110D01*
X128521915Y-62054591D01*
X128511607Y-62088569D01*
X128494866Y-62119890D01*
X128472339Y-62147339D01*
X128444890Y-62169866D01*
X128413569Y-62186607D01*
X128379591Y-62196915D01*
X128338110Y-62201000D01*
X127661890Y-62201000D01*
X127620409Y-62196915D01*
X127586431Y-62186607D01*
X127555110Y-62169866D01*
X127527661Y-62147339D01*
X127505134Y-62119890D01*
X127488393Y-62088569D01*
X127478085Y-62054591D01*
X127474000Y-62013110D01*
X127474000Y-61411890D01*
X127478085Y-61370409D01*
X127488393Y-61336431D01*
X127505134Y-61305110D01*
X127527661Y-61277661D01*
X127555110Y-61255134D01*
X127586431Y-61238393D01*
X127620409Y-61228085D01*
X127661890Y-61224000D01*
X128338110Y-61224000D01*
X128379591Y-61228085D01*
G37*
G36*
X118379591Y-61228085D02*
G01*
X118413569Y-61238393D01*
X118444890Y-61255134D01*
X118472339Y-61277661D01*
X118494866Y-61305110D01*
X118511607Y-61336431D01*
X118521915Y-61370409D01*
X118526000Y-61411890D01*
X118526000Y-62013110D01*
X118521915Y-62054591D01*
X118511607Y-62088569D01*
X118494866Y-62119890D01*
X118472339Y-62147339D01*
X118444890Y-62169866D01*
X118413569Y-62186607D01*
X118379591Y-62196915D01*
X118338110Y-62201000D01*
X117661890Y-62201000D01*
X117620409Y-62196915D01*
X117586431Y-62186607D01*
X117555110Y-62169866D01*
X117527661Y-62147339D01*
X117505134Y-62119890D01*
X117488393Y-62088569D01*
X117478085Y-62054591D01*
X117474000Y-62013110D01*
X117474000Y-61411890D01*
X117478085Y-61370409D01*
X117488393Y-61336431D01*
X117505134Y-61305110D01*
X117527661Y-61277661D01*
X117555110Y-61255134D01*
X117586431Y-61238393D01*
X117620409Y-61228085D01*
X117661890Y-61224000D01*
X118338110Y-61224000D01*
X118379591Y-61228085D01*
G37*
G36*
X120879591Y-61228085D02*
G01*
X120913569Y-61238393D01*
X120944890Y-61255134D01*
X120972339Y-61277661D01*
X120994866Y-61305110D01*
X121011607Y-61336431D01*
X121021915Y-61370409D01*
X121026000Y-61411890D01*
X121026000Y-62013110D01*
X121021915Y-62054591D01*
X121011607Y-62088569D01*
X120994866Y-62119890D01*
X120972339Y-62147339D01*
X120944890Y-62169866D01*
X120913569Y-62186607D01*
X120879591Y-62196915D01*
X120838110Y-62201000D01*
X120161890Y-62201000D01*
X120120409Y-62196915D01*
X120086431Y-62186607D01*
X120055110Y-62169866D01*
X120027661Y-62147339D01*
X120005134Y-62119890D01*
X119988393Y-62088569D01*
X119978085Y-62054591D01*
X119974000Y-62013110D01*
X119974000Y-61411890D01*
X119978085Y-61370409D01*
X119988393Y-61336431D01*
X120005134Y-61305110D01*
X120027661Y-61277661D01*
X120055110Y-61255134D01*
X120086431Y-61238393D01*
X120120409Y-61228085D01*
X120161890Y-61224000D01*
X120838110Y-61224000D01*
X120879591Y-61228085D01*
G37*
G36*
X123379591Y-61228085D02*
G01*
X123413569Y-61238393D01*
X123444890Y-61255134D01*
X123472339Y-61277661D01*
X123494866Y-61305110D01*
X123511607Y-61336431D01*
X123521915Y-61370409D01*
X123526000Y-61411890D01*
X123526000Y-62013110D01*
X123521915Y-62054591D01*
X123511607Y-62088569D01*
X123494866Y-62119890D01*
X123472339Y-62147339D01*
X123444890Y-62169866D01*
X123413569Y-62186607D01*
X123379591Y-62196915D01*
X123338110Y-62201000D01*
X122661890Y-62201000D01*
X122620409Y-62196915D01*
X122586431Y-62186607D01*
X122555110Y-62169866D01*
X122527661Y-62147339D01*
X122505134Y-62119890D01*
X122488393Y-62088569D01*
X122478085Y-62054591D01*
X122474000Y-62013110D01*
X122474000Y-61411890D01*
X122478085Y-61370409D01*
X122488393Y-61336431D01*
X122505134Y-61305110D01*
X122527661Y-61277661D01*
X122555110Y-61255134D01*
X122586431Y-61238393D01*
X122620409Y-61228085D01*
X122661890Y-61224000D01*
X123338110Y-61224000D01*
X123379591Y-61228085D01*
G37*
G36*
X166508991Y-61111185D02*
G01*
X166542969Y-61121493D01*
X166574290Y-61138234D01*
X166601739Y-61160761D01*
X166624266Y-61188210D01*
X166641007Y-61219531D01*
X166651315Y-61253509D01*
X166655400Y-61294990D01*
X166655400Y-61971210D01*
X166651315Y-62012691D01*
X166641007Y-62046669D01*
X166624266Y-62077990D01*
X166601739Y-62105439D01*
X166574290Y-62127966D01*
X166542969Y-62144707D01*
X166508991Y-62155015D01*
X166467510Y-62159100D01*
X165866290Y-62159100D01*
X165824809Y-62155015D01*
X165790831Y-62144707D01*
X165759510Y-62127966D01*
X165732061Y-62105439D01*
X165709534Y-62077990D01*
X165692793Y-62046669D01*
X165682485Y-62012691D01*
X165678400Y-61971210D01*
X165678400Y-61294990D01*
X165682485Y-61253509D01*
X165692793Y-61219531D01*
X165709534Y-61188210D01*
X165732061Y-61160761D01*
X165759510Y-61138234D01*
X165790831Y-61121493D01*
X165824809Y-61111185D01*
X165866290Y-61107100D01*
X166467510Y-61107100D01*
X166508991Y-61111185D01*
G37*
G36*
X164933991Y-61111185D02*
G01*
X164967969Y-61121493D01*
X164999290Y-61138234D01*
X165026739Y-61160761D01*
X165049266Y-61188210D01*
X165066007Y-61219531D01*
X165076315Y-61253509D01*
X165080400Y-61294990D01*
X165080400Y-61971210D01*
X165076315Y-62012691D01*
X165066007Y-62046669D01*
X165049266Y-62077990D01*
X165026739Y-62105439D01*
X164999290Y-62127966D01*
X164967969Y-62144707D01*
X164933991Y-62155015D01*
X164892510Y-62159100D01*
X164291290Y-62159100D01*
X164249809Y-62155015D01*
X164215831Y-62144707D01*
X164184510Y-62127966D01*
X164157061Y-62105439D01*
X164134534Y-62077990D01*
X164117793Y-62046669D01*
X164107485Y-62012691D01*
X164103400Y-61971210D01*
X164103400Y-61294990D01*
X164107485Y-61253509D01*
X164117793Y-61219531D01*
X164134534Y-61188210D01*
X164157061Y-61160761D01*
X164184510Y-61138234D01*
X164215831Y-61121493D01*
X164249809Y-61111185D01*
X164291290Y-61107100D01*
X164892510Y-61107100D01*
X164933991Y-61111185D01*
G37*
G36*
X135253591Y-58278585D02*
G01*
X135287569Y-58288893D01*
X135318890Y-58305634D01*
X135346339Y-58328161D01*
X135368866Y-58355610D01*
X135385607Y-58386931D01*
X135395915Y-58420909D01*
X135400000Y-58462390D01*
X135400000Y-59063610D01*
X135395915Y-59105091D01*
X135385607Y-59139069D01*
X135368866Y-59170390D01*
X135346339Y-59197839D01*
X135318890Y-59220366D01*
X135287569Y-59237107D01*
X135253591Y-59247415D01*
X135212110Y-59251500D01*
X134535890Y-59251500D01*
X134494409Y-59247415D01*
X134460431Y-59237107D01*
X134429110Y-59220366D01*
X134401661Y-59197839D01*
X134379134Y-59170390D01*
X134362393Y-59139069D01*
X134352085Y-59105091D01*
X134348000Y-59063610D01*
X134348000Y-58462390D01*
X134352085Y-58420909D01*
X134362393Y-58386931D01*
X134379134Y-58355610D01*
X134401661Y-58328161D01*
X134429110Y-58305634D01*
X134460431Y-58288893D01*
X134494409Y-58278585D01*
X134535890Y-58274500D01*
X135212110Y-58274500D01*
X135253591Y-58278585D01*
G37*
G36*
X142602391Y-58278585D02*
G01*
X142636369Y-58288893D01*
X142667690Y-58305634D01*
X142695139Y-58328161D01*
X142717666Y-58355610D01*
X142734407Y-58386931D01*
X142744715Y-58420909D01*
X142748800Y-58462390D01*
X142748800Y-59063610D01*
X142744715Y-59105091D01*
X142734407Y-59139069D01*
X142717666Y-59170390D01*
X142695139Y-59197839D01*
X142667690Y-59220366D01*
X142636369Y-59237107D01*
X142602391Y-59247415D01*
X142560910Y-59251500D01*
X141884690Y-59251500D01*
X141843209Y-59247415D01*
X141809231Y-59237107D01*
X141777910Y-59220366D01*
X141750461Y-59197839D01*
X141727934Y-59170390D01*
X141711193Y-59139069D01*
X141700885Y-59105091D01*
X141696800Y-59063610D01*
X141696800Y-58462390D01*
X141700885Y-58420909D01*
X141711193Y-58386931D01*
X141727934Y-58355610D01*
X141750461Y-58328161D01*
X141777910Y-58305634D01*
X141809231Y-58288893D01*
X141843209Y-58278585D01*
X141884690Y-58274500D01*
X142560910Y-58274500D01*
X142602391Y-58278585D01*
G37*
G36*
X145142391Y-58278585D02*
G01*
X145176369Y-58288893D01*
X145207690Y-58305634D01*
X145235139Y-58328161D01*
X145257666Y-58355610D01*
X145274407Y-58386931D01*
X145284715Y-58420909D01*
X145288800Y-58462390D01*
X145288800Y-59063610D01*
X145284715Y-59105091D01*
X145274407Y-59139069D01*
X145257666Y-59170390D01*
X145235139Y-59197839D01*
X145207690Y-59220366D01*
X145176369Y-59237107D01*
X145142391Y-59247415D01*
X145100910Y-59251500D01*
X144424690Y-59251500D01*
X144383209Y-59247415D01*
X144349231Y-59237107D01*
X144317910Y-59220366D01*
X144290461Y-59197839D01*
X144267934Y-59170390D01*
X144251193Y-59139069D01*
X144240885Y-59105091D01*
X144236800Y-59063610D01*
X144236800Y-58462390D01*
X144240885Y-58420909D01*
X144251193Y-58386931D01*
X144267934Y-58355610D01*
X144290461Y-58328161D01*
X144317910Y-58305634D01*
X144349231Y-58288893D01*
X144383209Y-58278585D01*
X144424690Y-58274500D01*
X145100910Y-58274500D01*
X145142391Y-58278585D01*
G37*
G36*
X170813591Y-58253185D02*
G01*
X170847569Y-58263493D01*
X170878890Y-58280234D01*
X170906339Y-58302761D01*
X170928866Y-58330210D01*
X170945607Y-58361531D01*
X170955915Y-58395509D01*
X170960000Y-58436990D01*
X170960000Y-59038210D01*
X170955915Y-59079691D01*
X170945607Y-59113669D01*
X170928866Y-59144990D01*
X170906339Y-59172439D01*
X170878890Y-59194966D01*
X170847569Y-59211707D01*
X170813591Y-59222015D01*
X170772110Y-59226100D01*
X170095890Y-59226100D01*
X170054409Y-59222015D01*
X170020431Y-59211707D01*
X169989110Y-59194966D01*
X169961661Y-59172439D01*
X169939134Y-59144990D01*
X169922393Y-59113669D01*
X169912085Y-59079691D01*
X169908000Y-59038210D01*
X169908000Y-58436990D01*
X169912085Y-58395509D01*
X169922393Y-58361531D01*
X169939134Y-58330210D01*
X169961661Y-58302761D01*
X169989110Y-58280234D01*
X170020431Y-58263493D01*
X170054409Y-58253185D01*
X170095890Y-58249100D01*
X170772110Y-58249100D01*
X170813591Y-58253185D01*
G37*
G36*
X132713591Y-58215085D02*
G01*
X132747569Y-58225393D01*
X132778890Y-58242134D01*
X132806339Y-58264661D01*
X132828866Y-58292110D01*
X132845607Y-58323431D01*
X132855915Y-58357409D01*
X132860000Y-58398890D01*
X132860000Y-59000110D01*
X132855915Y-59041591D01*
X132845607Y-59075569D01*
X132828866Y-59106890D01*
X132806339Y-59134339D01*
X132778890Y-59156866D01*
X132747569Y-59173607D01*
X132713591Y-59183915D01*
X132672110Y-59188000D01*
X131995890Y-59188000D01*
X131954409Y-59183915D01*
X131920431Y-59173607D01*
X131889110Y-59156866D01*
X131861661Y-59134339D01*
X131839134Y-59106890D01*
X131822393Y-59075569D01*
X131812085Y-59041591D01*
X131808000Y-59000110D01*
X131808000Y-58398890D01*
X131812085Y-58357409D01*
X131822393Y-58323431D01*
X131839134Y-58292110D01*
X131861661Y-58264661D01*
X131889110Y-58242134D01*
X131920431Y-58225393D01*
X131954409Y-58215085D01*
X131995890Y-58211000D01*
X132672110Y-58211000D01*
X132713591Y-58215085D01*
G37*
G36*
X173353591Y-58215085D02*
G01*
X173387569Y-58225393D01*
X173418890Y-58242134D01*
X173446339Y-58264661D01*
X173468866Y-58292110D01*
X173485607Y-58323431D01*
X173495915Y-58357409D01*
X173500000Y-58398890D01*
X173500000Y-59000110D01*
X173495915Y-59041591D01*
X173485607Y-59075569D01*
X173468866Y-59106890D01*
X173446339Y-59134339D01*
X173418890Y-59156866D01*
X173387569Y-59173607D01*
X173353591Y-59183915D01*
X173312110Y-59188000D01*
X172635890Y-59188000D01*
X172594409Y-59183915D01*
X172560431Y-59173607D01*
X172529110Y-59156866D01*
X172501661Y-59134339D01*
X172479134Y-59106890D01*
X172462393Y-59075569D01*
X172452085Y-59041591D01*
X172448000Y-59000110D01*
X172448000Y-58398890D01*
X172452085Y-58357409D01*
X172462393Y-58323431D01*
X172479134Y-58292110D01*
X172501661Y-58264661D01*
X172529110Y-58242134D01*
X172560431Y-58225393D01*
X172594409Y-58215085D01*
X172635890Y-58211000D01*
X173312110Y-58211000D01*
X173353591Y-58215085D01*
G37*
G36*
X122553591Y-58215085D02*
G01*
X122587569Y-58225393D01*
X122618890Y-58242134D01*
X122646339Y-58264661D01*
X122668866Y-58292110D01*
X122685607Y-58323431D01*
X122695915Y-58357409D01*
X122700000Y-58398890D01*
X122700000Y-59000110D01*
X122695915Y-59041591D01*
X122685607Y-59075569D01*
X122668866Y-59106890D01*
X122646339Y-59134339D01*
X122618890Y-59156866D01*
X122587569Y-59173607D01*
X122553591Y-59183915D01*
X122512110Y-59188000D01*
X121835890Y-59188000D01*
X121794409Y-59183915D01*
X121760431Y-59173607D01*
X121729110Y-59156866D01*
X121701661Y-59134339D01*
X121679134Y-59106890D01*
X121662393Y-59075569D01*
X121652085Y-59041591D01*
X121648000Y-59000110D01*
X121648000Y-58398890D01*
X121652085Y-58357409D01*
X121662393Y-58323431D01*
X121679134Y-58292110D01*
X121701661Y-58264661D01*
X121729110Y-58242134D01*
X121760431Y-58225393D01*
X121794409Y-58215085D01*
X121835890Y-58211000D01*
X122512110Y-58211000D01*
X122553591Y-58215085D01*
G37*
G36*
X120267591Y-58215085D02*
G01*
X120301569Y-58225393D01*
X120332890Y-58242134D01*
X120360339Y-58264661D01*
X120382866Y-58292110D01*
X120399607Y-58323431D01*
X120409915Y-58357409D01*
X120414000Y-58398890D01*
X120414000Y-59000110D01*
X120409915Y-59041591D01*
X120399607Y-59075569D01*
X120382866Y-59106890D01*
X120360339Y-59134339D01*
X120332890Y-59156866D01*
X120301569Y-59173607D01*
X120267591Y-59183915D01*
X120226110Y-59188000D01*
X119549890Y-59188000D01*
X119508409Y-59183915D01*
X119474431Y-59173607D01*
X119443110Y-59156866D01*
X119415661Y-59134339D01*
X119393134Y-59106890D01*
X119376393Y-59075569D01*
X119366085Y-59041591D01*
X119362000Y-59000110D01*
X119362000Y-58398890D01*
X119366085Y-58357409D01*
X119376393Y-58323431D01*
X119393134Y-58292110D01*
X119415661Y-58264661D01*
X119443110Y-58242134D01*
X119474431Y-58225393D01*
X119508409Y-58215085D01*
X119549890Y-58211000D01*
X120226110Y-58211000D01*
X120267591Y-58215085D01*
G37*
G36*
X158113591Y-58215085D02*
G01*
X158147569Y-58225393D01*
X158178890Y-58242134D01*
X158206339Y-58264661D01*
X158228866Y-58292110D01*
X158245607Y-58323431D01*
X158255915Y-58357409D01*
X158260000Y-58398890D01*
X158260000Y-59000110D01*
X158255915Y-59041591D01*
X158245607Y-59075569D01*
X158228866Y-59106890D01*
X158206339Y-59134339D01*
X158178890Y-59156866D01*
X158147569Y-59173607D01*
X158113591Y-59183915D01*
X158072110Y-59188000D01*
X157395890Y-59188000D01*
X157354409Y-59183915D01*
X157320431Y-59173607D01*
X157289110Y-59156866D01*
X157261661Y-59134339D01*
X157239134Y-59106890D01*
X157222393Y-59075569D01*
X157212085Y-59041591D01*
X157208000Y-59000110D01*
X157208000Y-58398890D01*
X157212085Y-58357409D01*
X157222393Y-58323431D01*
X157239134Y-58292110D01*
X157261661Y-58264661D01*
X157289110Y-58242134D01*
X157320431Y-58225393D01*
X157354409Y-58215085D01*
X157395890Y-58211000D01*
X158072110Y-58211000D01*
X158113591Y-58215085D01*
G37*
G36*
X160653591Y-58215085D02*
G01*
X160687569Y-58225393D01*
X160718890Y-58242134D01*
X160746339Y-58264661D01*
X160768866Y-58292110D01*
X160785607Y-58323431D01*
X160795915Y-58357409D01*
X160800000Y-58398890D01*
X160800000Y-59000110D01*
X160795915Y-59041591D01*
X160785607Y-59075569D01*
X160768866Y-59106890D01*
X160746339Y-59134339D01*
X160718890Y-59156866D01*
X160687569Y-59173607D01*
X160653591Y-59183915D01*
X160612110Y-59188000D01*
X159935890Y-59188000D01*
X159894409Y-59183915D01*
X159860431Y-59173607D01*
X159829110Y-59156866D01*
X159801661Y-59134339D01*
X159779134Y-59106890D01*
X159762393Y-59075569D01*
X159752085Y-59041591D01*
X159748000Y-59000110D01*
X159748000Y-58398890D01*
X159752085Y-58357409D01*
X159762393Y-58323431D01*
X159779134Y-58292110D01*
X159801661Y-58264661D01*
X159829110Y-58242134D01*
X159860431Y-58225393D01*
X159894409Y-58215085D01*
X159935890Y-58211000D01*
X160612110Y-58211000D01*
X160653591Y-58215085D01*
G37*
G36*
X107313591Y-58215085D02*
G01*
X107347569Y-58225393D01*
X107378890Y-58242134D01*
X107406339Y-58264661D01*
X107428866Y-58292110D01*
X107445607Y-58323431D01*
X107455915Y-58357409D01*
X107460000Y-58398890D01*
X107460000Y-59000110D01*
X107455915Y-59041591D01*
X107445607Y-59075569D01*
X107428866Y-59106890D01*
X107406339Y-59134339D01*
X107378890Y-59156866D01*
X107347569Y-59173607D01*
X107313591Y-59183915D01*
X107272110Y-59188000D01*
X106595890Y-59188000D01*
X106554409Y-59183915D01*
X106520431Y-59173607D01*
X106489110Y-59156866D01*
X106461661Y-59134339D01*
X106439134Y-59106890D01*
X106422393Y-59075569D01*
X106412085Y-59041591D01*
X106408000Y-59000110D01*
X106408000Y-58398890D01*
X106412085Y-58357409D01*
X106422393Y-58323431D01*
X106439134Y-58292110D01*
X106461661Y-58264661D01*
X106489110Y-58242134D01*
X106520431Y-58225393D01*
X106554409Y-58215085D01*
X106595890Y-58211000D01*
X107272110Y-58211000D01*
X107313591Y-58215085D01*
G37*
G36*
X110107591Y-58215085D02*
G01*
X110141569Y-58225393D01*
X110172890Y-58242134D01*
X110200339Y-58264661D01*
X110222866Y-58292110D01*
X110239607Y-58323431D01*
X110249915Y-58357409D01*
X110254000Y-58398890D01*
X110254000Y-59000110D01*
X110249915Y-59041591D01*
X110239607Y-59075569D01*
X110222866Y-59106890D01*
X110200339Y-59134339D01*
X110172890Y-59156866D01*
X110141569Y-59173607D01*
X110107591Y-59183915D01*
X110066110Y-59188000D01*
X109389890Y-59188000D01*
X109348409Y-59183915D01*
X109314431Y-59173607D01*
X109283110Y-59156866D01*
X109255661Y-59134339D01*
X109233134Y-59106890D01*
X109216393Y-59075569D01*
X109206085Y-59041591D01*
X109202000Y-59000110D01*
X109202000Y-58398890D01*
X109206085Y-58357409D01*
X109216393Y-58323431D01*
X109233134Y-58292110D01*
X109255661Y-58264661D01*
X109283110Y-58242134D01*
X109314431Y-58225393D01*
X109348409Y-58215085D01*
X109389890Y-58211000D01*
X110066110Y-58211000D01*
X110107591Y-58215085D01*
G37*
G36*
X127547468Y-56657565D02*
G01*
X127586138Y-56669296D01*
X127621777Y-56688346D01*
X127653017Y-56713983D01*
X127678654Y-56745223D01*
X127697704Y-56780862D01*
X127709435Y-56819532D01*
X127714000Y-56865888D01*
X127714000Y-57942112D01*
X127709435Y-57988468D01*
X127697704Y-58027138D01*
X127678654Y-58062777D01*
X127653017Y-58094017D01*
X127621777Y-58119654D01*
X127586138Y-58138704D01*
X127547468Y-58150435D01*
X127501112Y-58155000D01*
X126849888Y-58155000D01*
X126803532Y-58150435D01*
X126764862Y-58138704D01*
X126729223Y-58119654D01*
X126697983Y-58094017D01*
X126672346Y-58062777D01*
X126653296Y-58027138D01*
X126641565Y-57988468D01*
X126637000Y-57942112D01*
X126637000Y-56865888D01*
X126641565Y-56819532D01*
X126653296Y-56780862D01*
X126672346Y-56745223D01*
X126697983Y-56713983D01*
X126729223Y-56688346D01*
X126764862Y-56669296D01*
X126803532Y-56657565D01*
X126849888Y-56653000D01*
X127501112Y-56653000D01*
X127547468Y-56657565D01*
G37*
G36*
X125672468Y-56657565D02*
G01*
X125711138Y-56669296D01*
X125746777Y-56688346D01*
X125778017Y-56713983D01*
X125803654Y-56745223D01*
X125822704Y-56780862D01*
X125834435Y-56819532D01*
X125839000Y-56865888D01*
X125839000Y-57942112D01*
X125834435Y-57988468D01*
X125822704Y-58027138D01*
X125803654Y-58062777D01*
X125778017Y-58094017D01*
X125746777Y-58119654D01*
X125711138Y-58138704D01*
X125672468Y-58150435D01*
X125626112Y-58155000D01*
X124974888Y-58155000D01*
X124928532Y-58150435D01*
X124889862Y-58138704D01*
X124854223Y-58119654D01*
X124822983Y-58094017D01*
X124797346Y-58062777D01*
X124778296Y-58027138D01*
X124766565Y-57988468D01*
X124762000Y-57942112D01*
X124762000Y-56865888D01*
X124766565Y-56819532D01*
X124778296Y-56780862D01*
X124797346Y-56745223D01*
X124822983Y-56713983D01*
X124854223Y-56688346D01*
X124889862Y-56669296D01*
X124928532Y-56657565D01*
X124974888Y-56653000D01*
X125626112Y-56653000D01*
X125672468Y-56657565D01*
G37*
G36*
X114593468Y-56657565D02*
G01*
X114632138Y-56669296D01*
X114667777Y-56688346D01*
X114699017Y-56713983D01*
X114724654Y-56745223D01*
X114743704Y-56780862D01*
X114755435Y-56819532D01*
X114760000Y-56865888D01*
X114760000Y-57942112D01*
X114755435Y-57988468D01*
X114743704Y-58027138D01*
X114724654Y-58062777D01*
X114699017Y-58094017D01*
X114667777Y-58119654D01*
X114632138Y-58138704D01*
X114593468Y-58150435D01*
X114547112Y-58155000D01*
X113895888Y-58155000D01*
X113849532Y-58150435D01*
X113810862Y-58138704D01*
X113775223Y-58119654D01*
X113743983Y-58094017D01*
X113718346Y-58062777D01*
X113699296Y-58027138D01*
X113687565Y-57988468D01*
X113683000Y-57942112D01*
X113683000Y-56865888D01*
X113687565Y-56819532D01*
X113699296Y-56780862D01*
X113718346Y-56745223D01*
X113743983Y-56713983D01*
X113775223Y-56688346D01*
X113810862Y-56669296D01*
X113849532Y-56657565D01*
X113895888Y-56653000D01*
X114547112Y-56653000D01*
X114593468Y-56657565D01*
G37*
G36*
X152693468Y-56657565D02*
G01*
X152732138Y-56669296D01*
X152767777Y-56688346D01*
X152799017Y-56713983D01*
X152824654Y-56745223D01*
X152843704Y-56780862D01*
X152855435Y-56819532D01*
X152860000Y-56865888D01*
X152860000Y-57942112D01*
X152855435Y-57988468D01*
X152843704Y-58027138D01*
X152824654Y-58062777D01*
X152799017Y-58094017D01*
X152767777Y-58119654D01*
X152732138Y-58138704D01*
X152693468Y-58150435D01*
X152647112Y-58155000D01*
X151995888Y-58155000D01*
X151949532Y-58150435D01*
X151910862Y-58138704D01*
X151875223Y-58119654D01*
X151843983Y-58094017D01*
X151818346Y-58062777D01*
X151799296Y-58027138D01*
X151787565Y-57988468D01*
X151783000Y-57942112D01*
X151783000Y-56865888D01*
X151787565Y-56819532D01*
X151799296Y-56780862D01*
X151818346Y-56745223D01*
X151843983Y-56713983D01*
X151875223Y-56688346D01*
X151910862Y-56669296D01*
X151949532Y-56657565D01*
X151995888Y-56653000D01*
X152647112Y-56653000D01*
X152693468Y-56657565D01*
G37*
G36*
X112718468Y-56657565D02*
G01*
X112757138Y-56669296D01*
X112792777Y-56688346D01*
X112824017Y-56713983D01*
X112849654Y-56745223D01*
X112868704Y-56780862D01*
X112880435Y-56819532D01*
X112885000Y-56865888D01*
X112885000Y-57942112D01*
X112880435Y-57988468D01*
X112868704Y-58027138D01*
X112849654Y-58062777D01*
X112824017Y-58094017D01*
X112792777Y-58119654D01*
X112757138Y-58138704D01*
X112718468Y-58150435D01*
X112672112Y-58155000D01*
X112020888Y-58155000D01*
X111974532Y-58150435D01*
X111935862Y-58138704D01*
X111900223Y-58119654D01*
X111868983Y-58094017D01*
X111843346Y-58062777D01*
X111824296Y-58027138D01*
X111812565Y-57988468D01*
X111808000Y-57942112D01*
X111808000Y-56865888D01*
X111812565Y-56819532D01*
X111824296Y-56780862D01*
X111843346Y-56745223D01*
X111868983Y-56713983D01*
X111900223Y-56688346D01*
X111935862Y-56669296D01*
X111974532Y-56657565D01*
X112020888Y-56653000D01*
X112672112Y-56653000D01*
X112718468Y-56657565D01*
G37*
G36*
X150818468Y-56657565D02*
G01*
X150857138Y-56669296D01*
X150892777Y-56688346D01*
X150924017Y-56713983D01*
X150949654Y-56745223D01*
X150968704Y-56780862D01*
X150980435Y-56819532D01*
X150985000Y-56865888D01*
X150985000Y-57942112D01*
X150980435Y-57988468D01*
X150968704Y-58027138D01*
X150949654Y-58062777D01*
X150924017Y-58094017D01*
X150892777Y-58119654D01*
X150857138Y-58138704D01*
X150818468Y-58150435D01*
X150772112Y-58155000D01*
X150120888Y-58155000D01*
X150074532Y-58150435D01*
X150035862Y-58138704D01*
X150000223Y-58119654D01*
X149968983Y-58094017D01*
X149943346Y-58062777D01*
X149924296Y-58027138D01*
X149912565Y-57988468D01*
X149908000Y-57942112D01*
X149908000Y-56865888D01*
X149912565Y-56819532D01*
X149924296Y-56780862D01*
X149943346Y-56745223D01*
X149968983Y-56713983D01*
X150000223Y-56688346D01*
X150035862Y-56669296D01*
X150074532Y-56657565D01*
X150120888Y-56653000D01*
X150772112Y-56653000D01*
X150818468Y-56657565D01*
G37*
G36*
X139993468Y-56403565D02*
G01*
X140032138Y-56415296D01*
X140067777Y-56434346D01*
X140099017Y-56459983D01*
X140124654Y-56491223D01*
X140143704Y-56526862D01*
X140155435Y-56565532D01*
X140160000Y-56611888D01*
X140160000Y-57688112D01*
X140155435Y-57734468D01*
X140143704Y-57773138D01*
X140124654Y-57808777D01*
X140099017Y-57840017D01*
X140067777Y-57865654D01*
X140032138Y-57884704D01*
X139993468Y-57896435D01*
X139947112Y-57901000D01*
X139295888Y-57901000D01*
X139249532Y-57896435D01*
X139210862Y-57884704D01*
X139175223Y-57865654D01*
X139143983Y-57840017D01*
X139118346Y-57808777D01*
X139099296Y-57773138D01*
X139087565Y-57734468D01*
X139083000Y-57688112D01*
X139083000Y-56611888D01*
X139087565Y-56565532D01*
X139099296Y-56526862D01*
X139118346Y-56491223D01*
X139143983Y-56459983D01*
X139175223Y-56434346D01*
X139210862Y-56415296D01*
X139249532Y-56403565D01*
X139295888Y-56399000D01*
X139947112Y-56399000D01*
X139993468Y-56403565D01*
G37*
G36*
X138118468Y-56403565D02*
G01*
X138157138Y-56415296D01*
X138192777Y-56434346D01*
X138224017Y-56459983D01*
X138249654Y-56491223D01*
X138268704Y-56526862D01*
X138280435Y-56565532D01*
X138285000Y-56611888D01*
X138285000Y-57688112D01*
X138280435Y-57734468D01*
X138268704Y-57773138D01*
X138249654Y-57808777D01*
X138224017Y-57840017D01*
X138192777Y-57865654D01*
X138157138Y-57884704D01*
X138118468Y-57896435D01*
X138072112Y-57901000D01*
X137420888Y-57901000D01*
X137374532Y-57896435D01*
X137335862Y-57884704D01*
X137300223Y-57865654D01*
X137268983Y-57840017D01*
X137243346Y-57808777D01*
X137224296Y-57773138D01*
X137212565Y-57734468D01*
X137208000Y-57688112D01*
X137208000Y-56611888D01*
X137212565Y-56565532D01*
X137224296Y-56526862D01*
X137243346Y-56491223D01*
X137268983Y-56459983D01*
X137300223Y-56434346D01*
X137335862Y-56415296D01*
X137374532Y-56403565D01*
X137420888Y-56399000D01*
X138072112Y-56399000D01*
X138118468Y-56403565D01*
G37*
G36*
X145142391Y-56703585D02*
G01*
X145176369Y-56713893D01*
X145207690Y-56730634D01*
X145235139Y-56753161D01*
X145257666Y-56780610D01*
X145274407Y-56811931D01*
X145284715Y-56845909D01*
X145288800Y-56887390D01*
X145288800Y-57488610D01*
X145284715Y-57530091D01*
X145274407Y-57564069D01*
X145257666Y-57595390D01*
X145235139Y-57622839D01*
X145207690Y-57645366D01*
X145176369Y-57662107D01*
X145142391Y-57672415D01*
X145100910Y-57676500D01*
X144424690Y-57676500D01*
X144383209Y-57672415D01*
X144349231Y-57662107D01*
X144317910Y-57645366D01*
X144290461Y-57622839D01*
X144267934Y-57595390D01*
X144251193Y-57564069D01*
X144240885Y-57530091D01*
X144236800Y-57488610D01*
X144236800Y-56887390D01*
X144240885Y-56845909D01*
X144251193Y-56811931D01*
X144267934Y-56780610D01*
X144290461Y-56753161D01*
X144317910Y-56730634D01*
X144349231Y-56713893D01*
X144383209Y-56703585D01*
X144424690Y-56699500D01*
X145100910Y-56699500D01*
X145142391Y-56703585D01*
G37*
G36*
X142602391Y-56703585D02*
G01*
X142636369Y-56713893D01*
X142667690Y-56730634D01*
X142695139Y-56753161D01*
X142717666Y-56780610D01*
X142734407Y-56811931D01*
X142744715Y-56845909D01*
X142748800Y-56887390D01*
X142748800Y-57488610D01*
X142744715Y-57530091D01*
X142734407Y-57564069D01*
X142717666Y-57595390D01*
X142695139Y-57622839D01*
X142667690Y-57645366D01*
X142636369Y-57662107D01*
X142602391Y-57672415D01*
X142560910Y-57676500D01*
X141884690Y-57676500D01*
X141843209Y-57672415D01*
X141809231Y-57662107D01*
X141777910Y-57645366D01*
X141750461Y-57622839D01*
X141727934Y-57595390D01*
X141711193Y-57564069D01*
X141700885Y-57530091D01*
X141696800Y-57488610D01*
X141696800Y-56887390D01*
X141700885Y-56845909D01*
X141711193Y-56811931D01*
X141727934Y-56780610D01*
X141750461Y-56753161D01*
X141777910Y-56730634D01*
X141809231Y-56713893D01*
X141843209Y-56703585D01*
X141884690Y-56699500D01*
X142560910Y-56699500D01*
X142602391Y-56703585D01*
G37*
G36*
X135253591Y-56703585D02*
G01*
X135287569Y-56713893D01*
X135318890Y-56730634D01*
X135346339Y-56753161D01*
X135368866Y-56780610D01*
X135385607Y-56811931D01*
X135395915Y-56845909D01*
X135400000Y-56887390D01*
X135400000Y-57488610D01*
X135395915Y-57530091D01*
X135385607Y-57564069D01*
X135368866Y-57595390D01*
X135346339Y-57622839D01*
X135318890Y-57645366D01*
X135287569Y-57662107D01*
X135253591Y-57672415D01*
X135212110Y-57676500D01*
X134535890Y-57676500D01*
X134494409Y-57672415D01*
X134460431Y-57662107D01*
X134429110Y-57645366D01*
X134401661Y-57622839D01*
X134379134Y-57595390D01*
X134362393Y-57564069D01*
X134352085Y-57530091D01*
X134348000Y-57488610D01*
X134348000Y-56887390D01*
X134352085Y-56845909D01*
X134362393Y-56811931D01*
X134379134Y-56780610D01*
X134401661Y-56753161D01*
X134429110Y-56730634D01*
X134460431Y-56713893D01*
X134494409Y-56703585D01*
X134535890Y-56699500D01*
X135212110Y-56699500D01*
X135253591Y-56703585D01*
G37*
G36*
X170813591Y-56678185D02*
G01*
X170847569Y-56688493D01*
X170878890Y-56705234D01*
X170906339Y-56727761D01*
X170928866Y-56755210D01*
X170945607Y-56786531D01*
X170955915Y-56820509D01*
X170960000Y-56861990D01*
X170960000Y-57463210D01*
X170955915Y-57504691D01*
X170945607Y-57538669D01*
X170928866Y-57569990D01*
X170906339Y-57597439D01*
X170878890Y-57619966D01*
X170847569Y-57636707D01*
X170813591Y-57647015D01*
X170772110Y-57651100D01*
X170095890Y-57651100D01*
X170054409Y-57647015D01*
X170020431Y-57636707D01*
X169989110Y-57619966D01*
X169961661Y-57597439D01*
X169939134Y-57569990D01*
X169922393Y-57538669D01*
X169912085Y-57504691D01*
X169908000Y-57463210D01*
X169908000Y-56861990D01*
X169912085Y-56820509D01*
X169922393Y-56786531D01*
X169939134Y-56755210D01*
X169961661Y-56727761D01*
X169989110Y-56705234D01*
X170020431Y-56688493D01*
X170054409Y-56678185D01*
X170095890Y-56674100D01*
X170772110Y-56674100D01*
X170813591Y-56678185D01*
G37*
G36*
X160653591Y-56640085D02*
G01*
X160687569Y-56650393D01*
X160718890Y-56667134D01*
X160746339Y-56689661D01*
X160768866Y-56717110D01*
X160785607Y-56748431D01*
X160795915Y-56782409D01*
X160800000Y-56823890D01*
X160800000Y-57425110D01*
X160795915Y-57466591D01*
X160785607Y-57500569D01*
X160768866Y-57531890D01*
X160746339Y-57559339D01*
X160718890Y-57581866D01*
X160687569Y-57598607D01*
X160653591Y-57608915D01*
X160612110Y-57613000D01*
X159935890Y-57613000D01*
X159894409Y-57608915D01*
X159860431Y-57598607D01*
X159829110Y-57581866D01*
X159801661Y-57559339D01*
X159779134Y-57531890D01*
X159762393Y-57500569D01*
X159752085Y-57466591D01*
X159748000Y-57425110D01*
X159748000Y-56823890D01*
X159752085Y-56782409D01*
X159762393Y-56748431D01*
X159779134Y-56717110D01*
X159801661Y-56689661D01*
X159829110Y-56667134D01*
X159860431Y-56650393D01*
X159894409Y-56640085D01*
X159935890Y-56636000D01*
X160612110Y-56636000D01*
X160653591Y-56640085D01*
G37*
G36*
X173353591Y-56640085D02*
G01*
X173387569Y-56650393D01*
X173418890Y-56667134D01*
X173446339Y-56689661D01*
X173468866Y-56717110D01*
X173485607Y-56748431D01*
X173495915Y-56782409D01*
X173500000Y-56823890D01*
X173500000Y-57425110D01*
X173495915Y-57466591D01*
X173485607Y-57500569D01*
X173468866Y-57531890D01*
X173446339Y-57559339D01*
X173418890Y-57581866D01*
X173387569Y-57598607D01*
X173353591Y-57608915D01*
X173312110Y-57613000D01*
X172635890Y-57613000D01*
X172594409Y-57608915D01*
X172560431Y-57598607D01*
X172529110Y-57581866D01*
X172501661Y-57559339D01*
X172479134Y-57531890D01*
X172462393Y-57500569D01*
X172452085Y-57466591D01*
X172448000Y-57425110D01*
X172448000Y-56823890D01*
X172452085Y-56782409D01*
X172462393Y-56748431D01*
X172479134Y-56717110D01*
X172501661Y-56689661D01*
X172529110Y-56667134D01*
X172560431Y-56650393D01*
X172594409Y-56640085D01*
X172635890Y-56636000D01*
X173312110Y-56636000D01*
X173353591Y-56640085D01*
G37*
G36*
X107313591Y-56640085D02*
G01*
X107347569Y-56650393D01*
X107378890Y-56667134D01*
X107406339Y-56689661D01*
X107428866Y-56717110D01*
X107445607Y-56748431D01*
X107455915Y-56782409D01*
X107460000Y-56823890D01*
X107460000Y-57425110D01*
X107455915Y-57466591D01*
X107445607Y-57500569D01*
X107428866Y-57531890D01*
X107406339Y-57559339D01*
X107378890Y-57581866D01*
X107347569Y-57598607D01*
X107313591Y-57608915D01*
X107272110Y-57613000D01*
X106595890Y-57613000D01*
X106554409Y-57608915D01*
X106520431Y-57598607D01*
X106489110Y-57581866D01*
X106461661Y-57559339D01*
X106439134Y-57531890D01*
X106422393Y-57500569D01*
X106412085Y-57466591D01*
X106408000Y-57425110D01*
X106408000Y-56823890D01*
X106412085Y-56782409D01*
X106422393Y-56748431D01*
X106439134Y-56717110D01*
X106461661Y-56689661D01*
X106489110Y-56667134D01*
X106520431Y-56650393D01*
X106554409Y-56640085D01*
X106595890Y-56636000D01*
X107272110Y-56636000D01*
X107313591Y-56640085D01*
G37*
G36*
X110107591Y-56640085D02*
G01*
X110141569Y-56650393D01*
X110172890Y-56667134D01*
X110200339Y-56689661D01*
X110222866Y-56717110D01*
X110239607Y-56748431D01*
X110249915Y-56782409D01*
X110254000Y-56823890D01*
X110254000Y-57425110D01*
X110249915Y-57466591D01*
X110239607Y-57500569D01*
X110222866Y-57531890D01*
X110200339Y-57559339D01*
X110172890Y-57581866D01*
X110141569Y-57598607D01*
X110107591Y-57608915D01*
X110066110Y-57613000D01*
X109389890Y-57613000D01*
X109348409Y-57608915D01*
X109314431Y-57598607D01*
X109283110Y-57581866D01*
X109255661Y-57559339D01*
X109233134Y-57531890D01*
X109216393Y-57500569D01*
X109206085Y-57466591D01*
X109202000Y-57425110D01*
X109202000Y-56823890D01*
X109206085Y-56782409D01*
X109216393Y-56748431D01*
X109233134Y-56717110D01*
X109255661Y-56689661D01*
X109283110Y-56667134D01*
X109314431Y-56650393D01*
X109348409Y-56640085D01*
X109389890Y-56636000D01*
X110066110Y-56636000D01*
X110107591Y-56640085D01*
G37*
G36*
X120267591Y-56640085D02*
G01*
X120301569Y-56650393D01*
X120332890Y-56667134D01*
X120360339Y-56689661D01*
X120382866Y-56717110D01*
X120399607Y-56748431D01*
X120409915Y-56782409D01*
X120414000Y-56823890D01*
X120414000Y-57425110D01*
X120409915Y-57466591D01*
X120399607Y-57500569D01*
X120382866Y-57531890D01*
X120360339Y-57559339D01*
X120332890Y-57581866D01*
X120301569Y-57598607D01*
X120267591Y-57608915D01*
X120226110Y-57613000D01*
X119549890Y-57613000D01*
X119508409Y-57608915D01*
X119474431Y-57598607D01*
X119443110Y-57581866D01*
X119415661Y-57559339D01*
X119393134Y-57531890D01*
X119376393Y-57500569D01*
X119366085Y-57466591D01*
X119362000Y-57425110D01*
X119362000Y-56823890D01*
X119366085Y-56782409D01*
X119376393Y-56748431D01*
X119393134Y-56717110D01*
X119415661Y-56689661D01*
X119443110Y-56667134D01*
X119474431Y-56650393D01*
X119508409Y-56640085D01*
X119549890Y-56636000D01*
X120226110Y-56636000D01*
X120267591Y-56640085D01*
G37*
G36*
X122553591Y-56640085D02*
G01*
X122587569Y-56650393D01*
X122618890Y-56667134D01*
X122646339Y-56689661D01*
X122668866Y-56717110D01*
X122685607Y-56748431D01*
X122695915Y-56782409D01*
X122700000Y-56823890D01*
X122700000Y-57425110D01*
X122695915Y-57466591D01*
X122685607Y-57500569D01*
X122668866Y-57531890D01*
X122646339Y-57559339D01*
X122618890Y-57581866D01*
X122587569Y-57598607D01*
X122553591Y-57608915D01*
X122512110Y-57613000D01*
X121835890Y-57613000D01*
X121794409Y-57608915D01*
X121760431Y-57598607D01*
X121729110Y-57581866D01*
X121701661Y-57559339D01*
X121679134Y-57531890D01*
X121662393Y-57500569D01*
X121652085Y-57466591D01*
X121648000Y-57425110D01*
X121648000Y-56823890D01*
X121652085Y-56782409D01*
X121662393Y-56748431D01*
X121679134Y-56717110D01*
X121701661Y-56689661D01*
X121729110Y-56667134D01*
X121760431Y-56650393D01*
X121794409Y-56640085D01*
X121835890Y-56636000D01*
X122512110Y-56636000D01*
X122553591Y-56640085D01*
G37*
G36*
X132713591Y-56640085D02*
G01*
X132747569Y-56650393D01*
X132778890Y-56667134D01*
X132806339Y-56689661D01*
X132828866Y-56717110D01*
X132845607Y-56748431D01*
X132855915Y-56782409D01*
X132860000Y-56823890D01*
X132860000Y-57425110D01*
X132855915Y-57466591D01*
X132845607Y-57500569D01*
X132828866Y-57531890D01*
X132806339Y-57559339D01*
X132778890Y-57581866D01*
X132747569Y-57598607D01*
X132713591Y-57608915D01*
X132672110Y-57613000D01*
X131995890Y-57613000D01*
X131954409Y-57608915D01*
X131920431Y-57598607D01*
X131889110Y-57581866D01*
X131861661Y-57559339D01*
X131839134Y-57531890D01*
X131822393Y-57500569D01*
X131812085Y-57466591D01*
X131808000Y-57425110D01*
X131808000Y-56823890D01*
X131812085Y-56782409D01*
X131822393Y-56748431D01*
X131839134Y-56717110D01*
X131861661Y-56689661D01*
X131889110Y-56667134D01*
X131920431Y-56650393D01*
X131954409Y-56640085D01*
X131995890Y-56636000D01*
X132672110Y-56636000D01*
X132713591Y-56640085D01*
G37*
G36*
X158113591Y-56640085D02*
G01*
X158147569Y-56650393D01*
X158178890Y-56667134D01*
X158206339Y-56689661D01*
X158228866Y-56717110D01*
X158245607Y-56748431D01*
X158255915Y-56782409D01*
X158260000Y-56823890D01*
X158260000Y-57425110D01*
X158255915Y-57466591D01*
X158245607Y-57500569D01*
X158228866Y-57531890D01*
X158206339Y-57559339D01*
X158178890Y-57581866D01*
X158147569Y-57598607D01*
X158113591Y-57608915D01*
X158072110Y-57613000D01*
X157395890Y-57613000D01*
X157354409Y-57608915D01*
X157320431Y-57598607D01*
X157289110Y-57581866D01*
X157261661Y-57559339D01*
X157239134Y-57531890D01*
X157222393Y-57500569D01*
X157212085Y-57466591D01*
X157208000Y-57425110D01*
X157208000Y-56823890D01*
X157212085Y-56782409D01*
X157222393Y-56748431D01*
X157239134Y-56717110D01*
X157261661Y-56689661D01*
X157289110Y-56667134D01*
X157320431Y-56650393D01*
X157354409Y-56640085D01*
X157395890Y-56636000D01*
X158072110Y-56636000D01*
X158113591Y-56640085D01*
G37*
G36*
X102013512Y-55793927D02*
G01*
X102162812Y-55823624D01*
X102326784Y-55891544D01*
X102474354Y-55990147D01*
X102599853Y-56115646D01*
X102698456Y-56263216D01*
X102766376Y-56427188D01*
X102793830Y-56565212D01*
X102801000Y-56601258D01*
X102801000Y-56778742D01*
X102800222Y-56782652D01*
X102766376Y-56952812D01*
X102698456Y-57116784D01*
X102599853Y-57264354D01*
X102474354Y-57389853D01*
X102326784Y-57488456D01*
X102162812Y-57556376D01*
X102013512Y-57586073D01*
X101988742Y-57591000D01*
X101811258Y-57591000D01*
X101786488Y-57586073D01*
X101637188Y-57556376D01*
X101473216Y-57488456D01*
X101325646Y-57389853D01*
X101200147Y-57264354D01*
X101101544Y-57116784D01*
X101033624Y-56952812D01*
X100999778Y-56782652D01*
X100999000Y-56778742D01*
X100999000Y-56601258D01*
X101006170Y-56565212D01*
X101033624Y-56427188D01*
X101101544Y-56263216D01*
X101200147Y-56115646D01*
X101325646Y-55990147D01*
X101473216Y-55891544D01*
X101637188Y-55823624D01*
X101786488Y-55793927D01*
X101811258Y-55789000D01*
X101988742Y-55789000D01*
X102013512Y-55793927D01*
G37*
G36*
X102801000Y-55051000D02*
G01*
X100999000Y-55051000D01*
X100999000Y-53249000D01*
X102801000Y-53249000D01*
X102801000Y-55051000D01*
G37*
G36*
X114713512Y-53253927D02*
G01*
X114862812Y-53283624D01*
X115026784Y-53351544D01*
X115174354Y-53450147D01*
X115299853Y-53575646D01*
X115398456Y-53723216D01*
X115466376Y-53887188D01*
X115501000Y-54061259D01*
X115501000Y-54238741D01*
X115466376Y-54412812D01*
X115398456Y-54576784D01*
X115299853Y-54724354D01*
X115174354Y-54849853D01*
X115026784Y-54948456D01*
X114862812Y-55016376D01*
X114713512Y-55046073D01*
X114688742Y-55051000D01*
X114511258Y-55051000D01*
X114486488Y-55046073D01*
X114337188Y-55016376D01*
X114173216Y-54948456D01*
X114025646Y-54849853D01*
X113900147Y-54724354D01*
X113801544Y-54576784D01*
X113733624Y-54412812D01*
X113699000Y-54238741D01*
X113699000Y-54061259D01*
X113733624Y-53887188D01*
X113801544Y-53723216D01*
X113900147Y-53575646D01*
X114025646Y-53450147D01*
X114173216Y-53351544D01*
X114337188Y-53283624D01*
X114486488Y-53253927D01*
X114511258Y-53249000D01*
X114688742Y-53249000D01*
X114713512Y-53253927D01*
G37*
G36*
X107881000Y-55051000D02*
G01*
X106079000Y-55051000D01*
X106079000Y-53249000D01*
X107881000Y-53249000D01*
X107881000Y-55051000D01*
G37*
G36*
X109633512Y-53253927D02*
G01*
X109782812Y-53283624D01*
X109946784Y-53351544D01*
X110094354Y-53450147D01*
X110219853Y-53575646D01*
X110318456Y-53723216D01*
X110386376Y-53887188D01*
X110421000Y-54061259D01*
X110421000Y-54238741D01*
X110386376Y-54412812D01*
X110318456Y-54576784D01*
X110219853Y-54724354D01*
X110094354Y-54849853D01*
X109946784Y-54948456D01*
X109782812Y-55016376D01*
X109633512Y-55046073D01*
X109608742Y-55051000D01*
X109431258Y-55051000D01*
X109406488Y-55046073D01*
X109257188Y-55016376D01*
X109093216Y-54948456D01*
X108945646Y-54849853D01*
X108820147Y-54724354D01*
X108721544Y-54576784D01*
X108653624Y-54412812D01*
X108619000Y-54238741D01*
X108619000Y-54061259D01*
X108653624Y-53887188D01*
X108721544Y-53723216D01*
X108820147Y-53575646D01*
X108945646Y-53450147D01*
X109093216Y-53351544D01*
X109257188Y-53283624D01*
X109406488Y-53253927D01*
X109431258Y-53249000D01*
X109608742Y-53249000D01*
X109633512Y-53253927D01*
G37*
G36*
X112173512Y-53253927D02*
G01*
X112322812Y-53283624D01*
X112486784Y-53351544D01*
X112634354Y-53450147D01*
X112759853Y-53575646D01*
X112858456Y-53723216D01*
X112926376Y-53887188D01*
X112961000Y-54061259D01*
X112961000Y-54238741D01*
X112926376Y-54412812D01*
X112858456Y-54576784D01*
X112759853Y-54724354D01*
X112634354Y-54849853D01*
X112486784Y-54948456D01*
X112322812Y-55016376D01*
X112173512Y-55046073D01*
X112148742Y-55051000D01*
X111971258Y-55051000D01*
X111946488Y-55046073D01*
X111797188Y-55016376D01*
X111633216Y-54948456D01*
X111485646Y-54849853D01*
X111360147Y-54724354D01*
X111261544Y-54576784D01*
X111193624Y-54412812D01*
X111159000Y-54238741D01*
X111159000Y-54061259D01*
X111193624Y-53887188D01*
X111261544Y-53723216D01*
X111360147Y-53575646D01*
X111485646Y-53450147D01*
X111633216Y-53351544D01*
X111797188Y-53283624D01*
X111946488Y-53253927D01*
X111971258Y-53249000D01*
X112148742Y-53249000D01*
X112173512Y-53253927D01*
G37*
G36*
X124873512Y-53253927D02*
G01*
X125022812Y-53283624D01*
X125186784Y-53351544D01*
X125334354Y-53450147D01*
X125459853Y-53575646D01*
X125558456Y-53723216D01*
X125626376Y-53887188D01*
X125661000Y-54061259D01*
X125661000Y-54238741D01*
X125626376Y-54412812D01*
X125558456Y-54576784D01*
X125459853Y-54724354D01*
X125334354Y-54849853D01*
X125186784Y-54948456D01*
X125022812Y-55016376D01*
X124873512Y-55046073D01*
X124848742Y-55051000D01*
X124671258Y-55051000D01*
X124646488Y-55046073D01*
X124497188Y-55016376D01*
X124333216Y-54948456D01*
X124185646Y-54849853D01*
X124060147Y-54724354D01*
X123961544Y-54576784D01*
X123893624Y-54412812D01*
X123859000Y-54238741D01*
X123859000Y-54061259D01*
X123893624Y-53887188D01*
X123961544Y-53723216D01*
X124060147Y-53575646D01*
X124185646Y-53450147D01*
X124333216Y-53351544D01*
X124497188Y-53283624D01*
X124646488Y-53253927D01*
X124671258Y-53249000D01*
X124848742Y-53249000D01*
X124873512Y-53253927D01*
G37*
G36*
X127413512Y-53253927D02*
G01*
X127562812Y-53283624D01*
X127726784Y-53351544D01*
X127874354Y-53450147D01*
X127999853Y-53575646D01*
X128098456Y-53723216D01*
X128166376Y-53887188D01*
X128201000Y-54061259D01*
X128201000Y-54238741D01*
X128166376Y-54412812D01*
X128098456Y-54576784D01*
X127999853Y-54724354D01*
X127874354Y-54849853D01*
X127726784Y-54948456D01*
X127562812Y-55016376D01*
X127413512Y-55046073D01*
X127388742Y-55051000D01*
X127211258Y-55051000D01*
X127186488Y-55046073D01*
X127037188Y-55016376D01*
X126873216Y-54948456D01*
X126725646Y-54849853D01*
X126600147Y-54724354D01*
X126501544Y-54576784D01*
X126433624Y-54412812D01*
X126399000Y-54238741D01*
X126399000Y-54061259D01*
X126433624Y-53887188D01*
X126501544Y-53723216D01*
X126600147Y-53575646D01*
X126725646Y-53450147D01*
X126873216Y-53351544D01*
X127037188Y-53283624D01*
X127186488Y-53253927D01*
X127211258Y-53249000D01*
X127388742Y-53249000D01*
X127413512Y-53253927D01*
G37*
G36*
X140113512Y-53253927D02*
G01*
X140262812Y-53283624D01*
X140426784Y-53351544D01*
X140574354Y-53450147D01*
X140699853Y-53575646D01*
X140798456Y-53723216D01*
X140866376Y-53887188D01*
X140901000Y-54061259D01*
X140901000Y-54238741D01*
X140866376Y-54412812D01*
X140798456Y-54576784D01*
X140699853Y-54724354D01*
X140574354Y-54849853D01*
X140426784Y-54948456D01*
X140262812Y-55016376D01*
X140113512Y-55046073D01*
X140088742Y-55051000D01*
X139911258Y-55051000D01*
X139886488Y-55046073D01*
X139737188Y-55016376D01*
X139573216Y-54948456D01*
X139425646Y-54849853D01*
X139300147Y-54724354D01*
X139201544Y-54576784D01*
X139133624Y-54412812D01*
X139099000Y-54238741D01*
X139099000Y-54061259D01*
X139133624Y-53887188D01*
X139201544Y-53723216D01*
X139300147Y-53575646D01*
X139425646Y-53450147D01*
X139573216Y-53351544D01*
X139737188Y-53283624D01*
X139886488Y-53253927D01*
X139911258Y-53249000D01*
X140088742Y-53249000D01*
X140113512Y-53253927D01*
G37*
G36*
X137573512Y-53253927D02*
G01*
X137722812Y-53283624D01*
X137886784Y-53351544D01*
X138034354Y-53450147D01*
X138159853Y-53575646D01*
X138258456Y-53723216D01*
X138326376Y-53887188D01*
X138361000Y-54061259D01*
X138361000Y-54238741D01*
X138326376Y-54412812D01*
X138258456Y-54576784D01*
X138159853Y-54724354D01*
X138034354Y-54849853D01*
X137886784Y-54948456D01*
X137722812Y-55016376D01*
X137573512Y-55046073D01*
X137548742Y-55051000D01*
X137371258Y-55051000D01*
X137346488Y-55046073D01*
X137197188Y-55016376D01*
X137033216Y-54948456D01*
X136885646Y-54849853D01*
X136760147Y-54724354D01*
X136661544Y-54576784D01*
X136593624Y-54412812D01*
X136559000Y-54238741D01*
X136559000Y-54061259D01*
X136593624Y-53887188D01*
X136661544Y-53723216D01*
X136760147Y-53575646D01*
X136885646Y-53450147D01*
X137033216Y-53351544D01*
X137197188Y-53283624D01*
X137346488Y-53253927D01*
X137371258Y-53249000D01*
X137548742Y-53249000D01*
X137573512Y-53253927D01*
G37*
G36*
X135033512Y-53253927D02*
G01*
X135182812Y-53283624D01*
X135346784Y-53351544D01*
X135494354Y-53450147D01*
X135619853Y-53575646D01*
X135718456Y-53723216D01*
X135786376Y-53887188D01*
X135821000Y-54061259D01*
X135821000Y-54238741D01*
X135786376Y-54412812D01*
X135718456Y-54576784D01*
X135619853Y-54724354D01*
X135494354Y-54849853D01*
X135346784Y-54948456D01*
X135182812Y-55016376D01*
X135033512Y-55046073D01*
X135008742Y-55051000D01*
X134831258Y-55051000D01*
X134806488Y-55046073D01*
X134657188Y-55016376D01*
X134493216Y-54948456D01*
X134345646Y-54849853D01*
X134220147Y-54724354D01*
X134121544Y-54576784D01*
X134053624Y-54412812D01*
X134019000Y-54238741D01*
X134019000Y-54061259D01*
X134053624Y-53887188D01*
X134121544Y-53723216D01*
X134220147Y-53575646D01*
X134345646Y-53450147D01*
X134493216Y-53351544D01*
X134657188Y-53283624D01*
X134806488Y-53253927D01*
X134831258Y-53249000D01*
X135008742Y-53249000D01*
X135033512Y-53253927D01*
G37*
G36*
X133281000Y-55051000D02*
G01*
X131479000Y-55051000D01*
X131479000Y-53249000D01*
X133281000Y-53249000D01*
X133281000Y-55051000D01*
G37*
G36*
X145981000Y-55051000D02*
G01*
X144179000Y-55051000D01*
X144179000Y-53249000D01*
X145981000Y-53249000D01*
X145981000Y-55051000D01*
G37*
G36*
X178213512Y-53253927D02*
G01*
X178362812Y-53283624D01*
X178526784Y-53351544D01*
X178674354Y-53450147D01*
X178799853Y-53575646D01*
X178898456Y-53723216D01*
X178966376Y-53887188D01*
X179001000Y-54061259D01*
X179001000Y-54238741D01*
X178966376Y-54412812D01*
X178898456Y-54576784D01*
X178799853Y-54724354D01*
X178674354Y-54849853D01*
X178526784Y-54948456D01*
X178362812Y-55016376D01*
X178213512Y-55046073D01*
X178188742Y-55051000D01*
X178011258Y-55051000D01*
X177986488Y-55046073D01*
X177837188Y-55016376D01*
X177673216Y-54948456D01*
X177525646Y-54849853D01*
X177400147Y-54724354D01*
X177301544Y-54576784D01*
X177233624Y-54412812D01*
X177199000Y-54238741D01*
X177199000Y-54061259D01*
X177233624Y-53887188D01*
X177301544Y-53723216D01*
X177400147Y-53575646D01*
X177525646Y-53450147D01*
X177673216Y-53351544D01*
X177837188Y-53283624D01*
X177986488Y-53253927D01*
X178011258Y-53249000D01*
X178188742Y-53249000D01*
X178213512Y-53253927D01*
G37*
G36*
X175673512Y-53253927D02*
G01*
X175822812Y-53283624D01*
X175986784Y-53351544D01*
X176134354Y-53450147D01*
X176259853Y-53575646D01*
X176358456Y-53723216D01*
X176426376Y-53887188D01*
X176461000Y-54061259D01*
X176461000Y-54238741D01*
X176426376Y-54412812D01*
X176358456Y-54576784D01*
X176259853Y-54724354D01*
X176134354Y-54849853D01*
X175986784Y-54948456D01*
X175822812Y-55016376D01*
X175673512Y-55046073D01*
X175648742Y-55051000D01*
X175471258Y-55051000D01*
X175446488Y-55046073D01*
X175297188Y-55016376D01*
X175133216Y-54948456D01*
X174985646Y-54849853D01*
X174860147Y-54724354D01*
X174761544Y-54576784D01*
X174693624Y-54412812D01*
X174659000Y-54238741D01*
X174659000Y-54061259D01*
X174693624Y-53887188D01*
X174761544Y-53723216D01*
X174860147Y-53575646D01*
X174985646Y-53450147D01*
X175133216Y-53351544D01*
X175297188Y-53283624D01*
X175446488Y-53253927D01*
X175471258Y-53249000D01*
X175648742Y-53249000D01*
X175673512Y-53253927D01*
G37*
G36*
X171381000Y-55051000D02*
G01*
X169579000Y-55051000D01*
X169579000Y-53249000D01*
X171381000Y-53249000D01*
X171381000Y-55051000D01*
G37*
G36*
X165513512Y-53253927D02*
G01*
X165662812Y-53283624D01*
X165826784Y-53351544D01*
X165974354Y-53450147D01*
X166099853Y-53575646D01*
X166198456Y-53723216D01*
X166266376Y-53887188D01*
X166301000Y-54061259D01*
X166301000Y-54238741D01*
X166266376Y-54412812D01*
X166198456Y-54576784D01*
X166099853Y-54724354D01*
X165974354Y-54849853D01*
X165826784Y-54948456D01*
X165662812Y-55016376D01*
X165513512Y-55046073D01*
X165488742Y-55051000D01*
X165311258Y-55051000D01*
X165286488Y-55046073D01*
X165137188Y-55016376D01*
X164973216Y-54948456D01*
X164825646Y-54849853D01*
X164700147Y-54724354D01*
X164601544Y-54576784D01*
X164533624Y-54412812D01*
X164499000Y-54238741D01*
X164499000Y-54061259D01*
X164533624Y-53887188D01*
X164601544Y-53723216D01*
X164700147Y-53575646D01*
X164825646Y-53450147D01*
X164973216Y-53351544D01*
X165137188Y-53283624D01*
X165286488Y-53253927D01*
X165311258Y-53249000D01*
X165488742Y-53249000D01*
X165513512Y-53253927D01*
G37*
G36*
X173133512Y-53253927D02*
G01*
X173282812Y-53283624D01*
X173446784Y-53351544D01*
X173594354Y-53450147D01*
X173719853Y-53575646D01*
X173818456Y-53723216D01*
X173886376Y-53887188D01*
X173921000Y-54061259D01*
X173921000Y-54238741D01*
X173886376Y-54412812D01*
X173818456Y-54576784D01*
X173719853Y-54724354D01*
X173594354Y-54849853D01*
X173446784Y-54948456D01*
X173282812Y-55016376D01*
X173133512Y-55046073D01*
X173108742Y-55051000D01*
X172931258Y-55051000D01*
X172906488Y-55046073D01*
X172757188Y-55016376D01*
X172593216Y-54948456D01*
X172445646Y-54849853D01*
X172320147Y-54724354D01*
X172221544Y-54576784D01*
X172153624Y-54412812D01*
X172119000Y-54238741D01*
X172119000Y-54061259D01*
X172153624Y-53887188D01*
X172221544Y-53723216D01*
X172320147Y-53575646D01*
X172445646Y-53450147D01*
X172593216Y-53351544D01*
X172757188Y-53283624D01*
X172906488Y-53253927D01*
X172931258Y-53249000D01*
X173108742Y-53249000D01*
X173133512Y-53253927D01*
G37*
G36*
X162973512Y-53253927D02*
G01*
X163122812Y-53283624D01*
X163286784Y-53351544D01*
X163434354Y-53450147D01*
X163559853Y-53575646D01*
X163658456Y-53723216D01*
X163726376Y-53887188D01*
X163761000Y-54061259D01*
X163761000Y-54238741D01*
X163726376Y-54412812D01*
X163658456Y-54576784D01*
X163559853Y-54724354D01*
X163434354Y-54849853D01*
X163286784Y-54948456D01*
X163122812Y-55016376D01*
X162973512Y-55046073D01*
X162948742Y-55051000D01*
X162771258Y-55051000D01*
X162746488Y-55046073D01*
X162597188Y-55016376D01*
X162433216Y-54948456D01*
X162285646Y-54849853D01*
X162160147Y-54724354D01*
X162061544Y-54576784D01*
X161993624Y-54412812D01*
X161959000Y-54238741D01*
X161959000Y-54061259D01*
X161993624Y-53887188D01*
X162061544Y-53723216D01*
X162160147Y-53575646D01*
X162285646Y-53450147D01*
X162433216Y-53351544D01*
X162597188Y-53283624D01*
X162746488Y-53253927D01*
X162771258Y-53249000D01*
X162948742Y-53249000D01*
X162973512Y-53253927D01*
G37*
G36*
X160433512Y-53253927D02*
G01*
X160582812Y-53283624D01*
X160746784Y-53351544D01*
X160894354Y-53450147D01*
X161019853Y-53575646D01*
X161118456Y-53723216D01*
X161186376Y-53887188D01*
X161221000Y-54061259D01*
X161221000Y-54238741D01*
X161186376Y-54412812D01*
X161118456Y-54576784D01*
X161019853Y-54724354D01*
X160894354Y-54849853D01*
X160746784Y-54948456D01*
X160582812Y-55016376D01*
X160433512Y-55046073D01*
X160408742Y-55051000D01*
X160231258Y-55051000D01*
X160206488Y-55046073D01*
X160057188Y-55016376D01*
X159893216Y-54948456D01*
X159745646Y-54849853D01*
X159620147Y-54724354D01*
X159521544Y-54576784D01*
X159453624Y-54412812D01*
X159419000Y-54238741D01*
X159419000Y-54061259D01*
X159453624Y-53887188D01*
X159521544Y-53723216D01*
X159620147Y-53575646D01*
X159745646Y-53450147D01*
X159893216Y-53351544D01*
X160057188Y-53283624D01*
X160206488Y-53253927D01*
X160231258Y-53249000D01*
X160408742Y-53249000D01*
X160433512Y-53253927D01*
G37*
G36*
X120581000Y-55051000D02*
G01*
X118779000Y-55051000D01*
X118779000Y-53249000D01*
X120581000Y-53249000D01*
X120581000Y-55051000D01*
G37*
G36*
X147733512Y-53253927D02*
G01*
X147882812Y-53283624D01*
X148046784Y-53351544D01*
X148194354Y-53450147D01*
X148319853Y-53575646D01*
X148418456Y-53723216D01*
X148486376Y-53887188D01*
X148521000Y-54061259D01*
X148521000Y-54238741D01*
X148486376Y-54412812D01*
X148418456Y-54576784D01*
X148319853Y-54724354D01*
X148194354Y-54849853D01*
X148046784Y-54948456D01*
X147882812Y-55016376D01*
X147733512Y-55046073D01*
X147708742Y-55051000D01*
X147531258Y-55051000D01*
X147506488Y-55046073D01*
X147357188Y-55016376D01*
X147193216Y-54948456D01*
X147045646Y-54849853D01*
X146920147Y-54724354D01*
X146821544Y-54576784D01*
X146753624Y-54412812D01*
X146719000Y-54238741D01*
X146719000Y-54061259D01*
X146753624Y-53887188D01*
X146821544Y-53723216D01*
X146920147Y-53575646D01*
X147045646Y-53450147D01*
X147193216Y-53351544D01*
X147357188Y-53283624D01*
X147506488Y-53253927D01*
X147531258Y-53249000D01*
X147708742Y-53249000D01*
X147733512Y-53253927D01*
G37*
G36*
X122333512Y-53253927D02*
G01*
X122482812Y-53283624D01*
X122646784Y-53351544D01*
X122794354Y-53450147D01*
X122919853Y-53575646D01*
X123018456Y-53723216D01*
X123086376Y-53887188D01*
X123121000Y-54061259D01*
X123121000Y-54238741D01*
X123086376Y-54412812D01*
X123018456Y-54576784D01*
X122919853Y-54724354D01*
X122794354Y-54849853D01*
X122646784Y-54948456D01*
X122482812Y-55016376D01*
X122333512Y-55046073D01*
X122308742Y-55051000D01*
X122131258Y-55051000D01*
X122106488Y-55046073D01*
X121957188Y-55016376D01*
X121793216Y-54948456D01*
X121645646Y-54849853D01*
X121520147Y-54724354D01*
X121421544Y-54576784D01*
X121353624Y-54412812D01*
X121319000Y-54238741D01*
X121319000Y-54061259D01*
X121353624Y-53887188D01*
X121421544Y-53723216D01*
X121520147Y-53575646D01*
X121645646Y-53450147D01*
X121793216Y-53351544D01*
X121957188Y-53283624D01*
X122106488Y-53253927D01*
X122131258Y-53249000D01*
X122308742Y-53249000D01*
X122333512Y-53253927D01*
G37*
G36*
X150273512Y-53253927D02*
G01*
X150422812Y-53283624D01*
X150586784Y-53351544D01*
X150734354Y-53450147D01*
X150859853Y-53575646D01*
X150958456Y-53723216D01*
X151026376Y-53887188D01*
X151061000Y-54061259D01*
X151061000Y-54238741D01*
X151026376Y-54412812D01*
X150958456Y-54576784D01*
X150859853Y-54724354D01*
X150734354Y-54849853D01*
X150586784Y-54948456D01*
X150422812Y-55016376D01*
X150273512Y-55046073D01*
X150248742Y-55051000D01*
X150071258Y-55051000D01*
X150046488Y-55046073D01*
X149897188Y-55016376D01*
X149733216Y-54948456D01*
X149585646Y-54849853D01*
X149460147Y-54724354D01*
X149361544Y-54576784D01*
X149293624Y-54412812D01*
X149259000Y-54238741D01*
X149259000Y-54061259D01*
X149293624Y-53887188D01*
X149361544Y-53723216D01*
X149460147Y-53575646D01*
X149585646Y-53450147D01*
X149733216Y-53351544D01*
X149897188Y-53283624D01*
X150046488Y-53253927D01*
X150071258Y-53249000D01*
X150248742Y-53249000D01*
X150273512Y-53253927D01*
G37*
G36*
X158681000Y-55051000D02*
G01*
X156879000Y-55051000D01*
X156879000Y-53249000D01*
X158681000Y-53249000D01*
X158681000Y-55051000D01*
G37*
G36*
X152813512Y-53253927D02*
G01*
X152962812Y-53283624D01*
X153126784Y-53351544D01*
X153274354Y-53450147D01*
X153399853Y-53575646D01*
X153498456Y-53723216D01*
X153566376Y-53887188D01*
X153601000Y-54061259D01*
X153601000Y-54238741D01*
X153566376Y-54412812D01*
X153498456Y-54576784D01*
X153399853Y-54724354D01*
X153274354Y-54849853D01*
X153126784Y-54948456D01*
X152962812Y-55016376D01*
X152813512Y-55046073D01*
X152788742Y-55051000D01*
X152611258Y-55051000D01*
X152586488Y-55046073D01*
X152437188Y-55016376D01*
X152273216Y-54948456D01*
X152125646Y-54849853D01*
X152000147Y-54724354D01*
X151901544Y-54576784D01*
X151833624Y-54412812D01*
X151799000Y-54238741D01*
X151799000Y-54061259D01*
X151833624Y-53887188D01*
X151901544Y-53723216D01*
X152000147Y-53575646D01*
X152125646Y-53450147D01*
X152273216Y-53351544D01*
X152437188Y-53283624D01*
X152586488Y-53253927D01*
X152611258Y-53249000D01*
X152788742Y-53249000D01*
X152813512Y-53253927D01*
G37*
M02*
