G04 #@! TF.GenerationSoftware,KiCad,Pcbnew,5.1.5+dfsg1-2build2*
G04 #@! TF.CreationDate,2021-01-10T12:40:40-08:00*
G04 #@! TF.ProjectId,board,626f6172-642e-46b6-9963-61645f706362,rev?*
G04 #@! TF.SameCoordinates,Original*
G04 #@! TF.FileFunction,Soldermask,Bot*
G04 #@! TF.FilePolarity,Negative*
%FSLAX46Y46*%
G04 Gerber Fmt 4.6, Leading zero omitted, Abs format (unit mm)*
G04 Created by KiCad (PCBNEW 5.1.5+dfsg1-2build2) date 2021-01-10 12:40:40*
%MOMM*%
%LPD*%
G04 APERTURE LIST*
%ADD10C,0.100000*%
G04 APERTURE END LIST*
D10*
G36*
X111563500Y-80724200D02*
G01*
X109761500Y-80724200D01*
X109761500Y-78922200D01*
X111563500Y-78922200D01*
X111563500Y-80724200D01*
G37*
G36*
X169671212Y-78517027D02*
G01*
X169820512Y-78546724D01*
X169984484Y-78614644D01*
X170132054Y-78713247D01*
X170257553Y-78838746D01*
X170356156Y-78986316D01*
X170424076Y-79150288D01*
X170458700Y-79324359D01*
X170458700Y-79501841D01*
X170424076Y-79675912D01*
X170356156Y-79839884D01*
X170257553Y-79987454D01*
X170132054Y-80112953D01*
X169984484Y-80211556D01*
X169820512Y-80279476D01*
X169671212Y-80309173D01*
X169646442Y-80314100D01*
X169468958Y-80314100D01*
X169444188Y-80309173D01*
X169294888Y-80279476D01*
X169130916Y-80211556D01*
X168983346Y-80112953D01*
X168857847Y-79987454D01*
X168759244Y-79839884D01*
X168691324Y-79675912D01*
X168656700Y-79501841D01*
X168656700Y-79324359D01*
X168691324Y-79150288D01*
X168759244Y-78986316D01*
X168857847Y-78838746D01*
X168983346Y-78713247D01*
X169130916Y-78614644D01*
X169294888Y-78546724D01*
X169444188Y-78517027D01*
X169468958Y-78512100D01*
X169646442Y-78512100D01*
X169671212Y-78517027D01*
G37*
G36*
X110776012Y-76387127D02*
G01*
X110925312Y-76416824D01*
X111089284Y-76484744D01*
X111236854Y-76583347D01*
X111362353Y-76708846D01*
X111460956Y-76856416D01*
X111528876Y-77020388D01*
X111563500Y-77194459D01*
X111563500Y-77371941D01*
X111528876Y-77546012D01*
X111460956Y-77709984D01*
X111362353Y-77857554D01*
X111236854Y-77983053D01*
X111089284Y-78081656D01*
X110925312Y-78149576D01*
X110776012Y-78179273D01*
X110751242Y-78184200D01*
X110573758Y-78184200D01*
X110548988Y-78179273D01*
X110399688Y-78149576D01*
X110235716Y-78081656D01*
X110088146Y-77983053D01*
X109962647Y-77857554D01*
X109864044Y-77709984D01*
X109796124Y-77546012D01*
X109761500Y-77371941D01*
X109761500Y-77194459D01*
X109796124Y-77020388D01*
X109864044Y-76856416D01*
X109962647Y-76708846D01*
X110088146Y-76583347D01*
X110235716Y-76484744D01*
X110399688Y-76416824D01*
X110548988Y-76387127D01*
X110573758Y-76382200D01*
X110751242Y-76382200D01*
X110776012Y-76387127D01*
G37*
G36*
X169671212Y-75977027D02*
G01*
X169820512Y-76006724D01*
X169984484Y-76074644D01*
X170132054Y-76173247D01*
X170257553Y-76298746D01*
X170356156Y-76446316D01*
X170424076Y-76610288D01*
X170458700Y-76784359D01*
X170458700Y-76961841D01*
X170424076Y-77135912D01*
X170356156Y-77299884D01*
X170257553Y-77447454D01*
X170132054Y-77572953D01*
X169984484Y-77671556D01*
X169820512Y-77739476D01*
X169671212Y-77769173D01*
X169646442Y-77774100D01*
X169468958Y-77774100D01*
X169444188Y-77769173D01*
X169294888Y-77739476D01*
X169130916Y-77671556D01*
X168983346Y-77572953D01*
X168857847Y-77447454D01*
X168759244Y-77299884D01*
X168691324Y-77135912D01*
X168656700Y-76961841D01*
X168656700Y-76784359D01*
X168691324Y-76610288D01*
X168759244Y-76446316D01*
X168857847Y-76298746D01*
X168983346Y-76173247D01*
X169130916Y-76074644D01*
X169294888Y-76006724D01*
X169444188Y-75977027D01*
X169468958Y-75972100D01*
X169646442Y-75972100D01*
X169671212Y-75977027D01*
G37*
G36*
X169671212Y-73437027D02*
G01*
X169820512Y-73466724D01*
X169984484Y-73534644D01*
X170132054Y-73633247D01*
X170257553Y-73758746D01*
X170356156Y-73906316D01*
X170424076Y-74070288D01*
X170458700Y-74244359D01*
X170458700Y-74421841D01*
X170424076Y-74595912D01*
X170356156Y-74759884D01*
X170257553Y-74907454D01*
X170132054Y-75032953D01*
X169984484Y-75131556D01*
X169820512Y-75199476D01*
X169671212Y-75229173D01*
X169646442Y-75234100D01*
X169468958Y-75234100D01*
X169444188Y-75229173D01*
X169294888Y-75199476D01*
X169130916Y-75131556D01*
X168983346Y-75032953D01*
X168857847Y-74907454D01*
X168759244Y-74759884D01*
X168691324Y-74595912D01*
X168656700Y-74421841D01*
X168656700Y-74244359D01*
X168691324Y-74070288D01*
X168759244Y-73906316D01*
X168857847Y-73758746D01*
X168983346Y-73633247D01*
X169130916Y-73534644D01*
X169294888Y-73466724D01*
X169444188Y-73437027D01*
X169468958Y-73432100D01*
X169646442Y-73432100D01*
X169671212Y-73437027D01*
G37*
G36*
X155019512Y-71437927D02*
G01*
X155168812Y-71467624D01*
X155332784Y-71535544D01*
X155480354Y-71634147D01*
X155605853Y-71759646D01*
X155704456Y-71907216D01*
X155772376Y-72071188D01*
X155807000Y-72245259D01*
X155807000Y-72422741D01*
X155772376Y-72596812D01*
X155704456Y-72760784D01*
X155605853Y-72908354D01*
X155480354Y-73033853D01*
X155332784Y-73132456D01*
X155168812Y-73200376D01*
X155019512Y-73230073D01*
X154994742Y-73235000D01*
X154817258Y-73235000D01*
X154792488Y-73230073D01*
X154643188Y-73200376D01*
X154479216Y-73132456D01*
X154331646Y-73033853D01*
X154206147Y-72908354D01*
X154107544Y-72760784D01*
X154039624Y-72596812D01*
X154005000Y-72422741D01*
X154005000Y-72245259D01*
X154039624Y-72071188D01*
X154107544Y-71907216D01*
X154206147Y-71759646D01*
X154331646Y-71634147D01*
X154479216Y-71535544D01*
X154643188Y-71467624D01*
X154792488Y-71437927D01*
X154817258Y-71433000D01*
X154994742Y-71433000D01*
X155019512Y-71437927D01*
G37*
G36*
X152479512Y-71437927D02*
G01*
X152628812Y-71467624D01*
X152792784Y-71535544D01*
X152940354Y-71634147D01*
X153065853Y-71759646D01*
X153164456Y-71907216D01*
X153232376Y-72071188D01*
X153267000Y-72245259D01*
X153267000Y-72422741D01*
X153232376Y-72596812D01*
X153164456Y-72760784D01*
X153065853Y-72908354D01*
X152940354Y-73033853D01*
X152792784Y-73132456D01*
X152628812Y-73200376D01*
X152479512Y-73230073D01*
X152454742Y-73235000D01*
X152277258Y-73235000D01*
X152252488Y-73230073D01*
X152103188Y-73200376D01*
X151939216Y-73132456D01*
X151791646Y-73033853D01*
X151666147Y-72908354D01*
X151567544Y-72760784D01*
X151499624Y-72596812D01*
X151465000Y-72422741D01*
X151465000Y-72245259D01*
X151499624Y-72071188D01*
X151567544Y-71907216D01*
X151666147Y-71759646D01*
X151791646Y-71634147D01*
X151939216Y-71535544D01*
X152103188Y-71467624D01*
X152252488Y-71437927D01*
X152277258Y-71433000D01*
X152454742Y-71433000D01*
X152479512Y-71437927D01*
G37*
G36*
X111563500Y-73104200D02*
G01*
X109761500Y-73104200D01*
X109761500Y-71302200D01*
X111563500Y-71302200D01*
X111563500Y-73104200D01*
G37*
G36*
X170458700Y-72694100D02*
G01*
X168656700Y-72694100D01*
X168656700Y-70892100D01*
X170458700Y-70892100D01*
X170458700Y-72694100D01*
G37*
G36*
X155019512Y-68897927D02*
G01*
X155168812Y-68927624D01*
X155332784Y-68995544D01*
X155480354Y-69094147D01*
X155605853Y-69219646D01*
X155704456Y-69367216D01*
X155772376Y-69531188D01*
X155807000Y-69705259D01*
X155807000Y-69882741D01*
X155772376Y-70056812D01*
X155704456Y-70220784D01*
X155605853Y-70368354D01*
X155480354Y-70493853D01*
X155332784Y-70592456D01*
X155168812Y-70660376D01*
X155019512Y-70690073D01*
X154994742Y-70695000D01*
X154817258Y-70695000D01*
X154792488Y-70690073D01*
X154643188Y-70660376D01*
X154479216Y-70592456D01*
X154331646Y-70493853D01*
X154206147Y-70368354D01*
X154107544Y-70220784D01*
X154039624Y-70056812D01*
X154005000Y-69882741D01*
X154005000Y-69705259D01*
X154039624Y-69531188D01*
X154107544Y-69367216D01*
X154206147Y-69219646D01*
X154331646Y-69094147D01*
X154479216Y-68995544D01*
X154643188Y-68927624D01*
X154792488Y-68897927D01*
X154817258Y-68893000D01*
X154994742Y-68893000D01*
X155019512Y-68897927D01*
G37*
G36*
X152479512Y-68897927D02*
G01*
X152628812Y-68927624D01*
X152792784Y-68995544D01*
X152940354Y-69094147D01*
X153065853Y-69219646D01*
X153164456Y-69367216D01*
X153232376Y-69531188D01*
X153267000Y-69705259D01*
X153267000Y-69882741D01*
X153232376Y-70056812D01*
X153164456Y-70220784D01*
X153065853Y-70368354D01*
X152940354Y-70493853D01*
X152792784Y-70592456D01*
X152628812Y-70660376D01*
X152479512Y-70690073D01*
X152454742Y-70695000D01*
X152277258Y-70695000D01*
X152252488Y-70690073D01*
X152103188Y-70660376D01*
X151939216Y-70592456D01*
X151791646Y-70493853D01*
X151666147Y-70368354D01*
X151567544Y-70220784D01*
X151499624Y-70056812D01*
X151465000Y-69882741D01*
X151465000Y-69705259D01*
X151499624Y-69531188D01*
X151567544Y-69367216D01*
X151666147Y-69219646D01*
X151791646Y-69094147D01*
X151939216Y-68995544D01*
X152103188Y-68927624D01*
X152252488Y-68897927D01*
X152277258Y-68893000D01*
X152454742Y-68893000D01*
X152479512Y-68897927D01*
G37*
G36*
X110776012Y-68767127D02*
G01*
X110925312Y-68796824D01*
X111089284Y-68864744D01*
X111236854Y-68963347D01*
X111362353Y-69088846D01*
X111460956Y-69236416D01*
X111528876Y-69400388D01*
X111563500Y-69574459D01*
X111563500Y-69751941D01*
X111528876Y-69926012D01*
X111460956Y-70089984D01*
X111362353Y-70237554D01*
X111236854Y-70363053D01*
X111089284Y-70461656D01*
X110925312Y-70529576D01*
X110776012Y-70559273D01*
X110751242Y-70564200D01*
X110573758Y-70564200D01*
X110548988Y-70559273D01*
X110399688Y-70529576D01*
X110235716Y-70461656D01*
X110088146Y-70363053D01*
X109962647Y-70237554D01*
X109864044Y-70089984D01*
X109796124Y-69926012D01*
X109761500Y-69751941D01*
X109761500Y-69574459D01*
X109796124Y-69400388D01*
X109864044Y-69236416D01*
X109962647Y-69088846D01*
X110088146Y-68963347D01*
X110235716Y-68864744D01*
X110399688Y-68796824D01*
X110548988Y-68767127D01*
X110573758Y-68762200D01*
X110751242Y-68762200D01*
X110776012Y-68767127D01*
G37*
G36*
X155019512Y-66357927D02*
G01*
X155168812Y-66387624D01*
X155332784Y-66455544D01*
X155480354Y-66554147D01*
X155605853Y-66679646D01*
X155704456Y-66827216D01*
X155772376Y-66991188D01*
X155807000Y-67165259D01*
X155807000Y-67342741D01*
X155772376Y-67516812D01*
X155704456Y-67680784D01*
X155605853Y-67828354D01*
X155480354Y-67953853D01*
X155332784Y-68052456D01*
X155168812Y-68120376D01*
X155019512Y-68150073D01*
X154994742Y-68155000D01*
X154817258Y-68155000D01*
X154792488Y-68150073D01*
X154643188Y-68120376D01*
X154479216Y-68052456D01*
X154331646Y-67953853D01*
X154206147Y-67828354D01*
X154107544Y-67680784D01*
X154039624Y-67516812D01*
X154005000Y-67342741D01*
X154005000Y-67165259D01*
X154039624Y-66991188D01*
X154107544Y-66827216D01*
X154206147Y-66679646D01*
X154331646Y-66554147D01*
X154479216Y-66455544D01*
X154643188Y-66387624D01*
X154792488Y-66357927D01*
X154817258Y-66353000D01*
X154994742Y-66353000D01*
X155019512Y-66357927D01*
G37*
G36*
X153267000Y-68155000D02*
G01*
X151465000Y-68155000D01*
X151465000Y-66353000D01*
X153267000Y-66353000D01*
X153267000Y-68155000D01*
G37*
G36*
X169671212Y-65817027D02*
G01*
X169820512Y-65846724D01*
X169984484Y-65914644D01*
X170132054Y-66013247D01*
X170257553Y-66138746D01*
X170356156Y-66286316D01*
X170424076Y-66450288D01*
X170458700Y-66624359D01*
X170458700Y-66801841D01*
X170424076Y-66975912D01*
X170356156Y-67139884D01*
X170257553Y-67287454D01*
X170132054Y-67412953D01*
X169984484Y-67511556D01*
X169820512Y-67579476D01*
X169671212Y-67609173D01*
X169646442Y-67614100D01*
X169468958Y-67614100D01*
X169444188Y-67609173D01*
X169294888Y-67579476D01*
X169130916Y-67511556D01*
X168983346Y-67412953D01*
X168857847Y-67287454D01*
X168759244Y-67139884D01*
X168691324Y-66975912D01*
X168656700Y-66801841D01*
X168656700Y-66624359D01*
X168691324Y-66450288D01*
X168759244Y-66286316D01*
X168857847Y-66138746D01*
X168983346Y-66013247D01*
X169130916Y-65914644D01*
X169294888Y-65846724D01*
X169444188Y-65817027D01*
X169468958Y-65812100D01*
X169646442Y-65812100D01*
X169671212Y-65817027D01*
G37*
G36*
X111563500Y-65484200D02*
G01*
X109761500Y-65484200D01*
X109761500Y-63682200D01*
X111563500Y-63682200D01*
X111563500Y-65484200D01*
G37*
G36*
X169671212Y-63277027D02*
G01*
X169820512Y-63306724D01*
X169984484Y-63374644D01*
X170132054Y-63473247D01*
X170257553Y-63598746D01*
X170356156Y-63746316D01*
X170424076Y-63910288D01*
X170458700Y-64084359D01*
X170458700Y-64261841D01*
X170424076Y-64435912D01*
X170356156Y-64599884D01*
X170257553Y-64747454D01*
X170132054Y-64872953D01*
X169984484Y-64971556D01*
X169820512Y-65039476D01*
X169671212Y-65069173D01*
X169646442Y-65074100D01*
X169468958Y-65074100D01*
X169444188Y-65069173D01*
X169294888Y-65039476D01*
X169130916Y-64971556D01*
X168983346Y-64872953D01*
X168857847Y-64747454D01*
X168759244Y-64599884D01*
X168691324Y-64435912D01*
X168656700Y-64261841D01*
X168656700Y-64084359D01*
X168691324Y-63910288D01*
X168759244Y-63746316D01*
X168857847Y-63598746D01*
X168983346Y-63473247D01*
X169130916Y-63374644D01*
X169294888Y-63306724D01*
X169444188Y-63277027D01*
X169468958Y-63272100D01*
X169646442Y-63272100D01*
X169671212Y-63277027D01*
G37*
G36*
X110776012Y-61147127D02*
G01*
X110925312Y-61176824D01*
X111089284Y-61244744D01*
X111236854Y-61343347D01*
X111362353Y-61468846D01*
X111460956Y-61616416D01*
X111528876Y-61780388D01*
X111563500Y-61954459D01*
X111563500Y-62131941D01*
X111528876Y-62306012D01*
X111460956Y-62469984D01*
X111362353Y-62617554D01*
X111236854Y-62743053D01*
X111089284Y-62841656D01*
X110925312Y-62909576D01*
X110776012Y-62939273D01*
X110751242Y-62944200D01*
X110573758Y-62944200D01*
X110548988Y-62939273D01*
X110399688Y-62909576D01*
X110235716Y-62841656D01*
X110088146Y-62743053D01*
X109962647Y-62617554D01*
X109864044Y-62469984D01*
X109796124Y-62306012D01*
X109761500Y-62131941D01*
X109761500Y-61954459D01*
X109796124Y-61780388D01*
X109864044Y-61616416D01*
X109962647Y-61468846D01*
X110088146Y-61343347D01*
X110235716Y-61244744D01*
X110399688Y-61176824D01*
X110548988Y-61147127D01*
X110573758Y-61142200D01*
X110751242Y-61142200D01*
X110776012Y-61147127D01*
G37*
G36*
X170458700Y-62534100D02*
G01*
X168656700Y-62534100D01*
X168656700Y-60732100D01*
X170458700Y-60732100D01*
X170458700Y-62534100D01*
G37*
G36*
X102013512Y-55793927D02*
G01*
X102162812Y-55823624D01*
X102326784Y-55891544D01*
X102474354Y-55990147D01*
X102599853Y-56115646D01*
X102698456Y-56263216D01*
X102766376Y-56427188D01*
X102801000Y-56601259D01*
X102801000Y-56778741D01*
X102766376Y-56952812D01*
X102698456Y-57116784D01*
X102599853Y-57264354D01*
X102474354Y-57389853D01*
X102326784Y-57488456D01*
X102162812Y-57556376D01*
X102013512Y-57586073D01*
X101988742Y-57591000D01*
X101811258Y-57591000D01*
X101786488Y-57586073D01*
X101637188Y-57556376D01*
X101473216Y-57488456D01*
X101325646Y-57389853D01*
X101200147Y-57264354D01*
X101101544Y-57116784D01*
X101033624Y-56952812D01*
X100999000Y-56778741D01*
X100999000Y-56601259D01*
X101033624Y-56427188D01*
X101101544Y-56263216D01*
X101200147Y-56115646D01*
X101325646Y-55990147D01*
X101473216Y-55891544D01*
X101637188Y-55823624D01*
X101786488Y-55793927D01*
X101811258Y-55789000D01*
X101988742Y-55789000D01*
X102013512Y-55793927D01*
G37*
G36*
X165513512Y-53253927D02*
G01*
X165662812Y-53283624D01*
X165826784Y-53351544D01*
X165974354Y-53450147D01*
X166099853Y-53575646D01*
X166198456Y-53723216D01*
X166266376Y-53887188D01*
X166301000Y-54061259D01*
X166301000Y-54238741D01*
X166266376Y-54412812D01*
X166198456Y-54576784D01*
X166099853Y-54724354D01*
X165974354Y-54849853D01*
X165826784Y-54948456D01*
X165662812Y-55016376D01*
X165513512Y-55046073D01*
X165488742Y-55051000D01*
X165311258Y-55051000D01*
X165286488Y-55046073D01*
X165137188Y-55016376D01*
X164973216Y-54948456D01*
X164825646Y-54849853D01*
X164700147Y-54724354D01*
X164601544Y-54576784D01*
X164533624Y-54412812D01*
X164499000Y-54238741D01*
X164499000Y-54061259D01*
X164533624Y-53887188D01*
X164601544Y-53723216D01*
X164700147Y-53575646D01*
X164825646Y-53450147D01*
X164973216Y-53351544D01*
X165137188Y-53283624D01*
X165286488Y-53253927D01*
X165311258Y-53249000D01*
X165488742Y-53249000D01*
X165513512Y-53253927D01*
G37*
G36*
X162973512Y-53253927D02*
G01*
X163122812Y-53283624D01*
X163286784Y-53351544D01*
X163434354Y-53450147D01*
X163559853Y-53575646D01*
X163658456Y-53723216D01*
X163726376Y-53887188D01*
X163761000Y-54061259D01*
X163761000Y-54238741D01*
X163726376Y-54412812D01*
X163658456Y-54576784D01*
X163559853Y-54724354D01*
X163434354Y-54849853D01*
X163286784Y-54948456D01*
X163122812Y-55016376D01*
X162973512Y-55046073D01*
X162948742Y-55051000D01*
X162771258Y-55051000D01*
X162746488Y-55046073D01*
X162597188Y-55016376D01*
X162433216Y-54948456D01*
X162285646Y-54849853D01*
X162160147Y-54724354D01*
X162061544Y-54576784D01*
X161993624Y-54412812D01*
X161959000Y-54238741D01*
X161959000Y-54061259D01*
X161993624Y-53887188D01*
X162061544Y-53723216D01*
X162160147Y-53575646D01*
X162285646Y-53450147D01*
X162433216Y-53351544D01*
X162597188Y-53283624D01*
X162746488Y-53253927D01*
X162771258Y-53249000D01*
X162948742Y-53249000D01*
X162973512Y-53253927D01*
G37*
G36*
X158681000Y-55051000D02*
G01*
X156879000Y-55051000D01*
X156879000Y-53249000D01*
X158681000Y-53249000D01*
X158681000Y-55051000D01*
G37*
G36*
X107881000Y-55051000D02*
G01*
X106079000Y-55051000D01*
X106079000Y-53249000D01*
X107881000Y-53249000D01*
X107881000Y-55051000D01*
G37*
G36*
X109633512Y-53253927D02*
G01*
X109782812Y-53283624D01*
X109946784Y-53351544D01*
X110094354Y-53450147D01*
X110219853Y-53575646D01*
X110318456Y-53723216D01*
X110386376Y-53887188D01*
X110421000Y-54061259D01*
X110421000Y-54238741D01*
X110386376Y-54412812D01*
X110318456Y-54576784D01*
X110219853Y-54724354D01*
X110094354Y-54849853D01*
X109946784Y-54948456D01*
X109782812Y-55016376D01*
X109633512Y-55046073D01*
X109608742Y-55051000D01*
X109431258Y-55051000D01*
X109406488Y-55046073D01*
X109257188Y-55016376D01*
X109093216Y-54948456D01*
X108945646Y-54849853D01*
X108820147Y-54724354D01*
X108721544Y-54576784D01*
X108653624Y-54412812D01*
X108619000Y-54238741D01*
X108619000Y-54061259D01*
X108653624Y-53887188D01*
X108721544Y-53723216D01*
X108820147Y-53575646D01*
X108945646Y-53450147D01*
X109093216Y-53351544D01*
X109257188Y-53283624D01*
X109406488Y-53253927D01*
X109431258Y-53249000D01*
X109608742Y-53249000D01*
X109633512Y-53253927D01*
G37*
G36*
X160433512Y-53253927D02*
G01*
X160582812Y-53283624D01*
X160746784Y-53351544D01*
X160894354Y-53450147D01*
X161019853Y-53575646D01*
X161118456Y-53723216D01*
X161186376Y-53887188D01*
X161221000Y-54061259D01*
X161221000Y-54238741D01*
X161186376Y-54412812D01*
X161118456Y-54576784D01*
X161019853Y-54724354D01*
X160894354Y-54849853D01*
X160746784Y-54948456D01*
X160582812Y-55016376D01*
X160433512Y-55046073D01*
X160408742Y-55051000D01*
X160231258Y-55051000D01*
X160206488Y-55046073D01*
X160057188Y-55016376D01*
X159893216Y-54948456D01*
X159745646Y-54849853D01*
X159620147Y-54724354D01*
X159521544Y-54576784D01*
X159453624Y-54412812D01*
X159419000Y-54238741D01*
X159419000Y-54061259D01*
X159453624Y-53887188D01*
X159521544Y-53723216D01*
X159620147Y-53575646D01*
X159745646Y-53450147D01*
X159893216Y-53351544D01*
X160057188Y-53283624D01*
X160206488Y-53253927D01*
X160231258Y-53249000D01*
X160408742Y-53249000D01*
X160433512Y-53253927D01*
G37*
G36*
X152813512Y-53253927D02*
G01*
X152962812Y-53283624D01*
X153126784Y-53351544D01*
X153274354Y-53450147D01*
X153399853Y-53575646D01*
X153498456Y-53723216D01*
X153566376Y-53887188D01*
X153601000Y-54061259D01*
X153601000Y-54238741D01*
X153566376Y-54412812D01*
X153498456Y-54576784D01*
X153399853Y-54724354D01*
X153274354Y-54849853D01*
X153126784Y-54948456D01*
X152962812Y-55016376D01*
X152813512Y-55046073D01*
X152788742Y-55051000D01*
X152611258Y-55051000D01*
X152586488Y-55046073D01*
X152437188Y-55016376D01*
X152273216Y-54948456D01*
X152125646Y-54849853D01*
X152000147Y-54724354D01*
X151901544Y-54576784D01*
X151833624Y-54412812D01*
X151799000Y-54238741D01*
X151799000Y-54061259D01*
X151833624Y-53887188D01*
X151901544Y-53723216D01*
X152000147Y-53575646D01*
X152125646Y-53450147D01*
X152273216Y-53351544D01*
X152437188Y-53283624D01*
X152586488Y-53253927D01*
X152611258Y-53249000D01*
X152788742Y-53249000D01*
X152813512Y-53253927D01*
G37*
G36*
X150273512Y-53253927D02*
G01*
X150422812Y-53283624D01*
X150586784Y-53351544D01*
X150734354Y-53450147D01*
X150859853Y-53575646D01*
X150958456Y-53723216D01*
X151026376Y-53887188D01*
X151061000Y-54061259D01*
X151061000Y-54238741D01*
X151026376Y-54412812D01*
X150958456Y-54576784D01*
X150859853Y-54724354D01*
X150734354Y-54849853D01*
X150586784Y-54948456D01*
X150422812Y-55016376D01*
X150273512Y-55046073D01*
X150248742Y-55051000D01*
X150071258Y-55051000D01*
X150046488Y-55046073D01*
X149897188Y-55016376D01*
X149733216Y-54948456D01*
X149585646Y-54849853D01*
X149460147Y-54724354D01*
X149361544Y-54576784D01*
X149293624Y-54412812D01*
X149259000Y-54238741D01*
X149259000Y-54061259D01*
X149293624Y-53887188D01*
X149361544Y-53723216D01*
X149460147Y-53575646D01*
X149585646Y-53450147D01*
X149733216Y-53351544D01*
X149897188Y-53283624D01*
X150046488Y-53253927D01*
X150071258Y-53249000D01*
X150248742Y-53249000D01*
X150273512Y-53253927D01*
G37*
G36*
X147733512Y-53253927D02*
G01*
X147882812Y-53283624D01*
X148046784Y-53351544D01*
X148194354Y-53450147D01*
X148319853Y-53575646D01*
X148418456Y-53723216D01*
X148486376Y-53887188D01*
X148521000Y-54061259D01*
X148521000Y-54238741D01*
X148486376Y-54412812D01*
X148418456Y-54576784D01*
X148319853Y-54724354D01*
X148194354Y-54849853D01*
X148046784Y-54948456D01*
X147882812Y-55016376D01*
X147733512Y-55046073D01*
X147708742Y-55051000D01*
X147531258Y-55051000D01*
X147506488Y-55046073D01*
X147357188Y-55016376D01*
X147193216Y-54948456D01*
X147045646Y-54849853D01*
X146920147Y-54724354D01*
X146821544Y-54576784D01*
X146753624Y-54412812D01*
X146719000Y-54238741D01*
X146719000Y-54061259D01*
X146753624Y-53887188D01*
X146821544Y-53723216D01*
X146920147Y-53575646D01*
X147045646Y-53450147D01*
X147193216Y-53351544D01*
X147357188Y-53283624D01*
X147506488Y-53253927D01*
X147531258Y-53249000D01*
X147708742Y-53249000D01*
X147733512Y-53253927D01*
G37*
G36*
X145981000Y-55051000D02*
G01*
X144179000Y-55051000D01*
X144179000Y-53249000D01*
X145981000Y-53249000D01*
X145981000Y-55051000D01*
G37*
G36*
X133281000Y-55051000D02*
G01*
X131479000Y-55051000D01*
X131479000Y-53249000D01*
X133281000Y-53249000D01*
X133281000Y-55051000D01*
G37*
G36*
X135033512Y-53253927D02*
G01*
X135182812Y-53283624D01*
X135346784Y-53351544D01*
X135494354Y-53450147D01*
X135619853Y-53575646D01*
X135718456Y-53723216D01*
X135786376Y-53887188D01*
X135821000Y-54061259D01*
X135821000Y-54238741D01*
X135786376Y-54412812D01*
X135718456Y-54576784D01*
X135619853Y-54724354D01*
X135494354Y-54849853D01*
X135346784Y-54948456D01*
X135182812Y-55016376D01*
X135033512Y-55046073D01*
X135008742Y-55051000D01*
X134831258Y-55051000D01*
X134806488Y-55046073D01*
X134657188Y-55016376D01*
X134493216Y-54948456D01*
X134345646Y-54849853D01*
X134220147Y-54724354D01*
X134121544Y-54576784D01*
X134053624Y-54412812D01*
X134019000Y-54238741D01*
X134019000Y-54061259D01*
X134053624Y-53887188D01*
X134121544Y-53723216D01*
X134220147Y-53575646D01*
X134345646Y-53450147D01*
X134493216Y-53351544D01*
X134657188Y-53283624D01*
X134806488Y-53253927D01*
X134831258Y-53249000D01*
X135008742Y-53249000D01*
X135033512Y-53253927D01*
G37*
G36*
X137573512Y-53253927D02*
G01*
X137722812Y-53283624D01*
X137886784Y-53351544D01*
X138034354Y-53450147D01*
X138159853Y-53575646D01*
X138258456Y-53723216D01*
X138326376Y-53887188D01*
X138361000Y-54061259D01*
X138361000Y-54238741D01*
X138326376Y-54412812D01*
X138258456Y-54576784D01*
X138159853Y-54724354D01*
X138034354Y-54849853D01*
X137886784Y-54948456D01*
X137722812Y-55016376D01*
X137573512Y-55046073D01*
X137548742Y-55051000D01*
X137371258Y-55051000D01*
X137346488Y-55046073D01*
X137197188Y-55016376D01*
X137033216Y-54948456D01*
X136885646Y-54849853D01*
X136760147Y-54724354D01*
X136661544Y-54576784D01*
X136593624Y-54412812D01*
X136559000Y-54238741D01*
X136559000Y-54061259D01*
X136593624Y-53887188D01*
X136661544Y-53723216D01*
X136760147Y-53575646D01*
X136885646Y-53450147D01*
X137033216Y-53351544D01*
X137197188Y-53283624D01*
X137346488Y-53253927D01*
X137371258Y-53249000D01*
X137548742Y-53249000D01*
X137573512Y-53253927D01*
G37*
G36*
X140113512Y-53253927D02*
G01*
X140262812Y-53283624D01*
X140426784Y-53351544D01*
X140574354Y-53450147D01*
X140699853Y-53575646D01*
X140798456Y-53723216D01*
X140866376Y-53887188D01*
X140901000Y-54061259D01*
X140901000Y-54238741D01*
X140866376Y-54412812D01*
X140798456Y-54576784D01*
X140699853Y-54724354D01*
X140574354Y-54849853D01*
X140426784Y-54948456D01*
X140262812Y-55016376D01*
X140113512Y-55046073D01*
X140088742Y-55051000D01*
X139911258Y-55051000D01*
X139886488Y-55046073D01*
X139737188Y-55016376D01*
X139573216Y-54948456D01*
X139425646Y-54849853D01*
X139300147Y-54724354D01*
X139201544Y-54576784D01*
X139133624Y-54412812D01*
X139099000Y-54238741D01*
X139099000Y-54061259D01*
X139133624Y-53887188D01*
X139201544Y-53723216D01*
X139300147Y-53575646D01*
X139425646Y-53450147D01*
X139573216Y-53351544D01*
X139737188Y-53283624D01*
X139886488Y-53253927D01*
X139911258Y-53249000D01*
X140088742Y-53249000D01*
X140113512Y-53253927D01*
G37*
G36*
X127413512Y-53253927D02*
G01*
X127562812Y-53283624D01*
X127726784Y-53351544D01*
X127874354Y-53450147D01*
X127999853Y-53575646D01*
X128098456Y-53723216D01*
X128166376Y-53887188D01*
X128201000Y-54061259D01*
X128201000Y-54238741D01*
X128166376Y-54412812D01*
X128098456Y-54576784D01*
X127999853Y-54724354D01*
X127874354Y-54849853D01*
X127726784Y-54948456D01*
X127562812Y-55016376D01*
X127413512Y-55046073D01*
X127388742Y-55051000D01*
X127211258Y-55051000D01*
X127186488Y-55046073D01*
X127037188Y-55016376D01*
X126873216Y-54948456D01*
X126725646Y-54849853D01*
X126600147Y-54724354D01*
X126501544Y-54576784D01*
X126433624Y-54412812D01*
X126399000Y-54238741D01*
X126399000Y-54061259D01*
X126433624Y-53887188D01*
X126501544Y-53723216D01*
X126600147Y-53575646D01*
X126725646Y-53450147D01*
X126873216Y-53351544D01*
X127037188Y-53283624D01*
X127186488Y-53253927D01*
X127211258Y-53249000D01*
X127388742Y-53249000D01*
X127413512Y-53253927D01*
G37*
G36*
X112173512Y-53253927D02*
G01*
X112322812Y-53283624D01*
X112486784Y-53351544D01*
X112634354Y-53450147D01*
X112759853Y-53575646D01*
X112858456Y-53723216D01*
X112926376Y-53887188D01*
X112961000Y-54061259D01*
X112961000Y-54238741D01*
X112926376Y-54412812D01*
X112858456Y-54576784D01*
X112759853Y-54724354D01*
X112634354Y-54849853D01*
X112486784Y-54948456D01*
X112322812Y-55016376D01*
X112173512Y-55046073D01*
X112148742Y-55051000D01*
X111971258Y-55051000D01*
X111946488Y-55046073D01*
X111797188Y-55016376D01*
X111633216Y-54948456D01*
X111485646Y-54849853D01*
X111360147Y-54724354D01*
X111261544Y-54576784D01*
X111193624Y-54412812D01*
X111159000Y-54238741D01*
X111159000Y-54061259D01*
X111193624Y-53887188D01*
X111261544Y-53723216D01*
X111360147Y-53575646D01*
X111485646Y-53450147D01*
X111633216Y-53351544D01*
X111797188Y-53283624D01*
X111946488Y-53253927D01*
X111971258Y-53249000D01*
X112148742Y-53249000D01*
X112173512Y-53253927D01*
G37*
G36*
X122333512Y-53253927D02*
G01*
X122482812Y-53283624D01*
X122646784Y-53351544D01*
X122794354Y-53450147D01*
X122919853Y-53575646D01*
X123018456Y-53723216D01*
X123086376Y-53887188D01*
X123121000Y-54061259D01*
X123121000Y-54238741D01*
X123086376Y-54412812D01*
X123018456Y-54576784D01*
X122919853Y-54724354D01*
X122794354Y-54849853D01*
X122646784Y-54948456D01*
X122482812Y-55016376D01*
X122333512Y-55046073D01*
X122308742Y-55051000D01*
X122131258Y-55051000D01*
X122106488Y-55046073D01*
X121957188Y-55016376D01*
X121793216Y-54948456D01*
X121645646Y-54849853D01*
X121520147Y-54724354D01*
X121421544Y-54576784D01*
X121353624Y-54412812D01*
X121319000Y-54238741D01*
X121319000Y-54061259D01*
X121353624Y-53887188D01*
X121421544Y-53723216D01*
X121520147Y-53575646D01*
X121645646Y-53450147D01*
X121793216Y-53351544D01*
X121957188Y-53283624D01*
X122106488Y-53253927D01*
X122131258Y-53249000D01*
X122308742Y-53249000D01*
X122333512Y-53253927D01*
G37*
G36*
X120581000Y-55051000D02*
G01*
X118779000Y-55051000D01*
X118779000Y-53249000D01*
X120581000Y-53249000D01*
X120581000Y-55051000D01*
G37*
G36*
X102801000Y-55051000D02*
G01*
X100999000Y-55051000D01*
X100999000Y-53249000D01*
X102801000Y-53249000D01*
X102801000Y-55051000D01*
G37*
G36*
X178213512Y-53253927D02*
G01*
X178362812Y-53283624D01*
X178526784Y-53351544D01*
X178674354Y-53450147D01*
X178799853Y-53575646D01*
X178898456Y-53723216D01*
X178966376Y-53887188D01*
X179001000Y-54061259D01*
X179001000Y-54238741D01*
X178966376Y-54412812D01*
X178898456Y-54576784D01*
X178799853Y-54724354D01*
X178674354Y-54849853D01*
X178526784Y-54948456D01*
X178362812Y-55016376D01*
X178213512Y-55046073D01*
X178188742Y-55051000D01*
X178011258Y-55051000D01*
X177986488Y-55046073D01*
X177837188Y-55016376D01*
X177673216Y-54948456D01*
X177525646Y-54849853D01*
X177400147Y-54724354D01*
X177301544Y-54576784D01*
X177233624Y-54412812D01*
X177199000Y-54238741D01*
X177199000Y-54061259D01*
X177233624Y-53887188D01*
X177301544Y-53723216D01*
X177400147Y-53575646D01*
X177525646Y-53450147D01*
X177673216Y-53351544D01*
X177837188Y-53283624D01*
X177986488Y-53253927D01*
X178011258Y-53249000D01*
X178188742Y-53249000D01*
X178213512Y-53253927D01*
G37*
G36*
X175673512Y-53253927D02*
G01*
X175822812Y-53283624D01*
X175986784Y-53351544D01*
X176134354Y-53450147D01*
X176259853Y-53575646D01*
X176358456Y-53723216D01*
X176426376Y-53887188D01*
X176461000Y-54061259D01*
X176461000Y-54238741D01*
X176426376Y-54412812D01*
X176358456Y-54576784D01*
X176259853Y-54724354D01*
X176134354Y-54849853D01*
X175986784Y-54948456D01*
X175822812Y-55016376D01*
X175673512Y-55046073D01*
X175648742Y-55051000D01*
X175471258Y-55051000D01*
X175446488Y-55046073D01*
X175297188Y-55016376D01*
X175133216Y-54948456D01*
X174985646Y-54849853D01*
X174860147Y-54724354D01*
X174761544Y-54576784D01*
X174693624Y-54412812D01*
X174659000Y-54238741D01*
X174659000Y-54061259D01*
X174693624Y-53887188D01*
X174761544Y-53723216D01*
X174860147Y-53575646D01*
X174985646Y-53450147D01*
X175133216Y-53351544D01*
X175297188Y-53283624D01*
X175446488Y-53253927D01*
X175471258Y-53249000D01*
X175648742Y-53249000D01*
X175673512Y-53253927D01*
G37*
G36*
X173133512Y-53253927D02*
G01*
X173282812Y-53283624D01*
X173446784Y-53351544D01*
X173594354Y-53450147D01*
X173719853Y-53575646D01*
X173818456Y-53723216D01*
X173886376Y-53887188D01*
X173921000Y-54061259D01*
X173921000Y-54238741D01*
X173886376Y-54412812D01*
X173818456Y-54576784D01*
X173719853Y-54724354D01*
X173594354Y-54849853D01*
X173446784Y-54948456D01*
X173282812Y-55016376D01*
X173133512Y-55046073D01*
X173108742Y-55051000D01*
X172931258Y-55051000D01*
X172906488Y-55046073D01*
X172757188Y-55016376D01*
X172593216Y-54948456D01*
X172445646Y-54849853D01*
X172320147Y-54724354D01*
X172221544Y-54576784D01*
X172153624Y-54412812D01*
X172119000Y-54238741D01*
X172119000Y-54061259D01*
X172153624Y-53887188D01*
X172221544Y-53723216D01*
X172320147Y-53575646D01*
X172445646Y-53450147D01*
X172593216Y-53351544D01*
X172757188Y-53283624D01*
X172906488Y-53253927D01*
X172931258Y-53249000D01*
X173108742Y-53249000D01*
X173133512Y-53253927D01*
G37*
G36*
X171381000Y-55051000D02*
G01*
X169579000Y-55051000D01*
X169579000Y-53249000D01*
X171381000Y-53249000D01*
X171381000Y-55051000D01*
G37*
G36*
X114713512Y-53253927D02*
G01*
X114862812Y-53283624D01*
X115026784Y-53351544D01*
X115174354Y-53450147D01*
X115299853Y-53575646D01*
X115398456Y-53723216D01*
X115466376Y-53887188D01*
X115501000Y-54061259D01*
X115501000Y-54238741D01*
X115466376Y-54412812D01*
X115398456Y-54576784D01*
X115299853Y-54724354D01*
X115174354Y-54849853D01*
X115026784Y-54948456D01*
X114862812Y-55016376D01*
X114713512Y-55046073D01*
X114688742Y-55051000D01*
X114511258Y-55051000D01*
X114486488Y-55046073D01*
X114337188Y-55016376D01*
X114173216Y-54948456D01*
X114025646Y-54849853D01*
X113900147Y-54724354D01*
X113801544Y-54576784D01*
X113733624Y-54412812D01*
X113699000Y-54238741D01*
X113699000Y-54061259D01*
X113733624Y-53887188D01*
X113801544Y-53723216D01*
X113900147Y-53575646D01*
X114025646Y-53450147D01*
X114173216Y-53351544D01*
X114337188Y-53283624D01*
X114486488Y-53253927D01*
X114511258Y-53249000D01*
X114688742Y-53249000D01*
X114713512Y-53253927D01*
G37*
G36*
X124873512Y-53253927D02*
G01*
X125022812Y-53283624D01*
X125186784Y-53351544D01*
X125334354Y-53450147D01*
X125459853Y-53575646D01*
X125558456Y-53723216D01*
X125626376Y-53887188D01*
X125661000Y-54061259D01*
X125661000Y-54238741D01*
X125626376Y-54412812D01*
X125558456Y-54576784D01*
X125459853Y-54724354D01*
X125334354Y-54849853D01*
X125186784Y-54948456D01*
X125022812Y-55016376D01*
X124873512Y-55046073D01*
X124848742Y-55051000D01*
X124671258Y-55051000D01*
X124646488Y-55046073D01*
X124497188Y-55016376D01*
X124333216Y-54948456D01*
X124185646Y-54849853D01*
X124060147Y-54724354D01*
X123961544Y-54576784D01*
X123893624Y-54412812D01*
X123859000Y-54238741D01*
X123859000Y-54061259D01*
X123893624Y-53887188D01*
X123961544Y-53723216D01*
X124060147Y-53575646D01*
X124185646Y-53450147D01*
X124333216Y-53351544D01*
X124497188Y-53283624D01*
X124646488Y-53253927D01*
X124671258Y-53249000D01*
X124848742Y-53249000D01*
X124873512Y-53253927D01*
G37*
M02*
