G04 #@! TF.GenerationSoftware,KiCad,Pcbnew,5.1.5+dfsg1-2build2*
G04 #@! TF.CreationDate,2021-01-10T12:40:40-08:00*
G04 #@! TF.ProjectId,board,626f6172-642e-46b6-9963-61645f706362,rev?*
G04 #@! TF.SameCoordinates,Original*
G04 #@! TF.FileFunction,Copper,L3,Inr*
G04 #@! TF.FilePolarity,Positive*
%FSLAX46Y46*%
G04 Gerber Fmt 4.6, Leading zero omitted, Abs format (unit mm)*
G04 Created by KiCad (PCBNEW 5.1.5+dfsg1-2build2) date 2021-01-10 12:40:40*
%MOMM*%
%LPD*%
G04 APERTURE LIST*
%ADD10R,1.700000X1.700000*%
%ADD11O,1.700000X1.700000*%
%ADD12C,0.900000*%
%ADD13C,0.254000*%
G04 APERTURE END LIST*
D10*
X169557700Y-71793100D03*
D11*
X169557700Y-74333100D03*
X169557700Y-76873100D03*
X169557700Y-79413100D03*
D10*
X152366000Y-67254000D03*
D11*
X154906000Y-67254000D03*
X152366000Y-69794000D03*
X154906000Y-69794000D03*
X152366000Y-72334000D03*
X154906000Y-72334000D03*
D10*
X157780000Y-54150000D03*
D11*
X160320000Y-54150000D03*
X162860000Y-54150000D03*
X165400000Y-54150000D03*
D10*
X110662500Y-64583200D03*
D11*
X110662500Y-62043200D03*
D10*
X106980000Y-54150000D03*
D11*
X109520000Y-54150000D03*
X112060000Y-54150000D03*
X114600000Y-54150000D03*
D10*
X170480000Y-54150000D03*
D11*
X173020000Y-54150000D03*
X175560000Y-54150000D03*
X178100000Y-54150000D03*
D10*
X101900000Y-54150000D03*
D11*
X101900000Y-56690000D03*
X110662500Y-77283200D03*
D10*
X110662500Y-79823200D03*
X110662500Y-72203200D03*
D11*
X110662500Y-69663200D03*
D10*
X119680000Y-54150000D03*
D11*
X122220000Y-54150000D03*
X124760000Y-54150000D03*
X127300000Y-54150000D03*
X140000000Y-54150000D03*
X137460000Y-54150000D03*
X134920000Y-54150000D03*
D10*
X132380000Y-54150000D03*
X145080000Y-54150000D03*
D11*
X147620000Y-54150000D03*
X150160000Y-54150000D03*
X152700000Y-54150000D03*
D10*
X169557700Y-61633100D03*
D11*
X169557700Y-64173100D03*
X169557700Y-66713100D03*
D12*
X142183637Y-74224363D03*
X162814000Y-72136000D03*
X147574000Y-73406000D03*
X145989424Y-66549284D03*
X139446000Y-75438000D03*
X137669334Y-61983827D03*
X150545800Y-78994000D03*
X131318000Y-70027800D03*
X130073400Y-63068200D03*
X146050000Y-67818000D03*
X157734000Y-61468000D03*
X135439276Y-61481000D03*
X158242000Y-70612000D03*
X134366000Y-61722000D03*
X158750000Y-62230000D03*
X140462000Y-62484000D03*
X117348000Y-78486000D03*
X139446000Y-78232000D03*
X147193000Y-71177492D03*
X146050000Y-60680600D03*
X133350000Y-61005591D03*
X131064000Y-60960000D03*
X130810000Y-58674000D03*
X147624800Y-57962800D03*
X132186757Y-61615243D03*
X140970000Y-74168000D03*
X153924000Y-64008000D03*
X146050000Y-73660000D03*
X161036000Y-70612000D03*
X136677400Y-76784200D03*
X117856000Y-76708000D03*
X149606000Y-60452000D03*
X145108507Y-65785990D03*
X139193294Y-61976063D03*
X158877000Y-78943200D03*
X134391400Y-70187095D03*
X117602000Y-72898000D03*
X120817008Y-70495792D03*
X137735665Y-63838735D03*
X125552200Y-68249800D03*
D13*
G36*
X179305000Y-53280481D02*
G01*
X179253475Y-53203368D01*
X179046632Y-52996525D01*
X178803411Y-52834010D01*
X178533158Y-52722068D01*
X178246260Y-52665000D01*
X177953740Y-52665000D01*
X177666842Y-52722068D01*
X177396589Y-52834010D01*
X177153368Y-52996525D01*
X176946525Y-53203368D01*
X176824805Y-53385534D01*
X176755178Y-53268645D01*
X176560269Y-53052412D01*
X176326920Y-52878359D01*
X176064099Y-52753175D01*
X175916890Y-52708524D01*
X175687000Y-52829845D01*
X175687000Y-54023000D01*
X175707000Y-54023000D01*
X175707000Y-54277000D01*
X175687000Y-54277000D01*
X175687000Y-55470155D01*
X175916890Y-55591476D01*
X176064099Y-55546825D01*
X176326920Y-55421641D01*
X176560269Y-55247588D01*
X176755178Y-55031355D01*
X176824805Y-54914466D01*
X176946525Y-55096632D01*
X177153368Y-55303475D01*
X177396589Y-55465990D01*
X177666842Y-55577932D01*
X177953740Y-55635000D01*
X178246260Y-55635000D01*
X178533158Y-55577932D01*
X178803411Y-55465990D01*
X179046632Y-55303475D01*
X179253475Y-55096632D01*
X179305000Y-55019519D01*
X179305001Y-81305000D01*
X111576183Y-81305000D01*
X111636982Y-81299012D01*
X111756680Y-81262702D01*
X111866994Y-81203737D01*
X111963685Y-81124385D01*
X112043037Y-81027694D01*
X112102002Y-80917380D01*
X112138312Y-80797682D01*
X112150572Y-80673200D01*
X112150572Y-78973200D01*
X112138312Y-78848718D01*
X112102002Y-78729020D01*
X112043037Y-78618706D01*
X111963685Y-78522015D01*
X111866994Y-78442663D01*
X111756680Y-78383698D01*
X111741645Y-78379137D01*
X116263000Y-78379137D01*
X116263000Y-78592863D01*
X116304696Y-78802483D01*
X116386485Y-78999940D01*
X116505225Y-79177647D01*
X116656353Y-79328775D01*
X116834060Y-79447515D01*
X117031517Y-79529304D01*
X117241137Y-79571000D01*
X117454863Y-79571000D01*
X117664483Y-79529304D01*
X117861940Y-79447515D01*
X118039647Y-79328775D01*
X118190775Y-79177647D01*
X118309515Y-78999940D01*
X118391304Y-78802483D01*
X118433000Y-78592863D01*
X118433000Y-78379137D01*
X118391304Y-78169517D01*
X118372922Y-78125137D01*
X138361000Y-78125137D01*
X138361000Y-78338863D01*
X138402696Y-78548483D01*
X138484485Y-78745940D01*
X138603225Y-78923647D01*
X138754353Y-79074775D01*
X138932060Y-79193515D01*
X139129517Y-79275304D01*
X139339137Y-79317000D01*
X139552863Y-79317000D01*
X139762483Y-79275304D01*
X139959940Y-79193515D01*
X140137647Y-79074775D01*
X140288775Y-78923647D01*
X140347113Y-78836337D01*
X157792000Y-78836337D01*
X157792000Y-79050063D01*
X157833696Y-79259683D01*
X157915485Y-79457140D01*
X158034225Y-79634847D01*
X158185353Y-79785975D01*
X158363060Y-79904715D01*
X158560517Y-79986504D01*
X158770137Y-80028200D01*
X158983863Y-80028200D01*
X159193483Y-79986504D01*
X159390940Y-79904715D01*
X159568647Y-79785975D01*
X159719775Y-79634847D01*
X159838515Y-79457140D01*
X159920304Y-79259683D01*
X159962000Y-79050063D01*
X159962000Y-78836337D01*
X159920304Y-78626717D01*
X159838515Y-78429260D01*
X159719775Y-78251553D01*
X159568647Y-78100425D01*
X159390940Y-77981685D01*
X159193483Y-77899896D01*
X158983863Y-77858200D01*
X158770137Y-77858200D01*
X158560517Y-77899896D01*
X158363060Y-77981685D01*
X158185353Y-78100425D01*
X158034225Y-78251553D01*
X157915485Y-78429260D01*
X157833696Y-78626717D01*
X157792000Y-78836337D01*
X140347113Y-78836337D01*
X140407515Y-78745940D01*
X140489304Y-78548483D01*
X140531000Y-78338863D01*
X140531000Y-78125137D01*
X140489304Y-77915517D01*
X140407515Y-77718060D01*
X140288775Y-77540353D01*
X140137647Y-77389225D01*
X139959940Y-77270485D01*
X139762483Y-77188696D01*
X139552863Y-77147000D01*
X139339137Y-77147000D01*
X139129517Y-77188696D01*
X138932060Y-77270485D01*
X138754353Y-77389225D01*
X138603225Y-77540353D01*
X138484485Y-77718060D01*
X138402696Y-77915517D01*
X138361000Y-78125137D01*
X118372922Y-78125137D01*
X118309515Y-77972060D01*
X118190775Y-77794353D01*
X118151833Y-77755411D01*
X118172483Y-77751304D01*
X118369940Y-77669515D01*
X118547647Y-77550775D01*
X118698775Y-77399647D01*
X118817515Y-77221940D01*
X118899304Y-77024483D01*
X118941000Y-76814863D01*
X118941000Y-76677337D01*
X135592400Y-76677337D01*
X135592400Y-76891063D01*
X135634096Y-77100683D01*
X135715885Y-77298140D01*
X135834625Y-77475847D01*
X135985753Y-77626975D01*
X136163460Y-77745715D01*
X136360917Y-77827504D01*
X136570537Y-77869200D01*
X136784263Y-77869200D01*
X136993883Y-77827504D01*
X137191340Y-77745715D01*
X137369047Y-77626975D01*
X137520175Y-77475847D01*
X137638915Y-77298140D01*
X137720704Y-77100683D01*
X137762400Y-76891063D01*
X137762400Y-76677337D01*
X137720704Y-76467717D01*
X137638915Y-76270260D01*
X137520175Y-76092553D01*
X137369047Y-75941425D01*
X137337881Y-75920600D01*
X143179800Y-75920600D01*
X143182240Y-75945376D01*
X143189467Y-75969201D01*
X143201203Y-75991157D01*
X143216997Y-76010403D01*
X144105997Y-76899403D01*
X144125243Y-76915197D01*
X144147199Y-76926933D01*
X144171024Y-76934160D01*
X144195800Y-76936600D01*
X162735994Y-76936600D01*
X163994197Y-78194803D01*
X164013443Y-78210597D01*
X164035399Y-78222333D01*
X164059224Y-78229560D01*
X164084000Y-78232000D01*
X168652412Y-78232000D01*
X168611068Y-78259625D01*
X168404225Y-78466468D01*
X168241710Y-78709689D01*
X168129768Y-78979942D01*
X168072700Y-79266840D01*
X168072700Y-79559360D01*
X168129768Y-79846258D01*
X168241710Y-80116511D01*
X168404225Y-80359732D01*
X168611068Y-80566575D01*
X168854289Y-80729090D01*
X169124542Y-80841032D01*
X169411440Y-80898100D01*
X169703960Y-80898100D01*
X169990858Y-80841032D01*
X170261111Y-80729090D01*
X170504332Y-80566575D01*
X170711175Y-80359732D01*
X170873690Y-80116511D01*
X170985632Y-79846258D01*
X171042700Y-79559360D01*
X171042700Y-79266840D01*
X170985632Y-78979942D01*
X170873690Y-78709689D01*
X170711175Y-78466468D01*
X170504332Y-78259625D01*
X170462988Y-78232000D01*
X171043600Y-78232000D01*
X171068376Y-78229560D01*
X171092201Y-78222333D01*
X171114157Y-78210597D01*
X171133403Y-78194803D01*
X171149197Y-78175557D01*
X171160933Y-78153601D01*
X171168160Y-78129776D01*
X171170600Y-78105000D01*
X171170600Y-73152000D01*
X171168160Y-73127224D01*
X171160933Y-73103399D01*
X171149197Y-73081443D01*
X171133403Y-73062197D01*
X171114157Y-73046403D01*
X171092201Y-73034667D01*
X171068376Y-73027440D01*
X171043600Y-73025000D01*
X170915746Y-73025000D01*
X170938237Y-72997594D01*
X170997202Y-72887280D01*
X171033512Y-72767582D01*
X171045772Y-72643100D01*
X171045772Y-70943100D01*
X171033512Y-70818618D01*
X170997202Y-70698920D01*
X170938237Y-70588606D01*
X170858885Y-70491915D01*
X170762194Y-70412563D01*
X170651880Y-70353598D01*
X170532182Y-70317288D01*
X170407700Y-70305028D01*
X168707700Y-70305028D01*
X168583218Y-70317288D01*
X168463520Y-70353598D01*
X168353206Y-70412563D01*
X168256515Y-70491915D01*
X168177163Y-70588606D01*
X168118198Y-70698920D01*
X168081888Y-70818618D01*
X168069628Y-70943100D01*
X168069628Y-72643100D01*
X168081888Y-72767582D01*
X168118198Y-72887280D01*
X168177163Y-72997594D01*
X168199654Y-73025000D01*
X164058600Y-73025000D01*
X164033824Y-73027440D01*
X164009999Y-73034667D01*
X163988043Y-73046403D01*
X163968797Y-73062197D01*
X162659794Y-74371200D01*
X153593800Y-74371200D01*
X153569024Y-74373640D01*
X153545199Y-74380867D01*
X153523243Y-74392603D01*
X153503997Y-74408397D01*
X153488203Y-74427643D01*
X153476467Y-74449599D01*
X153469240Y-74473424D01*
X153466800Y-74498200D01*
X153466800Y-74726800D01*
X146248361Y-74726800D01*
X146366483Y-74703304D01*
X146563940Y-74621515D01*
X146741647Y-74502775D01*
X146892775Y-74351647D01*
X147011515Y-74173940D01*
X147093304Y-73976483D01*
X147135000Y-73766863D01*
X147135000Y-73553137D01*
X147093304Y-73343517D01*
X147011515Y-73146060D01*
X146892775Y-72968353D01*
X146741647Y-72817225D01*
X146563940Y-72698485D01*
X146366483Y-72616696D01*
X146156863Y-72575000D01*
X145943137Y-72575000D01*
X145733517Y-72616696D01*
X145536060Y-72698485D01*
X145358353Y-72817225D01*
X145207225Y-72968353D01*
X145088485Y-73146060D01*
X145006696Y-73343517D01*
X144965000Y-73553137D01*
X144965000Y-73766863D01*
X145006696Y-73976483D01*
X145088485Y-74173940D01*
X145207225Y-74351647D01*
X145358353Y-74502775D01*
X145536060Y-74621515D01*
X145733517Y-74703304D01*
X145851639Y-74726800D01*
X145416806Y-74726800D01*
X144996803Y-74306797D01*
X144980111Y-74292755D01*
X144958447Y-74280487D01*
X144934806Y-74272681D01*
X144910097Y-74269638D01*
X144885268Y-74271473D01*
X144861275Y-74278117D01*
X144839038Y-74289314D01*
X144819414Y-74304634D01*
X143219214Y-75828634D01*
X143201203Y-75850043D01*
X143189467Y-75871999D01*
X143182240Y-75895824D01*
X143179800Y-75920600D01*
X137337881Y-75920600D01*
X137191340Y-75822685D01*
X136993883Y-75740896D01*
X136784263Y-75699200D01*
X136570537Y-75699200D01*
X136360917Y-75740896D01*
X136163460Y-75822685D01*
X135985753Y-75941425D01*
X135834625Y-76092553D01*
X135715885Y-76270260D01*
X135634096Y-76467717D01*
X135592400Y-76677337D01*
X118941000Y-76677337D01*
X118941000Y-76601137D01*
X118899304Y-76391517D01*
X118817515Y-76194060D01*
X118698775Y-76016353D01*
X118547647Y-75865225D01*
X118369940Y-75746485D01*
X118172483Y-75664696D01*
X117962863Y-75623000D01*
X117749137Y-75623000D01*
X117539517Y-75664696D01*
X117342060Y-75746485D01*
X117164353Y-75865225D01*
X117013225Y-76016353D01*
X116894485Y-76194060D01*
X116812696Y-76391517D01*
X116771000Y-76601137D01*
X116771000Y-76814863D01*
X116812696Y-77024483D01*
X116894485Y-77221940D01*
X117013225Y-77399647D01*
X117052167Y-77438589D01*
X117031517Y-77442696D01*
X116834060Y-77524485D01*
X116656353Y-77643225D01*
X116505225Y-77794353D01*
X116386485Y-77972060D01*
X116304696Y-78169517D01*
X116263000Y-78379137D01*
X111741645Y-78379137D01*
X111684120Y-78361687D01*
X111815975Y-78229832D01*
X111978490Y-77986611D01*
X112090432Y-77716358D01*
X112147500Y-77429460D01*
X112147500Y-77136940D01*
X112090432Y-76850042D01*
X111978490Y-76579789D01*
X111815975Y-76336568D01*
X111609132Y-76129725D01*
X111365911Y-75967210D01*
X111095658Y-75855268D01*
X110808760Y-75798200D01*
X110516240Y-75798200D01*
X110229342Y-75855268D01*
X109959089Y-75967210D01*
X109715868Y-76129725D01*
X109509025Y-76336568D01*
X109346510Y-76579789D01*
X109234568Y-76850042D01*
X109177500Y-77136940D01*
X109177500Y-77429460D01*
X109234568Y-77716358D01*
X109346510Y-77986611D01*
X109509025Y-78229832D01*
X109640880Y-78361687D01*
X109568320Y-78383698D01*
X109458006Y-78442663D01*
X109361315Y-78522015D01*
X109281963Y-78618706D01*
X109222998Y-78729020D01*
X109186688Y-78848718D01*
X109174428Y-78973200D01*
X109174428Y-80673200D01*
X109186688Y-80797682D01*
X109222998Y-80917380D01*
X109281963Y-81027694D01*
X109361315Y-81124385D01*
X109458006Y-81203737D01*
X109568320Y-81262702D01*
X109688018Y-81299012D01*
X109748817Y-81305000D01*
X100695000Y-81305000D01*
X100695000Y-74061137D01*
X139885000Y-74061137D01*
X139885000Y-74274863D01*
X139926696Y-74484483D01*
X140008485Y-74681940D01*
X140127225Y-74859647D01*
X140278353Y-75010775D01*
X140456060Y-75129515D01*
X140653517Y-75211304D01*
X140863137Y-75253000D01*
X141076863Y-75253000D01*
X141286483Y-75211304D01*
X141483940Y-75129515D01*
X141661647Y-75010775D01*
X141812775Y-74859647D01*
X141931515Y-74681940D01*
X142013304Y-74484483D01*
X142055000Y-74274863D01*
X142055000Y-74061137D01*
X142013304Y-73851517D01*
X141931515Y-73654060D01*
X141812775Y-73476353D01*
X141661647Y-73325225D01*
X141483940Y-73206485D01*
X141286483Y-73124696D01*
X141076863Y-73083000D01*
X140863137Y-73083000D01*
X140653517Y-73124696D01*
X140456060Y-73206485D01*
X140278353Y-73325225D01*
X140127225Y-73476353D01*
X140008485Y-73654060D01*
X139926696Y-73851517D01*
X139885000Y-74061137D01*
X100695000Y-74061137D01*
X100695000Y-71353200D01*
X109174428Y-71353200D01*
X109174428Y-73053200D01*
X109186688Y-73177682D01*
X109222998Y-73297380D01*
X109281963Y-73407694D01*
X109361315Y-73504385D01*
X109458006Y-73583737D01*
X109568320Y-73642702D01*
X109688018Y-73679012D01*
X109812500Y-73691272D01*
X111512500Y-73691272D01*
X111636982Y-73679012D01*
X111756680Y-73642702D01*
X111866994Y-73583737D01*
X111963685Y-73504385D01*
X112043037Y-73407694D01*
X112102002Y-73297380D01*
X112138312Y-73177682D01*
X112150572Y-73053200D01*
X112150572Y-72791137D01*
X116517000Y-72791137D01*
X116517000Y-73004863D01*
X116558696Y-73214483D01*
X116640485Y-73411940D01*
X116759225Y-73589647D01*
X116910353Y-73740775D01*
X117088060Y-73859515D01*
X117285517Y-73941304D01*
X117495137Y-73983000D01*
X117708863Y-73983000D01*
X117918483Y-73941304D01*
X118115940Y-73859515D01*
X118293647Y-73740775D01*
X118444775Y-73589647D01*
X118563515Y-73411940D01*
X118645304Y-73214483D01*
X118687000Y-73004863D01*
X118687000Y-72791137D01*
X118645304Y-72581517D01*
X118563515Y-72384060D01*
X118444775Y-72206353D01*
X118293647Y-72055225D01*
X118115940Y-71936485D01*
X117918483Y-71854696D01*
X117708863Y-71813000D01*
X117495137Y-71813000D01*
X117285517Y-71854696D01*
X117088060Y-71936485D01*
X116910353Y-72055225D01*
X116759225Y-72206353D01*
X116640485Y-72384060D01*
X116558696Y-72581517D01*
X116517000Y-72791137D01*
X112150572Y-72791137D01*
X112150572Y-71353200D01*
X112138312Y-71228718D01*
X112102002Y-71109020D01*
X112043037Y-70998706D01*
X111963685Y-70902015D01*
X111866994Y-70822663D01*
X111756680Y-70763698D01*
X111684120Y-70741687D01*
X111815975Y-70609832D01*
X111963577Y-70388929D01*
X119732008Y-70388929D01*
X119732008Y-70602655D01*
X119773704Y-70812275D01*
X119855493Y-71009732D01*
X119974233Y-71187439D01*
X120125361Y-71338567D01*
X120303068Y-71457307D01*
X120500525Y-71539096D01*
X120710145Y-71580792D01*
X120923871Y-71580792D01*
X121133491Y-71539096D01*
X121330948Y-71457307D01*
X121508655Y-71338567D01*
X121659783Y-71187439D01*
X121778523Y-71009732D01*
X121860312Y-70812275D01*
X121902008Y-70602655D01*
X121902008Y-70388929D01*
X121860312Y-70179309D01*
X121819274Y-70080232D01*
X133306400Y-70080232D01*
X133306400Y-70293958D01*
X133348096Y-70503578D01*
X133429885Y-70701035D01*
X133548625Y-70878742D01*
X133699753Y-71029870D01*
X133877460Y-71148610D01*
X134074917Y-71230399D01*
X134284537Y-71272095D01*
X134498263Y-71272095D01*
X134707883Y-71230399D01*
X134905340Y-71148610D01*
X135022046Y-71070629D01*
X146108000Y-71070629D01*
X146108000Y-71284355D01*
X146149696Y-71493975D01*
X146231485Y-71691432D01*
X146350225Y-71869139D01*
X146501353Y-72020267D01*
X146679060Y-72139007D01*
X146876517Y-72220796D01*
X147086137Y-72262492D01*
X147299863Y-72262492D01*
X147509483Y-72220796D01*
X147706940Y-72139007D01*
X147884647Y-72020267D01*
X148035775Y-71869139D01*
X148154515Y-71691432D01*
X148236304Y-71493975D01*
X148278000Y-71284355D01*
X148278000Y-71070629D01*
X148236304Y-70861009D01*
X148154515Y-70663552D01*
X148035775Y-70485845D01*
X147884647Y-70334717D01*
X147706940Y-70215977D01*
X147509483Y-70134188D01*
X147299863Y-70092492D01*
X147086137Y-70092492D01*
X146876517Y-70134188D01*
X146679060Y-70215977D01*
X146501353Y-70334717D01*
X146350225Y-70485845D01*
X146231485Y-70663552D01*
X146149696Y-70861009D01*
X146108000Y-71070629D01*
X135022046Y-71070629D01*
X135083047Y-71029870D01*
X135234175Y-70878742D01*
X135352915Y-70701035D01*
X135434704Y-70503578D01*
X135476400Y-70293958D01*
X135476400Y-70080232D01*
X135434704Y-69870612D01*
X135352915Y-69673155D01*
X135234175Y-69495448D01*
X135083047Y-69344320D01*
X134905340Y-69225580D01*
X134707883Y-69143791D01*
X134498263Y-69102095D01*
X134284537Y-69102095D01*
X134074917Y-69143791D01*
X133877460Y-69225580D01*
X133699753Y-69344320D01*
X133548625Y-69495448D01*
X133429885Y-69673155D01*
X133348096Y-69870612D01*
X133306400Y-70080232D01*
X121819274Y-70080232D01*
X121778523Y-69981852D01*
X121659783Y-69804145D01*
X121508655Y-69653017D01*
X121330948Y-69534277D01*
X121133491Y-69452488D01*
X120923871Y-69410792D01*
X120710145Y-69410792D01*
X120500525Y-69452488D01*
X120303068Y-69534277D01*
X120125361Y-69653017D01*
X119974233Y-69804145D01*
X119855493Y-69981852D01*
X119773704Y-70179309D01*
X119732008Y-70388929D01*
X111963577Y-70388929D01*
X111978490Y-70366611D01*
X112090432Y-70096358D01*
X112147500Y-69809460D01*
X112147500Y-69516940D01*
X112090432Y-69230042D01*
X111978490Y-68959789D01*
X111815975Y-68716568D01*
X111609132Y-68509725D01*
X111365911Y-68347210D01*
X111095658Y-68235268D01*
X110808760Y-68178200D01*
X110516240Y-68178200D01*
X110229342Y-68235268D01*
X109959089Y-68347210D01*
X109715868Y-68509725D01*
X109509025Y-68716568D01*
X109346510Y-68959789D01*
X109234568Y-69230042D01*
X109177500Y-69516940D01*
X109177500Y-69809460D01*
X109234568Y-70096358D01*
X109346510Y-70366611D01*
X109509025Y-70609832D01*
X109640880Y-70741687D01*
X109568320Y-70763698D01*
X109458006Y-70822663D01*
X109361315Y-70902015D01*
X109281963Y-70998706D01*
X109222998Y-71109020D01*
X109186688Y-71228718D01*
X109174428Y-71353200D01*
X100695000Y-71353200D01*
X100695000Y-68142937D01*
X124467200Y-68142937D01*
X124467200Y-68356663D01*
X124508896Y-68566283D01*
X124590685Y-68763740D01*
X124709425Y-68941447D01*
X124860553Y-69092575D01*
X125038260Y-69211315D01*
X125235717Y-69293104D01*
X125445337Y-69334800D01*
X125659063Y-69334800D01*
X125868683Y-69293104D01*
X126066140Y-69211315D01*
X126243847Y-69092575D01*
X126394975Y-68941447D01*
X126513715Y-68763740D01*
X126595504Y-68566283D01*
X126637200Y-68356663D01*
X126637200Y-68142937D01*
X126595504Y-67933317D01*
X126513715Y-67735860D01*
X126497196Y-67711137D01*
X144965000Y-67711137D01*
X144965000Y-67924863D01*
X145006696Y-68134483D01*
X145088485Y-68331940D01*
X145207225Y-68509647D01*
X145358353Y-68660775D01*
X145536060Y-68779515D01*
X145733517Y-68861304D01*
X145943137Y-68903000D01*
X146156863Y-68903000D01*
X146366483Y-68861304D01*
X146563940Y-68779515D01*
X146741647Y-68660775D01*
X146892775Y-68509647D01*
X147011515Y-68331940D01*
X147093304Y-68134483D01*
X147135000Y-67924863D01*
X147135000Y-67711137D01*
X147093304Y-67501517D01*
X147011515Y-67304060D01*
X146892775Y-67126353D01*
X146741647Y-66975225D01*
X146563940Y-66856485D01*
X146366483Y-66774696D01*
X146156863Y-66733000D01*
X145943137Y-66733000D01*
X145733517Y-66774696D01*
X145536060Y-66856485D01*
X145358353Y-66975225D01*
X145207225Y-67126353D01*
X145088485Y-67304060D01*
X145006696Y-67501517D01*
X144965000Y-67711137D01*
X126497196Y-67711137D01*
X126394975Y-67558153D01*
X126243847Y-67407025D01*
X126066140Y-67288285D01*
X125868683Y-67206496D01*
X125659063Y-67164800D01*
X125445337Y-67164800D01*
X125235717Y-67206496D01*
X125038260Y-67288285D01*
X124860553Y-67407025D01*
X124709425Y-67558153D01*
X124590685Y-67735860D01*
X124508896Y-67933317D01*
X124467200Y-68142937D01*
X100695000Y-68142937D01*
X100695000Y-63733200D01*
X109174428Y-63733200D01*
X109174428Y-65433200D01*
X109186688Y-65557682D01*
X109222998Y-65677380D01*
X109281963Y-65787694D01*
X109361315Y-65884385D01*
X109458006Y-65963737D01*
X109568320Y-66022702D01*
X109688018Y-66059012D01*
X109812500Y-66071272D01*
X111512500Y-66071272D01*
X111636982Y-66059012D01*
X111756680Y-66022702D01*
X111866994Y-65963737D01*
X111963685Y-65884385D01*
X112043037Y-65787694D01*
X112101068Y-65679127D01*
X144023507Y-65679127D01*
X144023507Y-65892853D01*
X144065203Y-66102473D01*
X144146992Y-66299930D01*
X144265732Y-66477637D01*
X144416860Y-66628765D01*
X144594567Y-66747505D01*
X144792024Y-66829294D01*
X145001644Y-66870990D01*
X145215370Y-66870990D01*
X145424990Y-66829294D01*
X145622447Y-66747505D01*
X145800154Y-66628765D01*
X145951282Y-66477637D01*
X146000484Y-66404000D01*
X150877928Y-66404000D01*
X150877928Y-68104000D01*
X150890188Y-68228482D01*
X150926498Y-68348180D01*
X150985463Y-68458494D01*
X151064815Y-68555185D01*
X151161506Y-68634537D01*
X151271820Y-68693502D01*
X151344380Y-68715513D01*
X151212525Y-68847368D01*
X151050010Y-69090589D01*
X150938068Y-69360842D01*
X150881000Y-69647740D01*
X150881000Y-69940260D01*
X150938068Y-70227158D01*
X151050010Y-70497411D01*
X151212525Y-70740632D01*
X151419368Y-70947475D01*
X151593760Y-71064000D01*
X151419368Y-71180525D01*
X151212525Y-71387368D01*
X151050010Y-71630589D01*
X150938068Y-71900842D01*
X150881000Y-72187740D01*
X150881000Y-72480260D01*
X150938068Y-72767158D01*
X151050010Y-73037411D01*
X151212525Y-73280632D01*
X151419368Y-73487475D01*
X151662589Y-73649990D01*
X151932842Y-73761932D01*
X152219740Y-73819000D01*
X152512260Y-73819000D01*
X152799158Y-73761932D01*
X153069411Y-73649990D01*
X153312632Y-73487475D01*
X153519475Y-73280632D01*
X153636000Y-73106240D01*
X153752525Y-73280632D01*
X153959368Y-73487475D01*
X154202589Y-73649990D01*
X154472842Y-73761932D01*
X154759740Y-73819000D01*
X155052260Y-73819000D01*
X155339158Y-73761932D01*
X155609411Y-73649990D01*
X155852632Y-73487475D01*
X156059475Y-73280632D01*
X156221990Y-73037411D01*
X156333932Y-72767158D01*
X156391000Y-72480260D01*
X156391000Y-72187740D01*
X156333932Y-71900842D01*
X156221990Y-71630589D01*
X156059475Y-71387368D01*
X155852632Y-71180525D01*
X155678240Y-71064000D01*
X155852632Y-70947475D01*
X156059475Y-70740632D01*
X156216827Y-70505137D01*
X157157000Y-70505137D01*
X157157000Y-70718863D01*
X157198696Y-70928483D01*
X157280485Y-71125940D01*
X157399225Y-71303647D01*
X157550353Y-71454775D01*
X157728060Y-71573515D01*
X157925517Y-71655304D01*
X158135137Y-71697000D01*
X158348863Y-71697000D01*
X158558483Y-71655304D01*
X158755940Y-71573515D01*
X158933647Y-71454775D01*
X159084775Y-71303647D01*
X159203515Y-71125940D01*
X159285304Y-70928483D01*
X159327000Y-70718863D01*
X159327000Y-70505137D01*
X159951000Y-70505137D01*
X159951000Y-70718863D01*
X159992696Y-70928483D01*
X160074485Y-71125940D01*
X160193225Y-71303647D01*
X160344353Y-71454775D01*
X160522060Y-71573515D01*
X160719517Y-71655304D01*
X160929137Y-71697000D01*
X161142863Y-71697000D01*
X161352483Y-71655304D01*
X161549940Y-71573515D01*
X161727647Y-71454775D01*
X161878775Y-71303647D01*
X161997515Y-71125940D01*
X162079304Y-70928483D01*
X162121000Y-70718863D01*
X162121000Y-70505137D01*
X162079304Y-70295517D01*
X161997515Y-70098060D01*
X161878775Y-69920353D01*
X161727647Y-69769225D01*
X161549940Y-69650485D01*
X161352483Y-69568696D01*
X161142863Y-69527000D01*
X160929137Y-69527000D01*
X160719517Y-69568696D01*
X160522060Y-69650485D01*
X160344353Y-69769225D01*
X160193225Y-69920353D01*
X160074485Y-70098060D01*
X159992696Y-70295517D01*
X159951000Y-70505137D01*
X159327000Y-70505137D01*
X159285304Y-70295517D01*
X159203515Y-70098060D01*
X159084775Y-69920353D01*
X158933647Y-69769225D01*
X158755940Y-69650485D01*
X158558483Y-69568696D01*
X158348863Y-69527000D01*
X158135137Y-69527000D01*
X157925517Y-69568696D01*
X157728060Y-69650485D01*
X157550353Y-69769225D01*
X157399225Y-69920353D01*
X157280485Y-70098060D01*
X157198696Y-70295517D01*
X157157000Y-70505137D01*
X156216827Y-70505137D01*
X156221990Y-70497411D01*
X156333932Y-70227158D01*
X156391000Y-69940260D01*
X156391000Y-69647740D01*
X156333932Y-69360842D01*
X156221990Y-69090589D01*
X156059475Y-68847368D01*
X155852632Y-68640525D01*
X155670466Y-68518805D01*
X155787355Y-68449178D01*
X156003588Y-68254269D01*
X156177641Y-68020920D01*
X156302825Y-67758099D01*
X156347476Y-67610890D01*
X156226155Y-67381000D01*
X155033000Y-67381000D01*
X155033000Y-67401000D01*
X154779000Y-67401000D01*
X154779000Y-67381000D01*
X154759000Y-67381000D01*
X154759000Y-67127000D01*
X154779000Y-67127000D01*
X154779000Y-65933186D01*
X155033000Y-65933186D01*
X155033000Y-67127000D01*
X156226155Y-67127000D01*
X156347476Y-66897110D01*
X156302825Y-66749901D01*
X156177641Y-66487080D01*
X156003588Y-66253731D01*
X155787355Y-66058822D01*
X155537252Y-65909843D01*
X155262891Y-65812519D01*
X155033000Y-65933186D01*
X154779000Y-65933186D01*
X154549109Y-65812519D01*
X154274748Y-65909843D01*
X154024645Y-66058822D01*
X153828498Y-66235626D01*
X153805502Y-66159820D01*
X153746537Y-66049506D01*
X153667185Y-65952815D01*
X153570494Y-65873463D01*
X153460180Y-65814498D01*
X153340482Y-65778188D01*
X153216000Y-65765928D01*
X151516000Y-65765928D01*
X151391518Y-65778188D01*
X151271820Y-65814498D01*
X151161506Y-65873463D01*
X151064815Y-65952815D01*
X150985463Y-66049506D01*
X150926498Y-66159820D01*
X150890188Y-66279518D01*
X150877928Y-66404000D01*
X146000484Y-66404000D01*
X146070022Y-66299930D01*
X146151811Y-66102473D01*
X146193507Y-65892853D01*
X146193507Y-65679127D01*
X146151811Y-65469507D01*
X146070022Y-65272050D01*
X145951282Y-65094343D01*
X145800154Y-64943215D01*
X145622447Y-64824475D01*
X145424990Y-64742686D01*
X145215370Y-64700990D01*
X145001644Y-64700990D01*
X144792024Y-64742686D01*
X144594567Y-64824475D01*
X144416860Y-64943215D01*
X144265732Y-65094343D01*
X144146992Y-65272050D01*
X144065203Y-65469507D01*
X144023507Y-65679127D01*
X112101068Y-65679127D01*
X112102002Y-65677380D01*
X112138312Y-65557682D01*
X112150572Y-65433200D01*
X112150572Y-63733200D01*
X112150442Y-63731872D01*
X136650665Y-63731872D01*
X136650665Y-63945598D01*
X136692361Y-64155218D01*
X136774150Y-64352675D01*
X136892890Y-64530382D01*
X137044018Y-64681510D01*
X137221725Y-64800250D01*
X137419182Y-64882039D01*
X137628802Y-64923735D01*
X137842528Y-64923735D01*
X138052148Y-64882039D01*
X138249605Y-64800250D01*
X138427312Y-64681510D01*
X138578440Y-64530382D01*
X138697180Y-64352675D01*
X138778969Y-64155218D01*
X138820665Y-63945598D01*
X138820665Y-63731872D01*
X138778969Y-63522252D01*
X138697180Y-63324795D01*
X138578440Y-63147088D01*
X138427312Y-62995960D01*
X138249605Y-62877220D01*
X138052148Y-62795431D01*
X137842528Y-62753735D01*
X137628802Y-62753735D01*
X137419182Y-62795431D01*
X137221725Y-62877220D01*
X137044018Y-62995960D01*
X136892890Y-63147088D01*
X136774150Y-63324795D01*
X136692361Y-63522252D01*
X136650665Y-63731872D01*
X112150442Y-63731872D01*
X112138312Y-63608718D01*
X112102002Y-63489020D01*
X112043037Y-63378706D01*
X111963685Y-63282015D01*
X111866994Y-63202663D01*
X111756680Y-63143698D01*
X111684120Y-63121687D01*
X111815975Y-62989832D01*
X111978490Y-62746611D01*
X112090432Y-62476358D01*
X112147500Y-62189460D01*
X112147500Y-61896940D01*
X112090432Y-61610042D01*
X111978490Y-61339789D01*
X111815975Y-61096568D01*
X111609132Y-60889725D01*
X111554375Y-60853137D01*
X129979000Y-60853137D01*
X129979000Y-61066863D01*
X130020696Y-61276483D01*
X130102485Y-61473940D01*
X130221225Y-61651647D01*
X130372353Y-61802775D01*
X130550060Y-61921515D01*
X130747517Y-62003304D01*
X130957137Y-62045000D01*
X131170863Y-62045000D01*
X131188887Y-62041415D01*
X131225242Y-62129183D01*
X131343982Y-62306890D01*
X131495110Y-62458018D01*
X131672817Y-62576758D01*
X131870274Y-62658547D01*
X132079894Y-62700243D01*
X132293620Y-62700243D01*
X132503240Y-62658547D01*
X132700697Y-62576758D01*
X132878404Y-62458018D01*
X133029532Y-62306890D01*
X133148272Y-62129183D01*
X133170262Y-62076095D01*
X133243137Y-62090591D01*
X133344280Y-62090591D01*
X133404485Y-62235940D01*
X133523225Y-62413647D01*
X133674353Y-62564775D01*
X133852060Y-62683515D01*
X134049517Y-62765304D01*
X134259137Y-62807000D01*
X134472863Y-62807000D01*
X134682483Y-62765304D01*
X134879940Y-62683515D01*
X135057647Y-62564775D01*
X135105345Y-62517077D01*
X135122793Y-62524304D01*
X135332413Y-62566000D01*
X135546139Y-62566000D01*
X135755759Y-62524304D01*
X135953216Y-62442515D01*
X136130923Y-62323775D01*
X136282051Y-62172647D01*
X136400791Y-61994940D01*
X136452873Y-61869200D01*
X138108294Y-61869200D01*
X138108294Y-62082926D01*
X138149990Y-62292546D01*
X138231779Y-62490003D01*
X138350519Y-62667710D01*
X138501647Y-62818838D01*
X138679354Y-62937578D01*
X138876811Y-63019367D01*
X139086431Y-63061063D01*
X139300157Y-63061063D01*
X139509777Y-63019367D01*
X139513713Y-63017737D01*
X139619225Y-63175647D01*
X139770353Y-63326775D01*
X139948060Y-63445515D01*
X140145517Y-63527304D01*
X140355137Y-63569000D01*
X140568863Y-63569000D01*
X140778483Y-63527304D01*
X140975940Y-63445515D01*
X141153647Y-63326775D01*
X141304775Y-63175647D01*
X141423515Y-62997940D01*
X141505304Y-62800483D01*
X141547000Y-62590863D01*
X141547000Y-62377137D01*
X141505304Y-62167517D01*
X141423515Y-61970060D01*
X141394778Y-61927051D01*
X143840213Y-61927051D01*
X143843015Y-61951789D01*
X143850588Y-61975506D01*
X143862643Y-61997289D01*
X143878716Y-62016302D01*
X148298316Y-66308902D01*
X148317736Y-66324380D01*
X148339856Y-66335805D01*
X148363780Y-66342696D01*
X148388588Y-66344787D01*
X148413328Y-66341999D01*
X148437048Y-66334437D01*
X148458837Y-66322393D01*
X148477858Y-66306329D01*
X148493380Y-66286864D01*
X150039331Y-63901137D01*
X152839000Y-63901137D01*
X152839000Y-64114863D01*
X152880696Y-64324483D01*
X152962485Y-64521940D01*
X153081225Y-64699647D01*
X153232353Y-64850775D01*
X153410060Y-64969515D01*
X153607517Y-65051304D01*
X153817137Y-65093000D01*
X154030863Y-65093000D01*
X154240483Y-65051304D01*
X154437940Y-64969515D01*
X154615647Y-64850775D01*
X154766775Y-64699647D01*
X154885515Y-64521940D01*
X154967304Y-64324483D01*
X155009000Y-64114863D01*
X155009000Y-63901137D01*
X154967304Y-63691517D01*
X154885515Y-63494060D01*
X154766775Y-63316353D01*
X154615647Y-63165225D01*
X154437940Y-63046485D01*
X154240483Y-62964696D01*
X154030863Y-62923000D01*
X153817137Y-62923000D01*
X153607517Y-62964696D01*
X153410060Y-63046485D01*
X153232353Y-63165225D01*
X153081225Y-63316353D01*
X152962485Y-63494060D01*
X152880696Y-63691517D01*
X152839000Y-63901137D01*
X150039331Y-63901137D01*
X150550780Y-63111864D01*
X150562159Y-63089860D01*
X150569074Y-63065943D01*
X150571189Y-63041136D01*
X150568424Y-63016394D01*
X150560886Y-62992666D01*
X150548863Y-62970865D01*
X150532818Y-62951829D01*
X147856922Y-60345137D01*
X148521000Y-60345137D01*
X148521000Y-60558863D01*
X148562696Y-60768483D01*
X148644485Y-60965940D01*
X148763225Y-61143647D01*
X148914353Y-61294775D01*
X149092060Y-61413515D01*
X149289517Y-61495304D01*
X149499137Y-61537000D01*
X149712863Y-61537000D01*
X149922483Y-61495304D01*
X150119940Y-61413515D01*
X150198329Y-61361137D01*
X156649000Y-61361137D01*
X156649000Y-61574863D01*
X156690696Y-61784483D01*
X156772485Y-61981940D01*
X156891225Y-62159647D01*
X157042353Y-62310775D01*
X157220060Y-62429515D01*
X157417517Y-62511304D01*
X157627137Y-62553000D01*
X157709395Y-62553000D01*
X157788485Y-62743940D01*
X157907225Y-62921647D01*
X158058353Y-63072775D01*
X158236060Y-63191515D01*
X158433517Y-63273304D01*
X158643137Y-63315000D01*
X158856863Y-63315000D01*
X159066483Y-63273304D01*
X159263940Y-63191515D01*
X159441647Y-63072775D01*
X159592775Y-62921647D01*
X159711515Y-62743940D01*
X159793304Y-62546483D01*
X159835000Y-62336863D01*
X159835000Y-62123137D01*
X159793304Y-61913517D01*
X159711515Y-61716060D01*
X159592775Y-61538353D01*
X159441647Y-61387225D01*
X159263940Y-61268485D01*
X159066483Y-61186696D01*
X158856863Y-61145000D01*
X158774605Y-61145000D01*
X158695515Y-60954060D01*
X158581284Y-60783100D01*
X168069628Y-60783100D01*
X168069628Y-62483100D01*
X168081888Y-62607582D01*
X168118198Y-62727280D01*
X168177163Y-62837594D01*
X168256515Y-62934285D01*
X168353206Y-63013637D01*
X168463520Y-63072602D01*
X168536080Y-63094613D01*
X168404225Y-63226468D01*
X168241710Y-63469689D01*
X168129768Y-63739942D01*
X168072700Y-64026840D01*
X168072700Y-64319360D01*
X168129768Y-64606258D01*
X168241710Y-64876511D01*
X168404225Y-65119732D01*
X168611068Y-65326575D01*
X168785460Y-65443100D01*
X168611068Y-65559625D01*
X168404225Y-65766468D01*
X168241710Y-66009689D01*
X168129768Y-66279942D01*
X168072700Y-66566840D01*
X168072700Y-66859360D01*
X168129768Y-67146258D01*
X168241710Y-67416511D01*
X168404225Y-67659732D01*
X168611068Y-67866575D01*
X168854289Y-68029090D01*
X169124542Y-68141032D01*
X169411440Y-68198100D01*
X169703960Y-68198100D01*
X169990858Y-68141032D01*
X170261111Y-68029090D01*
X170504332Y-67866575D01*
X170711175Y-67659732D01*
X170873690Y-67416511D01*
X170985632Y-67146258D01*
X171042700Y-66859360D01*
X171042700Y-66566840D01*
X170985632Y-66279942D01*
X170873690Y-66009689D01*
X170711175Y-65766468D01*
X170504332Y-65559625D01*
X170329940Y-65443100D01*
X170504332Y-65326575D01*
X170711175Y-65119732D01*
X170873690Y-64876511D01*
X170985632Y-64606258D01*
X171042700Y-64319360D01*
X171042700Y-64026840D01*
X170985632Y-63739942D01*
X170873690Y-63469689D01*
X170711175Y-63226468D01*
X170579320Y-63094613D01*
X170651880Y-63072602D01*
X170762194Y-63013637D01*
X170858885Y-62934285D01*
X170938237Y-62837594D01*
X170997202Y-62727280D01*
X171033512Y-62607582D01*
X171045772Y-62483100D01*
X171045772Y-60783100D01*
X171033512Y-60658618D01*
X170997202Y-60538920D01*
X170938237Y-60428606D01*
X170858885Y-60331915D01*
X170762194Y-60252563D01*
X170651880Y-60193598D01*
X170532182Y-60157288D01*
X170407700Y-60145028D01*
X168707700Y-60145028D01*
X168583218Y-60157288D01*
X168463520Y-60193598D01*
X168353206Y-60252563D01*
X168256515Y-60331915D01*
X168177163Y-60428606D01*
X168118198Y-60538920D01*
X168081888Y-60658618D01*
X168069628Y-60783100D01*
X158581284Y-60783100D01*
X158576775Y-60776353D01*
X158425647Y-60625225D01*
X158247940Y-60506485D01*
X158050483Y-60424696D01*
X157840863Y-60383000D01*
X157627137Y-60383000D01*
X157417517Y-60424696D01*
X157220060Y-60506485D01*
X157042353Y-60625225D01*
X156891225Y-60776353D01*
X156772485Y-60954060D01*
X156690696Y-61151517D01*
X156649000Y-61361137D01*
X150198329Y-61361137D01*
X150297647Y-61294775D01*
X150448775Y-61143647D01*
X150567515Y-60965940D01*
X150649304Y-60768483D01*
X150691000Y-60558863D01*
X150691000Y-60345137D01*
X150649304Y-60135517D01*
X150567515Y-59938060D01*
X150448775Y-59760353D01*
X150297647Y-59609225D01*
X150119940Y-59490485D01*
X149922483Y-59408696D01*
X149712863Y-59367000D01*
X149499137Y-59367000D01*
X149289517Y-59408696D01*
X149092060Y-59490485D01*
X148914353Y-59609225D01*
X148763225Y-59760353D01*
X148644485Y-59938060D01*
X148562696Y-60135517D01*
X148521000Y-60345137D01*
X147856922Y-60345137D01*
X147651314Y-60144847D01*
X147636793Y-60115805D01*
X147628797Y-60102043D01*
X147613003Y-60082797D01*
X147587603Y-60057397D01*
X147575666Y-60046871D01*
X147554596Y-60033608D01*
X147531344Y-60024710D01*
X147506803Y-60020520D01*
X147481916Y-60021197D01*
X147457639Y-60026717D01*
X147434906Y-60036867D01*
X147414589Y-60051257D01*
X147397471Y-60069334D01*
X147384208Y-60090404D01*
X147370448Y-60117925D01*
X147089812Y-60355686D01*
X147011515Y-60166660D01*
X146892775Y-59988953D01*
X146741647Y-59837825D01*
X146563940Y-59719085D01*
X146366483Y-59637296D01*
X146156863Y-59595600D01*
X145943137Y-59595600D01*
X145733517Y-59637296D01*
X145536060Y-59719085D01*
X145358353Y-59837825D01*
X145207225Y-59988953D01*
X145088485Y-60166660D01*
X145006696Y-60364117D01*
X144965000Y-60573737D01*
X144965000Y-60787463D01*
X145006696Y-60997083D01*
X145088485Y-61194540D01*
X145207225Y-61372247D01*
X145358353Y-61523375D01*
X145521824Y-61632603D01*
X143953805Y-61798908D01*
X143940611Y-61801015D01*
X143916894Y-61808588D01*
X143895111Y-61820643D01*
X143876098Y-61836716D01*
X143860586Y-61856189D01*
X143849171Y-61878315D01*
X143842292Y-61902242D01*
X143840213Y-61927051D01*
X141394778Y-61927051D01*
X141304775Y-61792353D01*
X141153647Y-61641225D01*
X140975940Y-61522485D01*
X140778483Y-61440696D01*
X140568863Y-61399000D01*
X140355137Y-61399000D01*
X140145517Y-61440696D01*
X140141581Y-61442326D01*
X140036069Y-61284416D01*
X139884941Y-61133288D01*
X139707234Y-61014548D01*
X139509777Y-60932759D01*
X139300157Y-60891063D01*
X139086431Y-60891063D01*
X138876811Y-60932759D01*
X138679354Y-61014548D01*
X138501647Y-61133288D01*
X138350519Y-61284416D01*
X138231779Y-61462123D01*
X138149990Y-61659580D01*
X138108294Y-61869200D01*
X136452873Y-61869200D01*
X136482580Y-61797483D01*
X136524276Y-61587863D01*
X136524276Y-61374137D01*
X136482580Y-61164517D01*
X136400791Y-60967060D01*
X136282051Y-60789353D01*
X136130923Y-60638225D01*
X135953216Y-60519485D01*
X135755759Y-60437696D01*
X135546139Y-60396000D01*
X135332413Y-60396000D01*
X135122793Y-60437696D01*
X134925336Y-60519485D01*
X134747629Y-60638225D01*
X134699931Y-60685923D01*
X134682483Y-60678696D01*
X134472863Y-60637000D01*
X134371720Y-60637000D01*
X134311515Y-60491651D01*
X134192775Y-60313944D01*
X134041647Y-60162816D01*
X133863940Y-60044076D01*
X133666483Y-59962287D01*
X133456863Y-59920591D01*
X133243137Y-59920591D01*
X133033517Y-59962287D01*
X132836060Y-60044076D01*
X132658353Y-60162816D01*
X132507225Y-60313944D01*
X132388485Y-60491651D01*
X132366495Y-60544739D01*
X132293620Y-60530243D01*
X132079894Y-60530243D01*
X132061870Y-60533828D01*
X132025515Y-60446060D01*
X131906775Y-60268353D01*
X131755647Y-60117225D01*
X131577940Y-59998485D01*
X131380483Y-59916696D01*
X131170863Y-59875000D01*
X130957137Y-59875000D01*
X130747517Y-59916696D01*
X130550060Y-59998485D01*
X130372353Y-60117225D01*
X130221225Y-60268353D01*
X130102485Y-60446060D01*
X130020696Y-60643517D01*
X129979000Y-60853137D01*
X111554375Y-60853137D01*
X111365911Y-60727210D01*
X111095658Y-60615268D01*
X110808760Y-60558200D01*
X110516240Y-60558200D01*
X110229342Y-60615268D01*
X109959089Y-60727210D01*
X109715868Y-60889725D01*
X109509025Y-61096568D01*
X109346510Y-61339789D01*
X109234568Y-61610042D01*
X109177500Y-61896940D01*
X109177500Y-62189460D01*
X109234568Y-62476358D01*
X109346510Y-62746611D01*
X109509025Y-62989832D01*
X109640880Y-63121687D01*
X109568320Y-63143698D01*
X109458006Y-63202663D01*
X109361315Y-63282015D01*
X109281963Y-63378706D01*
X109222998Y-63489020D01*
X109186688Y-63608718D01*
X109174428Y-63733200D01*
X100695000Y-63733200D01*
X100695000Y-58567137D01*
X129725000Y-58567137D01*
X129725000Y-58780863D01*
X129766696Y-58990483D01*
X129848485Y-59187940D01*
X129967225Y-59365647D01*
X130118353Y-59516775D01*
X130296060Y-59635515D01*
X130493517Y-59717304D01*
X130703137Y-59759000D01*
X130916863Y-59759000D01*
X131126483Y-59717304D01*
X131323940Y-59635515D01*
X131501647Y-59516775D01*
X131652775Y-59365647D01*
X131771515Y-59187940D01*
X131853304Y-58990483D01*
X131895000Y-58780863D01*
X131895000Y-58567137D01*
X131853304Y-58357517D01*
X131771515Y-58160060D01*
X131652775Y-57982353D01*
X131526359Y-57855937D01*
X146539800Y-57855937D01*
X146539800Y-58069663D01*
X146581496Y-58279283D01*
X146663285Y-58476740D01*
X146782025Y-58654447D01*
X146933153Y-58805575D01*
X147110860Y-58924315D01*
X147308317Y-59006104D01*
X147517937Y-59047800D01*
X147731663Y-59047800D01*
X147941283Y-59006104D01*
X148138740Y-58924315D01*
X148316447Y-58805575D01*
X148467575Y-58654447D01*
X148586315Y-58476740D01*
X148668104Y-58279283D01*
X148709800Y-58069663D01*
X148709800Y-57855937D01*
X148668104Y-57646317D01*
X148586315Y-57448860D01*
X148467575Y-57271153D01*
X148316447Y-57120025D01*
X148138740Y-57001285D01*
X147941283Y-56919496D01*
X147731663Y-56877800D01*
X147517937Y-56877800D01*
X147308317Y-56919496D01*
X147110860Y-57001285D01*
X146933153Y-57120025D01*
X146782025Y-57271153D01*
X146663285Y-57448860D01*
X146581496Y-57646317D01*
X146539800Y-57855937D01*
X131526359Y-57855937D01*
X131501647Y-57831225D01*
X131323940Y-57712485D01*
X131126483Y-57630696D01*
X130916863Y-57589000D01*
X130703137Y-57589000D01*
X130493517Y-57630696D01*
X130296060Y-57712485D01*
X130118353Y-57831225D01*
X129967225Y-57982353D01*
X129848485Y-58160060D01*
X129766696Y-58357517D01*
X129725000Y-58567137D01*
X100695000Y-58567137D01*
X100695000Y-57559519D01*
X100746525Y-57636632D01*
X100953368Y-57843475D01*
X101196589Y-58005990D01*
X101466842Y-58117932D01*
X101753740Y-58175000D01*
X102046260Y-58175000D01*
X102333158Y-58117932D01*
X102603411Y-58005990D01*
X102846632Y-57843475D01*
X103053475Y-57636632D01*
X103215990Y-57393411D01*
X103327932Y-57123158D01*
X103385000Y-56836260D01*
X103385000Y-56543740D01*
X103327932Y-56256842D01*
X103215990Y-55986589D01*
X103053475Y-55743368D01*
X102921620Y-55611513D01*
X102994180Y-55589502D01*
X103104494Y-55530537D01*
X103201185Y-55451185D01*
X103280537Y-55354494D01*
X103339502Y-55244180D01*
X103375812Y-55124482D01*
X103388072Y-55000000D01*
X103385000Y-54435750D01*
X103226250Y-54277000D01*
X102027000Y-54277000D01*
X102027000Y-54297000D01*
X101773000Y-54297000D01*
X101773000Y-54277000D01*
X101753000Y-54277000D01*
X101753000Y-54023000D01*
X101773000Y-54023000D01*
X101773000Y-52823750D01*
X102027000Y-52823750D01*
X102027000Y-54023000D01*
X103226250Y-54023000D01*
X103385000Y-53864250D01*
X103388072Y-53300000D01*
X105491928Y-53300000D01*
X105491928Y-55000000D01*
X105504188Y-55124482D01*
X105540498Y-55244180D01*
X105599463Y-55354494D01*
X105678815Y-55451185D01*
X105775506Y-55530537D01*
X105885820Y-55589502D01*
X106005518Y-55625812D01*
X106130000Y-55638072D01*
X107830000Y-55638072D01*
X107954482Y-55625812D01*
X108074180Y-55589502D01*
X108184494Y-55530537D01*
X108281185Y-55451185D01*
X108360537Y-55354494D01*
X108419502Y-55244180D01*
X108441513Y-55171620D01*
X108573368Y-55303475D01*
X108816589Y-55465990D01*
X109086842Y-55577932D01*
X109373740Y-55635000D01*
X109666260Y-55635000D01*
X109953158Y-55577932D01*
X110223411Y-55465990D01*
X110466632Y-55303475D01*
X110673475Y-55096632D01*
X110795195Y-54914466D01*
X110864822Y-55031355D01*
X111059731Y-55247588D01*
X111293080Y-55421641D01*
X111555901Y-55546825D01*
X111703110Y-55591476D01*
X111933000Y-55470155D01*
X111933000Y-54277000D01*
X111913000Y-54277000D01*
X111913000Y-54023000D01*
X111933000Y-54023000D01*
X111933000Y-52829845D01*
X112187000Y-52829845D01*
X112187000Y-54023000D01*
X112207000Y-54023000D01*
X112207000Y-54277000D01*
X112187000Y-54277000D01*
X112187000Y-55470155D01*
X112416890Y-55591476D01*
X112564099Y-55546825D01*
X112826920Y-55421641D01*
X113060269Y-55247588D01*
X113255178Y-55031355D01*
X113324805Y-54914466D01*
X113446525Y-55096632D01*
X113653368Y-55303475D01*
X113896589Y-55465990D01*
X114166842Y-55577932D01*
X114453740Y-55635000D01*
X114746260Y-55635000D01*
X115033158Y-55577932D01*
X115303411Y-55465990D01*
X115546632Y-55303475D01*
X115753475Y-55096632D01*
X115915990Y-54853411D01*
X116027932Y-54583158D01*
X116085000Y-54296260D01*
X116085000Y-54003740D01*
X116027932Y-53716842D01*
X115915990Y-53446589D01*
X115818043Y-53300000D01*
X118191928Y-53300000D01*
X118191928Y-55000000D01*
X118204188Y-55124482D01*
X118240498Y-55244180D01*
X118299463Y-55354494D01*
X118378815Y-55451185D01*
X118475506Y-55530537D01*
X118585820Y-55589502D01*
X118705518Y-55625812D01*
X118830000Y-55638072D01*
X120530000Y-55638072D01*
X120654482Y-55625812D01*
X120774180Y-55589502D01*
X120884494Y-55530537D01*
X120981185Y-55451185D01*
X121060537Y-55354494D01*
X121119502Y-55244180D01*
X121141513Y-55171620D01*
X121273368Y-55303475D01*
X121516589Y-55465990D01*
X121786842Y-55577932D01*
X122073740Y-55635000D01*
X122366260Y-55635000D01*
X122653158Y-55577932D01*
X122923411Y-55465990D01*
X123166632Y-55303475D01*
X123373475Y-55096632D01*
X123495195Y-54914466D01*
X123564822Y-55031355D01*
X123759731Y-55247588D01*
X123993080Y-55421641D01*
X124255901Y-55546825D01*
X124403110Y-55591476D01*
X124633000Y-55470155D01*
X124633000Y-54277000D01*
X124613000Y-54277000D01*
X124613000Y-54023000D01*
X124633000Y-54023000D01*
X124633000Y-52829845D01*
X124887000Y-52829845D01*
X124887000Y-54023000D01*
X124907000Y-54023000D01*
X124907000Y-54277000D01*
X124887000Y-54277000D01*
X124887000Y-55470155D01*
X125116890Y-55591476D01*
X125264099Y-55546825D01*
X125526920Y-55421641D01*
X125760269Y-55247588D01*
X125955178Y-55031355D01*
X126024805Y-54914466D01*
X126146525Y-55096632D01*
X126353368Y-55303475D01*
X126596589Y-55465990D01*
X126866842Y-55577932D01*
X127153740Y-55635000D01*
X127446260Y-55635000D01*
X127733158Y-55577932D01*
X128003411Y-55465990D01*
X128246632Y-55303475D01*
X128453475Y-55096632D01*
X128615990Y-54853411D01*
X128727932Y-54583158D01*
X128785000Y-54296260D01*
X128785000Y-54003740D01*
X128727932Y-53716842D01*
X128615990Y-53446589D01*
X128518043Y-53300000D01*
X130891928Y-53300000D01*
X130891928Y-55000000D01*
X130904188Y-55124482D01*
X130940498Y-55244180D01*
X130999463Y-55354494D01*
X131078815Y-55451185D01*
X131175506Y-55530537D01*
X131285820Y-55589502D01*
X131405518Y-55625812D01*
X131530000Y-55638072D01*
X133230000Y-55638072D01*
X133354482Y-55625812D01*
X133474180Y-55589502D01*
X133584494Y-55530537D01*
X133681185Y-55451185D01*
X133760537Y-55354494D01*
X133819502Y-55244180D01*
X133841513Y-55171620D01*
X133973368Y-55303475D01*
X134216589Y-55465990D01*
X134486842Y-55577932D01*
X134773740Y-55635000D01*
X135066260Y-55635000D01*
X135353158Y-55577932D01*
X135623411Y-55465990D01*
X135866632Y-55303475D01*
X136073475Y-55096632D01*
X136195195Y-54914466D01*
X136264822Y-55031355D01*
X136459731Y-55247588D01*
X136693080Y-55421641D01*
X136955901Y-55546825D01*
X137103110Y-55591476D01*
X137333000Y-55470155D01*
X137333000Y-54277000D01*
X137313000Y-54277000D01*
X137313000Y-54023000D01*
X137333000Y-54023000D01*
X137333000Y-52829845D01*
X137587000Y-52829845D01*
X137587000Y-54023000D01*
X137607000Y-54023000D01*
X137607000Y-54277000D01*
X137587000Y-54277000D01*
X137587000Y-55470155D01*
X137816890Y-55591476D01*
X137964099Y-55546825D01*
X138226920Y-55421641D01*
X138460269Y-55247588D01*
X138655178Y-55031355D01*
X138724805Y-54914466D01*
X138846525Y-55096632D01*
X139053368Y-55303475D01*
X139296589Y-55465990D01*
X139566842Y-55577932D01*
X139853740Y-55635000D01*
X140146260Y-55635000D01*
X140433158Y-55577932D01*
X140703411Y-55465990D01*
X140946632Y-55303475D01*
X141153475Y-55096632D01*
X141315990Y-54853411D01*
X141427932Y-54583158D01*
X141485000Y-54296260D01*
X141485000Y-54003740D01*
X141427932Y-53716842D01*
X141315990Y-53446589D01*
X141218043Y-53300000D01*
X143591928Y-53300000D01*
X143591928Y-55000000D01*
X143604188Y-55124482D01*
X143640498Y-55244180D01*
X143699463Y-55354494D01*
X143778815Y-55451185D01*
X143875506Y-55530537D01*
X143985820Y-55589502D01*
X144105518Y-55625812D01*
X144230000Y-55638072D01*
X145930000Y-55638072D01*
X146054482Y-55625812D01*
X146174180Y-55589502D01*
X146284494Y-55530537D01*
X146381185Y-55451185D01*
X146460537Y-55354494D01*
X146519502Y-55244180D01*
X146541513Y-55171620D01*
X146673368Y-55303475D01*
X146916589Y-55465990D01*
X147186842Y-55577932D01*
X147473740Y-55635000D01*
X147766260Y-55635000D01*
X148053158Y-55577932D01*
X148323411Y-55465990D01*
X148566632Y-55303475D01*
X148773475Y-55096632D01*
X148895195Y-54914466D01*
X148964822Y-55031355D01*
X149159731Y-55247588D01*
X149393080Y-55421641D01*
X149655901Y-55546825D01*
X149803110Y-55591476D01*
X150033000Y-55470155D01*
X150033000Y-54277000D01*
X150013000Y-54277000D01*
X150013000Y-54023000D01*
X150033000Y-54023000D01*
X150033000Y-52829845D01*
X150287000Y-52829845D01*
X150287000Y-54023000D01*
X150307000Y-54023000D01*
X150307000Y-54277000D01*
X150287000Y-54277000D01*
X150287000Y-55470155D01*
X150516890Y-55591476D01*
X150664099Y-55546825D01*
X150926920Y-55421641D01*
X151160269Y-55247588D01*
X151355178Y-55031355D01*
X151424805Y-54914466D01*
X151546525Y-55096632D01*
X151753368Y-55303475D01*
X151996589Y-55465990D01*
X152266842Y-55577932D01*
X152553740Y-55635000D01*
X152846260Y-55635000D01*
X153133158Y-55577932D01*
X153403411Y-55465990D01*
X153646632Y-55303475D01*
X153853475Y-55096632D01*
X154015990Y-54853411D01*
X154127932Y-54583158D01*
X154185000Y-54296260D01*
X154185000Y-54003740D01*
X154127932Y-53716842D01*
X154015990Y-53446589D01*
X153918043Y-53300000D01*
X156291928Y-53300000D01*
X156291928Y-55000000D01*
X156304188Y-55124482D01*
X156340498Y-55244180D01*
X156399463Y-55354494D01*
X156478815Y-55451185D01*
X156575506Y-55530537D01*
X156685820Y-55589502D01*
X156805518Y-55625812D01*
X156930000Y-55638072D01*
X158630000Y-55638072D01*
X158754482Y-55625812D01*
X158874180Y-55589502D01*
X158984494Y-55530537D01*
X159081185Y-55451185D01*
X159160537Y-55354494D01*
X159219502Y-55244180D01*
X159241513Y-55171620D01*
X159373368Y-55303475D01*
X159616589Y-55465990D01*
X159886842Y-55577932D01*
X160173740Y-55635000D01*
X160466260Y-55635000D01*
X160753158Y-55577932D01*
X161023411Y-55465990D01*
X161266632Y-55303475D01*
X161473475Y-55096632D01*
X161595195Y-54914466D01*
X161664822Y-55031355D01*
X161859731Y-55247588D01*
X162093080Y-55421641D01*
X162355901Y-55546825D01*
X162503110Y-55591476D01*
X162733000Y-55470155D01*
X162733000Y-54277000D01*
X162713000Y-54277000D01*
X162713000Y-54023000D01*
X162733000Y-54023000D01*
X162733000Y-52829845D01*
X162987000Y-52829845D01*
X162987000Y-54023000D01*
X163007000Y-54023000D01*
X163007000Y-54277000D01*
X162987000Y-54277000D01*
X162987000Y-55470155D01*
X163216890Y-55591476D01*
X163364099Y-55546825D01*
X163626920Y-55421641D01*
X163860269Y-55247588D01*
X164055178Y-55031355D01*
X164124805Y-54914466D01*
X164246525Y-55096632D01*
X164453368Y-55303475D01*
X164696589Y-55465990D01*
X164966842Y-55577932D01*
X165253740Y-55635000D01*
X165546260Y-55635000D01*
X165833158Y-55577932D01*
X166103411Y-55465990D01*
X166346632Y-55303475D01*
X166553475Y-55096632D01*
X166715990Y-54853411D01*
X166827932Y-54583158D01*
X166885000Y-54296260D01*
X166885000Y-54003740D01*
X166827932Y-53716842D01*
X166715990Y-53446589D01*
X166618043Y-53300000D01*
X168991928Y-53300000D01*
X168991928Y-55000000D01*
X169004188Y-55124482D01*
X169040498Y-55244180D01*
X169099463Y-55354494D01*
X169178815Y-55451185D01*
X169275506Y-55530537D01*
X169385820Y-55589502D01*
X169505518Y-55625812D01*
X169630000Y-55638072D01*
X171330000Y-55638072D01*
X171454482Y-55625812D01*
X171574180Y-55589502D01*
X171684494Y-55530537D01*
X171781185Y-55451185D01*
X171860537Y-55354494D01*
X171919502Y-55244180D01*
X171941513Y-55171620D01*
X172073368Y-55303475D01*
X172316589Y-55465990D01*
X172586842Y-55577932D01*
X172873740Y-55635000D01*
X173166260Y-55635000D01*
X173453158Y-55577932D01*
X173723411Y-55465990D01*
X173966632Y-55303475D01*
X174173475Y-55096632D01*
X174295195Y-54914466D01*
X174364822Y-55031355D01*
X174559731Y-55247588D01*
X174793080Y-55421641D01*
X175055901Y-55546825D01*
X175203110Y-55591476D01*
X175433000Y-55470155D01*
X175433000Y-54277000D01*
X175413000Y-54277000D01*
X175413000Y-54023000D01*
X175433000Y-54023000D01*
X175433000Y-52829845D01*
X175203110Y-52708524D01*
X175055901Y-52753175D01*
X174793080Y-52878359D01*
X174559731Y-53052412D01*
X174364822Y-53268645D01*
X174295195Y-53385534D01*
X174173475Y-53203368D01*
X173966632Y-52996525D01*
X173723411Y-52834010D01*
X173453158Y-52722068D01*
X173166260Y-52665000D01*
X172873740Y-52665000D01*
X172586842Y-52722068D01*
X172316589Y-52834010D01*
X172073368Y-52996525D01*
X171941513Y-53128380D01*
X171919502Y-53055820D01*
X171860537Y-52945506D01*
X171781185Y-52848815D01*
X171684494Y-52769463D01*
X171574180Y-52710498D01*
X171454482Y-52674188D01*
X171330000Y-52661928D01*
X169630000Y-52661928D01*
X169505518Y-52674188D01*
X169385820Y-52710498D01*
X169275506Y-52769463D01*
X169178815Y-52848815D01*
X169099463Y-52945506D01*
X169040498Y-53055820D01*
X169004188Y-53175518D01*
X168991928Y-53300000D01*
X166618043Y-53300000D01*
X166553475Y-53203368D01*
X166346632Y-52996525D01*
X166103411Y-52834010D01*
X165833158Y-52722068D01*
X165546260Y-52665000D01*
X165253740Y-52665000D01*
X164966842Y-52722068D01*
X164696589Y-52834010D01*
X164453368Y-52996525D01*
X164246525Y-53203368D01*
X164124805Y-53385534D01*
X164055178Y-53268645D01*
X163860269Y-53052412D01*
X163626920Y-52878359D01*
X163364099Y-52753175D01*
X163216890Y-52708524D01*
X162987000Y-52829845D01*
X162733000Y-52829845D01*
X162503110Y-52708524D01*
X162355901Y-52753175D01*
X162093080Y-52878359D01*
X161859731Y-53052412D01*
X161664822Y-53268645D01*
X161595195Y-53385534D01*
X161473475Y-53203368D01*
X161266632Y-52996525D01*
X161023411Y-52834010D01*
X160753158Y-52722068D01*
X160466260Y-52665000D01*
X160173740Y-52665000D01*
X159886842Y-52722068D01*
X159616589Y-52834010D01*
X159373368Y-52996525D01*
X159241513Y-53128380D01*
X159219502Y-53055820D01*
X159160537Y-52945506D01*
X159081185Y-52848815D01*
X158984494Y-52769463D01*
X158874180Y-52710498D01*
X158754482Y-52674188D01*
X158630000Y-52661928D01*
X156930000Y-52661928D01*
X156805518Y-52674188D01*
X156685820Y-52710498D01*
X156575506Y-52769463D01*
X156478815Y-52848815D01*
X156399463Y-52945506D01*
X156340498Y-53055820D01*
X156304188Y-53175518D01*
X156291928Y-53300000D01*
X153918043Y-53300000D01*
X153853475Y-53203368D01*
X153646632Y-52996525D01*
X153403411Y-52834010D01*
X153133158Y-52722068D01*
X152846260Y-52665000D01*
X152553740Y-52665000D01*
X152266842Y-52722068D01*
X151996589Y-52834010D01*
X151753368Y-52996525D01*
X151546525Y-53203368D01*
X151424805Y-53385534D01*
X151355178Y-53268645D01*
X151160269Y-53052412D01*
X150926920Y-52878359D01*
X150664099Y-52753175D01*
X150516890Y-52708524D01*
X150287000Y-52829845D01*
X150033000Y-52829845D01*
X149803110Y-52708524D01*
X149655901Y-52753175D01*
X149393080Y-52878359D01*
X149159731Y-53052412D01*
X148964822Y-53268645D01*
X148895195Y-53385534D01*
X148773475Y-53203368D01*
X148566632Y-52996525D01*
X148323411Y-52834010D01*
X148053158Y-52722068D01*
X147766260Y-52665000D01*
X147473740Y-52665000D01*
X147186842Y-52722068D01*
X146916589Y-52834010D01*
X146673368Y-52996525D01*
X146541513Y-53128380D01*
X146519502Y-53055820D01*
X146460537Y-52945506D01*
X146381185Y-52848815D01*
X146284494Y-52769463D01*
X146174180Y-52710498D01*
X146054482Y-52674188D01*
X145930000Y-52661928D01*
X144230000Y-52661928D01*
X144105518Y-52674188D01*
X143985820Y-52710498D01*
X143875506Y-52769463D01*
X143778815Y-52848815D01*
X143699463Y-52945506D01*
X143640498Y-53055820D01*
X143604188Y-53175518D01*
X143591928Y-53300000D01*
X141218043Y-53300000D01*
X141153475Y-53203368D01*
X140946632Y-52996525D01*
X140703411Y-52834010D01*
X140433158Y-52722068D01*
X140146260Y-52665000D01*
X139853740Y-52665000D01*
X139566842Y-52722068D01*
X139296589Y-52834010D01*
X139053368Y-52996525D01*
X138846525Y-53203368D01*
X138724805Y-53385534D01*
X138655178Y-53268645D01*
X138460269Y-53052412D01*
X138226920Y-52878359D01*
X137964099Y-52753175D01*
X137816890Y-52708524D01*
X137587000Y-52829845D01*
X137333000Y-52829845D01*
X137103110Y-52708524D01*
X136955901Y-52753175D01*
X136693080Y-52878359D01*
X136459731Y-53052412D01*
X136264822Y-53268645D01*
X136195195Y-53385534D01*
X136073475Y-53203368D01*
X135866632Y-52996525D01*
X135623411Y-52834010D01*
X135353158Y-52722068D01*
X135066260Y-52665000D01*
X134773740Y-52665000D01*
X134486842Y-52722068D01*
X134216589Y-52834010D01*
X133973368Y-52996525D01*
X133841513Y-53128380D01*
X133819502Y-53055820D01*
X133760537Y-52945506D01*
X133681185Y-52848815D01*
X133584494Y-52769463D01*
X133474180Y-52710498D01*
X133354482Y-52674188D01*
X133230000Y-52661928D01*
X131530000Y-52661928D01*
X131405518Y-52674188D01*
X131285820Y-52710498D01*
X131175506Y-52769463D01*
X131078815Y-52848815D01*
X130999463Y-52945506D01*
X130940498Y-53055820D01*
X130904188Y-53175518D01*
X130891928Y-53300000D01*
X128518043Y-53300000D01*
X128453475Y-53203368D01*
X128246632Y-52996525D01*
X128003411Y-52834010D01*
X127733158Y-52722068D01*
X127446260Y-52665000D01*
X127153740Y-52665000D01*
X126866842Y-52722068D01*
X126596589Y-52834010D01*
X126353368Y-52996525D01*
X126146525Y-53203368D01*
X126024805Y-53385534D01*
X125955178Y-53268645D01*
X125760269Y-53052412D01*
X125526920Y-52878359D01*
X125264099Y-52753175D01*
X125116890Y-52708524D01*
X124887000Y-52829845D01*
X124633000Y-52829845D01*
X124403110Y-52708524D01*
X124255901Y-52753175D01*
X123993080Y-52878359D01*
X123759731Y-53052412D01*
X123564822Y-53268645D01*
X123495195Y-53385534D01*
X123373475Y-53203368D01*
X123166632Y-52996525D01*
X122923411Y-52834010D01*
X122653158Y-52722068D01*
X122366260Y-52665000D01*
X122073740Y-52665000D01*
X121786842Y-52722068D01*
X121516589Y-52834010D01*
X121273368Y-52996525D01*
X121141513Y-53128380D01*
X121119502Y-53055820D01*
X121060537Y-52945506D01*
X120981185Y-52848815D01*
X120884494Y-52769463D01*
X120774180Y-52710498D01*
X120654482Y-52674188D01*
X120530000Y-52661928D01*
X118830000Y-52661928D01*
X118705518Y-52674188D01*
X118585820Y-52710498D01*
X118475506Y-52769463D01*
X118378815Y-52848815D01*
X118299463Y-52945506D01*
X118240498Y-53055820D01*
X118204188Y-53175518D01*
X118191928Y-53300000D01*
X115818043Y-53300000D01*
X115753475Y-53203368D01*
X115546632Y-52996525D01*
X115303411Y-52834010D01*
X115033158Y-52722068D01*
X114746260Y-52665000D01*
X114453740Y-52665000D01*
X114166842Y-52722068D01*
X113896589Y-52834010D01*
X113653368Y-52996525D01*
X113446525Y-53203368D01*
X113324805Y-53385534D01*
X113255178Y-53268645D01*
X113060269Y-53052412D01*
X112826920Y-52878359D01*
X112564099Y-52753175D01*
X112416890Y-52708524D01*
X112187000Y-52829845D01*
X111933000Y-52829845D01*
X111703110Y-52708524D01*
X111555901Y-52753175D01*
X111293080Y-52878359D01*
X111059731Y-53052412D01*
X110864822Y-53268645D01*
X110795195Y-53385534D01*
X110673475Y-53203368D01*
X110466632Y-52996525D01*
X110223411Y-52834010D01*
X109953158Y-52722068D01*
X109666260Y-52665000D01*
X109373740Y-52665000D01*
X109086842Y-52722068D01*
X108816589Y-52834010D01*
X108573368Y-52996525D01*
X108441513Y-53128380D01*
X108419502Y-53055820D01*
X108360537Y-52945506D01*
X108281185Y-52848815D01*
X108184494Y-52769463D01*
X108074180Y-52710498D01*
X107954482Y-52674188D01*
X107830000Y-52661928D01*
X106130000Y-52661928D01*
X106005518Y-52674188D01*
X105885820Y-52710498D01*
X105775506Y-52769463D01*
X105678815Y-52848815D01*
X105599463Y-52945506D01*
X105540498Y-53055820D01*
X105504188Y-53175518D01*
X105491928Y-53300000D01*
X103388072Y-53300000D01*
X103375812Y-53175518D01*
X103339502Y-53055820D01*
X103280537Y-52945506D01*
X103201185Y-52848815D01*
X103104494Y-52769463D01*
X102994180Y-52710498D01*
X102874482Y-52674188D01*
X102750000Y-52661928D01*
X102185750Y-52665000D01*
X102027000Y-52823750D01*
X101773000Y-52823750D01*
X101614250Y-52665000D01*
X101050000Y-52661928D01*
X100925518Y-52674188D01*
X100805820Y-52710498D01*
X100695506Y-52769463D01*
X100695000Y-52769878D01*
X100695000Y-50695000D01*
X179305000Y-50695000D01*
X179305000Y-53280481D01*
G37*
X179305000Y-53280481D02*
X179253475Y-53203368D01*
X179046632Y-52996525D01*
X178803411Y-52834010D01*
X178533158Y-52722068D01*
X178246260Y-52665000D01*
X177953740Y-52665000D01*
X177666842Y-52722068D01*
X177396589Y-52834010D01*
X177153368Y-52996525D01*
X176946525Y-53203368D01*
X176824805Y-53385534D01*
X176755178Y-53268645D01*
X176560269Y-53052412D01*
X176326920Y-52878359D01*
X176064099Y-52753175D01*
X175916890Y-52708524D01*
X175687000Y-52829845D01*
X175687000Y-54023000D01*
X175707000Y-54023000D01*
X175707000Y-54277000D01*
X175687000Y-54277000D01*
X175687000Y-55470155D01*
X175916890Y-55591476D01*
X176064099Y-55546825D01*
X176326920Y-55421641D01*
X176560269Y-55247588D01*
X176755178Y-55031355D01*
X176824805Y-54914466D01*
X176946525Y-55096632D01*
X177153368Y-55303475D01*
X177396589Y-55465990D01*
X177666842Y-55577932D01*
X177953740Y-55635000D01*
X178246260Y-55635000D01*
X178533158Y-55577932D01*
X178803411Y-55465990D01*
X179046632Y-55303475D01*
X179253475Y-55096632D01*
X179305000Y-55019519D01*
X179305001Y-81305000D01*
X111576183Y-81305000D01*
X111636982Y-81299012D01*
X111756680Y-81262702D01*
X111866994Y-81203737D01*
X111963685Y-81124385D01*
X112043037Y-81027694D01*
X112102002Y-80917380D01*
X112138312Y-80797682D01*
X112150572Y-80673200D01*
X112150572Y-78973200D01*
X112138312Y-78848718D01*
X112102002Y-78729020D01*
X112043037Y-78618706D01*
X111963685Y-78522015D01*
X111866994Y-78442663D01*
X111756680Y-78383698D01*
X111741645Y-78379137D01*
X116263000Y-78379137D01*
X116263000Y-78592863D01*
X116304696Y-78802483D01*
X116386485Y-78999940D01*
X116505225Y-79177647D01*
X116656353Y-79328775D01*
X116834060Y-79447515D01*
X117031517Y-79529304D01*
X117241137Y-79571000D01*
X117454863Y-79571000D01*
X117664483Y-79529304D01*
X117861940Y-79447515D01*
X118039647Y-79328775D01*
X118190775Y-79177647D01*
X118309515Y-78999940D01*
X118391304Y-78802483D01*
X118433000Y-78592863D01*
X118433000Y-78379137D01*
X118391304Y-78169517D01*
X118372922Y-78125137D01*
X138361000Y-78125137D01*
X138361000Y-78338863D01*
X138402696Y-78548483D01*
X138484485Y-78745940D01*
X138603225Y-78923647D01*
X138754353Y-79074775D01*
X138932060Y-79193515D01*
X139129517Y-79275304D01*
X139339137Y-79317000D01*
X139552863Y-79317000D01*
X139762483Y-79275304D01*
X139959940Y-79193515D01*
X140137647Y-79074775D01*
X140288775Y-78923647D01*
X140347113Y-78836337D01*
X157792000Y-78836337D01*
X157792000Y-79050063D01*
X157833696Y-79259683D01*
X157915485Y-79457140D01*
X158034225Y-79634847D01*
X158185353Y-79785975D01*
X158363060Y-79904715D01*
X158560517Y-79986504D01*
X158770137Y-80028200D01*
X158983863Y-80028200D01*
X159193483Y-79986504D01*
X159390940Y-79904715D01*
X159568647Y-79785975D01*
X159719775Y-79634847D01*
X159838515Y-79457140D01*
X159920304Y-79259683D01*
X159962000Y-79050063D01*
X159962000Y-78836337D01*
X159920304Y-78626717D01*
X159838515Y-78429260D01*
X159719775Y-78251553D01*
X159568647Y-78100425D01*
X159390940Y-77981685D01*
X159193483Y-77899896D01*
X158983863Y-77858200D01*
X158770137Y-77858200D01*
X158560517Y-77899896D01*
X158363060Y-77981685D01*
X158185353Y-78100425D01*
X158034225Y-78251553D01*
X157915485Y-78429260D01*
X157833696Y-78626717D01*
X157792000Y-78836337D01*
X140347113Y-78836337D01*
X140407515Y-78745940D01*
X140489304Y-78548483D01*
X140531000Y-78338863D01*
X140531000Y-78125137D01*
X140489304Y-77915517D01*
X140407515Y-77718060D01*
X140288775Y-77540353D01*
X140137647Y-77389225D01*
X139959940Y-77270485D01*
X139762483Y-77188696D01*
X139552863Y-77147000D01*
X139339137Y-77147000D01*
X139129517Y-77188696D01*
X138932060Y-77270485D01*
X138754353Y-77389225D01*
X138603225Y-77540353D01*
X138484485Y-77718060D01*
X138402696Y-77915517D01*
X138361000Y-78125137D01*
X118372922Y-78125137D01*
X118309515Y-77972060D01*
X118190775Y-77794353D01*
X118151833Y-77755411D01*
X118172483Y-77751304D01*
X118369940Y-77669515D01*
X118547647Y-77550775D01*
X118698775Y-77399647D01*
X118817515Y-77221940D01*
X118899304Y-77024483D01*
X118941000Y-76814863D01*
X118941000Y-76677337D01*
X135592400Y-76677337D01*
X135592400Y-76891063D01*
X135634096Y-77100683D01*
X135715885Y-77298140D01*
X135834625Y-77475847D01*
X135985753Y-77626975D01*
X136163460Y-77745715D01*
X136360917Y-77827504D01*
X136570537Y-77869200D01*
X136784263Y-77869200D01*
X136993883Y-77827504D01*
X137191340Y-77745715D01*
X137369047Y-77626975D01*
X137520175Y-77475847D01*
X137638915Y-77298140D01*
X137720704Y-77100683D01*
X137762400Y-76891063D01*
X137762400Y-76677337D01*
X137720704Y-76467717D01*
X137638915Y-76270260D01*
X137520175Y-76092553D01*
X137369047Y-75941425D01*
X137337881Y-75920600D01*
X143179800Y-75920600D01*
X143182240Y-75945376D01*
X143189467Y-75969201D01*
X143201203Y-75991157D01*
X143216997Y-76010403D01*
X144105997Y-76899403D01*
X144125243Y-76915197D01*
X144147199Y-76926933D01*
X144171024Y-76934160D01*
X144195800Y-76936600D01*
X162735994Y-76936600D01*
X163994197Y-78194803D01*
X164013443Y-78210597D01*
X164035399Y-78222333D01*
X164059224Y-78229560D01*
X164084000Y-78232000D01*
X168652412Y-78232000D01*
X168611068Y-78259625D01*
X168404225Y-78466468D01*
X168241710Y-78709689D01*
X168129768Y-78979942D01*
X168072700Y-79266840D01*
X168072700Y-79559360D01*
X168129768Y-79846258D01*
X168241710Y-80116511D01*
X168404225Y-80359732D01*
X168611068Y-80566575D01*
X168854289Y-80729090D01*
X169124542Y-80841032D01*
X169411440Y-80898100D01*
X169703960Y-80898100D01*
X169990858Y-80841032D01*
X170261111Y-80729090D01*
X170504332Y-80566575D01*
X170711175Y-80359732D01*
X170873690Y-80116511D01*
X170985632Y-79846258D01*
X171042700Y-79559360D01*
X171042700Y-79266840D01*
X170985632Y-78979942D01*
X170873690Y-78709689D01*
X170711175Y-78466468D01*
X170504332Y-78259625D01*
X170462988Y-78232000D01*
X171043600Y-78232000D01*
X171068376Y-78229560D01*
X171092201Y-78222333D01*
X171114157Y-78210597D01*
X171133403Y-78194803D01*
X171149197Y-78175557D01*
X171160933Y-78153601D01*
X171168160Y-78129776D01*
X171170600Y-78105000D01*
X171170600Y-73152000D01*
X171168160Y-73127224D01*
X171160933Y-73103399D01*
X171149197Y-73081443D01*
X171133403Y-73062197D01*
X171114157Y-73046403D01*
X171092201Y-73034667D01*
X171068376Y-73027440D01*
X171043600Y-73025000D01*
X170915746Y-73025000D01*
X170938237Y-72997594D01*
X170997202Y-72887280D01*
X171033512Y-72767582D01*
X171045772Y-72643100D01*
X171045772Y-70943100D01*
X171033512Y-70818618D01*
X170997202Y-70698920D01*
X170938237Y-70588606D01*
X170858885Y-70491915D01*
X170762194Y-70412563D01*
X170651880Y-70353598D01*
X170532182Y-70317288D01*
X170407700Y-70305028D01*
X168707700Y-70305028D01*
X168583218Y-70317288D01*
X168463520Y-70353598D01*
X168353206Y-70412563D01*
X168256515Y-70491915D01*
X168177163Y-70588606D01*
X168118198Y-70698920D01*
X168081888Y-70818618D01*
X168069628Y-70943100D01*
X168069628Y-72643100D01*
X168081888Y-72767582D01*
X168118198Y-72887280D01*
X168177163Y-72997594D01*
X168199654Y-73025000D01*
X164058600Y-73025000D01*
X164033824Y-73027440D01*
X164009999Y-73034667D01*
X163988043Y-73046403D01*
X163968797Y-73062197D01*
X162659794Y-74371200D01*
X153593800Y-74371200D01*
X153569024Y-74373640D01*
X153545199Y-74380867D01*
X153523243Y-74392603D01*
X153503997Y-74408397D01*
X153488203Y-74427643D01*
X153476467Y-74449599D01*
X153469240Y-74473424D01*
X153466800Y-74498200D01*
X153466800Y-74726800D01*
X146248361Y-74726800D01*
X146366483Y-74703304D01*
X146563940Y-74621515D01*
X146741647Y-74502775D01*
X146892775Y-74351647D01*
X147011515Y-74173940D01*
X147093304Y-73976483D01*
X147135000Y-73766863D01*
X147135000Y-73553137D01*
X147093304Y-73343517D01*
X147011515Y-73146060D01*
X146892775Y-72968353D01*
X146741647Y-72817225D01*
X146563940Y-72698485D01*
X146366483Y-72616696D01*
X146156863Y-72575000D01*
X145943137Y-72575000D01*
X145733517Y-72616696D01*
X145536060Y-72698485D01*
X145358353Y-72817225D01*
X145207225Y-72968353D01*
X145088485Y-73146060D01*
X145006696Y-73343517D01*
X144965000Y-73553137D01*
X144965000Y-73766863D01*
X145006696Y-73976483D01*
X145088485Y-74173940D01*
X145207225Y-74351647D01*
X145358353Y-74502775D01*
X145536060Y-74621515D01*
X145733517Y-74703304D01*
X145851639Y-74726800D01*
X145416806Y-74726800D01*
X144996803Y-74306797D01*
X144980111Y-74292755D01*
X144958447Y-74280487D01*
X144934806Y-74272681D01*
X144910097Y-74269638D01*
X144885268Y-74271473D01*
X144861275Y-74278117D01*
X144839038Y-74289314D01*
X144819414Y-74304634D01*
X143219214Y-75828634D01*
X143201203Y-75850043D01*
X143189467Y-75871999D01*
X143182240Y-75895824D01*
X143179800Y-75920600D01*
X137337881Y-75920600D01*
X137191340Y-75822685D01*
X136993883Y-75740896D01*
X136784263Y-75699200D01*
X136570537Y-75699200D01*
X136360917Y-75740896D01*
X136163460Y-75822685D01*
X135985753Y-75941425D01*
X135834625Y-76092553D01*
X135715885Y-76270260D01*
X135634096Y-76467717D01*
X135592400Y-76677337D01*
X118941000Y-76677337D01*
X118941000Y-76601137D01*
X118899304Y-76391517D01*
X118817515Y-76194060D01*
X118698775Y-76016353D01*
X118547647Y-75865225D01*
X118369940Y-75746485D01*
X118172483Y-75664696D01*
X117962863Y-75623000D01*
X117749137Y-75623000D01*
X117539517Y-75664696D01*
X117342060Y-75746485D01*
X117164353Y-75865225D01*
X117013225Y-76016353D01*
X116894485Y-76194060D01*
X116812696Y-76391517D01*
X116771000Y-76601137D01*
X116771000Y-76814863D01*
X116812696Y-77024483D01*
X116894485Y-77221940D01*
X117013225Y-77399647D01*
X117052167Y-77438589D01*
X117031517Y-77442696D01*
X116834060Y-77524485D01*
X116656353Y-77643225D01*
X116505225Y-77794353D01*
X116386485Y-77972060D01*
X116304696Y-78169517D01*
X116263000Y-78379137D01*
X111741645Y-78379137D01*
X111684120Y-78361687D01*
X111815975Y-78229832D01*
X111978490Y-77986611D01*
X112090432Y-77716358D01*
X112147500Y-77429460D01*
X112147500Y-77136940D01*
X112090432Y-76850042D01*
X111978490Y-76579789D01*
X111815975Y-76336568D01*
X111609132Y-76129725D01*
X111365911Y-75967210D01*
X111095658Y-75855268D01*
X110808760Y-75798200D01*
X110516240Y-75798200D01*
X110229342Y-75855268D01*
X109959089Y-75967210D01*
X109715868Y-76129725D01*
X109509025Y-76336568D01*
X109346510Y-76579789D01*
X109234568Y-76850042D01*
X109177500Y-77136940D01*
X109177500Y-77429460D01*
X109234568Y-77716358D01*
X109346510Y-77986611D01*
X109509025Y-78229832D01*
X109640880Y-78361687D01*
X109568320Y-78383698D01*
X109458006Y-78442663D01*
X109361315Y-78522015D01*
X109281963Y-78618706D01*
X109222998Y-78729020D01*
X109186688Y-78848718D01*
X109174428Y-78973200D01*
X109174428Y-80673200D01*
X109186688Y-80797682D01*
X109222998Y-80917380D01*
X109281963Y-81027694D01*
X109361315Y-81124385D01*
X109458006Y-81203737D01*
X109568320Y-81262702D01*
X109688018Y-81299012D01*
X109748817Y-81305000D01*
X100695000Y-81305000D01*
X100695000Y-74061137D01*
X139885000Y-74061137D01*
X139885000Y-74274863D01*
X139926696Y-74484483D01*
X140008485Y-74681940D01*
X140127225Y-74859647D01*
X140278353Y-75010775D01*
X140456060Y-75129515D01*
X140653517Y-75211304D01*
X140863137Y-75253000D01*
X141076863Y-75253000D01*
X141286483Y-75211304D01*
X141483940Y-75129515D01*
X141661647Y-75010775D01*
X141812775Y-74859647D01*
X141931515Y-74681940D01*
X142013304Y-74484483D01*
X142055000Y-74274863D01*
X142055000Y-74061137D01*
X142013304Y-73851517D01*
X141931515Y-73654060D01*
X141812775Y-73476353D01*
X141661647Y-73325225D01*
X141483940Y-73206485D01*
X141286483Y-73124696D01*
X141076863Y-73083000D01*
X140863137Y-73083000D01*
X140653517Y-73124696D01*
X140456060Y-73206485D01*
X140278353Y-73325225D01*
X140127225Y-73476353D01*
X140008485Y-73654060D01*
X139926696Y-73851517D01*
X139885000Y-74061137D01*
X100695000Y-74061137D01*
X100695000Y-71353200D01*
X109174428Y-71353200D01*
X109174428Y-73053200D01*
X109186688Y-73177682D01*
X109222998Y-73297380D01*
X109281963Y-73407694D01*
X109361315Y-73504385D01*
X109458006Y-73583737D01*
X109568320Y-73642702D01*
X109688018Y-73679012D01*
X109812500Y-73691272D01*
X111512500Y-73691272D01*
X111636982Y-73679012D01*
X111756680Y-73642702D01*
X111866994Y-73583737D01*
X111963685Y-73504385D01*
X112043037Y-73407694D01*
X112102002Y-73297380D01*
X112138312Y-73177682D01*
X112150572Y-73053200D01*
X112150572Y-72791137D01*
X116517000Y-72791137D01*
X116517000Y-73004863D01*
X116558696Y-73214483D01*
X116640485Y-73411940D01*
X116759225Y-73589647D01*
X116910353Y-73740775D01*
X117088060Y-73859515D01*
X117285517Y-73941304D01*
X117495137Y-73983000D01*
X117708863Y-73983000D01*
X117918483Y-73941304D01*
X118115940Y-73859515D01*
X118293647Y-73740775D01*
X118444775Y-73589647D01*
X118563515Y-73411940D01*
X118645304Y-73214483D01*
X118687000Y-73004863D01*
X118687000Y-72791137D01*
X118645304Y-72581517D01*
X118563515Y-72384060D01*
X118444775Y-72206353D01*
X118293647Y-72055225D01*
X118115940Y-71936485D01*
X117918483Y-71854696D01*
X117708863Y-71813000D01*
X117495137Y-71813000D01*
X117285517Y-71854696D01*
X117088060Y-71936485D01*
X116910353Y-72055225D01*
X116759225Y-72206353D01*
X116640485Y-72384060D01*
X116558696Y-72581517D01*
X116517000Y-72791137D01*
X112150572Y-72791137D01*
X112150572Y-71353200D01*
X112138312Y-71228718D01*
X112102002Y-71109020D01*
X112043037Y-70998706D01*
X111963685Y-70902015D01*
X111866994Y-70822663D01*
X111756680Y-70763698D01*
X111684120Y-70741687D01*
X111815975Y-70609832D01*
X111963577Y-70388929D01*
X119732008Y-70388929D01*
X119732008Y-70602655D01*
X119773704Y-70812275D01*
X119855493Y-71009732D01*
X119974233Y-71187439D01*
X120125361Y-71338567D01*
X120303068Y-71457307D01*
X120500525Y-71539096D01*
X120710145Y-71580792D01*
X120923871Y-71580792D01*
X121133491Y-71539096D01*
X121330948Y-71457307D01*
X121508655Y-71338567D01*
X121659783Y-71187439D01*
X121778523Y-71009732D01*
X121860312Y-70812275D01*
X121902008Y-70602655D01*
X121902008Y-70388929D01*
X121860312Y-70179309D01*
X121819274Y-70080232D01*
X133306400Y-70080232D01*
X133306400Y-70293958D01*
X133348096Y-70503578D01*
X133429885Y-70701035D01*
X133548625Y-70878742D01*
X133699753Y-71029870D01*
X133877460Y-71148610D01*
X134074917Y-71230399D01*
X134284537Y-71272095D01*
X134498263Y-71272095D01*
X134707883Y-71230399D01*
X134905340Y-71148610D01*
X135022046Y-71070629D01*
X146108000Y-71070629D01*
X146108000Y-71284355D01*
X146149696Y-71493975D01*
X146231485Y-71691432D01*
X146350225Y-71869139D01*
X146501353Y-72020267D01*
X146679060Y-72139007D01*
X146876517Y-72220796D01*
X147086137Y-72262492D01*
X147299863Y-72262492D01*
X147509483Y-72220796D01*
X147706940Y-72139007D01*
X147884647Y-72020267D01*
X148035775Y-71869139D01*
X148154515Y-71691432D01*
X148236304Y-71493975D01*
X148278000Y-71284355D01*
X148278000Y-71070629D01*
X148236304Y-70861009D01*
X148154515Y-70663552D01*
X148035775Y-70485845D01*
X147884647Y-70334717D01*
X147706940Y-70215977D01*
X147509483Y-70134188D01*
X147299863Y-70092492D01*
X147086137Y-70092492D01*
X146876517Y-70134188D01*
X146679060Y-70215977D01*
X146501353Y-70334717D01*
X146350225Y-70485845D01*
X146231485Y-70663552D01*
X146149696Y-70861009D01*
X146108000Y-71070629D01*
X135022046Y-71070629D01*
X135083047Y-71029870D01*
X135234175Y-70878742D01*
X135352915Y-70701035D01*
X135434704Y-70503578D01*
X135476400Y-70293958D01*
X135476400Y-70080232D01*
X135434704Y-69870612D01*
X135352915Y-69673155D01*
X135234175Y-69495448D01*
X135083047Y-69344320D01*
X134905340Y-69225580D01*
X134707883Y-69143791D01*
X134498263Y-69102095D01*
X134284537Y-69102095D01*
X134074917Y-69143791D01*
X133877460Y-69225580D01*
X133699753Y-69344320D01*
X133548625Y-69495448D01*
X133429885Y-69673155D01*
X133348096Y-69870612D01*
X133306400Y-70080232D01*
X121819274Y-70080232D01*
X121778523Y-69981852D01*
X121659783Y-69804145D01*
X121508655Y-69653017D01*
X121330948Y-69534277D01*
X121133491Y-69452488D01*
X120923871Y-69410792D01*
X120710145Y-69410792D01*
X120500525Y-69452488D01*
X120303068Y-69534277D01*
X120125361Y-69653017D01*
X119974233Y-69804145D01*
X119855493Y-69981852D01*
X119773704Y-70179309D01*
X119732008Y-70388929D01*
X111963577Y-70388929D01*
X111978490Y-70366611D01*
X112090432Y-70096358D01*
X112147500Y-69809460D01*
X112147500Y-69516940D01*
X112090432Y-69230042D01*
X111978490Y-68959789D01*
X111815975Y-68716568D01*
X111609132Y-68509725D01*
X111365911Y-68347210D01*
X111095658Y-68235268D01*
X110808760Y-68178200D01*
X110516240Y-68178200D01*
X110229342Y-68235268D01*
X109959089Y-68347210D01*
X109715868Y-68509725D01*
X109509025Y-68716568D01*
X109346510Y-68959789D01*
X109234568Y-69230042D01*
X109177500Y-69516940D01*
X109177500Y-69809460D01*
X109234568Y-70096358D01*
X109346510Y-70366611D01*
X109509025Y-70609832D01*
X109640880Y-70741687D01*
X109568320Y-70763698D01*
X109458006Y-70822663D01*
X109361315Y-70902015D01*
X109281963Y-70998706D01*
X109222998Y-71109020D01*
X109186688Y-71228718D01*
X109174428Y-71353200D01*
X100695000Y-71353200D01*
X100695000Y-68142937D01*
X124467200Y-68142937D01*
X124467200Y-68356663D01*
X124508896Y-68566283D01*
X124590685Y-68763740D01*
X124709425Y-68941447D01*
X124860553Y-69092575D01*
X125038260Y-69211315D01*
X125235717Y-69293104D01*
X125445337Y-69334800D01*
X125659063Y-69334800D01*
X125868683Y-69293104D01*
X126066140Y-69211315D01*
X126243847Y-69092575D01*
X126394975Y-68941447D01*
X126513715Y-68763740D01*
X126595504Y-68566283D01*
X126637200Y-68356663D01*
X126637200Y-68142937D01*
X126595504Y-67933317D01*
X126513715Y-67735860D01*
X126497196Y-67711137D01*
X144965000Y-67711137D01*
X144965000Y-67924863D01*
X145006696Y-68134483D01*
X145088485Y-68331940D01*
X145207225Y-68509647D01*
X145358353Y-68660775D01*
X145536060Y-68779515D01*
X145733517Y-68861304D01*
X145943137Y-68903000D01*
X146156863Y-68903000D01*
X146366483Y-68861304D01*
X146563940Y-68779515D01*
X146741647Y-68660775D01*
X146892775Y-68509647D01*
X147011515Y-68331940D01*
X147093304Y-68134483D01*
X147135000Y-67924863D01*
X147135000Y-67711137D01*
X147093304Y-67501517D01*
X147011515Y-67304060D01*
X146892775Y-67126353D01*
X146741647Y-66975225D01*
X146563940Y-66856485D01*
X146366483Y-66774696D01*
X146156863Y-66733000D01*
X145943137Y-66733000D01*
X145733517Y-66774696D01*
X145536060Y-66856485D01*
X145358353Y-66975225D01*
X145207225Y-67126353D01*
X145088485Y-67304060D01*
X145006696Y-67501517D01*
X144965000Y-67711137D01*
X126497196Y-67711137D01*
X126394975Y-67558153D01*
X126243847Y-67407025D01*
X126066140Y-67288285D01*
X125868683Y-67206496D01*
X125659063Y-67164800D01*
X125445337Y-67164800D01*
X125235717Y-67206496D01*
X125038260Y-67288285D01*
X124860553Y-67407025D01*
X124709425Y-67558153D01*
X124590685Y-67735860D01*
X124508896Y-67933317D01*
X124467200Y-68142937D01*
X100695000Y-68142937D01*
X100695000Y-63733200D01*
X109174428Y-63733200D01*
X109174428Y-65433200D01*
X109186688Y-65557682D01*
X109222998Y-65677380D01*
X109281963Y-65787694D01*
X109361315Y-65884385D01*
X109458006Y-65963737D01*
X109568320Y-66022702D01*
X109688018Y-66059012D01*
X109812500Y-66071272D01*
X111512500Y-66071272D01*
X111636982Y-66059012D01*
X111756680Y-66022702D01*
X111866994Y-65963737D01*
X111963685Y-65884385D01*
X112043037Y-65787694D01*
X112101068Y-65679127D01*
X144023507Y-65679127D01*
X144023507Y-65892853D01*
X144065203Y-66102473D01*
X144146992Y-66299930D01*
X144265732Y-66477637D01*
X144416860Y-66628765D01*
X144594567Y-66747505D01*
X144792024Y-66829294D01*
X145001644Y-66870990D01*
X145215370Y-66870990D01*
X145424990Y-66829294D01*
X145622447Y-66747505D01*
X145800154Y-66628765D01*
X145951282Y-66477637D01*
X146000484Y-66404000D01*
X150877928Y-66404000D01*
X150877928Y-68104000D01*
X150890188Y-68228482D01*
X150926498Y-68348180D01*
X150985463Y-68458494D01*
X151064815Y-68555185D01*
X151161506Y-68634537D01*
X151271820Y-68693502D01*
X151344380Y-68715513D01*
X151212525Y-68847368D01*
X151050010Y-69090589D01*
X150938068Y-69360842D01*
X150881000Y-69647740D01*
X150881000Y-69940260D01*
X150938068Y-70227158D01*
X151050010Y-70497411D01*
X151212525Y-70740632D01*
X151419368Y-70947475D01*
X151593760Y-71064000D01*
X151419368Y-71180525D01*
X151212525Y-71387368D01*
X151050010Y-71630589D01*
X150938068Y-71900842D01*
X150881000Y-72187740D01*
X150881000Y-72480260D01*
X150938068Y-72767158D01*
X151050010Y-73037411D01*
X151212525Y-73280632D01*
X151419368Y-73487475D01*
X151662589Y-73649990D01*
X151932842Y-73761932D01*
X152219740Y-73819000D01*
X152512260Y-73819000D01*
X152799158Y-73761932D01*
X153069411Y-73649990D01*
X153312632Y-73487475D01*
X153519475Y-73280632D01*
X153636000Y-73106240D01*
X153752525Y-73280632D01*
X153959368Y-73487475D01*
X154202589Y-73649990D01*
X154472842Y-73761932D01*
X154759740Y-73819000D01*
X155052260Y-73819000D01*
X155339158Y-73761932D01*
X155609411Y-73649990D01*
X155852632Y-73487475D01*
X156059475Y-73280632D01*
X156221990Y-73037411D01*
X156333932Y-72767158D01*
X156391000Y-72480260D01*
X156391000Y-72187740D01*
X156333932Y-71900842D01*
X156221990Y-71630589D01*
X156059475Y-71387368D01*
X155852632Y-71180525D01*
X155678240Y-71064000D01*
X155852632Y-70947475D01*
X156059475Y-70740632D01*
X156216827Y-70505137D01*
X157157000Y-70505137D01*
X157157000Y-70718863D01*
X157198696Y-70928483D01*
X157280485Y-71125940D01*
X157399225Y-71303647D01*
X157550353Y-71454775D01*
X157728060Y-71573515D01*
X157925517Y-71655304D01*
X158135137Y-71697000D01*
X158348863Y-71697000D01*
X158558483Y-71655304D01*
X158755940Y-71573515D01*
X158933647Y-71454775D01*
X159084775Y-71303647D01*
X159203515Y-71125940D01*
X159285304Y-70928483D01*
X159327000Y-70718863D01*
X159327000Y-70505137D01*
X159951000Y-70505137D01*
X159951000Y-70718863D01*
X159992696Y-70928483D01*
X160074485Y-71125940D01*
X160193225Y-71303647D01*
X160344353Y-71454775D01*
X160522060Y-71573515D01*
X160719517Y-71655304D01*
X160929137Y-71697000D01*
X161142863Y-71697000D01*
X161352483Y-71655304D01*
X161549940Y-71573515D01*
X161727647Y-71454775D01*
X161878775Y-71303647D01*
X161997515Y-71125940D01*
X162079304Y-70928483D01*
X162121000Y-70718863D01*
X162121000Y-70505137D01*
X162079304Y-70295517D01*
X161997515Y-70098060D01*
X161878775Y-69920353D01*
X161727647Y-69769225D01*
X161549940Y-69650485D01*
X161352483Y-69568696D01*
X161142863Y-69527000D01*
X160929137Y-69527000D01*
X160719517Y-69568696D01*
X160522060Y-69650485D01*
X160344353Y-69769225D01*
X160193225Y-69920353D01*
X160074485Y-70098060D01*
X159992696Y-70295517D01*
X159951000Y-70505137D01*
X159327000Y-70505137D01*
X159285304Y-70295517D01*
X159203515Y-70098060D01*
X159084775Y-69920353D01*
X158933647Y-69769225D01*
X158755940Y-69650485D01*
X158558483Y-69568696D01*
X158348863Y-69527000D01*
X158135137Y-69527000D01*
X157925517Y-69568696D01*
X157728060Y-69650485D01*
X157550353Y-69769225D01*
X157399225Y-69920353D01*
X157280485Y-70098060D01*
X157198696Y-70295517D01*
X157157000Y-70505137D01*
X156216827Y-70505137D01*
X156221990Y-70497411D01*
X156333932Y-70227158D01*
X156391000Y-69940260D01*
X156391000Y-69647740D01*
X156333932Y-69360842D01*
X156221990Y-69090589D01*
X156059475Y-68847368D01*
X155852632Y-68640525D01*
X155670466Y-68518805D01*
X155787355Y-68449178D01*
X156003588Y-68254269D01*
X156177641Y-68020920D01*
X156302825Y-67758099D01*
X156347476Y-67610890D01*
X156226155Y-67381000D01*
X155033000Y-67381000D01*
X155033000Y-67401000D01*
X154779000Y-67401000D01*
X154779000Y-67381000D01*
X154759000Y-67381000D01*
X154759000Y-67127000D01*
X154779000Y-67127000D01*
X154779000Y-65933186D01*
X155033000Y-65933186D01*
X155033000Y-67127000D01*
X156226155Y-67127000D01*
X156347476Y-66897110D01*
X156302825Y-66749901D01*
X156177641Y-66487080D01*
X156003588Y-66253731D01*
X155787355Y-66058822D01*
X155537252Y-65909843D01*
X155262891Y-65812519D01*
X155033000Y-65933186D01*
X154779000Y-65933186D01*
X154549109Y-65812519D01*
X154274748Y-65909843D01*
X154024645Y-66058822D01*
X153828498Y-66235626D01*
X153805502Y-66159820D01*
X153746537Y-66049506D01*
X153667185Y-65952815D01*
X153570494Y-65873463D01*
X153460180Y-65814498D01*
X153340482Y-65778188D01*
X153216000Y-65765928D01*
X151516000Y-65765928D01*
X151391518Y-65778188D01*
X151271820Y-65814498D01*
X151161506Y-65873463D01*
X151064815Y-65952815D01*
X150985463Y-66049506D01*
X150926498Y-66159820D01*
X150890188Y-66279518D01*
X150877928Y-66404000D01*
X146000484Y-66404000D01*
X146070022Y-66299930D01*
X146151811Y-66102473D01*
X146193507Y-65892853D01*
X146193507Y-65679127D01*
X146151811Y-65469507D01*
X146070022Y-65272050D01*
X145951282Y-65094343D01*
X145800154Y-64943215D01*
X145622447Y-64824475D01*
X145424990Y-64742686D01*
X145215370Y-64700990D01*
X145001644Y-64700990D01*
X144792024Y-64742686D01*
X144594567Y-64824475D01*
X144416860Y-64943215D01*
X144265732Y-65094343D01*
X144146992Y-65272050D01*
X144065203Y-65469507D01*
X144023507Y-65679127D01*
X112101068Y-65679127D01*
X112102002Y-65677380D01*
X112138312Y-65557682D01*
X112150572Y-65433200D01*
X112150572Y-63733200D01*
X112150442Y-63731872D01*
X136650665Y-63731872D01*
X136650665Y-63945598D01*
X136692361Y-64155218D01*
X136774150Y-64352675D01*
X136892890Y-64530382D01*
X137044018Y-64681510D01*
X137221725Y-64800250D01*
X137419182Y-64882039D01*
X137628802Y-64923735D01*
X137842528Y-64923735D01*
X138052148Y-64882039D01*
X138249605Y-64800250D01*
X138427312Y-64681510D01*
X138578440Y-64530382D01*
X138697180Y-64352675D01*
X138778969Y-64155218D01*
X138820665Y-63945598D01*
X138820665Y-63731872D01*
X138778969Y-63522252D01*
X138697180Y-63324795D01*
X138578440Y-63147088D01*
X138427312Y-62995960D01*
X138249605Y-62877220D01*
X138052148Y-62795431D01*
X137842528Y-62753735D01*
X137628802Y-62753735D01*
X137419182Y-62795431D01*
X137221725Y-62877220D01*
X137044018Y-62995960D01*
X136892890Y-63147088D01*
X136774150Y-63324795D01*
X136692361Y-63522252D01*
X136650665Y-63731872D01*
X112150442Y-63731872D01*
X112138312Y-63608718D01*
X112102002Y-63489020D01*
X112043037Y-63378706D01*
X111963685Y-63282015D01*
X111866994Y-63202663D01*
X111756680Y-63143698D01*
X111684120Y-63121687D01*
X111815975Y-62989832D01*
X111978490Y-62746611D01*
X112090432Y-62476358D01*
X112147500Y-62189460D01*
X112147500Y-61896940D01*
X112090432Y-61610042D01*
X111978490Y-61339789D01*
X111815975Y-61096568D01*
X111609132Y-60889725D01*
X111554375Y-60853137D01*
X129979000Y-60853137D01*
X129979000Y-61066863D01*
X130020696Y-61276483D01*
X130102485Y-61473940D01*
X130221225Y-61651647D01*
X130372353Y-61802775D01*
X130550060Y-61921515D01*
X130747517Y-62003304D01*
X130957137Y-62045000D01*
X131170863Y-62045000D01*
X131188887Y-62041415D01*
X131225242Y-62129183D01*
X131343982Y-62306890D01*
X131495110Y-62458018D01*
X131672817Y-62576758D01*
X131870274Y-62658547D01*
X132079894Y-62700243D01*
X132293620Y-62700243D01*
X132503240Y-62658547D01*
X132700697Y-62576758D01*
X132878404Y-62458018D01*
X133029532Y-62306890D01*
X133148272Y-62129183D01*
X133170262Y-62076095D01*
X133243137Y-62090591D01*
X133344280Y-62090591D01*
X133404485Y-62235940D01*
X133523225Y-62413647D01*
X133674353Y-62564775D01*
X133852060Y-62683515D01*
X134049517Y-62765304D01*
X134259137Y-62807000D01*
X134472863Y-62807000D01*
X134682483Y-62765304D01*
X134879940Y-62683515D01*
X135057647Y-62564775D01*
X135105345Y-62517077D01*
X135122793Y-62524304D01*
X135332413Y-62566000D01*
X135546139Y-62566000D01*
X135755759Y-62524304D01*
X135953216Y-62442515D01*
X136130923Y-62323775D01*
X136282051Y-62172647D01*
X136400791Y-61994940D01*
X136452873Y-61869200D01*
X138108294Y-61869200D01*
X138108294Y-62082926D01*
X138149990Y-62292546D01*
X138231779Y-62490003D01*
X138350519Y-62667710D01*
X138501647Y-62818838D01*
X138679354Y-62937578D01*
X138876811Y-63019367D01*
X139086431Y-63061063D01*
X139300157Y-63061063D01*
X139509777Y-63019367D01*
X139513713Y-63017737D01*
X139619225Y-63175647D01*
X139770353Y-63326775D01*
X139948060Y-63445515D01*
X140145517Y-63527304D01*
X140355137Y-63569000D01*
X140568863Y-63569000D01*
X140778483Y-63527304D01*
X140975940Y-63445515D01*
X141153647Y-63326775D01*
X141304775Y-63175647D01*
X141423515Y-62997940D01*
X141505304Y-62800483D01*
X141547000Y-62590863D01*
X141547000Y-62377137D01*
X141505304Y-62167517D01*
X141423515Y-61970060D01*
X141394778Y-61927051D01*
X143840213Y-61927051D01*
X143843015Y-61951789D01*
X143850588Y-61975506D01*
X143862643Y-61997289D01*
X143878716Y-62016302D01*
X148298316Y-66308902D01*
X148317736Y-66324380D01*
X148339856Y-66335805D01*
X148363780Y-66342696D01*
X148388588Y-66344787D01*
X148413328Y-66341999D01*
X148437048Y-66334437D01*
X148458837Y-66322393D01*
X148477858Y-66306329D01*
X148493380Y-66286864D01*
X150039331Y-63901137D01*
X152839000Y-63901137D01*
X152839000Y-64114863D01*
X152880696Y-64324483D01*
X152962485Y-64521940D01*
X153081225Y-64699647D01*
X153232353Y-64850775D01*
X153410060Y-64969515D01*
X153607517Y-65051304D01*
X153817137Y-65093000D01*
X154030863Y-65093000D01*
X154240483Y-65051304D01*
X154437940Y-64969515D01*
X154615647Y-64850775D01*
X154766775Y-64699647D01*
X154885515Y-64521940D01*
X154967304Y-64324483D01*
X155009000Y-64114863D01*
X155009000Y-63901137D01*
X154967304Y-63691517D01*
X154885515Y-63494060D01*
X154766775Y-63316353D01*
X154615647Y-63165225D01*
X154437940Y-63046485D01*
X154240483Y-62964696D01*
X154030863Y-62923000D01*
X153817137Y-62923000D01*
X153607517Y-62964696D01*
X153410060Y-63046485D01*
X153232353Y-63165225D01*
X153081225Y-63316353D01*
X152962485Y-63494060D01*
X152880696Y-63691517D01*
X152839000Y-63901137D01*
X150039331Y-63901137D01*
X150550780Y-63111864D01*
X150562159Y-63089860D01*
X150569074Y-63065943D01*
X150571189Y-63041136D01*
X150568424Y-63016394D01*
X150560886Y-62992666D01*
X150548863Y-62970865D01*
X150532818Y-62951829D01*
X147856922Y-60345137D01*
X148521000Y-60345137D01*
X148521000Y-60558863D01*
X148562696Y-60768483D01*
X148644485Y-60965940D01*
X148763225Y-61143647D01*
X148914353Y-61294775D01*
X149092060Y-61413515D01*
X149289517Y-61495304D01*
X149499137Y-61537000D01*
X149712863Y-61537000D01*
X149922483Y-61495304D01*
X150119940Y-61413515D01*
X150198329Y-61361137D01*
X156649000Y-61361137D01*
X156649000Y-61574863D01*
X156690696Y-61784483D01*
X156772485Y-61981940D01*
X156891225Y-62159647D01*
X157042353Y-62310775D01*
X157220060Y-62429515D01*
X157417517Y-62511304D01*
X157627137Y-62553000D01*
X157709395Y-62553000D01*
X157788485Y-62743940D01*
X157907225Y-62921647D01*
X158058353Y-63072775D01*
X158236060Y-63191515D01*
X158433517Y-63273304D01*
X158643137Y-63315000D01*
X158856863Y-63315000D01*
X159066483Y-63273304D01*
X159263940Y-63191515D01*
X159441647Y-63072775D01*
X159592775Y-62921647D01*
X159711515Y-62743940D01*
X159793304Y-62546483D01*
X159835000Y-62336863D01*
X159835000Y-62123137D01*
X159793304Y-61913517D01*
X159711515Y-61716060D01*
X159592775Y-61538353D01*
X159441647Y-61387225D01*
X159263940Y-61268485D01*
X159066483Y-61186696D01*
X158856863Y-61145000D01*
X158774605Y-61145000D01*
X158695515Y-60954060D01*
X158581284Y-60783100D01*
X168069628Y-60783100D01*
X168069628Y-62483100D01*
X168081888Y-62607582D01*
X168118198Y-62727280D01*
X168177163Y-62837594D01*
X168256515Y-62934285D01*
X168353206Y-63013637D01*
X168463520Y-63072602D01*
X168536080Y-63094613D01*
X168404225Y-63226468D01*
X168241710Y-63469689D01*
X168129768Y-63739942D01*
X168072700Y-64026840D01*
X168072700Y-64319360D01*
X168129768Y-64606258D01*
X168241710Y-64876511D01*
X168404225Y-65119732D01*
X168611068Y-65326575D01*
X168785460Y-65443100D01*
X168611068Y-65559625D01*
X168404225Y-65766468D01*
X168241710Y-66009689D01*
X168129768Y-66279942D01*
X168072700Y-66566840D01*
X168072700Y-66859360D01*
X168129768Y-67146258D01*
X168241710Y-67416511D01*
X168404225Y-67659732D01*
X168611068Y-67866575D01*
X168854289Y-68029090D01*
X169124542Y-68141032D01*
X169411440Y-68198100D01*
X169703960Y-68198100D01*
X169990858Y-68141032D01*
X170261111Y-68029090D01*
X170504332Y-67866575D01*
X170711175Y-67659732D01*
X170873690Y-67416511D01*
X170985632Y-67146258D01*
X171042700Y-66859360D01*
X171042700Y-66566840D01*
X170985632Y-66279942D01*
X170873690Y-66009689D01*
X170711175Y-65766468D01*
X170504332Y-65559625D01*
X170329940Y-65443100D01*
X170504332Y-65326575D01*
X170711175Y-65119732D01*
X170873690Y-64876511D01*
X170985632Y-64606258D01*
X171042700Y-64319360D01*
X171042700Y-64026840D01*
X170985632Y-63739942D01*
X170873690Y-63469689D01*
X170711175Y-63226468D01*
X170579320Y-63094613D01*
X170651880Y-63072602D01*
X170762194Y-63013637D01*
X170858885Y-62934285D01*
X170938237Y-62837594D01*
X170997202Y-62727280D01*
X171033512Y-62607582D01*
X171045772Y-62483100D01*
X171045772Y-60783100D01*
X171033512Y-60658618D01*
X170997202Y-60538920D01*
X170938237Y-60428606D01*
X170858885Y-60331915D01*
X170762194Y-60252563D01*
X170651880Y-60193598D01*
X170532182Y-60157288D01*
X170407700Y-60145028D01*
X168707700Y-60145028D01*
X168583218Y-60157288D01*
X168463520Y-60193598D01*
X168353206Y-60252563D01*
X168256515Y-60331915D01*
X168177163Y-60428606D01*
X168118198Y-60538920D01*
X168081888Y-60658618D01*
X168069628Y-60783100D01*
X158581284Y-60783100D01*
X158576775Y-60776353D01*
X158425647Y-60625225D01*
X158247940Y-60506485D01*
X158050483Y-60424696D01*
X157840863Y-60383000D01*
X157627137Y-60383000D01*
X157417517Y-60424696D01*
X157220060Y-60506485D01*
X157042353Y-60625225D01*
X156891225Y-60776353D01*
X156772485Y-60954060D01*
X156690696Y-61151517D01*
X156649000Y-61361137D01*
X150198329Y-61361137D01*
X150297647Y-61294775D01*
X150448775Y-61143647D01*
X150567515Y-60965940D01*
X150649304Y-60768483D01*
X150691000Y-60558863D01*
X150691000Y-60345137D01*
X150649304Y-60135517D01*
X150567515Y-59938060D01*
X150448775Y-59760353D01*
X150297647Y-59609225D01*
X150119940Y-59490485D01*
X149922483Y-59408696D01*
X149712863Y-59367000D01*
X149499137Y-59367000D01*
X149289517Y-59408696D01*
X149092060Y-59490485D01*
X148914353Y-59609225D01*
X148763225Y-59760353D01*
X148644485Y-59938060D01*
X148562696Y-60135517D01*
X148521000Y-60345137D01*
X147856922Y-60345137D01*
X147651314Y-60144847D01*
X147636793Y-60115805D01*
X147628797Y-60102043D01*
X147613003Y-60082797D01*
X147587603Y-60057397D01*
X147575666Y-60046871D01*
X147554596Y-60033608D01*
X147531344Y-60024710D01*
X147506803Y-60020520D01*
X147481916Y-60021197D01*
X147457639Y-60026717D01*
X147434906Y-60036867D01*
X147414589Y-60051257D01*
X147397471Y-60069334D01*
X147384208Y-60090404D01*
X147370448Y-60117925D01*
X147089812Y-60355686D01*
X147011515Y-60166660D01*
X146892775Y-59988953D01*
X146741647Y-59837825D01*
X146563940Y-59719085D01*
X146366483Y-59637296D01*
X146156863Y-59595600D01*
X145943137Y-59595600D01*
X145733517Y-59637296D01*
X145536060Y-59719085D01*
X145358353Y-59837825D01*
X145207225Y-59988953D01*
X145088485Y-60166660D01*
X145006696Y-60364117D01*
X144965000Y-60573737D01*
X144965000Y-60787463D01*
X145006696Y-60997083D01*
X145088485Y-61194540D01*
X145207225Y-61372247D01*
X145358353Y-61523375D01*
X145521824Y-61632603D01*
X143953805Y-61798908D01*
X143940611Y-61801015D01*
X143916894Y-61808588D01*
X143895111Y-61820643D01*
X143876098Y-61836716D01*
X143860586Y-61856189D01*
X143849171Y-61878315D01*
X143842292Y-61902242D01*
X143840213Y-61927051D01*
X141394778Y-61927051D01*
X141304775Y-61792353D01*
X141153647Y-61641225D01*
X140975940Y-61522485D01*
X140778483Y-61440696D01*
X140568863Y-61399000D01*
X140355137Y-61399000D01*
X140145517Y-61440696D01*
X140141581Y-61442326D01*
X140036069Y-61284416D01*
X139884941Y-61133288D01*
X139707234Y-61014548D01*
X139509777Y-60932759D01*
X139300157Y-60891063D01*
X139086431Y-60891063D01*
X138876811Y-60932759D01*
X138679354Y-61014548D01*
X138501647Y-61133288D01*
X138350519Y-61284416D01*
X138231779Y-61462123D01*
X138149990Y-61659580D01*
X138108294Y-61869200D01*
X136452873Y-61869200D01*
X136482580Y-61797483D01*
X136524276Y-61587863D01*
X136524276Y-61374137D01*
X136482580Y-61164517D01*
X136400791Y-60967060D01*
X136282051Y-60789353D01*
X136130923Y-60638225D01*
X135953216Y-60519485D01*
X135755759Y-60437696D01*
X135546139Y-60396000D01*
X135332413Y-60396000D01*
X135122793Y-60437696D01*
X134925336Y-60519485D01*
X134747629Y-60638225D01*
X134699931Y-60685923D01*
X134682483Y-60678696D01*
X134472863Y-60637000D01*
X134371720Y-60637000D01*
X134311515Y-60491651D01*
X134192775Y-60313944D01*
X134041647Y-60162816D01*
X133863940Y-60044076D01*
X133666483Y-59962287D01*
X133456863Y-59920591D01*
X133243137Y-59920591D01*
X133033517Y-59962287D01*
X132836060Y-60044076D01*
X132658353Y-60162816D01*
X132507225Y-60313944D01*
X132388485Y-60491651D01*
X132366495Y-60544739D01*
X132293620Y-60530243D01*
X132079894Y-60530243D01*
X132061870Y-60533828D01*
X132025515Y-60446060D01*
X131906775Y-60268353D01*
X131755647Y-60117225D01*
X131577940Y-59998485D01*
X131380483Y-59916696D01*
X131170863Y-59875000D01*
X130957137Y-59875000D01*
X130747517Y-59916696D01*
X130550060Y-59998485D01*
X130372353Y-60117225D01*
X130221225Y-60268353D01*
X130102485Y-60446060D01*
X130020696Y-60643517D01*
X129979000Y-60853137D01*
X111554375Y-60853137D01*
X111365911Y-60727210D01*
X111095658Y-60615268D01*
X110808760Y-60558200D01*
X110516240Y-60558200D01*
X110229342Y-60615268D01*
X109959089Y-60727210D01*
X109715868Y-60889725D01*
X109509025Y-61096568D01*
X109346510Y-61339789D01*
X109234568Y-61610042D01*
X109177500Y-61896940D01*
X109177500Y-62189460D01*
X109234568Y-62476358D01*
X109346510Y-62746611D01*
X109509025Y-62989832D01*
X109640880Y-63121687D01*
X109568320Y-63143698D01*
X109458006Y-63202663D01*
X109361315Y-63282015D01*
X109281963Y-63378706D01*
X109222998Y-63489020D01*
X109186688Y-63608718D01*
X109174428Y-63733200D01*
X100695000Y-63733200D01*
X100695000Y-58567137D01*
X129725000Y-58567137D01*
X129725000Y-58780863D01*
X129766696Y-58990483D01*
X129848485Y-59187940D01*
X129967225Y-59365647D01*
X130118353Y-59516775D01*
X130296060Y-59635515D01*
X130493517Y-59717304D01*
X130703137Y-59759000D01*
X130916863Y-59759000D01*
X131126483Y-59717304D01*
X131323940Y-59635515D01*
X131501647Y-59516775D01*
X131652775Y-59365647D01*
X131771515Y-59187940D01*
X131853304Y-58990483D01*
X131895000Y-58780863D01*
X131895000Y-58567137D01*
X131853304Y-58357517D01*
X131771515Y-58160060D01*
X131652775Y-57982353D01*
X131526359Y-57855937D01*
X146539800Y-57855937D01*
X146539800Y-58069663D01*
X146581496Y-58279283D01*
X146663285Y-58476740D01*
X146782025Y-58654447D01*
X146933153Y-58805575D01*
X147110860Y-58924315D01*
X147308317Y-59006104D01*
X147517937Y-59047800D01*
X147731663Y-59047800D01*
X147941283Y-59006104D01*
X148138740Y-58924315D01*
X148316447Y-58805575D01*
X148467575Y-58654447D01*
X148586315Y-58476740D01*
X148668104Y-58279283D01*
X148709800Y-58069663D01*
X148709800Y-57855937D01*
X148668104Y-57646317D01*
X148586315Y-57448860D01*
X148467575Y-57271153D01*
X148316447Y-57120025D01*
X148138740Y-57001285D01*
X147941283Y-56919496D01*
X147731663Y-56877800D01*
X147517937Y-56877800D01*
X147308317Y-56919496D01*
X147110860Y-57001285D01*
X146933153Y-57120025D01*
X146782025Y-57271153D01*
X146663285Y-57448860D01*
X146581496Y-57646317D01*
X146539800Y-57855937D01*
X131526359Y-57855937D01*
X131501647Y-57831225D01*
X131323940Y-57712485D01*
X131126483Y-57630696D01*
X130916863Y-57589000D01*
X130703137Y-57589000D01*
X130493517Y-57630696D01*
X130296060Y-57712485D01*
X130118353Y-57831225D01*
X129967225Y-57982353D01*
X129848485Y-58160060D01*
X129766696Y-58357517D01*
X129725000Y-58567137D01*
X100695000Y-58567137D01*
X100695000Y-57559519D01*
X100746525Y-57636632D01*
X100953368Y-57843475D01*
X101196589Y-58005990D01*
X101466842Y-58117932D01*
X101753740Y-58175000D01*
X102046260Y-58175000D01*
X102333158Y-58117932D01*
X102603411Y-58005990D01*
X102846632Y-57843475D01*
X103053475Y-57636632D01*
X103215990Y-57393411D01*
X103327932Y-57123158D01*
X103385000Y-56836260D01*
X103385000Y-56543740D01*
X103327932Y-56256842D01*
X103215990Y-55986589D01*
X103053475Y-55743368D01*
X102921620Y-55611513D01*
X102994180Y-55589502D01*
X103104494Y-55530537D01*
X103201185Y-55451185D01*
X103280537Y-55354494D01*
X103339502Y-55244180D01*
X103375812Y-55124482D01*
X103388072Y-55000000D01*
X103385000Y-54435750D01*
X103226250Y-54277000D01*
X102027000Y-54277000D01*
X102027000Y-54297000D01*
X101773000Y-54297000D01*
X101773000Y-54277000D01*
X101753000Y-54277000D01*
X101753000Y-54023000D01*
X101773000Y-54023000D01*
X101773000Y-52823750D01*
X102027000Y-52823750D01*
X102027000Y-54023000D01*
X103226250Y-54023000D01*
X103385000Y-53864250D01*
X103388072Y-53300000D01*
X105491928Y-53300000D01*
X105491928Y-55000000D01*
X105504188Y-55124482D01*
X105540498Y-55244180D01*
X105599463Y-55354494D01*
X105678815Y-55451185D01*
X105775506Y-55530537D01*
X105885820Y-55589502D01*
X106005518Y-55625812D01*
X106130000Y-55638072D01*
X107830000Y-55638072D01*
X107954482Y-55625812D01*
X108074180Y-55589502D01*
X108184494Y-55530537D01*
X108281185Y-55451185D01*
X108360537Y-55354494D01*
X108419502Y-55244180D01*
X108441513Y-55171620D01*
X108573368Y-55303475D01*
X108816589Y-55465990D01*
X109086842Y-55577932D01*
X109373740Y-55635000D01*
X109666260Y-55635000D01*
X109953158Y-55577932D01*
X110223411Y-55465990D01*
X110466632Y-55303475D01*
X110673475Y-55096632D01*
X110795195Y-54914466D01*
X110864822Y-55031355D01*
X111059731Y-55247588D01*
X111293080Y-55421641D01*
X111555901Y-55546825D01*
X111703110Y-55591476D01*
X111933000Y-55470155D01*
X111933000Y-54277000D01*
X111913000Y-54277000D01*
X111913000Y-54023000D01*
X111933000Y-54023000D01*
X111933000Y-52829845D01*
X112187000Y-52829845D01*
X112187000Y-54023000D01*
X112207000Y-54023000D01*
X112207000Y-54277000D01*
X112187000Y-54277000D01*
X112187000Y-55470155D01*
X112416890Y-55591476D01*
X112564099Y-55546825D01*
X112826920Y-55421641D01*
X113060269Y-55247588D01*
X113255178Y-55031355D01*
X113324805Y-54914466D01*
X113446525Y-55096632D01*
X113653368Y-55303475D01*
X113896589Y-55465990D01*
X114166842Y-55577932D01*
X114453740Y-55635000D01*
X114746260Y-55635000D01*
X115033158Y-55577932D01*
X115303411Y-55465990D01*
X115546632Y-55303475D01*
X115753475Y-55096632D01*
X115915990Y-54853411D01*
X116027932Y-54583158D01*
X116085000Y-54296260D01*
X116085000Y-54003740D01*
X116027932Y-53716842D01*
X115915990Y-53446589D01*
X115818043Y-53300000D01*
X118191928Y-53300000D01*
X118191928Y-55000000D01*
X118204188Y-55124482D01*
X118240498Y-55244180D01*
X118299463Y-55354494D01*
X118378815Y-55451185D01*
X118475506Y-55530537D01*
X118585820Y-55589502D01*
X118705518Y-55625812D01*
X118830000Y-55638072D01*
X120530000Y-55638072D01*
X120654482Y-55625812D01*
X120774180Y-55589502D01*
X120884494Y-55530537D01*
X120981185Y-55451185D01*
X121060537Y-55354494D01*
X121119502Y-55244180D01*
X121141513Y-55171620D01*
X121273368Y-55303475D01*
X121516589Y-55465990D01*
X121786842Y-55577932D01*
X122073740Y-55635000D01*
X122366260Y-55635000D01*
X122653158Y-55577932D01*
X122923411Y-55465990D01*
X123166632Y-55303475D01*
X123373475Y-55096632D01*
X123495195Y-54914466D01*
X123564822Y-55031355D01*
X123759731Y-55247588D01*
X123993080Y-55421641D01*
X124255901Y-55546825D01*
X124403110Y-55591476D01*
X124633000Y-55470155D01*
X124633000Y-54277000D01*
X124613000Y-54277000D01*
X124613000Y-54023000D01*
X124633000Y-54023000D01*
X124633000Y-52829845D01*
X124887000Y-52829845D01*
X124887000Y-54023000D01*
X124907000Y-54023000D01*
X124907000Y-54277000D01*
X124887000Y-54277000D01*
X124887000Y-55470155D01*
X125116890Y-55591476D01*
X125264099Y-55546825D01*
X125526920Y-55421641D01*
X125760269Y-55247588D01*
X125955178Y-55031355D01*
X126024805Y-54914466D01*
X126146525Y-55096632D01*
X126353368Y-55303475D01*
X126596589Y-55465990D01*
X126866842Y-55577932D01*
X127153740Y-55635000D01*
X127446260Y-55635000D01*
X127733158Y-55577932D01*
X128003411Y-55465990D01*
X128246632Y-55303475D01*
X128453475Y-55096632D01*
X128615990Y-54853411D01*
X128727932Y-54583158D01*
X128785000Y-54296260D01*
X128785000Y-54003740D01*
X128727932Y-53716842D01*
X128615990Y-53446589D01*
X128518043Y-53300000D01*
X130891928Y-53300000D01*
X130891928Y-55000000D01*
X130904188Y-55124482D01*
X130940498Y-55244180D01*
X130999463Y-55354494D01*
X131078815Y-55451185D01*
X131175506Y-55530537D01*
X131285820Y-55589502D01*
X131405518Y-55625812D01*
X131530000Y-55638072D01*
X133230000Y-55638072D01*
X133354482Y-55625812D01*
X133474180Y-55589502D01*
X133584494Y-55530537D01*
X133681185Y-55451185D01*
X133760537Y-55354494D01*
X133819502Y-55244180D01*
X133841513Y-55171620D01*
X133973368Y-55303475D01*
X134216589Y-55465990D01*
X134486842Y-55577932D01*
X134773740Y-55635000D01*
X135066260Y-55635000D01*
X135353158Y-55577932D01*
X135623411Y-55465990D01*
X135866632Y-55303475D01*
X136073475Y-55096632D01*
X136195195Y-54914466D01*
X136264822Y-55031355D01*
X136459731Y-55247588D01*
X136693080Y-55421641D01*
X136955901Y-55546825D01*
X137103110Y-55591476D01*
X137333000Y-55470155D01*
X137333000Y-54277000D01*
X137313000Y-54277000D01*
X137313000Y-54023000D01*
X137333000Y-54023000D01*
X137333000Y-52829845D01*
X137587000Y-52829845D01*
X137587000Y-54023000D01*
X137607000Y-54023000D01*
X137607000Y-54277000D01*
X137587000Y-54277000D01*
X137587000Y-55470155D01*
X137816890Y-55591476D01*
X137964099Y-55546825D01*
X138226920Y-55421641D01*
X138460269Y-55247588D01*
X138655178Y-55031355D01*
X138724805Y-54914466D01*
X138846525Y-55096632D01*
X139053368Y-55303475D01*
X139296589Y-55465990D01*
X139566842Y-55577932D01*
X139853740Y-55635000D01*
X140146260Y-55635000D01*
X140433158Y-55577932D01*
X140703411Y-55465990D01*
X140946632Y-55303475D01*
X141153475Y-55096632D01*
X141315990Y-54853411D01*
X141427932Y-54583158D01*
X141485000Y-54296260D01*
X141485000Y-54003740D01*
X141427932Y-53716842D01*
X141315990Y-53446589D01*
X141218043Y-53300000D01*
X143591928Y-53300000D01*
X143591928Y-55000000D01*
X143604188Y-55124482D01*
X143640498Y-55244180D01*
X143699463Y-55354494D01*
X143778815Y-55451185D01*
X143875506Y-55530537D01*
X143985820Y-55589502D01*
X144105518Y-55625812D01*
X144230000Y-55638072D01*
X145930000Y-55638072D01*
X146054482Y-55625812D01*
X146174180Y-55589502D01*
X146284494Y-55530537D01*
X146381185Y-55451185D01*
X146460537Y-55354494D01*
X146519502Y-55244180D01*
X146541513Y-55171620D01*
X146673368Y-55303475D01*
X146916589Y-55465990D01*
X147186842Y-55577932D01*
X147473740Y-55635000D01*
X147766260Y-55635000D01*
X148053158Y-55577932D01*
X148323411Y-55465990D01*
X148566632Y-55303475D01*
X148773475Y-55096632D01*
X148895195Y-54914466D01*
X148964822Y-55031355D01*
X149159731Y-55247588D01*
X149393080Y-55421641D01*
X149655901Y-55546825D01*
X149803110Y-55591476D01*
X150033000Y-55470155D01*
X150033000Y-54277000D01*
X150013000Y-54277000D01*
X150013000Y-54023000D01*
X150033000Y-54023000D01*
X150033000Y-52829845D01*
X150287000Y-52829845D01*
X150287000Y-54023000D01*
X150307000Y-54023000D01*
X150307000Y-54277000D01*
X150287000Y-54277000D01*
X150287000Y-55470155D01*
X150516890Y-55591476D01*
X150664099Y-55546825D01*
X150926920Y-55421641D01*
X151160269Y-55247588D01*
X151355178Y-55031355D01*
X151424805Y-54914466D01*
X151546525Y-55096632D01*
X151753368Y-55303475D01*
X151996589Y-55465990D01*
X152266842Y-55577932D01*
X152553740Y-55635000D01*
X152846260Y-55635000D01*
X153133158Y-55577932D01*
X153403411Y-55465990D01*
X153646632Y-55303475D01*
X153853475Y-55096632D01*
X154015990Y-54853411D01*
X154127932Y-54583158D01*
X154185000Y-54296260D01*
X154185000Y-54003740D01*
X154127932Y-53716842D01*
X154015990Y-53446589D01*
X153918043Y-53300000D01*
X156291928Y-53300000D01*
X156291928Y-55000000D01*
X156304188Y-55124482D01*
X156340498Y-55244180D01*
X156399463Y-55354494D01*
X156478815Y-55451185D01*
X156575506Y-55530537D01*
X156685820Y-55589502D01*
X156805518Y-55625812D01*
X156930000Y-55638072D01*
X158630000Y-55638072D01*
X158754482Y-55625812D01*
X158874180Y-55589502D01*
X158984494Y-55530537D01*
X159081185Y-55451185D01*
X159160537Y-55354494D01*
X159219502Y-55244180D01*
X159241513Y-55171620D01*
X159373368Y-55303475D01*
X159616589Y-55465990D01*
X159886842Y-55577932D01*
X160173740Y-55635000D01*
X160466260Y-55635000D01*
X160753158Y-55577932D01*
X161023411Y-55465990D01*
X161266632Y-55303475D01*
X161473475Y-55096632D01*
X161595195Y-54914466D01*
X161664822Y-55031355D01*
X161859731Y-55247588D01*
X162093080Y-55421641D01*
X162355901Y-55546825D01*
X162503110Y-55591476D01*
X162733000Y-55470155D01*
X162733000Y-54277000D01*
X162713000Y-54277000D01*
X162713000Y-54023000D01*
X162733000Y-54023000D01*
X162733000Y-52829845D01*
X162987000Y-52829845D01*
X162987000Y-54023000D01*
X163007000Y-54023000D01*
X163007000Y-54277000D01*
X162987000Y-54277000D01*
X162987000Y-55470155D01*
X163216890Y-55591476D01*
X163364099Y-55546825D01*
X163626920Y-55421641D01*
X163860269Y-55247588D01*
X164055178Y-55031355D01*
X164124805Y-54914466D01*
X164246525Y-55096632D01*
X164453368Y-55303475D01*
X164696589Y-55465990D01*
X164966842Y-55577932D01*
X165253740Y-55635000D01*
X165546260Y-55635000D01*
X165833158Y-55577932D01*
X166103411Y-55465990D01*
X166346632Y-55303475D01*
X166553475Y-55096632D01*
X166715990Y-54853411D01*
X166827932Y-54583158D01*
X166885000Y-54296260D01*
X166885000Y-54003740D01*
X166827932Y-53716842D01*
X166715990Y-53446589D01*
X166618043Y-53300000D01*
X168991928Y-53300000D01*
X168991928Y-55000000D01*
X169004188Y-55124482D01*
X169040498Y-55244180D01*
X169099463Y-55354494D01*
X169178815Y-55451185D01*
X169275506Y-55530537D01*
X169385820Y-55589502D01*
X169505518Y-55625812D01*
X169630000Y-55638072D01*
X171330000Y-55638072D01*
X171454482Y-55625812D01*
X171574180Y-55589502D01*
X171684494Y-55530537D01*
X171781185Y-55451185D01*
X171860537Y-55354494D01*
X171919502Y-55244180D01*
X171941513Y-55171620D01*
X172073368Y-55303475D01*
X172316589Y-55465990D01*
X172586842Y-55577932D01*
X172873740Y-55635000D01*
X173166260Y-55635000D01*
X173453158Y-55577932D01*
X173723411Y-55465990D01*
X173966632Y-55303475D01*
X174173475Y-55096632D01*
X174295195Y-54914466D01*
X174364822Y-55031355D01*
X174559731Y-55247588D01*
X174793080Y-55421641D01*
X175055901Y-55546825D01*
X175203110Y-55591476D01*
X175433000Y-55470155D01*
X175433000Y-54277000D01*
X175413000Y-54277000D01*
X175413000Y-54023000D01*
X175433000Y-54023000D01*
X175433000Y-52829845D01*
X175203110Y-52708524D01*
X175055901Y-52753175D01*
X174793080Y-52878359D01*
X174559731Y-53052412D01*
X174364822Y-53268645D01*
X174295195Y-53385534D01*
X174173475Y-53203368D01*
X173966632Y-52996525D01*
X173723411Y-52834010D01*
X173453158Y-52722068D01*
X173166260Y-52665000D01*
X172873740Y-52665000D01*
X172586842Y-52722068D01*
X172316589Y-52834010D01*
X172073368Y-52996525D01*
X171941513Y-53128380D01*
X171919502Y-53055820D01*
X171860537Y-52945506D01*
X171781185Y-52848815D01*
X171684494Y-52769463D01*
X171574180Y-52710498D01*
X171454482Y-52674188D01*
X171330000Y-52661928D01*
X169630000Y-52661928D01*
X169505518Y-52674188D01*
X169385820Y-52710498D01*
X169275506Y-52769463D01*
X169178815Y-52848815D01*
X169099463Y-52945506D01*
X169040498Y-53055820D01*
X169004188Y-53175518D01*
X168991928Y-53300000D01*
X166618043Y-53300000D01*
X166553475Y-53203368D01*
X166346632Y-52996525D01*
X166103411Y-52834010D01*
X165833158Y-52722068D01*
X165546260Y-52665000D01*
X165253740Y-52665000D01*
X164966842Y-52722068D01*
X164696589Y-52834010D01*
X164453368Y-52996525D01*
X164246525Y-53203368D01*
X164124805Y-53385534D01*
X164055178Y-53268645D01*
X163860269Y-53052412D01*
X163626920Y-52878359D01*
X163364099Y-52753175D01*
X163216890Y-52708524D01*
X162987000Y-52829845D01*
X162733000Y-52829845D01*
X162503110Y-52708524D01*
X162355901Y-52753175D01*
X162093080Y-52878359D01*
X161859731Y-53052412D01*
X161664822Y-53268645D01*
X161595195Y-53385534D01*
X161473475Y-53203368D01*
X161266632Y-52996525D01*
X161023411Y-52834010D01*
X160753158Y-52722068D01*
X160466260Y-52665000D01*
X160173740Y-52665000D01*
X159886842Y-52722068D01*
X159616589Y-52834010D01*
X159373368Y-52996525D01*
X159241513Y-53128380D01*
X159219502Y-53055820D01*
X159160537Y-52945506D01*
X159081185Y-52848815D01*
X158984494Y-52769463D01*
X158874180Y-52710498D01*
X158754482Y-52674188D01*
X158630000Y-52661928D01*
X156930000Y-52661928D01*
X156805518Y-52674188D01*
X156685820Y-52710498D01*
X156575506Y-52769463D01*
X156478815Y-52848815D01*
X156399463Y-52945506D01*
X156340498Y-53055820D01*
X156304188Y-53175518D01*
X156291928Y-53300000D01*
X153918043Y-53300000D01*
X153853475Y-53203368D01*
X153646632Y-52996525D01*
X153403411Y-52834010D01*
X153133158Y-52722068D01*
X152846260Y-52665000D01*
X152553740Y-52665000D01*
X152266842Y-52722068D01*
X151996589Y-52834010D01*
X151753368Y-52996525D01*
X151546525Y-53203368D01*
X151424805Y-53385534D01*
X151355178Y-53268645D01*
X151160269Y-53052412D01*
X150926920Y-52878359D01*
X150664099Y-52753175D01*
X150516890Y-52708524D01*
X150287000Y-52829845D01*
X150033000Y-52829845D01*
X149803110Y-52708524D01*
X149655901Y-52753175D01*
X149393080Y-52878359D01*
X149159731Y-53052412D01*
X148964822Y-53268645D01*
X148895195Y-53385534D01*
X148773475Y-53203368D01*
X148566632Y-52996525D01*
X148323411Y-52834010D01*
X148053158Y-52722068D01*
X147766260Y-52665000D01*
X147473740Y-52665000D01*
X147186842Y-52722068D01*
X146916589Y-52834010D01*
X146673368Y-52996525D01*
X146541513Y-53128380D01*
X146519502Y-53055820D01*
X146460537Y-52945506D01*
X146381185Y-52848815D01*
X146284494Y-52769463D01*
X146174180Y-52710498D01*
X146054482Y-52674188D01*
X145930000Y-52661928D01*
X144230000Y-52661928D01*
X144105518Y-52674188D01*
X143985820Y-52710498D01*
X143875506Y-52769463D01*
X143778815Y-52848815D01*
X143699463Y-52945506D01*
X143640498Y-53055820D01*
X143604188Y-53175518D01*
X143591928Y-53300000D01*
X141218043Y-53300000D01*
X141153475Y-53203368D01*
X140946632Y-52996525D01*
X140703411Y-52834010D01*
X140433158Y-52722068D01*
X140146260Y-52665000D01*
X139853740Y-52665000D01*
X139566842Y-52722068D01*
X139296589Y-52834010D01*
X139053368Y-52996525D01*
X138846525Y-53203368D01*
X138724805Y-53385534D01*
X138655178Y-53268645D01*
X138460269Y-53052412D01*
X138226920Y-52878359D01*
X137964099Y-52753175D01*
X137816890Y-52708524D01*
X137587000Y-52829845D01*
X137333000Y-52829845D01*
X137103110Y-52708524D01*
X136955901Y-52753175D01*
X136693080Y-52878359D01*
X136459731Y-53052412D01*
X136264822Y-53268645D01*
X136195195Y-53385534D01*
X136073475Y-53203368D01*
X135866632Y-52996525D01*
X135623411Y-52834010D01*
X135353158Y-52722068D01*
X135066260Y-52665000D01*
X134773740Y-52665000D01*
X134486842Y-52722068D01*
X134216589Y-52834010D01*
X133973368Y-52996525D01*
X133841513Y-53128380D01*
X133819502Y-53055820D01*
X133760537Y-52945506D01*
X133681185Y-52848815D01*
X133584494Y-52769463D01*
X133474180Y-52710498D01*
X133354482Y-52674188D01*
X133230000Y-52661928D01*
X131530000Y-52661928D01*
X131405518Y-52674188D01*
X131285820Y-52710498D01*
X131175506Y-52769463D01*
X131078815Y-52848815D01*
X130999463Y-52945506D01*
X130940498Y-53055820D01*
X130904188Y-53175518D01*
X130891928Y-53300000D01*
X128518043Y-53300000D01*
X128453475Y-53203368D01*
X128246632Y-52996525D01*
X128003411Y-52834010D01*
X127733158Y-52722068D01*
X127446260Y-52665000D01*
X127153740Y-52665000D01*
X126866842Y-52722068D01*
X126596589Y-52834010D01*
X126353368Y-52996525D01*
X126146525Y-53203368D01*
X126024805Y-53385534D01*
X125955178Y-53268645D01*
X125760269Y-53052412D01*
X125526920Y-52878359D01*
X125264099Y-52753175D01*
X125116890Y-52708524D01*
X124887000Y-52829845D01*
X124633000Y-52829845D01*
X124403110Y-52708524D01*
X124255901Y-52753175D01*
X123993080Y-52878359D01*
X123759731Y-53052412D01*
X123564822Y-53268645D01*
X123495195Y-53385534D01*
X123373475Y-53203368D01*
X123166632Y-52996525D01*
X122923411Y-52834010D01*
X122653158Y-52722068D01*
X122366260Y-52665000D01*
X122073740Y-52665000D01*
X121786842Y-52722068D01*
X121516589Y-52834010D01*
X121273368Y-52996525D01*
X121141513Y-53128380D01*
X121119502Y-53055820D01*
X121060537Y-52945506D01*
X120981185Y-52848815D01*
X120884494Y-52769463D01*
X120774180Y-52710498D01*
X120654482Y-52674188D01*
X120530000Y-52661928D01*
X118830000Y-52661928D01*
X118705518Y-52674188D01*
X118585820Y-52710498D01*
X118475506Y-52769463D01*
X118378815Y-52848815D01*
X118299463Y-52945506D01*
X118240498Y-53055820D01*
X118204188Y-53175518D01*
X118191928Y-53300000D01*
X115818043Y-53300000D01*
X115753475Y-53203368D01*
X115546632Y-52996525D01*
X115303411Y-52834010D01*
X115033158Y-52722068D01*
X114746260Y-52665000D01*
X114453740Y-52665000D01*
X114166842Y-52722068D01*
X113896589Y-52834010D01*
X113653368Y-52996525D01*
X113446525Y-53203368D01*
X113324805Y-53385534D01*
X113255178Y-53268645D01*
X113060269Y-53052412D01*
X112826920Y-52878359D01*
X112564099Y-52753175D01*
X112416890Y-52708524D01*
X112187000Y-52829845D01*
X111933000Y-52829845D01*
X111703110Y-52708524D01*
X111555901Y-52753175D01*
X111293080Y-52878359D01*
X111059731Y-53052412D01*
X110864822Y-53268645D01*
X110795195Y-53385534D01*
X110673475Y-53203368D01*
X110466632Y-52996525D01*
X110223411Y-52834010D01*
X109953158Y-52722068D01*
X109666260Y-52665000D01*
X109373740Y-52665000D01*
X109086842Y-52722068D01*
X108816589Y-52834010D01*
X108573368Y-52996525D01*
X108441513Y-53128380D01*
X108419502Y-53055820D01*
X108360537Y-52945506D01*
X108281185Y-52848815D01*
X108184494Y-52769463D01*
X108074180Y-52710498D01*
X107954482Y-52674188D01*
X107830000Y-52661928D01*
X106130000Y-52661928D01*
X106005518Y-52674188D01*
X105885820Y-52710498D01*
X105775506Y-52769463D01*
X105678815Y-52848815D01*
X105599463Y-52945506D01*
X105540498Y-53055820D01*
X105504188Y-53175518D01*
X105491928Y-53300000D01*
X103388072Y-53300000D01*
X103375812Y-53175518D01*
X103339502Y-53055820D01*
X103280537Y-52945506D01*
X103201185Y-52848815D01*
X103104494Y-52769463D01*
X102994180Y-52710498D01*
X102874482Y-52674188D01*
X102750000Y-52661928D01*
X102185750Y-52665000D01*
X102027000Y-52823750D01*
X101773000Y-52823750D01*
X101614250Y-52665000D01*
X101050000Y-52661928D01*
X100925518Y-52674188D01*
X100805820Y-52710498D01*
X100695506Y-52769463D01*
X100695000Y-52769878D01*
X100695000Y-50695000D01*
X179305000Y-50695000D01*
X179305000Y-53280481D01*
M02*
