M48
; DRILL file {KiCad 5.1.5+dfsg1-2build2} date Sun 10 Jan 2021 12:40:48 PM PST
; FORMAT={-:-/ absolute / inch / decimal}
; #@! TF.CreationDate,2021-01-10T12:40:48-08:00
; #@! TF.GenerationSoftware,Kicad,Pcbnew,5.1.5+dfsg1-2build2
FMAT,2
INCH
T1C0.0177
T2C0.0394
%
G90
G05
T1
X4.62Y-3.09
X4.63Y-2.87
X4.64Y-3.02
X4.7566Y-2.7754
X4.943Y-2.687
X5.121Y-2.483
X5.15Y-2.31
X5.16Y-2.4
X5.17Y-2.757
X5.2042Y-2.4258
X5.25Y-2.4018
X5.29Y-2.43
X5.291Y-2.7633
X5.3323Y-2.4205
X5.381Y-3.023
X5.4201Y-2.4403
X5.4227Y-2.5133
X5.4801Y-2.44
X5.49Y-2.97
X5.49Y-3.08
X5.53Y-2.46
X5.55Y-2.92
X5.5978Y-2.9222
X5.7129Y-2.59
X5.7476Y-2.6201
X5.75Y-2.389
X5.75Y-2.67
X5.75Y-2.9
X5.795Y-2.8023
X5.81Y-2.89
X5.812Y-2.282
X5.89Y-2.38
X5.927Y-3.11
X6.06Y-2.52
X6.21Y-2.42
X6.23Y-2.78
X6.25Y-2.45
X6.255Y-3.108
X6.34Y-2.78
X6.41Y-2.84
T2
X5.2118Y-2.1319
X5.3118Y-2.1319
X5.4118Y-2.1319
X5.5118Y-2.1319
X4.0118Y-2.1319
X4.0118Y-2.2319
X4.7118Y-2.1319
X4.8118Y-2.1319
X4.9118Y-2.1319
X5.0118Y-2.1319
X6.7118Y-2.1319
X6.8118Y-2.1319
X6.9118Y-2.1319
X7.0118Y-2.1319
X5.9987Y-2.6478
X5.9987Y-2.7478
X5.9987Y-2.8478
X6.0987Y-2.6478
X6.0987Y-2.7478
X6.0987Y-2.8478
X4.3568Y-2.4426
X4.3568Y-2.5426
X6.6755Y-2.4265
X6.6755Y-2.5265
X6.6755Y-2.6265
X4.2118Y-2.1319
X4.3118Y-2.1319
X4.4118Y-2.1319
X4.5118Y-2.1319
X6.6755Y-2.8265
X6.6755Y-2.9265
X6.6755Y-3.0265
X6.6755Y-3.1265
X6.2118Y-2.1319
X6.3118Y-2.1319
X6.4118Y-2.1319
X6.5118Y-2.1319
X4.3568Y-3.0426
X4.3568Y-3.1426
X4.3568Y-2.7426
X4.3568Y-2.8426
X5.7118Y-2.1319
X5.8118Y-2.1319
X5.9118Y-2.1319
X6.0118Y-2.1319
T0
M30
