G04 #@! TF.GenerationSoftware,KiCad,Pcbnew,5.1.5+dfsg1-2build2*
G04 #@! TF.CreationDate,2021-01-10T12:40:40-08:00*
G04 #@! TF.ProjectId,board,626f6172-642e-46b6-9963-61645f706362,rev?*
G04 #@! TF.SameCoordinates,Original*
G04 #@! TF.FileFunction,Copper,L4,Bot*
G04 #@! TF.FilePolarity,Positive*
%FSLAX46Y46*%
G04 Gerber Fmt 4.6, Leading zero omitted, Abs format (unit mm)*
G04 Created by KiCad (PCBNEW 5.1.5+dfsg1-2build2) date 2021-01-10 12:40:40*
%MOMM*%
%LPD*%
G04 APERTURE LIST*
%ADD10R,1.700000X1.700000*%
%ADD11O,1.700000X1.700000*%
%ADD12C,0.900000*%
%ADD13C,0.250000*%
%ADD14C,0.500000*%
G04 APERTURE END LIST*
D10*
X169557700Y-71793100D03*
D11*
X169557700Y-74333100D03*
X169557700Y-76873100D03*
X169557700Y-79413100D03*
D10*
X152366000Y-67254000D03*
D11*
X154906000Y-67254000D03*
X152366000Y-69794000D03*
X154906000Y-69794000D03*
X152366000Y-72334000D03*
X154906000Y-72334000D03*
D10*
X157780000Y-54150000D03*
D11*
X160320000Y-54150000D03*
X162860000Y-54150000D03*
X165400000Y-54150000D03*
D10*
X110662500Y-64583200D03*
D11*
X110662500Y-62043200D03*
D10*
X106980000Y-54150000D03*
D11*
X109520000Y-54150000D03*
X112060000Y-54150000D03*
X114600000Y-54150000D03*
D10*
X170480000Y-54150000D03*
D11*
X173020000Y-54150000D03*
X175560000Y-54150000D03*
X178100000Y-54150000D03*
D10*
X101900000Y-54150000D03*
D11*
X101900000Y-56690000D03*
X110662500Y-77283200D03*
D10*
X110662500Y-79823200D03*
X110662500Y-72203200D03*
D11*
X110662500Y-69663200D03*
D10*
X119680000Y-54150000D03*
D11*
X122220000Y-54150000D03*
X124760000Y-54150000D03*
X127300000Y-54150000D03*
X140000000Y-54150000D03*
X137460000Y-54150000D03*
X134920000Y-54150000D03*
D10*
X132380000Y-54150000D03*
X145080000Y-54150000D03*
D11*
X147620000Y-54150000D03*
X150160000Y-54150000D03*
X152700000Y-54150000D03*
D10*
X169557700Y-61633100D03*
D11*
X169557700Y-64173100D03*
X169557700Y-66713100D03*
D12*
X142183637Y-74224363D03*
X162814000Y-72136000D03*
X147574000Y-73406000D03*
X145989424Y-66549284D03*
X139446000Y-75438000D03*
X137669334Y-61983827D03*
X150545800Y-78994000D03*
X131318000Y-70027800D03*
X130073400Y-63068200D03*
X146050000Y-67818000D03*
X157734000Y-61468000D03*
X135439276Y-61481000D03*
X158242000Y-70612000D03*
X134366000Y-61722000D03*
X158750000Y-62230000D03*
X140462000Y-62484000D03*
X117348000Y-78486000D03*
X139446000Y-78232000D03*
X147193000Y-71177492D03*
X146050000Y-60680600D03*
X133350000Y-61005591D03*
X131064000Y-60960000D03*
X130810000Y-58674000D03*
X147624800Y-57962800D03*
X132186757Y-61615243D03*
X140970000Y-74168000D03*
X153924000Y-64008000D03*
X146050000Y-73660000D03*
X161036000Y-70612000D03*
X136677400Y-76784200D03*
X117856000Y-76708000D03*
X149606000Y-60452000D03*
X145108507Y-65785990D03*
X139193294Y-61976063D03*
X158877000Y-78943200D03*
X134391400Y-70187095D03*
X117602000Y-72898000D03*
X120817008Y-70495792D03*
X137735665Y-63838735D03*
X125552200Y-68249800D03*
D13*
X148041892Y-68009892D02*
X152366000Y-72334000D01*
X147066000Y-68009892D02*
X148041892Y-68009892D01*
X146874108Y-67818000D02*
X147066000Y-68009892D01*
X146050000Y-67818000D02*
X146874108Y-67818000D01*
X142802630Y-61976000D02*
X146812000Y-61976000D01*
X142013315Y-61186685D02*
X142802630Y-61976000D01*
X146671630Y-61976000D02*
X146812000Y-61976000D01*
X157226000Y-61976000D02*
X146812000Y-61976000D01*
X157734000Y-61468000D02*
X157226000Y-61976000D01*
X135439515Y-61156485D02*
X136594485Y-61156485D01*
X135439276Y-61156724D02*
X135439515Y-61156485D01*
X135439276Y-61481000D02*
X135439276Y-61156724D01*
X136652000Y-61214000D02*
X142013315Y-61186685D01*
X136594485Y-61156485D02*
X136652000Y-61214000D01*
X136679315Y-61186685D02*
X136652000Y-61214000D01*
X158138999Y-73509001D02*
X158242000Y-73406000D01*
X149775309Y-73509001D02*
X158138999Y-73509001D01*
X149775309Y-72279909D02*
X149775309Y-73509001D01*
X134366000Y-61722000D02*
X135707734Y-63063734D01*
X138099800Y-77292200D02*
X138264599Y-77456999D01*
X158242000Y-73406000D02*
X158242000Y-70612000D01*
X135707734Y-63063734D02*
X138107666Y-63063734D01*
X139065000Y-68584002D02*
X138099800Y-69549202D01*
X139065000Y-64021068D02*
X139065000Y-68584002D01*
X143985654Y-71812746D02*
X145897600Y-69900800D01*
X138099800Y-69549202D02*
X138099800Y-77292200D01*
X138107666Y-63063734D02*
X139065000Y-64021068D01*
X138264599Y-77456999D02*
X140346591Y-77456999D01*
X143985654Y-73817936D02*
X143985654Y-71812746D01*
X140346591Y-77456999D02*
X143985654Y-73817936D01*
X145897600Y-69900800D02*
X147396200Y-69900800D01*
X147396200Y-69900800D02*
X149775309Y-72279909D01*
X140679001Y-62701001D02*
X140462000Y-62484000D01*
X158278999Y-62701001D02*
X140679001Y-62701001D01*
X158750000Y-62230000D02*
X158278999Y-62701001D01*
X140208000Y-78232000D02*
X139446000Y-78232000D01*
X146816653Y-71623347D02*
X140208000Y-78232000D01*
X146816653Y-71553839D02*
X146816653Y-71623347D01*
X147193000Y-71177492D02*
X146816653Y-71553839D01*
X133986396Y-61005591D02*
X134285987Y-60706000D01*
X133350000Y-61005591D02*
X133986396Y-61005591D01*
X134285987Y-60706000D02*
X136144000Y-60706000D01*
X136144000Y-60706000D02*
X136105900Y-60680600D01*
X146050000Y-60680600D02*
X136144000Y-60706000D01*
X131064000Y-58928000D02*
X130810000Y-58674000D01*
X131064000Y-60960000D02*
X131064000Y-58928000D01*
X145357010Y-60230590D02*
X147624800Y-57962800D01*
X132186757Y-60978847D02*
X132935013Y-60230591D01*
X132935013Y-60230591D02*
X145357010Y-60230590D01*
X132186757Y-61615243D02*
X132186757Y-60978847D01*
X140970000Y-73602315D02*
X140970000Y-74168000D01*
X140970000Y-68828481D02*
X140970000Y-73602315D01*
X145790481Y-64008000D02*
X140970000Y-68828481D01*
X153924000Y-64008000D02*
X145790481Y-64008000D01*
D14*
X118414800Y-72898000D02*
X120817008Y-70495792D01*
X117602000Y-72898000D02*
X118414800Y-72898000D01*
D13*
X137735665Y-63838735D02*
X135373465Y-63838735D01*
X130962400Y-68249800D02*
X125552200Y-68249800D01*
X135373465Y-63838735D02*
X130962400Y-68249800D01*
M02*
